<?xml version="1.0" encoding="utf-8" standalone="no"?>
<!DOCTYPE svg PUBLIC "-//W3C//DTD SVG 1.1//EN"
  "http://www.w3.org/Graphics/SVG/1.1/DTD/svg11.dtd">
<svg xmlns:xlink="http://www.w3.org/1999/xlink" width="1440pt" height="720pt" viewBox="0 0 1440 720" xmlns="http://www.w3.org/2000/svg" version="1.1">
 <metadata>
  <rdf:RDF xmlns:dc="http://purl.org/dc/elements/1.1/" xmlns:cc="http://creativecommons.org/ns#" xmlns:rdf="http://www.w3.org/1999/02/22-rdf-syntax-ns#">
   <cc:Work>
    <dc:type rdf:resource="http://purl.org/dc/dcmitype/StillImage"/>
    <dc:date>2024-06-21T13:16:58.994881</dc:date>
    <dc:format>image/svg+xml</dc:format>
    <dc:creator>
     <cc:Agent>
      <dc:title>Matplotlib v3.8.2, https://matplotlib.org/</dc:title>
     </cc:Agent>
    </dc:creator>
   </cc:Work>
  </rdf:RDF>
 </metadata>
 <defs>
  <style type="text/css">*{stroke-linejoin: round; stroke-linecap: butt}</style>
 </defs>
 <g id="figure_1">
  <g id="patch_1">
   <path d="M 0 720 
L 1440 720 
L 1440 0 
L 0 0 
z
" style="fill: #ffffff"/>
  </g>
  <g id="axes_1">
   <g id="patch_2">
    <path d="M 180 640.8 
L 1296 640.8 
L 1296 86.4 
L 180 86.4 
z
" style="fill: #ffffff"/>
   </g>
   <g id="matplotlib.axis_1">
    <g id="xtick_1">
     <g id="text_1">
      <!-- 2022-08 -->
      <g style="fill: #262626" transform="translate(212.379616 654.957813) scale(0.1 -0.1)">
       <defs>
        <path id="ArialMT-32" d="M 3222 541 
L 3222 0 
L 194 0 
Q 188 203 259 391 
Q 375 700 629 1000 
Q 884 1300 1366 1694 
Q 2113 2306 2375 2664 
Q 2638 3022 2638 3341 
Q 2638 3675 2398 3904 
Q 2159 4134 1775 4134 
Q 1369 4134 1125 3890 
Q 881 3647 878 3216 
L 300 3275 
Q 359 3922 746 4261 
Q 1134 4600 1788 4600 
Q 2447 4600 2831 4234 
Q 3216 3869 3216 3328 
Q 3216 3053 3103 2787 
Q 2991 2522 2730 2228 
Q 2469 1934 1863 1422 
Q 1356 997 1212 845 
Q 1069 694 975 541 
L 3222 541 
z
" transform="scale(0.015625)"/>
        <path id="ArialMT-30" d="M 266 2259 
Q 266 3072 433 3567 
Q 600 4063 929 4331 
Q 1259 4600 1759 4600 
Q 2128 4600 2406 4451 
Q 2684 4303 2865 4023 
Q 3047 3744 3150 3342 
Q 3253 2941 3253 2259 
Q 3253 1453 3087 958 
Q 2922 463 2592 192 
Q 2263 -78 1759 -78 
Q 1097 -78 719 397 
Q 266 969 266 2259 
z
M 844 2259 
Q 844 1131 1108 757 
Q 1372 384 1759 384 
Q 2147 384 2411 759 
Q 2675 1134 2675 2259 
Q 2675 3391 2411 3762 
Q 2147 4134 1753 4134 
Q 1366 4134 1134 3806 
Q 844 3388 844 2259 
z
" transform="scale(0.015625)"/>
        <path id="ArialMT-2d" d="M 203 1375 
L 203 1941 
L 1931 1941 
L 1931 1375 
L 203 1375 
z
" transform="scale(0.015625)"/>
        <path id="ArialMT-38" d="M 1131 2484 
Q 781 2613 612 2850 
Q 444 3088 444 3419 
Q 444 3919 803 4259 
Q 1163 4600 1759 4600 
Q 2359 4600 2725 4251 
Q 3091 3903 3091 3403 
Q 3091 3084 2923 2848 
Q 2756 2613 2416 2484 
Q 2838 2347 3058 2040 
Q 3278 1734 3278 1309 
Q 3278 722 2862 322 
Q 2447 -78 1769 -78 
Q 1091 -78 675 323 
Q 259 725 259 1325 
Q 259 1772 486 2073 
Q 713 2375 1131 2484 
z
M 1019 3438 
Q 1019 3113 1228 2906 
Q 1438 2700 1772 2700 
Q 2097 2700 2305 2904 
Q 2513 3109 2513 3406 
Q 2513 3716 2298 3927 
Q 2084 4138 1766 4138 
Q 1444 4138 1231 3931 
Q 1019 3725 1019 3438 
z
M 838 1322 
Q 838 1081 952 856 
Q 1066 631 1291 507 
Q 1516 384 1775 384 
Q 2178 384 2440 643 
Q 2703 903 2703 1303 
Q 2703 1709 2433 1975 
Q 2163 2241 1756 2241 
Q 1359 2241 1098 1978 
Q 838 1716 838 1322 
z
" transform="scale(0.015625)"/>
       </defs>
       <use xlink:href="#ArialMT-32"/>
       <use xlink:href="#ArialMT-30" x="55.615234"/>
       <use xlink:href="#ArialMT-32" x="111.230469"/>
       <use xlink:href="#ArialMT-32" x="166.845703"/>
       <use xlink:href="#ArialMT-2d" x="222.460938"/>
       <use xlink:href="#ArialMT-30" x="255.761719"/>
       <use xlink:href="#ArialMT-38" x="311.376953"/>
      </g>
     </g>
    </g>
    <g id="xtick_2"/>
    <g id="xtick_3"/>
    <g id="xtick_4"/>
    <g id="xtick_5">
     <g id="text_2">
      <!-- 2022-12 -->
      <g style="fill: #262626" transform="translate(271.193846 654.957813) scale(0.1 -0.1)">
       <defs>
        <path id="ArialMT-31" d="M 2384 0 
L 1822 0 
L 1822 3584 
Q 1619 3391 1289 3197 
Q 959 3003 697 2906 
L 697 3450 
Q 1169 3672 1522 3987 
Q 1875 4303 2022 4600 
L 2384 4600 
L 2384 0 
z
" transform="scale(0.015625)"/>
       </defs>
       <use xlink:href="#ArialMT-32"/>
       <use xlink:href="#ArialMT-30" x="55.615234"/>
       <use xlink:href="#ArialMT-32" x="111.230469"/>
       <use xlink:href="#ArialMT-32" x="166.845703"/>
       <use xlink:href="#ArialMT-2d" x="222.460938"/>
       <use xlink:href="#ArialMT-31" x="255.761719"/>
       <use xlink:href="#ArialMT-32" x="311.376953"/>
      </g>
     </g>
    </g>
    <g id="xtick_6"/>
    <g id="xtick_7"/>
    <g id="xtick_8"/>
    <g id="xtick_9">
     <g id="text_3">
      <!-- 2022-16 -->
      <g style="fill: #262626" transform="translate(330.008075 654.957813) scale(0.1 -0.1)">
       <defs>
        <path id="ArialMT-36" d="M 3184 3459 
L 2625 3416 
Q 2550 3747 2413 3897 
Q 2184 4138 1850 4138 
Q 1581 4138 1378 3988 
Q 1113 3794 959 3422 
Q 806 3050 800 2363 
Q 1003 2672 1297 2822 
Q 1591 2972 1913 2972 
Q 2475 2972 2870 2558 
Q 3266 2144 3266 1488 
Q 3266 1056 3080 686 
Q 2894 316 2569 119 
Q 2244 -78 1831 -78 
Q 1128 -78 684 439 
Q 241 956 241 2144 
Q 241 3472 731 4075 
Q 1159 4600 1884 4600 
Q 2425 4600 2770 4297 
Q 3116 3994 3184 3459 
z
M 888 1484 
Q 888 1194 1011 928 
Q 1134 663 1356 523 
Q 1578 384 1822 384 
Q 2178 384 2434 671 
Q 2691 959 2691 1453 
Q 2691 1928 2437 2201 
Q 2184 2475 1800 2475 
Q 1419 2475 1153 2201 
Q 888 1928 888 1484 
z
" transform="scale(0.015625)"/>
       </defs>
       <use xlink:href="#ArialMT-32"/>
       <use xlink:href="#ArialMT-30" x="55.615234"/>
       <use xlink:href="#ArialMT-32" x="111.230469"/>
       <use xlink:href="#ArialMT-32" x="166.845703"/>
       <use xlink:href="#ArialMT-2d" x="222.460938"/>
       <use xlink:href="#ArialMT-31" x="255.761719"/>
       <use xlink:href="#ArialMT-36" x="311.376953"/>
      </g>
     </g>
    </g>
    <g id="xtick_10"/>
    <g id="xtick_11"/>
    <g id="xtick_12"/>
    <g id="xtick_13">
     <g id="text_4">
      <!-- 2022-20 -->
      <g style="fill: #262626" transform="translate(388.822304 654.957813) scale(0.1 -0.1)">
       <use xlink:href="#ArialMT-32"/>
       <use xlink:href="#ArialMT-30" x="55.615234"/>
       <use xlink:href="#ArialMT-32" x="111.230469"/>
       <use xlink:href="#ArialMT-32" x="166.845703"/>
       <use xlink:href="#ArialMT-2d" x="222.460938"/>
       <use xlink:href="#ArialMT-32" x="255.761719"/>
       <use xlink:href="#ArialMT-30" x="311.376953"/>
      </g>
     </g>
    </g>
    <g id="xtick_14"/>
    <g id="xtick_15"/>
    <g id="xtick_16"/>
    <g id="xtick_17">
     <g id="text_5">
      <!-- 2022-24 -->
      <g style="fill: #262626" transform="translate(447.636533 654.957813) scale(0.1 -0.1)">
       <defs>
        <path id="ArialMT-34" d="M 2069 0 
L 2069 1097 
L 81 1097 
L 81 1613 
L 2172 4581 
L 2631 4581 
L 2631 1613 
L 3250 1613 
L 3250 1097 
L 2631 1097 
L 2631 0 
L 2069 0 
z
M 2069 1613 
L 2069 3678 
L 634 1613 
L 2069 1613 
z
" transform="scale(0.015625)"/>
       </defs>
       <use xlink:href="#ArialMT-32"/>
       <use xlink:href="#ArialMT-30" x="55.615234"/>
       <use xlink:href="#ArialMT-32" x="111.230469"/>
       <use xlink:href="#ArialMT-32" x="166.845703"/>
       <use xlink:href="#ArialMT-2d" x="222.460938"/>
       <use xlink:href="#ArialMT-32" x="255.761719"/>
       <use xlink:href="#ArialMT-34" x="311.376953"/>
      </g>
     </g>
    </g>
    <g id="xtick_18"/>
    <g id="xtick_19"/>
    <g id="xtick_20"/>
    <g id="xtick_21">
     <g id="text_6">
      <!-- 2022-28 -->
      <g style="fill: #262626" transform="translate(506.450763 654.957813) scale(0.1 -0.1)">
       <use xlink:href="#ArialMT-32"/>
       <use xlink:href="#ArialMT-30" x="55.615234"/>
       <use xlink:href="#ArialMT-32" x="111.230469"/>
       <use xlink:href="#ArialMT-32" x="166.845703"/>
       <use xlink:href="#ArialMT-2d" x="222.460938"/>
       <use xlink:href="#ArialMT-32" x="255.761719"/>
       <use xlink:href="#ArialMT-38" x="311.376953"/>
      </g>
     </g>
    </g>
    <g id="xtick_22"/>
    <g id="xtick_23"/>
    <g id="xtick_24"/>
    <g id="xtick_25">
     <g id="text_7">
      <!-- 2022-32 -->
      <g style="fill: #262626" transform="translate(565.264992 654.957813) scale(0.1 -0.1)">
       <defs>
        <path id="ArialMT-33" d="M 269 1209 
L 831 1284 
Q 928 806 1161 595 
Q 1394 384 1728 384 
Q 2125 384 2398 659 
Q 2672 934 2672 1341 
Q 2672 1728 2419 1979 
Q 2166 2231 1775 2231 
Q 1616 2231 1378 2169 
L 1441 2663 
Q 1497 2656 1531 2656 
Q 1891 2656 2178 2843 
Q 2466 3031 2466 3422 
Q 2466 3731 2256 3934 
Q 2047 4138 1716 4138 
Q 1388 4138 1169 3931 
Q 950 3725 888 3313 
L 325 3413 
Q 428 3978 793 4289 
Q 1159 4600 1703 4600 
Q 2078 4600 2393 4439 
Q 2709 4278 2876 4000 
Q 3044 3722 3044 3409 
Q 3044 3113 2884 2869 
Q 2725 2625 2413 2481 
Q 2819 2388 3044 2092 
Q 3269 1797 3269 1353 
Q 3269 753 2831 336 
Q 2394 -81 1725 -81 
Q 1122 -81 723 278 
Q 325 638 269 1209 
z
" transform="scale(0.015625)"/>
       </defs>
       <use xlink:href="#ArialMT-32"/>
       <use xlink:href="#ArialMT-30" x="55.615234"/>
       <use xlink:href="#ArialMT-32" x="111.230469"/>
       <use xlink:href="#ArialMT-32" x="166.845703"/>
       <use xlink:href="#ArialMT-2d" x="222.460938"/>
       <use xlink:href="#ArialMT-33" x="255.761719"/>
       <use xlink:href="#ArialMT-32" x="311.376953"/>
      </g>
     </g>
    </g>
    <g id="xtick_26"/>
    <g id="xtick_27"/>
    <g id="xtick_28"/>
    <g id="xtick_29">
     <g id="text_8">
      <!-- 2022-36 -->
      <g style="fill: #262626" transform="translate(624.079221 654.957813) scale(0.1 -0.1)">
       <use xlink:href="#ArialMT-32"/>
       <use xlink:href="#ArialMT-30" x="55.615234"/>
       <use xlink:href="#ArialMT-32" x="111.230469"/>
       <use xlink:href="#ArialMT-32" x="166.845703"/>
       <use xlink:href="#ArialMT-2d" x="222.460938"/>
       <use xlink:href="#ArialMT-33" x="255.761719"/>
       <use xlink:href="#ArialMT-36" x="311.376953"/>
      </g>
     </g>
    </g>
    <g id="xtick_30"/>
    <g id="xtick_31"/>
    <g id="xtick_32"/>
    <g id="xtick_33">
     <g id="text_9">
      <!-- 2022-40 -->
      <g style="fill: #262626" transform="translate(682.89345 654.957813) scale(0.1 -0.1)">
       <use xlink:href="#ArialMT-32"/>
       <use xlink:href="#ArialMT-30" x="55.615234"/>
       <use xlink:href="#ArialMT-32" x="111.230469"/>
       <use xlink:href="#ArialMT-32" x="166.845703"/>
       <use xlink:href="#ArialMT-2d" x="222.460938"/>
       <use xlink:href="#ArialMT-34" x="255.761719"/>
       <use xlink:href="#ArialMT-30" x="311.376953"/>
      </g>
     </g>
    </g>
    <g id="xtick_34"/>
    <g id="xtick_35"/>
    <g id="xtick_36"/>
    <g id="xtick_37">
     <g id="text_10">
      <!-- 2022-44 -->
      <g style="fill: #262626" transform="translate(741.70768 654.957813) scale(0.1 -0.1)">
       <use xlink:href="#ArialMT-32"/>
       <use xlink:href="#ArialMT-30" x="55.615234"/>
       <use xlink:href="#ArialMT-32" x="111.230469"/>
       <use xlink:href="#ArialMT-32" x="166.845703"/>
       <use xlink:href="#ArialMT-2d" x="222.460938"/>
       <use xlink:href="#ArialMT-34" x="255.761719"/>
       <use xlink:href="#ArialMT-34" x="311.376953"/>
      </g>
     </g>
    </g>
    <g id="xtick_38"/>
    <g id="xtick_39"/>
    <g id="xtick_40"/>
    <g id="xtick_41">
     <g id="text_11">
      <!-- 2022-48 -->
      <g style="fill: #262626" transform="translate(800.521909 654.957813) scale(0.1 -0.1)">
       <use xlink:href="#ArialMT-32"/>
       <use xlink:href="#ArialMT-30" x="55.615234"/>
       <use xlink:href="#ArialMT-32" x="111.230469"/>
       <use xlink:href="#ArialMT-32" x="166.845703"/>
       <use xlink:href="#ArialMT-2d" x="222.460938"/>
       <use xlink:href="#ArialMT-34" x="255.761719"/>
       <use xlink:href="#ArialMT-38" x="311.376953"/>
      </g>
     </g>
    </g>
    <g id="xtick_42"/>
    <g id="xtick_43"/>
    <g id="xtick_44"/>
    <g id="xtick_45">
     <g id="text_12">
      <!-- 2022-52 -->
      <g style="fill: #262626" transform="translate(859.336138 654.957813) scale(0.1 -0.1)">
       <defs>
        <path id="ArialMT-35" d="M 266 1200 
L 856 1250 
Q 922 819 1161 601 
Q 1400 384 1738 384 
Q 2144 384 2425 690 
Q 2706 997 2706 1503 
Q 2706 1984 2436 2262 
Q 2166 2541 1728 2541 
Q 1456 2541 1237 2417 
Q 1019 2294 894 2097 
L 366 2166 
L 809 4519 
L 3088 4519 
L 3088 3981 
L 1259 3981 
L 1013 2750 
Q 1425 3038 1878 3038 
Q 2478 3038 2890 2622 
Q 3303 2206 3303 1553 
Q 3303 931 2941 478 
Q 2500 -78 1738 -78 
Q 1113 -78 717 272 
Q 322 622 266 1200 
z
" transform="scale(0.015625)"/>
       </defs>
       <use xlink:href="#ArialMT-32"/>
       <use xlink:href="#ArialMT-30" x="55.615234"/>
       <use xlink:href="#ArialMT-32" x="111.230469"/>
       <use xlink:href="#ArialMT-32" x="166.845703"/>
       <use xlink:href="#ArialMT-2d" x="222.460938"/>
       <use xlink:href="#ArialMT-35" x="255.761719"/>
       <use xlink:href="#ArialMT-32" x="311.376953"/>
      </g>
     </g>
    </g>
    <g id="xtick_46"/>
    <g id="xtick_47"/>
    <g id="xtick_48"/>
    <g id="xtick_49">
     <g id="text_13">
      <!-- 2023-04 -->
      <g style="fill: #262626" transform="translate(918.150367 654.957813) scale(0.1 -0.1)">
       <use xlink:href="#ArialMT-32"/>
       <use xlink:href="#ArialMT-30" x="55.615234"/>
       <use xlink:href="#ArialMT-32" x="111.230469"/>
       <use xlink:href="#ArialMT-33" x="166.845703"/>
       <use xlink:href="#ArialMT-2d" x="222.460938"/>
       <use xlink:href="#ArialMT-30" x="255.761719"/>
       <use xlink:href="#ArialMT-34" x="311.376953"/>
      </g>
     </g>
    </g>
    <g id="xtick_50"/>
    <g id="xtick_51"/>
    <g id="xtick_52"/>
    <g id="xtick_53">
     <g id="text_14">
      <!-- 2023-08 -->
      <g style="fill: #262626" transform="translate(976.964597 654.957813) scale(0.1 -0.1)">
       <use xlink:href="#ArialMT-32"/>
       <use xlink:href="#ArialMT-30" x="55.615234"/>
       <use xlink:href="#ArialMT-32" x="111.230469"/>
       <use xlink:href="#ArialMT-33" x="166.845703"/>
       <use xlink:href="#ArialMT-2d" x="222.460938"/>
       <use xlink:href="#ArialMT-30" x="255.761719"/>
       <use xlink:href="#ArialMT-38" x="311.376953"/>
      </g>
     </g>
    </g>
    <g id="xtick_54"/>
    <g id="xtick_55"/>
    <g id="xtick_56"/>
    <g id="xtick_57">
     <g id="text_15">
      <!-- 2023-12 -->
      <g style="fill: #262626" transform="translate(1035.778826 654.957813) scale(0.1 -0.1)">
       <use xlink:href="#ArialMT-32"/>
       <use xlink:href="#ArialMT-30" x="55.615234"/>
       <use xlink:href="#ArialMT-32" x="111.230469"/>
       <use xlink:href="#ArialMT-33" x="166.845703"/>
       <use xlink:href="#ArialMT-2d" x="222.460938"/>
       <use xlink:href="#ArialMT-31" x="255.761719"/>
       <use xlink:href="#ArialMT-32" x="311.376953"/>
      </g>
     </g>
    </g>
    <g id="xtick_58"/>
    <g id="xtick_59"/>
    <g id="xtick_60"/>
    <g id="xtick_61">
     <g id="text_16">
      <!-- 2023-16 -->
      <g style="fill: #262626" transform="translate(1094.593055 654.957813) scale(0.1 -0.1)">
       <use xlink:href="#ArialMT-32"/>
       <use xlink:href="#ArialMT-30" x="55.615234"/>
       <use xlink:href="#ArialMT-32" x="111.230469"/>
       <use xlink:href="#ArialMT-33" x="166.845703"/>
       <use xlink:href="#ArialMT-2d" x="222.460938"/>
       <use xlink:href="#ArialMT-31" x="255.761719"/>
       <use xlink:href="#ArialMT-36" x="311.376953"/>
      </g>
     </g>
    </g>
    <g id="xtick_62"/>
    <g id="xtick_63"/>
    <g id="xtick_64"/>
    <g id="xtick_65">
     <g id="text_17">
      <!-- 2023-20 -->
      <g style="fill: #262626" transform="translate(1153.407284 654.957813) scale(0.1 -0.1)">
       <use xlink:href="#ArialMT-32"/>
       <use xlink:href="#ArialMT-30" x="55.615234"/>
       <use xlink:href="#ArialMT-32" x="111.230469"/>
       <use xlink:href="#ArialMT-33" x="166.845703"/>
       <use xlink:href="#ArialMT-2d" x="222.460938"/>
       <use xlink:href="#ArialMT-32" x="255.761719"/>
       <use xlink:href="#ArialMT-30" x="311.376953"/>
      </g>
     </g>
    </g>
    <g id="xtick_66"/>
    <g id="xtick_67"/>
    <g id="xtick_68"/>
    <g id="xtick_69">
     <g id="text_18">
      <!-- 2023-24 -->
      <g style="fill: #262626" transform="translate(1212.221514 654.957813) scale(0.1 -0.1)">
       <use xlink:href="#ArialMT-32"/>
       <use xlink:href="#ArialMT-30" x="55.615234"/>
       <use xlink:href="#ArialMT-32" x="111.230469"/>
       <use xlink:href="#ArialMT-33" x="166.845703"/>
       <use xlink:href="#ArialMT-2d" x="222.460938"/>
       <use xlink:href="#ArialMT-32" x="255.761719"/>
       <use xlink:href="#ArialMT-34" x="311.376953"/>
      </g>
     </g>
    </g>
    <g id="xtick_70"/>
   </g>
   <g id="matplotlib.axis_2">
    <g id="ytick_1">
     <g id="text_19">
      <!-- 8 -->
      <g style="fill: #262626" transform="translate(167.439063 643.921985) scale(0.1 -0.1)">
       <use xlink:href="#ArialMT-38"/>
      </g>
     </g>
    </g>
    <g id="ytick_2">
     <g id="text_20">
      <!-- 10 -->
      <g style="fill: #262626" transform="translate(161.878125 569.692749) scale(0.1 -0.1)">
       <use xlink:href="#ArialMT-31"/>
       <use xlink:href="#ArialMT-30" x="55.615234"/>
      </g>
     </g>
    </g>
    <g id="ytick_3">
     <g id="text_21">
      <!-- 12 -->
      <g style="fill: #262626" transform="translate(161.878125 495.463512) scale(0.1 -0.1)">
       <use xlink:href="#ArialMT-31"/>
       <use xlink:href="#ArialMT-32" x="55.615234"/>
      </g>
     </g>
    </g>
    <g id="ytick_4">
     <g id="text_22">
      <!-- 14 -->
      <g style="fill: #262626" transform="translate(161.878125 421.234275) scale(0.1 -0.1)">
       <use xlink:href="#ArialMT-31"/>
       <use xlink:href="#ArialMT-34" x="55.615234"/>
      </g>
     </g>
    </g>
    <g id="ytick_5">
     <g id="text_23">
      <!-- 16 -->
      <g style="fill: #262626" transform="translate(161.878125 347.005039) scale(0.1 -0.1)">
       <use xlink:href="#ArialMT-31"/>
       <use xlink:href="#ArialMT-36" x="55.615234"/>
      </g>
     </g>
    </g>
    <g id="ytick_6">
     <g id="text_24">
      <!-- 18 -->
      <g style="fill: #262626" transform="translate(161.878125 272.775802) scale(0.1 -0.1)">
       <use xlink:href="#ArialMT-31"/>
       <use xlink:href="#ArialMT-38" x="55.615234"/>
      </g>
     </g>
    </g>
    <g id="ytick_7">
     <g id="text_25">
      <!-- 20 -->
      <g style="fill: #262626" transform="translate(161.878125 198.546566) scale(0.1 -0.1)">
       <use xlink:href="#ArialMT-32"/>
       <use xlink:href="#ArialMT-30" x="55.615234"/>
      </g>
     </g>
    </g>
    <g id="ytick_8">
     <g id="text_26">
      <!-- 22 -->
      <g style="fill: #262626" transform="translate(161.878125 124.317329) scale(0.1 -0.1)">
       <use xlink:href="#ArialMT-32"/>
       <use xlink:href="#ArialMT-32" x="55.615234"/>
      </g>
     </g>
    </g>
    <g id="text_27">
     <!-- Mean Number of Lemmas per Tweet -->
     <g style="fill: #262626" transform="translate(155.890625 444.652344) rotate(-90) scale(0.1 -0.1)">
      <defs>
       <path id="ArialMT-4d" d="M 475 0 
L 475 4581 
L 1388 4581 
L 2472 1338 
Q 2622 884 2691 659 
Q 2769 909 2934 1394 
L 4031 4581 
L 4847 4581 
L 4847 0 
L 4263 0 
L 4263 3834 
L 2931 0 
L 2384 0 
L 1059 3900 
L 1059 0 
L 475 0 
z
" transform="scale(0.015625)"/>
       <path id="ArialMT-65" d="M 2694 1069 
L 3275 997 
Q 3138 488 2766 206 
Q 2394 -75 1816 -75 
Q 1088 -75 661 373 
Q 234 822 234 1631 
Q 234 2469 665 2931 
Q 1097 3394 1784 3394 
Q 2450 3394 2872 2941 
Q 3294 2488 3294 1666 
Q 3294 1616 3291 1516 
L 816 1516 
Q 847 969 1125 678 
Q 1403 388 1819 388 
Q 2128 388 2347 550 
Q 2566 713 2694 1069 
z
M 847 1978 
L 2700 1978 
Q 2663 2397 2488 2606 
Q 2219 2931 1791 2931 
Q 1403 2931 1139 2672 
Q 875 2413 847 1978 
z
" transform="scale(0.015625)"/>
       <path id="ArialMT-61" d="M 2588 409 
Q 2275 144 1986 34 
Q 1697 -75 1366 -75 
Q 819 -75 525 192 
Q 231 459 231 875 
Q 231 1119 342 1320 
Q 453 1522 633 1644 
Q 813 1766 1038 1828 
Q 1203 1872 1538 1913 
Q 2219 1994 2541 2106 
Q 2544 2222 2544 2253 
Q 2544 2597 2384 2738 
Q 2169 2928 1744 2928 
Q 1347 2928 1158 2789 
Q 969 2650 878 2297 
L 328 2372 
Q 403 2725 575 2942 
Q 747 3159 1072 3276 
Q 1397 3394 1825 3394 
Q 2250 3394 2515 3294 
Q 2781 3194 2906 3042 
Q 3031 2891 3081 2659 
Q 3109 2516 3109 2141 
L 3109 1391 
Q 3109 606 3145 398 
Q 3181 191 3288 0 
L 2700 0 
Q 2613 175 2588 409 
z
M 2541 1666 
Q 2234 1541 1622 1453 
Q 1275 1403 1131 1340 
Q 988 1278 909 1158 
Q 831 1038 831 891 
Q 831 666 1001 516 
Q 1172 366 1500 366 
Q 1825 366 2078 508 
Q 2331 650 2450 897 
Q 2541 1088 2541 1459 
L 2541 1666 
z
" transform="scale(0.015625)"/>
       <path id="ArialMT-6e" d="M 422 0 
L 422 3319 
L 928 3319 
L 928 2847 
Q 1294 3394 1984 3394 
Q 2284 3394 2536 3286 
Q 2788 3178 2913 3003 
Q 3038 2828 3088 2588 
Q 3119 2431 3119 2041 
L 3119 0 
L 2556 0 
L 2556 2019 
Q 2556 2363 2490 2533 
Q 2425 2703 2258 2804 
Q 2091 2906 1866 2906 
Q 1506 2906 1245 2678 
Q 984 2450 984 1813 
L 984 0 
L 422 0 
z
" transform="scale(0.015625)"/>
       <path id="ArialMT-20" transform="scale(0.015625)"/>
       <path id="ArialMT-4e" d="M 488 0 
L 488 4581 
L 1109 4581 
L 3516 984 
L 3516 4581 
L 4097 4581 
L 4097 0 
L 3475 0 
L 1069 3600 
L 1069 0 
L 488 0 
z
" transform="scale(0.015625)"/>
       <path id="ArialMT-75" d="M 2597 0 
L 2597 488 
Q 2209 -75 1544 -75 
Q 1250 -75 995 37 
Q 741 150 617 320 
Q 494 491 444 738 
Q 409 903 409 1263 
L 409 3319 
L 972 3319 
L 972 1478 
Q 972 1038 1006 884 
Q 1059 663 1231 536 
Q 1403 409 1656 409 
Q 1909 409 2131 539 
Q 2353 669 2445 892 
Q 2538 1116 2538 1541 
L 2538 3319 
L 3100 3319 
L 3100 0 
L 2597 0 
z
" transform="scale(0.015625)"/>
       <path id="ArialMT-6d" d="M 422 0 
L 422 3319 
L 925 3319 
L 925 2853 
Q 1081 3097 1340 3245 
Q 1600 3394 1931 3394 
Q 2300 3394 2536 3241 
Q 2772 3088 2869 2813 
Q 3263 3394 3894 3394 
Q 4388 3394 4653 3120 
Q 4919 2847 4919 2278 
L 4919 0 
L 4359 0 
L 4359 2091 
Q 4359 2428 4304 2576 
Q 4250 2725 4106 2815 
Q 3963 2906 3769 2906 
Q 3419 2906 3187 2673 
Q 2956 2441 2956 1928 
L 2956 0 
L 2394 0 
L 2394 2156 
Q 2394 2531 2256 2718 
Q 2119 2906 1806 2906 
Q 1569 2906 1367 2781 
Q 1166 2656 1075 2415 
Q 984 2175 984 1722 
L 984 0 
L 422 0 
z
" transform="scale(0.015625)"/>
       <path id="ArialMT-62" d="M 941 0 
L 419 0 
L 419 4581 
L 981 4581 
L 981 2947 
Q 1338 3394 1891 3394 
Q 2197 3394 2470 3270 
Q 2744 3147 2920 2923 
Q 3097 2700 3197 2384 
Q 3297 2069 3297 1709 
Q 3297 856 2875 390 
Q 2453 -75 1863 -75 
Q 1275 -75 941 416 
L 941 0 
z
M 934 1684 
Q 934 1088 1097 822 
Q 1363 388 1816 388 
Q 2184 388 2453 708 
Q 2722 1028 2722 1663 
Q 2722 2313 2464 2622 
Q 2206 2931 1841 2931 
Q 1472 2931 1203 2611 
Q 934 2291 934 1684 
z
" transform="scale(0.015625)"/>
       <path id="ArialMT-72" d="M 416 0 
L 416 3319 
L 922 3319 
L 922 2816 
Q 1116 3169 1280 3281 
Q 1444 3394 1641 3394 
Q 1925 3394 2219 3213 
L 2025 2691 
Q 1819 2813 1613 2813 
Q 1428 2813 1281 2702 
Q 1134 2591 1072 2394 
Q 978 2094 978 1738 
L 978 0 
L 416 0 
z
" transform="scale(0.015625)"/>
       <path id="ArialMT-6f" d="M 213 1659 
Q 213 2581 725 3025 
Q 1153 3394 1769 3394 
Q 2453 3394 2887 2945 
Q 3322 2497 3322 1706 
Q 3322 1066 3130 698 
Q 2938 331 2570 128 
Q 2203 -75 1769 -75 
Q 1072 -75 642 372 
Q 213 819 213 1659 
z
M 791 1659 
Q 791 1022 1069 705 
Q 1347 388 1769 388 
Q 2188 388 2466 706 
Q 2744 1025 2744 1678 
Q 2744 2294 2464 2611 
Q 2184 2928 1769 2928 
Q 1347 2928 1069 2612 
Q 791 2297 791 1659 
z
" transform="scale(0.015625)"/>
       <path id="ArialMT-66" d="M 556 0 
L 556 2881 
L 59 2881 
L 59 3319 
L 556 3319 
L 556 3672 
Q 556 4006 616 4169 
Q 697 4388 901 4523 
Q 1106 4659 1475 4659 
Q 1713 4659 2000 4603 
L 1916 4113 
Q 1741 4144 1584 4144 
Q 1328 4144 1222 4034 
Q 1116 3925 1116 3625 
L 1116 3319 
L 1763 3319 
L 1763 2881 
L 1116 2881 
L 1116 0 
L 556 0 
z
" transform="scale(0.015625)"/>
       <path id="ArialMT-4c" d="M 469 0 
L 469 4581 
L 1075 4581 
L 1075 541 
L 3331 541 
L 3331 0 
L 469 0 
z
" transform="scale(0.015625)"/>
       <path id="ArialMT-73" d="M 197 991 
L 753 1078 
Q 800 744 1014 566 
Q 1228 388 1613 388 
Q 2000 388 2187 545 
Q 2375 703 2375 916 
Q 2375 1106 2209 1216 
Q 2094 1291 1634 1406 
Q 1016 1563 777 1677 
Q 538 1791 414 1992 
Q 291 2194 291 2438 
Q 291 2659 392 2848 
Q 494 3038 669 3163 
Q 800 3259 1026 3326 
Q 1253 3394 1513 3394 
Q 1903 3394 2198 3281 
Q 2494 3169 2634 2976 
Q 2775 2784 2828 2463 
L 2278 2388 
Q 2241 2644 2061 2787 
Q 1881 2931 1553 2931 
Q 1166 2931 1000 2803 
Q 834 2675 834 2503 
Q 834 2394 903 2306 
Q 972 2216 1119 2156 
Q 1203 2125 1616 2013 
Q 2213 1853 2448 1751 
Q 2684 1650 2818 1456 
Q 2953 1263 2953 975 
Q 2953 694 2789 445 
Q 2625 197 2315 61 
Q 2006 -75 1616 -75 
Q 969 -75 630 194 
Q 291 463 197 991 
z
" transform="scale(0.015625)"/>
       <path id="ArialMT-70" d="M 422 -1272 
L 422 3319 
L 934 3319 
L 934 2888 
Q 1116 3141 1344 3267 
Q 1572 3394 1897 3394 
Q 2322 3394 2647 3175 
Q 2972 2956 3137 2557 
Q 3303 2159 3303 1684 
Q 3303 1175 3120 767 
Q 2938 359 2589 142 
Q 2241 -75 1856 -75 
Q 1575 -75 1351 44 
Q 1128 163 984 344 
L 984 -1272 
L 422 -1272 
z
M 931 1641 
Q 931 1000 1190 694 
Q 1450 388 1819 388 
Q 2194 388 2461 705 
Q 2728 1022 2728 1688 
Q 2728 2322 2467 2637 
Q 2206 2953 1844 2953 
Q 1484 2953 1207 2617 
Q 931 2281 931 1641 
z
" transform="scale(0.015625)"/>
       <path id="ArialMT-54" d="M 1659 0 
L 1659 4041 
L 150 4041 
L 150 4581 
L 3781 4581 
L 3781 4041 
L 2266 4041 
L 2266 0 
L 1659 0 
z
" transform="scale(0.015625)"/>
       <path id="ArialMT-77" d="M 1034 0 
L 19 3319 
L 600 3319 
L 1128 1403 
L 1325 691 
Q 1338 744 1497 1375 
L 2025 3319 
L 2603 3319 
L 3100 1394 
L 3266 759 
L 3456 1400 
L 4025 3319 
L 4572 3319 
L 3534 0 
L 2950 0 
L 2422 1988 
L 2294 2553 
L 1622 0 
L 1034 0 
z
" transform="scale(0.015625)"/>
       <path id="ArialMT-74" d="M 1650 503 
L 1731 6 
Q 1494 -44 1306 -44 
Q 1000 -44 831 53 
Q 663 150 594 308 
Q 525 466 525 972 
L 525 2881 
L 113 2881 
L 113 3319 
L 525 3319 
L 525 4141 
L 1084 4478 
L 1084 3319 
L 1650 3319 
L 1650 2881 
L 1084 2881 
L 1084 941 
Q 1084 700 1114 631 
Q 1144 563 1211 522 
Q 1278 481 1403 481 
Q 1497 481 1650 503 
z
" transform="scale(0.015625)"/>
      </defs>
      <use xlink:href="#ArialMT-4d"/>
      <use xlink:href="#ArialMT-65" x="83.300781"/>
      <use xlink:href="#ArialMT-61" x="138.916016"/>
      <use xlink:href="#ArialMT-6e" x="194.53125"/>
      <use xlink:href="#ArialMT-20" x="250.146484"/>
      <use xlink:href="#ArialMT-4e" x="277.929688"/>
      <use xlink:href="#ArialMT-75" x="350.146484"/>
      <use xlink:href="#ArialMT-6d" x="405.761719"/>
      <use xlink:href="#ArialMT-62" x="489.0625"/>
      <use xlink:href="#ArialMT-65" x="544.677734"/>
      <use xlink:href="#ArialMT-72" x="600.292969"/>
      <use xlink:href="#ArialMT-20" x="633.59375"/>
      <use xlink:href="#ArialMT-6f" x="661.376953"/>
      <use xlink:href="#ArialMT-66" x="716.992188"/>
      <use xlink:href="#ArialMT-20" x="744.775391"/>
      <use xlink:href="#ArialMT-4c" x="772.558594"/>
      <use xlink:href="#ArialMT-65" x="828.173828"/>
      <use xlink:href="#ArialMT-6d" x="883.789062"/>
      <use xlink:href="#ArialMT-6d" x="967.089844"/>
      <use xlink:href="#ArialMT-61" x="1050.390625"/>
      <use xlink:href="#ArialMT-73" x="1106.005859"/>
      <use xlink:href="#ArialMT-20" x="1156.005859"/>
      <use xlink:href="#ArialMT-70" x="1183.789062"/>
      <use xlink:href="#ArialMT-65" x="1239.404297"/>
      <use xlink:href="#ArialMT-72" x="1295.019531"/>
      <use xlink:href="#ArialMT-20" x="1328.320312"/>
      <use xlink:href="#ArialMT-54" x="1354.353516"/>
      <use xlink:href="#ArialMT-77" x="1409.9375"/>
      <use xlink:href="#ArialMT-65" x="1482.154297"/>
      <use xlink:href="#ArialMT-65" x="1537.769531"/>
      <use xlink:href="#ArialMT-74" x="1593.384766"/>
     </g>
    </g>
   </g>
   <g id="PolyCollection_1"/>
   <g id="PolyCollection_2"/>
   <g id="PolyCollection_3"/>
   <g id="PolyCollection_4"/>
   <g id="PolyCollection_5"/>
   <g id="PolyCollection_6"/>
   <g id="PolyCollection_7"/>
   <g id="line2d_1">
    <path d="M 230.727273 440.675566 
L 245.43083 468.211218 
L 260.134387 429.573329 
L 274.837945 401.511127 
L 289.541502 397.497847 
L 304.245059 385.144028 
L 318.948617 369.484001 
L 333.652174 402.157043 
L 348.355731 413.325742 
L 363.059289 402.925366 
L 377.762846 375.526953 
L 392.466403 470.361047 
L 407.16996 495.885878 
L 421.873518 371.907942 
L 436.577075 384.209516 
L 451.280632 358.812256 
L 465.98419 383.683521 
L 480.687747 366.381616 
L 495.391304 396.017117 
L 510.094862 392.23506 
L 524.798419 427.513053 
L 539.501976 396.606327 
L 554.205534 413.477717 
L 568.909091 525.748713 
L 583.612648 528.040485 
L 598.316206 536.510842 
L 613.019763 545.403108 
L 627.72332 544.78507 
L 642.426877 555.770618 
L 657.130435 535.872936 
L 671.833992 544.298863 
L 686.537549 552.394484 
L 701.241107 550.404433 
L 715.944664 543.131571 
L 730.648221 541.270705 
L 745.351779 542.532082 
L 760.055336 531.676559 
L 774.758893 547.570602 
L 789.462451 526.31172 
L 804.166008 519.953064 
L 818.869565 532.323721 
L 833.573123 533.15282 
L 848.27668 545.958342 
L 862.980237 539.918362 
L 877.683794 548.183855 
L 892.387352 538.418217 
L 907.090909 502.031018 
L 921.794466 506.976839 
L 936.498024 521.165966 
L 951.201581 504.40281 
L 965.905138 518.042064 
L 980.608696 501.907551 
L 995.312253 495.334089 
L 1010.01581 519.490085 
L 1024.719368 512.240765 
L 1039.422925 491.554577 
L 1054.126482 497.500796 
L 1068.83004 493.365668 
L 1083.533597 519.27663 
L 1098.237154 513.19032 
L 1112.940711 512.798534 
L 1127.644269 538.651288 
L 1142.347826 544.093529 
L 1157.051383 549.011283 
L 1171.754941 534.582339 
L 1186.458498 538.065008 
L 1201.162055 527.540452 
L 1215.865613 416.488243 
L 1230.56917 422.546443 
L 1245.272727 586.67919 
" clip-path="url(#p8c660fd64c)" style="fill: none; stroke: #1f77b4; stroke-width: 1.5; stroke-linecap: round"/>
   </g>
   <g id="line2d_2">
    <path d="M 230.727273 213.25525 
L 245.43083 174.132047 
L 260.134387 185.067686 
L 274.837945 218.226629 
L 289.541502 180.463831 
L 304.245059 214.164876 
L 318.948617 166.287925 
L 333.652174 156.402922 
L 348.355731 168.346975 
L 363.059289 186.267975 
L 377.762846 169.337328 
L 392.466403 260.44186 
L 407.16996 153.363726 
L 421.873518 138.785317 
L 436.577075 139.066137 
L 451.280632 138.080137 
L 465.98419 145.032709 
L 480.687747 139.969271 
L 495.391304 153.814541 
L 510.094862 150.843287 
L 524.798419 140.23594 
L 539.501976 169.862725 
L 554.205534 181.330067 
L 568.909091 177.900911 
L 583.612648 171.281325 
L 598.316206 193.330146 
L 613.019763 189.340427 
L 627.72332 183.739525 
L 642.426877 210.737279 
L 657.130435 191.13666 
L 671.833992 181.350865 
L 686.537549 187.062209 
L 701.241107 182.410784 
L 715.944664 199.463756 
L 730.648221 199.531308 
L 745.351779 227.344085 
L 760.055336 168.281627 
L 774.758893 211.946888 
L 789.462451 210.184829 
L 804.166008 284.22954 
L 818.869565 236.717859 
L 833.573123 201.899573 
L 848.27668 293.9127 
L 862.980237 227.11143 
L 877.683794 223.890368 
L 892.387352 198.099786 
L 907.090909 268.98252 
L 921.794466 174.065196 
L 936.498024 172.198798 
L 951.201581 171.28903 
L 965.905138 243.152332 
L 980.608696 155.897112 
L 995.312253 168.458225 
L 1010.01581 154.282341 
L 1024.719368 165.144044 
L 1039.422925 192.451634 
L 1054.126482 155.097499 
L 1068.83004 172.019159 
L 1083.533597 174.316305 
L 1098.237154 177.826725 
L 1112.940711 155.685423 
L 1127.644269 122.272624 
L 1142.347826 130.409263 
L 1157.051383 147.967327 
L 1171.754941 135.046692 
L 1186.458498 111.6 
L 1201.162055 143.124595 
L 1215.865613 176.676808 
L 1230.56917 227.009455 
L 1245.272727 251.571689 
" clip-path="url(#p8c660fd64c)" style="fill: none; stroke: #ff7f0e; stroke-width: 1.5; stroke-linecap: round"/>
   </g>
   <g id="line2d_3">
    <path d="M 230.727273 195.230815 
L 245.43083 168.910766 
L 260.134387 171.993693 
L 274.837945 179.011471 
L 289.541502 157.117234 
L 304.245059 159.206298 
L 318.948617 150.406187 
L 333.652174 161.606755 
L 348.355731 176.346219 
L 363.059289 180.245297 
L 377.762846 179.637211 
L 392.466403 236.945702 
L 407.16996 184.57542 
L 421.873518 178.925472 
L 436.577075 170.130733 
L 451.280632 173.55042 
L 465.98419 183.439688 
L 480.687747 168.913355 
L 495.391304 182.642834 
L 510.094862 195.303767 
L 524.798419 195.19006 
L 539.501976 178.24879 
L 554.205534 172.621741 
L 568.909091 162.032529 
L 583.612648 149.77703 
L 598.316206 167.240576 
L 613.019763 167.919232 
L 627.72332 164.619587 
L 642.426877 188.788009 
L 657.130435 156.389118 
L 671.833992 171.908875 
L 686.537549 185.969664 
L 701.241107 161.90278 
L 715.944664 161.297537 
L 730.648221 193.158461 
L 745.351779 186.906676 
L 760.055336 137.421512 
L 774.758893 153.952402 
L 789.462451 188.921753 
L 804.166008 163.86506 
L 818.869565 150.019057 
L 833.573123 147.223881 
L 848.27668 162.946936 
L 862.980237 189.181473 
L 877.683794 179.135782 
L 892.387352 144.410477 
L 907.090909 161.17983 
L 921.794466 159.579303 
L 936.498024 164.744077 
L 951.201581 139.660184 
L 965.905138 438.358973 
L 980.608696 161.68909 
L 995.312253 171.070182 
L 1010.01581 155.126133 
L 1024.719368 165.612058 
L 1039.422925 169.038369 
L 1054.126482 164.817332 
L 1068.83004 160.336702 
L 1083.533597 214.740888 
L 1098.237154 156.137202 
L 1112.940711 123.462282 
L 1127.644269 120.695565 
L 1142.347826 117.780433 
L 1157.051383 178.226598 
L 1171.754941 135.133718 
L 1186.458498 129.602025 
L 1201.162055 152.139584 
L 1215.865613 148.379065 
L 1230.56917 294.591109 
L 1245.272727 206.446407 
" clip-path="url(#p8c660fd64c)" style="fill: none; stroke: #2ca02c; stroke-width: 1.5; stroke-linecap: round"/>
   </g>
   <g id="line2d_4">
    <path d="M 230.727273 235.535643 
L 245.43083 221.67679 
L 260.134387 226.560328 
L 274.837945 232.525979 
L 289.541502 226.32267 
L 304.245059 225.909048 
L 318.948617 216.322421 
L 333.652174 212.36646 
L 348.355731 216.215689 
L 363.059289 231.82381 
L 377.762846 242.217649 
L 392.466403 284.755463 
L 407.16996 270.772858 
L 421.873518 253.201407 
L 436.577075 267.032094 
L 451.280632 279.543491 
L 465.98419 274.020524 
L 480.687747 279.486398 
L 495.391304 280.002523 
L 510.094862 281.936149 
L 524.798419 281.200291 
L 539.501976 263.338729 
L 554.205534 249.252791 
L 568.909091 233.095435 
L 583.612648 243.604138 
L 598.316206 235.113625 
L 613.019763 231.068431 
L 627.72332 237.882866 
L 642.426877 240.538447 
L 657.130435 238.299666 
L 671.833992 245.284644 
L 686.537549 257.299173 
L 701.241107 250.40331 
L 715.944664 241.353389 
L 730.648221 238.470349 
L 745.351779 249.442902 
L 760.055336 247.886348 
L 774.758893 256.521322 
L 789.462451 261.907461 
L 804.166008 271.454197 
L 818.869565 251.624835 
L 833.573123 252.920697 
L 848.27668 253.306761 
L 862.980237 259.929628 
L 877.683794 258.177859 
L 892.387352 241.461216 
L 907.090909 243.887293 
L 921.794466 233.608625 
L 936.498024 239.85494 
L 951.201581 236.270936 
L 965.905138 243.607919 
L 980.608696 240.809553 
L 995.312253 259.818527 
L 1010.01581 247.87053 
L 1024.719368 265.552005 
L 1039.422925 272.836117 
L 1054.126482 267.712705 
L 1068.83004 274.590373 
L 1083.533597 270.082114 
L 1098.237154 266.743359 
L 1112.940711 255.92153 
L 1127.644269 230.291298 
L 1142.347826 204.140151 
L 1157.051383 217.866534 
L 1171.754941 214.096941 
L 1186.458498 224.061535 
L 1201.162055 247.747425 
L 1215.865613 249.581853 
L 1230.56917 275.174005 
L 1245.272727 247.783036 
" clip-path="url(#p8c660fd64c)" style="fill: none; stroke: #d62728; stroke-width: 1.5; stroke-linecap: round"/>
   </g>
   <g id="line2d_5">
    <path d="M 230.727273 233.090761 
L 245.43083 200.453779 
L 260.134387 198.248299 
L 274.837945 243.063051 
L 289.541502 194.825675 
L 304.245059 192.653569 
L 318.948617 184.196445 
L 333.652174 185.480081 
L 348.355731 194.913633 
L 363.059289 197.71224 
L 377.762846 202.241884 
L 392.466403 225.326907 
L 407.16996 205.900555 
L 421.873518 197.300636 
L 436.577075 204.24769 
L 451.280632 201.725919 
L 465.98419 205.074181 
L 480.687747 212.579634 
L 495.391304 212.245511 
L 510.094862 223.34051 
L 524.798419 224.129264 
L 539.501976 206.351619 
L 554.205534 202.852115 
L 568.909091 212.306166 
L 583.612648 206.713366 
L 598.316206 213.562452 
L 613.019763 216.625873 
L 627.72332 216.178942 
L 642.426877 240.70495 
L 657.130435 220.315888 
L 671.833992 210.972382 
L 686.537549 219.75418 
L 701.241107 232.600106 
L 715.944664 231.179607 
L 730.648221 219.110419 
L 745.351779 259.891512 
L 760.055336 205.933654 
L 774.758893 241.970209 
L 789.462451 240.647406 
L 804.166008 263.875589 
L 818.869565 230.299445 
L 833.573123 211.310882 
L 848.27668 231.113451 
L 862.980237 246.520811 
L 877.683794 229.373268 
L 892.387352 223.864295 
L 907.090909 223.203014 
L 921.794466 205.701589 
L 936.498024 205.269045 
L 951.201581 199.632154 
L 965.905138 213.81967 
L 980.608696 190.748868 
L 995.312253 218.006649 
L 1010.01581 194.770119 
L 1024.719368 211.350524 
L 1039.422925 204.850183 
L 1054.126482 199.022397 
L 1068.83004 201.864674 
L 1083.533597 205.751984 
L 1098.237154 211.101525 
L 1112.940711 205.606679 
L 1127.644269 196.320606 
L 1142.347826 242.292008 
L 1157.051383 243.488301 
L 1171.754941 228.996329 
L 1186.458498 236.391261 
L 1201.162055 207.21185 
L 1215.865613 204.678475 
L 1230.56917 198.476289 
L 1245.272727 268.365163 
" clip-path="url(#p8c660fd64c)" style="fill: none; stroke: #9467bd; stroke-width: 1.5; stroke-linecap: round"/>
   </g>
   <g id="line2d_6">
    <path d="M 230.727273 210.373582 
L 245.43083 143.934948 
L 260.134387 143.034502 
L 274.837945 156.211272 
L 289.541502 144.312277 
L 304.245059 137.089341 
L 318.948617 129.373072 
L 333.652174 137.862518 
L 348.355731 178.93975 
L 363.059289 145.222899 
L 377.762846 149.481666 
L 392.466403 174.333919 
L 407.16996 156.522639 
L 421.873518 148.785196 
L 436.577075 146.888684 
L 451.280632 147.232568 
L 465.98419 148.853217 
L 480.687747 165.472712 
L 495.391304 154.041914 
L 510.094862 153.799031 
L 524.798419 173.841692 
L 539.501976 145.472934 
L 554.205534 150.46097 
L 568.909091 139.57823 
L 583.612648 140.551978 
L 598.316206 128.149071 
L 613.019763 129.772331 
L 627.72332 120.255238 
L 642.426877 158.523929 
L 657.130435 129.645278 
L 671.833992 124.998712 
L 686.537549 141.588993 
L 701.241107 134.661031 
L 715.944664 134.433207 
L 730.648221 144.710751 
L 745.351779 146.141464 
L 760.055336 128.590339 
L 774.758893 160.148732 
L 789.462451 145.312049 
L 804.166008 206.531569 
L 818.869565 161.488496 
L 833.573123 136.244116 
L 848.27668 151.099818 
L 862.980237 181.693823 
L 877.683794 175.93881 
L 892.387352 157.111984 
L 907.090909 154.081624 
L 921.794466 164.130914 
L 936.498024 138.209538 
L 951.201581 155.938101 
L 965.905138 170.636371 
L 980.608696 137.854647 
L 995.312253 155.227098 
L 1010.01581 145.631272 
L 1024.719368 157.923421 
L 1039.422925 158.707782 
L 1054.126482 168.106253 
L 1068.83004 167.79773 
L 1083.533597 154.397723 
L 1098.237154 164.24566 
L 1112.940711 152.913354 
L 1127.644269 119.213486 
L 1142.347826 160.884245 
L 1157.051383 180.051527 
L 1171.754941 138.730835 
L 1186.458498 114.509168 
L 1201.162055 157.853041 
L 1215.865613 152.393029 
L 1230.56917 178.089184 
L 1245.272727 167.680305 
" clip-path="url(#p8c660fd64c)" style="fill: none; stroke: #8c564b; stroke-width: 1.5; stroke-linecap: round"/>
   </g>
   <g id="line2d_7">
    <path d="M 230.727273 407.395873 
L 245.43083 417.995802 
L 260.134387 389.764845 
L 274.837945 375.801716 
L 289.541502 383.009806 
L 304.245059 376.324011 
L 318.948617 349.271401 
L 333.652174 384.773719 
L 348.355731 400.284656 
L 363.059289 406.046547 
L 377.762846 398.869148 
L 392.466403 441.804843 
L 407.16996 516.898926 
L 421.873518 404.333058 
L 436.577075 398.96164 
L 451.280632 409.988699 
L 465.98419 408.397649 
L 480.687747 399.611811 
L 495.391304 406.319745 
L 510.094862 405.071959 
L 524.798419 409.932975 
L 539.501976 403.318889 
L 554.205534 419.724 
L 568.909091 522.575994 
L 583.612648 513.397245 
L 598.316206 532.049295 
L 613.019763 549.080373 
L 627.72332 549.679809 
L 642.426877 553.047871 
L 657.130435 522.877727 
L 671.833992 511.716797 
L 686.537549 528.902733 
L 701.241107 547.305406 
L 715.944664 533.667335 
L 730.648221 542.993441 
L 745.351779 547.506927 
L 760.055336 543.986487 
L 774.758893 548.391858 
L 789.462451 528.828935 
L 804.166008 516.516709 
L 818.869565 537.692866 
L 833.573123 533.127637 
L 848.27668 560.387669 
L 862.980237 553.689725 
L 877.683794 561.676015 
L 892.387352 538.493797 
L 907.090909 486.755673 
L 921.794466 500.766069 
L 936.498024 505.102908 
L 951.201581 504.367653 
L 965.905138 493.905575 
L 980.608696 511.598657 
L 995.312253 495.550366 
L 1010.01581 524.62001 
L 1024.719368 507.457173 
L 1039.422925 508.100456 
L 1054.126482 494.940794 
L 1068.83004 495.109318 
L 1083.533597 497.511927 
L 1098.237154 495.149868 
L 1112.940711 487.235171 
L 1127.644269 538.890054 
L 1142.347826 586.972234 
L 1157.051383 566.767844 
L 1171.754941 536.800034 
L 1186.458498 584.450395 
L 1201.162055 540.778482 
L 1215.865613 378.188959 
L 1230.56917 403.753157 
L 1245.272727 615.6 
" clip-path="url(#p8c660fd64c)" style="fill: none; stroke: #e377c2; stroke-width: 1.5; stroke-linecap: round"/>
   </g>
   <g id="line2d_8"/>
   <g id="line2d_9"/>
   <g id="line2d_10"/>
   <g id="line2d_11"/>
   <g id="line2d_12"/>
   <g id="line2d_13"/>
   <g id="line2d_14"/>
   <g id="patch_3">
    <path d="M 180 640.8 
L 180 86.4 
" style="fill: none; stroke: #262626; stroke-width: 0.8; stroke-linejoin: miter; stroke-linecap: square"/>
   </g>
   <g id="patch_4">
    <path d="M 1296 640.8 
L 1296 86.4 
" style="fill: none; stroke: #262626; stroke-width: 0.8; stroke-linejoin: miter; stroke-linecap: square"/>
   </g>
   <g id="patch_5">
    <path d="M 180 640.8 
L 1296 640.8 
" style="fill: none; stroke: #262626; stroke-width: 0.8; stroke-linejoin: miter; stroke-linecap: square"/>
   </g>
   <g id="patch_6">
    <path d="M 180 86.4 
L 1296 86.4 
" style="fill: none; stroke: #262626; stroke-width: 0.8; stroke-linejoin: miter; stroke-linecap: square"/>
   </g>
   <g id="text_28">
    <!-- Mean Number of Lemmas per Tweet per Week per Language -->
    <g style="fill: #262626" transform="translate(574.80375 80.4) scale(0.12 -0.12)">
     <defs>
      <path id="ArialMT-57" d="M 1294 0 
L 78 4581 
L 700 4581 
L 1397 1578 
Q 1509 1106 1591 641 
Q 1766 1375 1797 1488 
L 2669 4581 
L 3400 4581 
L 4056 2263 
Q 4303 1400 4413 641 
Q 4500 1075 4641 1638 
L 5359 4581 
L 5969 4581 
L 4713 0 
L 4128 0 
L 3163 3491 
Q 3041 3928 3019 4028 
Q 2947 3713 2884 3491 
L 1913 0 
L 1294 0 
z
" transform="scale(0.015625)"/>
      <path id="ArialMT-6b" d="M 425 0 
L 425 4581 
L 988 4581 
L 988 1969 
L 2319 3319 
L 3047 3319 
L 1778 2088 
L 3175 0 
L 2481 0 
L 1384 1697 
L 988 1316 
L 988 0 
L 425 0 
z
" transform="scale(0.015625)"/>
      <path id="ArialMT-67" d="M 319 -275 
L 866 -356 
Q 900 -609 1056 -725 
Q 1266 -881 1628 -881 
Q 2019 -881 2231 -725 
Q 2444 -569 2519 -288 
Q 2563 -116 2559 434 
Q 2191 0 1641 0 
Q 956 0 581 494 
Q 206 988 206 1678 
Q 206 2153 378 2554 
Q 550 2956 876 3175 
Q 1203 3394 1644 3394 
Q 2231 3394 2613 2919 
L 2613 3319 
L 3131 3319 
L 3131 450 
Q 3131 -325 2973 -648 
Q 2816 -972 2473 -1159 
Q 2131 -1347 1631 -1347 
Q 1038 -1347 672 -1080 
Q 306 -813 319 -275 
z
M 784 1719 
Q 784 1066 1043 766 
Q 1303 466 1694 466 
Q 2081 466 2343 764 
Q 2606 1063 2606 1700 
Q 2606 2309 2336 2618 
Q 2066 2928 1684 2928 
Q 1309 2928 1046 2623 
Q 784 2319 784 1719 
z
" transform="scale(0.015625)"/>
     </defs>
     <use xlink:href="#ArialMT-4d"/>
     <use xlink:href="#ArialMT-65" x="83.300781"/>
     <use xlink:href="#ArialMT-61" x="138.916016"/>
     <use xlink:href="#ArialMT-6e" x="194.53125"/>
     <use xlink:href="#ArialMT-20" x="250.146484"/>
     <use xlink:href="#ArialMT-4e" x="277.929688"/>
     <use xlink:href="#ArialMT-75" x="350.146484"/>
     <use xlink:href="#ArialMT-6d" x="405.761719"/>
     <use xlink:href="#ArialMT-62" x="489.0625"/>
     <use xlink:href="#ArialMT-65" x="544.677734"/>
     <use xlink:href="#ArialMT-72" x="600.292969"/>
     <use xlink:href="#ArialMT-20" x="633.59375"/>
     <use xlink:href="#ArialMT-6f" x="661.376953"/>
     <use xlink:href="#ArialMT-66" x="716.992188"/>
     <use xlink:href="#ArialMT-20" x="744.775391"/>
     <use xlink:href="#ArialMT-4c" x="772.558594"/>
     <use xlink:href="#ArialMT-65" x="828.173828"/>
     <use xlink:href="#ArialMT-6d" x="883.789062"/>
     <use xlink:href="#ArialMT-6d" x="967.089844"/>
     <use xlink:href="#ArialMT-61" x="1050.390625"/>
     <use xlink:href="#ArialMT-73" x="1106.005859"/>
     <use xlink:href="#ArialMT-20" x="1156.005859"/>
     <use xlink:href="#ArialMT-70" x="1183.789062"/>
     <use xlink:href="#ArialMT-65" x="1239.404297"/>
     <use xlink:href="#ArialMT-72" x="1295.019531"/>
     <use xlink:href="#ArialMT-20" x="1328.320312"/>
     <use xlink:href="#ArialMT-54" x="1354.353516"/>
     <use xlink:href="#ArialMT-77" x="1409.9375"/>
     <use xlink:href="#ArialMT-65" x="1482.154297"/>
     <use xlink:href="#ArialMT-65" x="1537.769531"/>
     <use xlink:href="#ArialMT-74" x="1593.384766"/>
     <use xlink:href="#ArialMT-20" x="1621.167969"/>
     <use xlink:href="#ArialMT-70" x="1648.951172"/>
     <use xlink:href="#ArialMT-65" x="1704.566406"/>
     <use xlink:href="#ArialMT-72" x="1760.181641"/>
     <use xlink:href="#ArialMT-20" x="1793.482422"/>
     <use xlink:href="#ArialMT-57" x="1821.265625"/>
     <use xlink:href="#ArialMT-65" x="1913.900391"/>
     <use xlink:href="#ArialMT-65" x="1969.515625"/>
     <use xlink:href="#ArialMT-6b" x="2025.130859"/>
     <use xlink:href="#ArialMT-20" x="2075.130859"/>
     <use xlink:href="#ArialMT-70" x="2102.914062"/>
     <use xlink:href="#ArialMT-65" x="2158.529297"/>
     <use xlink:href="#ArialMT-72" x="2214.144531"/>
     <use xlink:href="#ArialMT-20" x="2247.445312"/>
     <use xlink:href="#ArialMT-4c" x="2275.228516"/>
     <use xlink:href="#ArialMT-61" x="2330.84375"/>
     <use xlink:href="#ArialMT-6e" x="2386.458984"/>
     <use xlink:href="#ArialMT-67" x="2442.074219"/>
     <use xlink:href="#ArialMT-75" x="2497.689453"/>
     <use xlink:href="#ArialMT-61" x="2553.304688"/>
     <use xlink:href="#ArialMT-67" x="2608.919922"/>
     <use xlink:href="#ArialMT-65" x="2664.535156"/>
    </g>
   </g>
   <g id="legend_1">
    <g id="patch_7">
     <path d="M 187 635.8 
L 230.121875 635.8 
Q 232.121875 635.8 232.121875 633.8 
L 232.121875 521.520313 
Q 232.121875 519.520313 230.121875 519.520313 
L 187 519.520313 
Q 185 519.520313 185 521.520313 
L 185 633.8 
Q 185 635.8 187 635.8 
z
" style="fill: #ffffff; opacity: 0.8; stroke: #cccccc; stroke-linejoin: miter"/>
    </g>
    <g id="text_29">
     <!-- lang -->
     <g style="fill: #262626" transform="translate(199.108594 530.678125) scale(0.1 -0.1)">
      <defs>
       <path id="ArialMT-6c" d="M 409 0 
L 409 4581 
L 972 4581 
L 972 0 
L 409 0 
z
" transform="scale(0.015625)"/>
      </defs>
      <use xlink:href="#ArialMT-6c"/>
      <use xlink:href="#ArialMT-61" x="22.216797"/>
      <use xlink:href="#ArialMT-6e" x="77.832031"/>
      <use xlink:href="#ArialMT-67" x="133.447266"/>
     </g>
    </g>
    <g id="line2d_15">
     <path d="M 189 541.440625 
L 199 541.440625 
L 209 541.440625 
" style="fill: none; stroke: #1f77b4; stroke-width: 1.5; stroke-linecap: round"/>
    </g>
    <g id="text_30">
     <!-- uk -->
     <g style="fill: #262626" transform="translate(217 544.940625) scale(0.1 -0.1)">
      <use xlink:href="#ArialMT-75"/>
      <use xlink:href="#ArialMT-6b" x="55.615234"/>
     </g>
    </g>
    <g id="line2d_16">
     <path d="M 189 555.585938 
L 199 555.585938 
L 209 555.585938 
" style="fill: none; stroke: #ff7f0e; stroke-width: 1.5; stroke-linecap: round"/>
    </g>
    <g id="text_31">
     <!-- es -->
     <g style="fill: #262626" transform="translate(217 559.085938) scale(0.1 -0.1)">
      <use xlink:href="#ArialMT-65"/>
      <use xlink:href="#ArialMT-73" x="55.615234"/>
     </g>
    </g>
    <g id="line2d_17">
     <path d="M 189 569.73125 
L 199 569.73125 
L 209 569.73125 
" style="fill: none; stroke: #2ca02c; stroke-width: 1.5; stroke-linecap: round"/>
    </g>
    <g id="text_32">
     <!-- it -->
     <g style="fill: #262626" transform="translate(217 573.23125) scale(0.1 -0.1)">
      <defs>
       <path id="ArialMT-69" d="M 425 3934 
L 425 4581 
L 988 4581 
L 988 3934 
L 425 3934 
z
M 425 0 
L 425 3319 
L 988 3319 
L 988 0 
L 425 0 
z
" transform="scale(0.015625)"/>
      </defs>
      <use xlink:href="#ArialMT-69"/>
      <use xlink:href="#ArialMT-74" x="22.216797"/>
     </g>
    </g>
    <g id="line2d_18">
     <path d="M 189 583.876562 
L 199 583.876562 
L 209 583.876562 
" style="fill: none; stroke: #d62728; stroke-width: 1.5; stroke-linecap: round"/>
    </g>
    <g id="text_33">
     <!-- de -->
     <g style="fill: #262626" transform="translate(217 587.376562) scale(0.1 -0.1)">
      <defs>
       <path id="ArialMT-64" d="M 2575 0 
L 2575 419 
Q 2259 -75 1647 -75 
Q 1250 -75 917 144 
Q 584 363 401 755 
Q 219 1147 219 1656 
Q 219 2153 384 2558 
Q 550 2963 881 3178 
Q 1213 3394 1622 3394 
Q 1922 3394 2156 3267 
Q 2391 3141 2538 2938 
L 2538 4581 
L 3097 4581 
L 3097 0 
L 2575 0 
z
M 797 1656 
Q 797 1019 1065 703 
Q 1334 388 1700 388 
Q 2069 388 2326 689 
Q 2584 991 2584 1609 
Q 2584 2291 2321 2609 
Q 2059 2928 1675 2928 
Q 1300 2928 1048 2622 
Q 797 2316 797 1656 
z
" transform="scale(0.015625)"/>
      </defs>
      <use xlink:href="#ArialMT-64"/>
      <use xlink:href="#ArialMT-65" x="55.615234"/>
     </g>
    </g>
    <g id="line2d_19">
     <path d="M 189 598.021875 
L 199 598.021875 
L 209 598.021875 
" style="fill: none; stroke: #9467bd; stroke-width: 1.5; stroke-linecap: round"/>
    </g>
    <g id="text_34">
     <!-- en -->
     <g style="fill: #262626" transform="translate(217 601.521875) scale(0.1 -0.1)">
      <use xlink:href="#ArialMT-65"/>
      <use xlink:href="#ArialMT-6e" x="55.615234"/>
     </g>
    </g>
    <g id="line2d_20">
     <path d="M 189 612.167187 
L 199 612.167187 
L 209 612.167187 
" style="fill: none; stroke: #8c564b; stroke-width: 1.5; stroke-linecap: round"/>
    </g>
    <g id="text_35">
     <!-- fr -->
     <g style="fill: #262626" transform="translate(217 615.667187) scale(0.1 -0.1)">
      <use xlink:href="#ArialMT-66"/>
      <use xlink:href="#ArialMT-72" x="27.783203"/>
     </g>
    </g>
    <g id="line2d_21">
     <path d="M 189 626.3125 
L 199 626.3125 
L 209 626.3125 
" style="fill: none; stroke: #e377c2; stroke-width: 1.5; stroke-linecap: round"/>
    </g>
    <g id="text_36">
     <!-- ru -->
     <g style="fill: #262626" transform="translate(217 629.8125) scale(0.1 -0.1)">
      <use xlink:href="#ArialMT-72"/>
      <use xlink:href="#ArialMT-75" x="33.300781"/>
     </g>
    </g>
   </g>
  </g>
 </g>
 <defs>
  <clipPath id="p8c660fd64c">
   <rect x="180" y="86.4" width="1116" height="554.4"/>
  </clipPath>
 </defs>
</svg>
