<?xml version="1.0" encoding="utf-8" standalone="no"?>
<!DOCTYPE svg PUBLIC "-//W3C//DTD SVG 1.1//EN"
  "http://www.w3.org/Graphics/SVG/1.1/DTD/svg11.dtd">
<svg xmlns:xlink="http://www.w3.org/1999/xlink" width="460.8pt" height="345.6pt" viewBox="0 0 460.8 345.6" xmlns="http://www.w3.org/2000/svg" version="1.1">
 <metadata>
  <rdf:RDF xmlns:dc="http://purl.org/dc/elements/1.1/" xmlns:cc="http://creativecommons.org/ns#" xmlns:rdf="http://www.w3.org/1999/02/22-rdf-syntax-ns#">
   <cc:Work>
    <dc:type rdf:resource="http://purl.org/dc/dcmitype/StillImage"/>
    <dc:date>2024-06-18T17:30:12.556766</dc:date>
    <dc:format>image/svg+xml</dc:format>
    <dc:creator>
     <cc:Agent>
      <dc:title>Matplotlib v3.8.2, https://matplotlib.org/</dc:title>
     </cc:Agent>
    </dc:creator>
   </cc:Work>
  </rdf:RDF>
 </metadata>
 <defs>
  <style type="text/css">*{stroke-linejoin: round; stroke-linecap: butt}</style>
 </defs>
 <g id="figure_1">
  <g id="patch_1">
   <path d="M 0 345.6 
L 460.8 345.6 
L 460.8 0 
L 0 0 
z
" style="fill: #ffffff"/>
  </g>
  <g id="axes_1">
   <g id="patch_2">
    <path d="M 57.6 307.584 
L 414.72 307.584 
L 414.72 41.472 
L 57.6 41.472 
z
" style="fill: #ffffff"/>
   </g>
   <g id="matplotlib.axis_1">
    <g id="xtick_1">
     <g id="text_1">
      <!-- uk -->
      <g style="fill: #262626" transform="translate(77.300056 324.957594) scale(0.11 -0.11)">
       <defs>
        <path id="ArialMT-75" d="M 2597 0 
L 2597 488 
Q 2209 -75 1544 -75 
Q 1250 -75 995 37 
Q 741 150 617 320 
Q 494 491 444 738 
Q 409 903 409 1263 
L 409 3319 
L 972 3319 
L 972 1478 
Q 972 1038 1006 884 
Q 1059 663 1231 536 
Q 1403 409 1656 409 
Q 1909 409 2131 539 
Q 2353 669 2445 892 
Q 2538 1116 2538 1541 
L 2538 3319 
L 3100 3319 
L 3100 0 
L 2597 0 
z
" transform="scale(0.015625)"/>
        <path id="ArialMT-6b" d="M 425 0 
L 425 4581 
L 988 4581 
L 988 1969 
L 2319 3319 
L 3047 3319 
L 1778 2088 
L 3175 0 
L 2481 0 
L 1384 1697 
L 988 1316 
L 988 0 
L 425 0 
z
" transform="scale(0.015625)"/>
       </defs>
       <use xlink:href="#ArialMT-75"/>
       <use xlink:href="#ArialMT-6b" x="55.615234"/>
      </g>
     </g>
    </g>
    <g id="xtick_2">
     <g id="text_2">
      <!-- es -->
      <g style="fill: #262626" transform="translate(128.317199 324.957594) scale(0.11 -0.11)">
       <defs>
        <path id="ArialMT-65" d="M 2694 1069 
L 3275 997 
Q 3138 488 2766 206 
Q 2394 -75 1816 -75 
Q 1088 -75 661 373 
Q 234 822 234 1631 
Q 234 2469 665 2931 
Q 1097 3394 1784 3394 
Q 2450 3394 2872 2941 
Q 3294 2488 3294 1666 
Q 3294 1616 3291 1516 
L 816 1516 
Q 847 969 1125 678 
Q 1403 388 1819 388 
Q 2128 388 2347 550 
Q 2566 713 2694 1069 
z
M 847 1978 
L 2700 1978 
Q 2663 2397 2488 2606 
Q 2219 2931 1791 2931 
Q 1403 2931 1139 2672 
Q 875 2413 847 1978 
z
" transform="scale(0.015625)"/>
        <path id="ArialMT-73" d="M 197 991 
L 753 1078 
Q 800 744 1014 566 
Q 1228 388 1613 388 
Q 2000 388 2187 545 
Q 2375 703 2375 916 
Q 2375 1106 2209 1216 
Q 2094 1291 1634 1406 
Q 1016 1563 777 1677 
Q 538 1791 414 1992 
Q 291 2194 291 2438 
Q 291 2659 392 2848 
Q 494 3038 669 3163 
Q 800 3259 1026 3326 
Q 1253 3394 1513 3394 
Q 1903 3394 2198 3281 
Q 2494 3169 2634 2976 
Q 2775 2784 2828 2463 
L 2278 2388 
Q 2241 2644 2061 2787 
Q 1881 2931 1553 2931 
Q 1166 2931 1000 2803 
Q 834 2675 834 2503 
Q 834 2394 903 2306 
Q 972 2216 1119 2156 
Q 1203 2125 1616 2013 
Q 2213 1853 2448 1751 
Q 2684 1650 2818 1456 
Q 2953 1263 2953 975 
Q 2953 694 2789 445 
Q 2625 197 2315 61 
Q 2006 -75 1616 -75 
Q 969 -75 630 194 
Q 291 463 197 991 
z
" transform="scale(0.015625)"/>
       </defs>
       <use xlink:href="#ArialMT-65"/>
       <use xlink:href="#ArialMT-73" x="55.615234"/>
      </g>
     </g>
    </g>
    <g id="xtick_3">
     <g id="text_3">
      <!-- it -->
      <g style="fill: #262626" transform="translate(182.392857 324.957594) scale(0.11 -0.11)">
       <defs>
        <path id="ArialMT-69" d="M 425 3934 
L 425 4581 
L 988 4581 
L 988 3934 
L 425 3934 
z
M 425 0 
L 425 3319 
L 988 3319 
L 988 0 
L 425 0 
z
" transform="scale(0.015625)"/>
        <path id="ArialMT-74" d="M 1650 503 
L 1731 6 
Q 1494 -44 1306 -44 
Q 1000 -44 831 53 
Q 663 150 594 308 
Q 525 466 525 972 
L 525 2881 
L 113 2881 
L 113 3319 
L 525 3319 
L 525 4141 
L 1084 4478 
L 1084 3319 
L 1650 3319 
L 1650 2881 
L 1084 2881 
L 1084 941 
Q 1084 700 1114 631 
Q 1144 563 1211 522 
Q 1278 481 1403 481 
Q 1497 481 1650 503 
z
" transform="scale(0.015625)"/>
       </defs>
       <use xlink:href="#ArialMT-69"/>
       <use xlink:href="#ArialMT-74" x="22.216797"/>
      </g>
     </g>
    </g>
    <g id="xtick_4">
     <g id="text_4">
      <!-- de -->
      <g style="fill: #262626" transform="translate(230.042969 324.957594) scale(0.11 -0.11)">
       <defs>
        <path id="ArialMT-64" d="M 2575 0 
L 2575 419 
Q 2259 -75 1647 -75 
Q 1250 -75 917 144 
Q 584 363 401 755 
Q 219 1147 219 1656 
Q 219 2153 384 2558 
Q 550 2963 881 3178 
Q 1213 3394 1622 3394 
Q 1922 3394 2156 3267 
Q 2391 3141 2538 2938 
L 2538 4581 
L 3097 4581 
L 3097 0 
L 2575 0 
z
M 797 1656 
Q 797 1019 1065 703 
Q 1334 388 1700 388 
Q 2069 388 2326 689 
Q 2584 991 2584 1609 
Q 2584 2291 2321 2609 
Q 2059 2928 1675 2928 
Q 1300 2928 1048 2622 
Q 797 2316 797 1656 
z
" transform="scale(0.015625)"/>
       </defs>
       <use xlink:href="#ArialMT-64"/>
       <use xlink:href="#ArialMT-65" x="55.615234"/>
      </g>
     </g>
    </g>
    <g id="xtick_5">
     <g id="text_5">
      <!-- en -->
      <g style="fill: #262626" transform="translate(281.060112 324.957594) scale(0.11 -0.11)">
       <defs>
        <path id="ArialMT-6e" d="M 422 0 
L 422 3319 
L 928 3319 
L 928 2847 
Q 1294 3394 1984 3394 
Q 2284 3394 2536 3286 
Q 2788 3178 2913 3003 
Q 3038 2828 3088 2588 
Q 3119 2431 3119 2041 
L 3119 0 
L 2556 0 
L 2556 2019 
Q 2556 2363 2490 2533 
Q 2425 2703 2258 2804 
Q 2091 2906 1866 2906 
Q 1506 2906 1245 2678 
Q 984 2450 984 1813 
L 984 0 
L 422 0 
z
" transform="scale(0.015625)"/>
       </defs>
       <use xlink:href="#ArialMT-65"/>
       <use xlink:href="#ArialMT-6e" x="55.615234"/>
      </g>
     </g>
    </g>
    <g id="xtick_6">
     <g id="text_6">
      <!-- fr -->
      <g style="fill: #262626" transform="translate(334.834989 324.957594) scale(0.11 -0.11)">
       <defs>
        <path id="ArialMT-66" d="M 556 0 
L 556 2881 
L 59 2881 
L 59 3319 
L 556 3319 
L 556 3672 
Q 556 4006 616 4169 
Q 697 4388 901 4523 
Q 1106 4659 1475 4659 
Q 1713 4659 2000 4603 
L 1916 4113 
Q 1741 4144 1584 4144 
Q 1328 4144 1222 4034 
Q 1116 3925 1116 3625 
L 1116 3319 
L 1763 3319 
L 1763 2881 
L 1116 2881 
L 1116 0 
L 556 0 
z
" transform="scale(0.015625)"/>
        <path id="ArialMT-72" d="M 416 0 
L 416 3319 
L 922 3319 
L 922 2816 
Q 1116 3169 1280 3281 
Q 1444 3394 1641 3394 
Q 1925 3394 2219 3213 
L 2025 2691 
Q 1819 2813 1613 2813 
Q 1428 2813 1281 2702 
Q 1134 2591 1072 2394 
Q 978 2094 978 1738 
L 978 0 
L 416 0 
z
" transform="scale(0.015625)"/>
       </defs>
       <use xlink:href="#ArialMT-66"/>
       <use xlink:href="#ArialMT-72" x="27.783203"/>
      </g>
     </g>
    </g>
    <g id="xtick_7">
     <g id="text_7">
      <!-- ru -->
      <g style="fill: #262626" transform="translate(384.321585 324.957594) scale(0.11 -0.11)">
       <use xlink:href="#ArialMT-72"/>
       <use xlink:href="#ArialMT-75" x="33.300781"/>
      </g>
     </g>
    </g>
   </g>
   <g id="matplotlib.axis_2">
    <g id="ytick_1">
     <g id="line2d_1">
      <path d="M 57.6 292.432544 
L 414.72 292.432544 
" clip-path="url(#p02f329ea6d)" style="fill: none; stroke: #cccccc; stroke-linecap: round"/>
     </g>
     <g id="text_8">
      <!-- 0 -->
      <g style="fill: #262626" transform="translate(41.982969 296.369341) scale(0.11 -0.11)">
       <defs>
        <path id="ArialMT-30" d="M 266 2259 
Q 266 3072 433 3567 
Q 600 4063 929 4331 
Q 1259 4600 1759 4600 
Q 2128 4600 2406 4451 
Q 2684 4303 2865 4023 
Q 3047 3744 3150 3342 
Q 3253 2941 3253 2259 
Q 3253 1453 3087 958 
Q 2922 463 2592 192 
Q 2263 -78 1759 -78 
Q 1097 -78 719 397 
Q 266 969 266 2259 
z
M 844 2259 
Q 844 1131 1108 757 
Q 1372 384 1759 384 
Q 2147 384 2411 759 
Q 2675 1134 2675 2259 
Q 2675 3391 2411 3762 
Q 2147 4134 1753 4134 
Q 1366 4134 1134 3806 
Q 844 3388 844 2259 
z
" transform="scale(0.015625)"/>
       </defs>
       <use xlink:href="#ArialMT-30"/>
      </g>
     </g>
    </g>
    <g id="ytick_2">
     <g id="line2d_2">
      <path d="M 57.6 245.468789 
L 414.72 245.468789 
" clip-path="url(#p02f329ea6d)" style="fill: none; stroke: #cccccc; stroke-linecap: round"/>
     </g>
     <g id="text_9">
      <!-- 20 -->
      <g style="fill: #262626" transform="translate(35.865938 249.405586) scale(0.11 -0.11)">
       <defs>
        <path id="ArialMT-32" d="M 3222 541 
L 3222 0 
L 194 0 
Q 188 203 259 391 
Q 375 700 629 1000 
Q 884 1300 1366 1694 
Q 2113 2306 2375 2664 
Q 2638 3022 2638 3341 
Q 2638 3675 2398 3904 
Q 2159 4134 1775 4134 
Q 1369 4134 1125 3890 
Q 881 3647 878 3216 
L 300 3275 
Q 359 3922 746 4261 
Q 1134 4600 1788 4600 
Q 2447 4600 2831 4234 
Q 3216 3869 3216 3328 
Q 3216 3053 3103 2787 
Q 2991 2522 2730 2228 
Q 2469 1934 1863 1422 
Q 1356 997 1212 845 
Q 1069 694 975 541 
L 3222 541 
z
" transform="scale(0.015625)"/>
       </defs>
       <use xlink:href="#ArialMT-32"/>
       <use xlink:href="#ArialMT-30" x="55.615234"/>
      </g>
     </g>
    </g>
    <g id="ytick_3">
     <g id="line2d_3">
      <path d="M 57.6 198.505034 
L 414.72 198.505034 
" clip-path="url(#p02f329ea6d)" style="fill: none; stroke: #cccccc; stroke-linecap: round"/>
     </g>
     <g id="text_10">
      <!-- 40 -->
      <g style="fill: #262626" transform="translate(35.865938 202.441831) scale(0.11 -0.11)">
       <defs>
        <path id="ArialMT-34" d="M 2069 0 
L 2069 1097 
L 81 1097 
L 81 1613 
L 2172 4581 
L 2631 4581 
L 2631 1613 
L 3250 1613 
L 3250 1097 
L 2631 1097 
L 2631 0 
L 2069 0 
z
M 2069 1613 
L 2069 3678 
L 634 1613 
L 2069 1613 
z
" transform="scale(0.015625)"/>
       </defs>
       <use xlink:href="#ArialMT-34"/>
       <use xlink:href="#ArialMT-30" x="55.615234"/>
      </g>
     </g>
    </g>
    <g id="ytick_4">
     <g id="line2d_4">
      <path d="M 57.6 151.541279 
L 414.72 151.541279 
" clip-path="url(#p02f329ea6d)" style="fill: none; stroke: #cccccc; stroke-linecap: round"/>
     </g>
     <g id="text_11">
      <!-- 60 -->
      <g style="fill: #262626" transform="translate(35.865938 155.478076) scale(0.11 -0.11)">
       <defs>
        <path id="ArialMT-36" d="M 3184 3459 
L 2625 3416 
Q 2550 3747 2413 3897 
Q 2184 4138 1850 4138 
Q 1581 4138 1378 3988 
Q 1113 3794 959 3422 
Q 806 3050 800 2363 
Q 1003 2672 1297 2822 
Q 1591 2972 1913 2972 
Q 2475 2972 2870 2558 
Q 3266 2144 3266 1488 
Q 3266 1056 3080 686 
Q 2894 316 2569 119 
Q 2244 -78 1831 -78 
Q 1128 -78 684 439 
Q 241 956 241 2144 
Q 241 3472 731 4075 
Q 1159 4600 1884 4600 
Q 2425 4600 2770 4297 
Q 3116 3994 3184 3459 
z
M 888 1484 
Q 888 1194 1011 928 
Q 1134 663 1356 523 
Q 1578 384 1822 384 
Q 2178 384 2434 671 
Q 2691 959 2691 1453 
Q 2691 1928 2437 2201 
Q 2184 2475 1800 2475 
Q 1419 2475 1153 2201 
Q 888 1928 888 1484 
z
" transform="scale(0.015625)"/>
       </defs>
       <use xlink:href="#ArialMT-36"/>
       <use xlink:href="#ArialMT-30" x="55.615234"/>
      </g>
     </g>
    </g>
    <g id="ytick_5">
     <g id="line2d_5">
      <path d="M 57.6 104.577524 
L 414.72 104.577524 
" clip-path="url(#p02f329ea6d)" style="fill: none; stroke: #cccccc; stroke-linecap: round"/>
     </g>
     <g id="text_12">
      <!-- 80 -->
      <g style="fill: #262626" transform="translate(35.865938 108.514321) scale(0.11 -0.11)">
       <defs>
        <path id="ArialMT-38" d="M 1131 2484 
Q 781 2613 612 2850 
Q 444 3088 444 3419 
Q 444 3919 803 4259 
Q 1163 4600 1759 4600 
Q 2359 4600 2725 4251 
Q 3091 3903 3091 3403 
Q 3091 3084 2923 2848 
Q 2756 2613 2416 2484 
Q 2838 2347 3058 2040 
Q 3278 1734 3278 1309 
Q 3278 722 2862 322 
Q 2447 -78 1769 -78 
Q 1091 -78 675 323 
Q 259 725 259 1325 
Q 259 1772 486 2073 
Q 713 2375 1131 2484 
z
M 1019 3438 
Q 1019 3113 1228 2906 
Q 1438 2700 1772 2700 
Q 2097 2700 2305 2904 
Q 2513 3109 2513 3406 
Q 2513 3716 2298 3927 
Q 2084 4138 1766 4138 
Q 1444 4138 1231 3931 
Q 1019 3725 1019 3438 
z
M 838 1322 
Q 838 1081 952 856 
Q 1066 631 1291 507 
Q 1516 384 1775 384 
Q 2178 384 2440 643 
Q 2703 903 2703 1303 
Q 2703 1709 2433 1975 
Q 2163 2241 1756 2241 
Q 1359 2241 1098 1978 
Q 838 1716 838 1322 
z
" transform="scale(0.015625)"/>
       </defs>
       <use xlink:href="#ArialMT-38"/>
       <use xlink:href="#ArialMT-30" x="55.615234"/>
      </g>
     </g>
    </g>
    <g id="ytick_6">
     <g id="line2d_6">
      <path d="M 57.6 57.613769 
L 414.72 57.613769 
" clip-path="url(#p02f329ea6d)" style="fill: none; stroke: #cccccc; stroke-linecap: round"/>
     </g>
     <g id="text_13">
      <!-- 100 -->
      <g style="fill: #262626" transform="translate(29.748906 61.550566) scale(0.11 -0.11)">
       <defs>
        <path id="ArialMT-31" d="M 2384 0 
L 1822 0 
L 1822 3584 
Q 1619 3391 1289 3197 
Q 959 3003 697 2906 
L 697 3450 
Q 1169 3672 1522 3987 
Q 1875 4303 2022 4600 
L 2384 4600 
L 2384 0 
z
" transform="scale(0.015625)"/>
       </defs>
       <use xlink:href="#ArialMT-31"/>
       <use xlink:href="#ArialMT-30" x="55.615234"/>
       <use xlink:href="#ArialMT-30" x="111.230469"/>
      </g>
     </g>
    </g>
   </g>
   <g id="PolyCollection_1">
    <defs>
     <path id="m6ec2324eca" d="M 83.154585 -50.514888 
L 83.062558 -50.514888 
L 82.520564 -52.22881 
L 78.86316 -53.942732 
L 71.821576 -55.656654 
L 65.50185 -57.370576 
L 62.263839 -59.084498 
L 60.9263 -60.79842 
L 60.661029 -62.512342 
L 61.673196 -64.226264 
L 62.950319 -65.940186 
L 64.164453 -67.654108 
L 65.529975 -69.36803 
L 66.765713 -71.081952 
L 67.853633 -72.795874 
L 68.889777 -74.509796 
L 69.887239 -76.223718 
L 70.931178 -77.93764 
L 71.829551 -79.651562 
L 72.628829 -81.365484 
L 73.469965 -83.079406 
L 74.188792 -84.793328 
L 74.746309 -86.50725 
L 75.264597 -88.221172 
L 75.763155 -89.935094 
L 76.228661 -91.649016 
L 76.633244 -93.362938 
L 76.944318 -95.07686 
L 77.253922 -96.790782 
L 77.535841 -98.504704 
L 77.814391 -100.218626 
L 78.084428 -101.932548 
L 78.33647 -103.64647 
L 78.538869 -105.360392 
L 78.733099 -107.074314 
L 78.939903 -108.788236 
L 79.118428 -110.502158 
L 79.271381 -112.21608 
L 79.449489 -113.930002 
L 79.615752 -115.643924 
L 79.778518 -117.357846 
L 79.94118 -119.071768 
L 80.056722 -120.78569 
L 80.238455 -122.499612 
L 80.438153 -124.213534 
L 80.633851 -125.927456 
L 80.831504 -127.641378 
L 81.013666 -129.3553 
L 81.192748 -131.069222 
L 81.406908 -132.783144 
L 81.622719 -134.497066 
L 81.831873 -136.210988 
L 82.039886 -137.92491 
L 82.234569 -139.638832 
L 82.422743 -141.352754 
L 82.582374 -143.066676 
L 82.711258 -144.780598 
L 82.823132 -146.49452 
L 82.906664 -148.208442 
L 82.965543 -149.922364 
L 83.008813 -151.636286 
L 83.046264 -153.350208 
L 83.071158 -155.06413 
L 83.085509 -156.778052 
L 83.095896 -158.491974 
L 83.10073 -160.205896 
L 83.10328 -161.919818 
L 83.1057 -163.63374 
L 83.107251 -165.347662 
L 83.107526 -167.061584 
L 83.107453 -168.775506 
L 83.107866 -170.489428 
L 83.108334 -172.20335 
L 83.108551 -173.917272 
L 83.10857 -175.631194 
L 83.108538 -177.345116 
L 83.108382 -179.059038 
L 83.108371 -180.77296 
L 83.108532 -182.486882 
L 83.10857 -184.200804 
L 83.108571 -185.914726 
L 83.108571 -187.628648 
L 83.108571 -189.34257 
L 83.108571 -191.056492 
L 83.108571 -192.770414 
L 83.108571 -194.484336 
L 83.108571 -196.198258 
L 83.108571 -197.91218 
L 83.108571 -199.626102 
L 83.108571 -201.340024 
L 83.108571 -203.053946 
L 83.108571 -204.767868 
L 83.108571 -206.48179 
L 83.108571 -208.195712 
L 83.108571 -209.909634 
L 83.108571 -211.623556 
L 83.10857 -213.337478 
L 83.10853 -215.0514 
L 83.108369 -216.765322 
L 83.108384 -218.479244 
L 83.108539 -220.193166 
L 83.108604 -220.193166 
L 83.108604 -220.193166 
L 83.108758 -218.479244 
L 83.108774 -216.765322 
L 83.108613 -215.0514 
L 83.108573 -213.337478 
L 83.108571 -211.623556 
L 83.108571 -209.909634 
L 83.108571 -208.195712 
L 83.108571 -206.48179 
L 83.108571 -204.767868 
L 83.108571 -203.053946 
L 83.108571 -201.340024 
L 83.108571 -199.626102 
L 83.108571 -197.91218 
L 83.108571 -196.198258 
L 83.108571 -194.484336 
L 83.108571 -192.770414 
L 83.108571 -191.056492 
L 83.108571 -189.34257 
L 83.108571 -187.628648 
L 83.108571 -185.914726 
L 83.108573 -184.200804 
L 83.108611 -182.486882 
L 83.108771 -180.77296 
L 83.108761 -179.059038 
L 83.108605 -177.345116 
L 83.108573 -175.631194 
L 83.108592 -173.917272 
L 83.108809 -172.20335 
L 83.109277 -170.489428 
L 83.10969 -168.775506 
L 83.109617 -167.061584 
L 83.109892 -165.347662 
L 83.111443 -163.63374 
L 83.113863 -161.919818 
L 83.116413 -160.205896 
L 83.121247 -158.491974 
L 83.131634 -156.778052 
L 83.145985 -155.06413 
L 83.170879 -153.350208 
L 83.20833 -151.636286 
L 83.2516 -149.922364 
L 83.310478 -148.208442 
L 83.394011 -146.49452 
L 83.505885 -144.780598 
L 83.634769 -143.066676 
L 83.7944 -141.352754 
L 83.982574 -139.638832 
L 84.177257 -137.92491 
L 84.385269 -136.210988 
L 84.594424 -134.497066 
L 84.810234 -132.783144 
L 85.024395 -131.069222 
L 85.203477 -129.3553 
L 85.385639 -127.641378 
L 85.583292 -125.927456 
L 85.778989 -124.213534 
L 85.978688 -122.499612 
L 86.160421 -120.78569 
L 86.275962 -119.071768 
L 86.438625 -117.357846 
L 86.601391 -115.643924 
L 86.767654 -113.930002 
L 86.945762 -112.21608 
L 87.098715 -110.502158 
L 87.27724 -108.788236 
L 87.484044 -107.074314 
L 87.678274 -105.360392 
L 87.880673 -103.64647 
L 88.132715 -101.932548 
L 88.402752 -100.218626 
L 88.681302 -98.504704 
L 88.963221 -96.790782 
L 89.272825 -95.07686 
L 89.583898 -93.362938 
L 89.988481 -91.649016 
L 90.453988 -89.935094 
L 90.952546 -88.221172 
L 91.470834 -86.50725 
L 92.028351 -84.793328 
L 92.747178 -83.079406 
L 93.588314 -81.365484 
L 94.387592 -79.651562 
L 95.285965 -77.93764 
L 96.329904 -76.223718 
L 97.327366 -74.509796 
L 98.36351 -72.795874 
L 99.45143 -71.081952 
L 100.687168 -69.36803 
L 102.05269 -67.654108 
L 103.266823 -65.940186 
L 104.543947 -64.226264 
L 105.556114 -62.512342 
L 105.290843 -60.79842 
L 103.953304 -59.084498 
L 100.715293 -57.370576 
L 94.395567 -55.656654 
L 87.353983 -53.942732 
L 83.696579 -52.22881 
L 83.154585 -50.514888 
z
" style="stroke: #494949; stroke-width: 1.25"/>
    </defs>
    <g clip-path="url(#p02f329ea6d)">
     <use xlink:href="#m6ec2324eca" x="0" y="345.6" style="fill: #5875a4; stroke: #494949; stroke-width: 1.25"/>
    </g>
   </g>
   <g id="PolyCollection_2">
    <defs>
     <path id="mb6fd3a8e2c" d="M 134.129131 -50.389385 
L 134.122298 -50.389385 
L 134.056 -52.627662 
L 133.465248 -54.865939 
L 131.047193 -57.104216 
L 128.293784 -59.342493 
L 126.236904 -61.58077 
L 124.553025 -63.819046 
L 123.039226 -66.057323 
L 121.418962 -68.2956 
L 119.461422 -70.533877 
L 117.311186 -72.772154 
L 115.402733 -75.010431 
L 113.917513 -77.248708 
L 112.568435 -79.486985 
L 111.762096 -81.725262 
L 111.678171 -83.963539 
L 111.939956 -86.201816 
L 112.624477 -88.440092 
L 113.214827 -90.678369 
L 113.693056 -92.916646 
L 114.314532 -95.154923 
L 114.676847 -97.3932 
L 115.290168 -99.631477 
L 115.588591 -101.869754 
L 115.804383 -104.108031 
L 115.870037 -106.346308 
L 115.832387 -108.584585 
L 115.839165 -110.822862 
L 115.639871 -113.061138 
L 115.269128 -115.299415 
L 114.897817 -117.537692 
L 114.595773 -119.775969 
L 114.4061 -122.014246 
L 114.318562 -124.252523 
L 114.73836 -126.4908 
L 115.825849 -128.729077 
L 117.660066 -130.967354 
L 119.920557 -133.205631 
L 122.473546 -135.443908 
L 125.111629 -137.682184 
L 127.637076 -139.920461 
L 129.718805 -142.158738 
L 131.349889 -144.397015 
L 132.426352 -146.635292 
L 133.147459 -148.873569 
L 133.593476 -151.111846 
L 133.860409 -153.350123 
L 133.992843 -155.5884 
L 134.056815 -157.826677 
L 134.093949 -160.064954 
L 134.108593 -162.30323 
L 134.116204 -164.541507 
L 134.120927 -166.779784 
L 134.122994 -169.018061 
L 134.124206 -171.256338 
L 134.124822 -173.494615 
L 134.124545 -175.732892 
L 134.124638 -177.971169 
L 134.125027 -180.209446 
L 134.125097 -182.447723 
L 134.125 -184.686 
L 134.124777 -186.924276 
L 134.125462 -189.162553 
L 134.125709 -191.40083 
L 134.125714 -193.639107 
L 134.125666 -195.877384 
L 134.125301 -198.115661 
L 134.125109 -200.353938 
L 134.125102 -202.592215 
L 134.125126 -204.830492 
L 134.125428 -207.068769 
L 134.125681 -209.307046 
L 134.125408 -211.545322 
L 134.124644 -213.783599 
L 134.124629 -216.021876 
L 134.12519 -218.260153 
L 134.124963 -220.49843 
L 134.125613 -222.736707 
L 134.125713 -224.974984 
L 134.125712 -227.213261 
L 134.125593 -229.451538 
L 134.1253 -231.689815 
L 134.125516 -233.928092 
L 134.125302 -236.166369 
L 134.125579 -238.404645 
L 134.125711 -240.642922 
L 134.125714 -242.881199 
L 134.125714 -245.119476 
L 134.125714 -247.357753 
L 134.125714 -249.59603 
L 134.125714 -251.834307 
L 134.125714 -254.072584 
L 134.125714 -256.310861 
L 134.125714 -258.549138 
L 134.125714 -260.787415 
L 134.125714 -263.025691 
L 134.125707 -265.263968 
L 134.125519 -267.502245 
L 134.125331 -269.740522 
L 134.125658 -271.978799 
L 134.12577 -271.978799 
L 134.12577 -271.978799 
L 134.126098 -269.740522 
L 134.12591 -267.502245 
L 134.125722 -265.263968 
L 134.125714 -263.025691 
L 134.125714 -260.787415 
L 134.125714 -258.549138 
L 134.125714 -256.310861 
L 134.125714 -254.072584 
L 134.125714 -251.834307 
L 134.125714 -249.59603 
L 134.125714 -247.357753 
L 134.125714 -245.119476 
L 134.125714 -242.881199 
L 134.125718 -240.642922 
L 134.125849 -238.404645 
L 134.126127 -236.166369 
L 134.125913 -233.928092 
L 134.126129 -231.689815 
L 134.125835 -229.451538 
L 134.125717 -227.213261 
L 134.125715 -224.974984 
L 134.125815 -222.736707 
L 134.126466 -220.49843 
L 134.126238 -218.260153 
L 134.126799 -216.021876 
L 134.126785 -213.783599 
L 134.126021 -211.545322 
L 134.125748 -209.307046 
L 134.126001 -207.068769 
L 134.126302 -204.830492 
L 134.126326 -202.592215 
L 134.126319 -200.353938 
L 134.126127 -198.115661 
L 134.125763 -195.877384 
L 134.125715 -193.639107 
L 134.12572 -191.40083 
L 134.125966 -189.162553 
L 134.126651 -186.924276 
L 134.126428 -184.686 
L 134.126331 -182.447723 
L 134.126402 -180.209446 
L 134.126791 -177.971169 
L 134.126884 -175.732892 
L 134.126607 -173.494615 
L 134.127222 -171.256338 
L 134.128435 -169.018061 
L 134.130502 -166.779784 
L 134.135225 -164.541507 
L 134.142835 -162.30323 
L 134.15748 -160.064954 
L 134.194614 -157.826677 
L 134.258585 -155.5884 
L 134.391019 -153.350123 
L 134.657952 -151.111846 
L 135.10397 -148.873569 
L 135.825077 -146.635292 
L 136.901539 -144.397015 
L 138.532624 -142.158738 
L 140.614353 -139.920461 
L 143.1398 -137.682184 
L 145.777883 -135.443908 
L 148.330871 -133.205631 
L 150.591362 -130.967354 
L 152.425579 -128.729077 
L 153.513069 -126.4908 
L 153.932867 -124.252523 
L 153.845329 -122.014246 
L 153.655656 -119.775969 
L 153.353611 -117.537692 
L 152.9823 -115.299415 
L 152.611557 -113.061138 
L 152.412264 -110.822862 
L 152.419041 -108.584585 
L 152.381392 -106.346308 
L 152.447045 -104.108031 
L 152.662838 -101.869754 
L 152.961261 -99.631477 
L 153.574581 -97.3932 
L 153.936896 -95.154923 
L 154.558373 -92.916646 
L 155.036601 -90.678369 
L 155.626952 -88.440092 
L 156.311472 -86.201816 
L 156.573257 -83.963539 
L 156.489333 -81.725262 
L 155.682993 -79.486985 
L 154.333915 -77.248708 
L 152.848695 -75.010431 
L 150.940243 -72.772154 
L 148.790007 -70.533877 
L 146.832466 -68.2956 
L 145.212203 -66.057323 
L 143.698403 -63.819046 
L 142.014525 -61.58077 
L 139.957645 -59.342493 
L 137.204236 -57.104216 
L 134.786181 -54.865939 
L 134.195429 -52.627662 
L 134.129131 -50.389385 
z
" style="stroke: #494949; stroke-width: 1.25"/>
    </defs>
    <g clip-path="url(#p02f329ea6d)">
     <use xlink:href="#mb6fd3a8e2c" x="0" y="345.6" style="fill: #cc8963; stroke: #494949; stroke-width: 1.25"/>
    </g>
   </g>
   <g id="PolyCollection_3">
    <defs>
     <path id="m23ed06a5b2" d="M 185.145551 -50.407769 
L 185.140163 -50.407769 
L 185.112035 -52.26617 
L 184.922782 -54.12457 
L 184.023683 -55.98297 
L 181.878002 -57.841371 
L 179.05562 -59.699771 
L 176.104975 -61.558172 
L 173.396811 -63.416572 
L 171.105149 -65.274973 
L 169.257812 -67.133373 
L 167.754789 -68.991773 
L 166.393691 -70.850174 
L 165.145128 -72.708574 
L 164.14966 -74.566975 
L 163.505232 -76.425375 
L 162.997164 -78.283776 
L 162.725846 -80.142176 
L 162.695314 -82.000576 
L 162.872689 -83.858977 
L 163.256009 -85.717377 
L 163.864956 -87.575778 
L 164.406073 -89.434178 
L 164.827665 -91.292578 
L 165.335733 -93.150979 
L 166.004105 -95.009379 
L 166.563453 -96.86778 
L 166.960092 -98.72618 
L 167.172958 -100.584581 
L 167.214282 -102.442981 
L 167.294049 -104.301381 
L 167.219919 -106.159782 
L 166.930391 -108.018182 
L 166.521441 -109.876583 
L 166.11785 -111.734983 
L 165.723075 -113.593384 
L 165.34178 -115.451784 
L 164.8413 -117.310184 
L 164.271383 -119.168585 
L 163.905905 -121.026985 
L 163.65568 -122.885386 
L 163.724721 -124.743786 
L 164.121123 -126.602186 
L 164.873297 -128.460587 
L 166.2214 -130.318987 
L 168.197432 -132.177388 
L 170.510553 -134.035788 
L 172.916014 -135.894189 
L 175.291812 -137.752589 
L 177.577377 -139.610989 
L 179.574779 -141.46939 
L 181.237812 -143.32779 
L 182.559291 -145.186191 
L 183.504306 -147.044591 
L 184.135898 -148.902991 
L 184.539927 -150.761392 
L 184.789966 -152.619792 
L 184.940834 -154.478193 
L 185.031888 -156.336593 
L 185.083793 -158.194994 
L 185.112307 -160.053394 
L 185.12756 -161.911794 
L 185.135266 -163.770195 
L 185.139054 -165.628595 
L 185.141548 -167.486996 
L 185.141995 -169.345396 
L 185.141659 -171.203797 
L 185.141954 -173.062197 
L 185.141633 -174.920597 
L 185.142206 -176.778998 
L 185.142555 -178.637398 
L 185.142353 -180.495799 
L 185.142399 -182.354199 
L 185.142661 -184.212599 
L 185.142552 -186.071 
L 185.142549 -187.9294 
L 185.14266 -189.787801 
L 185.142321 -191.646201 
L 185.142008 -193.504602 
L 185.142368 -195.363002 
L 185.142803 -197.221402 
L 185.142854 -199.079803 
L 185.142784 -200.938203 
L 185.142419 -202.796604 
L 185.141808 -204.655004 
L 185.141845 -206.513405 
L 185.142659 -208.371805 
L 185.142851 -210.230205 
L 185.142857 -212.088606 
L 185.142857 -213.947006 
L 185.142857 -215.805407 
L 185.142857 -217.663807 
L 185.142857 -219.522207 
L 185.142857 -221.380608 
L 185.142857 -223.239008 
L 185.142857 -225.097409 
L 185.142856 -226.955809 
L 185.142811 -228.81421 
L 185.142564 -230.67261 
L 185.142555 -232.53101 
L 185.142807 -234.389411 
L 185.142908 -234.389411 
L 185.142908 -234.389411 
L 185.143159 -232.53101 
L 185.143151 -230.67261 
L 185.142904 -228.81421 
L 185.142858 -226.955809 
L 185.142857 -225.097409 
L 185.142857 -223.239008 
L 185.142857 -221.380608 
L 185.142857 -219.522207 
L 185.142857 -217.663807 
L 185.142857 -215.805407 
L 185.142857 -213.947006 
L 185.142857 -212.088606 
L 185.142864 -210.230205 
L 185.143055 -208.371805 
L 185.143869 -206.513405 
L 185.143907 -204.655004 
L 185.143296 -202.796604 
L 185.142931 -200.938203 
L 185.142861 -199.079803 
L 185.142911 -197.221402 
L 185.143346 -195.363002 
L 185.143707 -193.504602 
L 185.143394 -191.646201 
L 185.143054 -189.787801 
L 185.143166 -187.9294 
L 185.143162 -186.071 
L 185.143053 -184.212599 
L 185.143316 -182.354199 
L 185.143361 -180.495799 
L 185.14316 -178.637398 
L 185.143508 -176.778998 
L 185.144081 -174.920597 
L 185.14376 -173.062197 
L 185.144055 -171.203797 
L 185.143719 -169.345396 
L 185.144167 -167.486996 
L 185.146661 -165.628595 
L 185.150448 -163.770195 
L 185.158155 -161.911794 
L 185.173407 -160.053394 
L 185.201921 -158.194994 
L 185.253827 -156.336593 
L 185.34488 -154.478193 
L 185.495748 -152.619792 
L 185.745787 -150.761392 
L 186.149816 -148.902991 
L 186.781409 -147.044591 
L 187.726423 -145.186191 
L 189.047903 -143.32779 
L 190.710935 -141.46939 
L 192.708337 -139.610989 
L 194.993902 -137.752589 
L 197.3697 -135.894189 
L 199.775161 -134.035788 
L 202.088283 -132.177388 
L 204.064315 -130.318987 
L 205.412417 -128.460587 
L 206.164591 -126.602186 
L 206.560993 -124.743786 
L 206.630034 -122.885386 
L 206.379809 -121.026985 
L 206.014331 -119.168585 
L 205.444414 -117.310184 
L 204.943934 -115.451784 
L 204.562639 -113.593384 
L 204.167864 -111.734983 
L 203.764273 -109.876583 
L 203.355323 -108.018182 
L 203.065795 -106.159782 
L 202.991665 -104.301381 
L 203.071432 -102.442981 
L 203.112756 -100.584581 
L 203.325622 -98.72618 
L 203.722262 -96.86778 
L 204.281609 -95.009379 
L 204.949981 -93.150979 
L 205.458049 -91.292578 
L 205.879641 -89.434178 
L 206.420759 -87.575778 
L 207.029706 -85.717377 
L 207.413025 -83.858977 
L 207.5904 -82.000576 
L 207.559869 -80.142176 
L 207.288551 -78.283776 
L 206.780483 -76.425375 
L 206.136055 -74.566975 
L 205.140586 -72.708574 
L 203.892023 -70.850174 
L 202.530926 -68.991773 
L 201.027903 -67.133373 
L 199.180565 -65.274973 
L 196.888903 -63.416572 
L 194.180739 -61.558172 
L 191.230094 -59.699771 
L 188.407712 -57.841371 
L 186.262031 -55.98297 
L 185.362932 -54.12457 
L 185.173679 -52.26617 
L 185.145551 -50.407769 
z
" style="stroke: #494949; stroke-width: 1.25"/>
    </defs>
    <g clip-path="url(#p02f329ea6d)">
     <use xlink:href="#m23ed06a5b2" x="0" y="345.6" style="fill: #5f9e6e; stroke: #494949; stroke-width: 1.25"/>
    </g>
   </g>
   <g id="PolyCollection_4">
    <defs>
     <path id="m1907ce38bc" d="M 236.162339 -50.99719 
L 236.157661 -50.99719 
L 236.13562 -52.819964 
L 236.007456 -54.642737 
L 235.430442 -56.465511 
L 234.129906 -58.288285 
L 231.963158 -60.111059 
L 230.120065 -61.933833 
L 228.286007 -63.756607 
L 226.027483 -65.579381 
L 223.542538 -67.402155 
L 221.723439 -69.224928 
L 220.738379 -71.047702 
L 219.86589 -72.870476 
L 218.856738 -74.69325 
L 218.474179 -76.516024 
L 219.189572 -78.338798 
L 219.725936 -80.161572 
L 219.38714 -81.984345 
L 218.930785 -83.807119 
L 219.405267 -85.629893 
L 219.992919 -87.452667 
L 219.897264 -89.275441 
L 219.248216 -91.098215 
L 219.015089 -92.920989 
L 219.418937 -94.743763 
L 219.574773 -96.566536 
L 218.738747 -98.38931 
L 217.483972 -100.212084 
L 217.056807 -102.034858 
L 216.969651 -103.857632 
L 216.140977 -105.680406 
L 214.634005 -107.50318 
L 213.712457 -109.325953 
L 214.249153 -111.148727 
L 214.883668 -112.971501 
L 214.869436 -114.794275 
L 215.453316 -116.617049 
L 217.577836 -118.439823 
L 220.178822 -120.262597 
L 222.059669 -122.085371 
L 223.836827 -123.908144 
L 226.39698 -125.730918 
L 228.818251 -127.553692 
L 230.607224 -129.376466 
L 231.974056 -131.19924 
L 233.211049 -133.022014 
L 234.236582 -134.844788 
L 234.919373 -136.667561 
L 235.340623 -138.490335 
L 235.634441 -140.313109 
L 235.861385 -142.135883 
L 235.990588 -143.958657 
L 236.063773 -145.781431 
L 236.109499 -147.604205 
L 236.130527 -149.426979 
L 236.142841 -151.249752 
L 236.150702 -153.072526 
L 236.15539 -154.8953 
L 236.157811 -156.718074 
L 236.15916 -158.540848 
L 236.159591 -160.363622 
L 236.159575 -162.186396 
L 236.159507 -164.009169 
L 236.159943 -165.831943 
L 236.159978 -167.654717 
L 236.15952 -169.477491 
L 236.159272 -171.300265 
L 236.159575 -173.123039 
L 236.159176 -174.945813 
L 236.159484 -176.768587 
L 236.159456 -178.59136 
L 236.159198 -180.414134 
L 236.159644 -182.236908 
L 236.159926 -184.059682 
L 236.159999 -185.882456 
L 236.16 -187.70523 
L 236.16 -189.528004 
L 236.16 -191.350777 
L 236.159997 -193.173551 
L 236.159886 -194.996325 
L 236.159752 -196.819099 
L 236.159968 -198.641873 
L 236.16 -200.464647 
L 236.16 -202.287421 
L 236.16 -204.110195 
L 236.16 -205.932968 
L 236.16 -207.755742 
L 236.16 -209.578516 
L 236.16 -211.40129 
L 236.16 -213.224064 
L 236.159981 -215.046838 
L 236.15978 -216.869612 
L 236.159848 -218.692385 
L 236.159994 -220.515159 
L 236.16 -222.337933 
L 236.16 -224.160707 
L 236.159997 -225.983481 
L 236.159894 -227.806255 
L 236.159747 -229.629029 
L 236.159964 -231.451803 
L 236.160036 -231.451803 
L 236.160036 -231.451803 
L 236.160253 -229.629029 
L 236.160106 -227.806255 
L 236.160003 -225.983481 
L 236.16 -224.160707 
L 236.16 -222.337933 
L 236.160006 -220.515159 
L 236.160152 -218.692385 
L 236.16022 -216.869612 
L 236.160019 -215.046838 
L 236.16 -213.224064 
L 236.16 -211.40129 
L 236.16 -209.578516 
L 236.16 -207.755742 
L 236.16 -205.932968 
L 236.16 -204.110195 
L 236.16 -202.287421 
L 236.16 -200.464647 
L 236.160032 -198.641873 
L 236.160248 -196.819099 
L 236.160114 -194.996325 
L 236.160003 -193.173551 
L 236.16 -191.350777 
L 236.16 -189.528004 
L 236.16 -187.70523 
L 236.160001 -185.882456 
L 236.160074 -184.059682 
L 236.160356 -182.236908 
L 236.160802 -180.414134 
L 236.160544 -178.59136 
L 236.160516 -176.768587 
L 236.160824 -174.945813 
L 236.160425 -173.123039 
L 236.160728 -171.300265 
L 236.16048 -169.477491 
L 236.160022 -167.654717 
L 236.160057 -165.831943 
L 236.160493 -164.009169 
L 236.160425 -162.186396 
L 236.160409 -160.363622 
L 236.16084 -158.540848 
L 236.162189 -156.718074 
L 236.16461 -154.8953 
L 236.169298 -153.072526 
L 236.177159 -151.249752 
L 236.189473 -149.426979 
L 236.210501 -147.604205 
L 236.256227 -145.781431 
L 236.329412 -143.958657 
L 236.458615 -142.135883 
L 236.685559 -140.313109 
L 236.979377 -138.490335 
L 237.400627 -136.667561 
L 238.083418 -134.844788 
L 239.108951 -133.022014 
L 240.345944 -131.19924 
L 241.712776 -129.376466 
L 243.501749 -127.553692 
L 245.92302 -125.730918 
L 248.483173 -123.908144 
L 250.260331 -122.085371 
L 252.141178 -120.262597 
L 254.742164 -118.439823 
L 256.866684 -116.617049 
L 257.450564 -114.794275 
L 257.436332 -112.971501 
L 258.070847 -111.148727 
L 258.607543 -109.325953 
L 257.685995 -107.50318 
L 256.179023 -105.680406 
L 255.350349 -103.857632 
L 255.263193 -102.034858 
L 254.836028 -100.212084 
L 253.581253 -98.38931 
L 252.745227 -96.566536 
L 252.901063 -94.743763 
L 253.304911 -92.920989 
L 253.071784 -91.098215 
L 252.422736 -89.275441 
L 252.327081 -87.452667 
L 252.914733 -85.629893 
L 253.389215 -83.807119 
L 252.93286 -81.984345 
L 252.594064 -80.161572 
L 253.130428 -78.338798 
L 253.845821 -76.516024 
L 253.463262 -74.69325 
L 252.45411 -72.870476 
L 251.581621 -71.047702 
L 250.596561 -69.224928 
L 248.777462 -67.402155 
L 246.292517 -65.579381 
L 244.033993 -63.756607 
L 242.199935 -61.933833 
L 240.356842 -60.111059 
L 238.190094 -58.288285 
L 236.889558 -56.465511 
L 236.312544 -54.642737 
L 236.18438 -52.819964 
L 236.162339 -50.99719 
z
" style="stroke: #494949; stroke-width: 1.25"/>
    </defs>
    <g clip-path="url(#p02f329ea6d)">
     <use xlink:href="#m1907ce38bc" x="0" y="345.6" style="fill: #b55d60; stroke: #494949; stroke-width: 1.25"/>
    </g>
   </g>
   <g id="PolyCollection_5">
    <defs>
     <path id="m835af82267" d="M 287.18398 -51.469874 
L 287.170306 -51.469874 
L 287.028336 -53.899794 
L 285.996297 -56.329715 
L 283.178837 -58.759635 
L 280.13381 -61.189556 
L 277.932869 -63.619476 
L 276.155656 -66.049397 
L 274.616936 -68.479317 
L 272.942318 -70.909238 
L 271.073699 -73.339158 
L 269.132701 -75.769078 
L 267.412298 -78.198999 
L 265.983989 -80.628919 
L 265.14555 -83.05884 
L 264.7296 -85.48876 
L 265.008947 -87.918681 
L 265.213462 -90.348601 
L 265.618938 -92.778522 
L 266.102533 -95.208442 
L 266.676003 -97.638363 
L 266.968652 -100.068283 
L 267.233882 -102.498204 
L 267.355206 -104.928124 
L 267.5396 -107.358045 
L 267.843386 -109.787965 
L 268.345165 -112.217885 
L 268.636215 -114.647806 
L 269.274213 -117.077726 
L 269.779886 -119.507647 
L 270.372192 -121.937567 
L 271.19166 -124.367488 
L 272.384158 -126.797408 
L 273.916486 -129.227329 
L 275.750326 -131.657249 
L 277.752541 -134.08717 
L 279.76836 -136.51709 
L 281.639301 -138.947011 
L 283.242064 -141.376931 
L 284.510258 -143.806852 
L 285.454771 -146.236772 
L 286.114791 -148.666692 
L 286.556195 -151.096613 
L 286.827532 -153.526533 
L 286.989185 -155.956454 
L 287.074654 -158.386374 
L 287.124735 -160.816295 
L 287.147407 -163.246215 
L 287.162644 -165.676136 
L 287.168418 -168.106056 
L 287.17266 -170.535977 
L 287.174655 -172.965897 
L 287.175054 -175.395818 
L 287.175948 -177.825738 
L 287.176489 -180.255659 
L 287.176483 -182.685579 
L 287.176838 -185.115499 
L 287.176894 -187.54542 
L 287.176902 -189.97534 
L 287.176918 -192.405261 
L 287.177001 -194.835181 
L 287.177131 -197.265102 
L 287.177073 -199.695022 
L 287.176954 -202.124943 
L 287.176963 -204.554863 
L 287.177081 -206.984784 
L 287.177108 -209.414704 
L 287.177062 -211.844625 
L 287.177044 -214.274545 
L 287.177121 -216.704466 
L 287.177107 -219.134386 
L 287.177057 -221.564306 
L 287.177088 -223.994227 
L 287.177048 -226.424147 
L 287.177135 -228.854068 
L 287.177143 -231.283988 
L 287.177092 -233.713909 
L 287.177141 -236.143829 
L 287.177143 -238.57375 
L 287.177143 -241.00367 
L 287.17714 -243.433591 
L 287.177035 -245.863511 
L 287.17709 -248.293432 
L 287.177139 -250.723352 
L 287.177095 -253.153273 
L 287.177133 -255.583193 
L 287.17705 -258.013113 
L 287.177095 -260.443034 
L 287.177105 -262.872954 
L 287.177133 -265.302875 
L 287.177112 -267.732795 
L 287.177143 -270.162716 
L 287.17711 -272.592636 
L 287.177098 -275.022557 
L 287.177099 -277.452477 
L 287.177109 -279.882398 
L 287.177143 -282.312318 
L 287.177112 -284.742239 
L 287.177098 -287.172159 
L 287.177097 -289.60208 
L 287.177136 -292.032 
L 287.17715 -292.032 
L 287.17715 -292.032 
L 287.177189 -289.60208 
L 287.177187 -287.172159 
L 287.177174 -284.742239 
L 287.177143 -282.312318 
L 287.177177 -279.882398 
L 287.177186 -277.452477 
L 287.177187 -275.022557 
L 287.177176 -272.592636 
L 287.177143 -270.162716 
L 287.177174 -267.732795 
L 287.177153 -265.302875 
L 287.17718 -262.872954 
L 287.177191 -260.443034 
L 287.177235 -258.013113 
L 287.177152 -255.583193 
L 287.177191 -253.153273 
L 287.177146 -250.723352 
L 287.177196 -248.293432 
L 287.17725 -245.863511 
L 287.177146 -243.433591 
L 287.177143 -241.00367 
L 287.177143 -238.57375 
L 287.177145 -236.143829 
L 287.177194 -233.713909 
L 287.177143 -231.283988 
L 287.177151 -228.854068 
L 287.177238 -226.424147 
L 287.177198 -223.994227 
L 287.177229 -221.564306 
L 287.177179 -219.134386 
L 287.177165 -216.704466 
L 287.177242 -214.274545 
L 287.177223 -211.844625 
L 287.177178 -209.414704 
L 287.177205 -206.984784 
L 287.177322 -204.554863 
L 287.177332 -202.124943 
L 287.177213 -199.695022 
L 287.177155 -197.265102 
L 287.177284 -194.835181 
L 287.177367 -192.405261 
L 287.177383 -189.97534 
L 287.177391 -187.54542 
L 287.177448 -185.115499 
L 287.177803 -182.685579 
L 287.177797 -180.255659 
L 287.178338 -177.825738 
L 287.179231 -175.395818 
L 287.179631 -172.965897 
L 287.181626 -170.535977 
L 287.185868 -168.106056 
L 287.191642 -165.676136 
L 287.206879 -163.246215 
L 287.22955 -160.816295 
L 287.279632 -158.386374 
L 287.365101 -155.956454 
L 287.526754 -153.526533 
L 287.798091 -151.096613 
L 288.239495 -148.666692 
L 288.899515 -146.236772 
L 289.844027 -143.806852 
L 291.112222 -141.376931 
L 292.714985 -138.947011 
L 294.585926 -136.51709 
L 296.601744 -134.08717 
L 298.60396 -131.657249 
L 300.4378 -129.227329 
L 301.970128 -126.797408 
L 303.162626 -124.367488 
L 303.982094 -121.937567 
L 304.5744 -119.507647 
L 305.080073 -117.077726 
L 305.71807 -114.647806 
L 306.009121 -112.217885 
L 306.510899 -109.787965 
L 306.814686 -107.358045 
L 306.99908 -104.928124 
L 307.120404 -102.498204 
L 307.385634 -100.068283 
L 307.678283 -97.638363 
L 308.251752 -95.208442 
L 308.735347 -92.778522 
L 309.140824 -90.348601 
L 309.345339 -87.918681 
L 309.624686 -85.48876 
L 309.208736 -83.05884 
L 308.370297 -80.628919 
L 306.941987 -78.198999 
L 305.221585 -75.769078 
L 303.280587 -73.339158 
L 301.411968 -70.909238 
L 299.73735 -68.479317 
L 298.19863 -66.049397 
L 296.421417 -63.619476 
L 294.220476 -61.189556 
L 291.175449 -58.759635 
L 288.357989 -56.329715 
L 287.325949 -53.899794 
L 287.18398 -51.469874 
z
" style="stroke: #494949; stroke-width: 1.25"/>
    </defs>
    <g clip-path="url(#p02f329ea6d)">
     <use xlink:href="#m835af82267" x="0" y="345.6" style="fill: #857aab; stroke: #494949; stroke-width: 1.25"/>
    </g>
   </g>
   <g id="PolyCollection_6">
    <defs>
     <path id="m55fdbfa333" d="M 338.197194 -50.28387 
L 338.191378 -50.28387 
L 338.156266 -52.453121 
L 337.900542 -54.622373 
L 336.649191 -56.791624 
L 334.470873 -58.960875 
L 332.181466 -61.130127 
L 330.116253 -63.299378 
L 328.269526 -65.468629 
L 326.54128 -67.637881 
L 324.631753 -69.807132 
L 322.656727 -71.976383 
L 320.680287 -74.145635 
L 318.821209 -76.314886 
L 317.256673 -78.484137 
L 316.216551 -80.653388 
L 315.746743 -82.82264 
L 315.886055 -84.991891 
L 316.476292 -87.161142 
L 317.40307 -89.330394 
L 318.369514 -91.499645 
L 319.139975 -93.668896 
L 319.95353 -95.838148 
L 320.536567 -98.007399 
L 321.051684 -100.17665 
L 321.506975 -102.345902 
L 321.511426 -104.515153 
L 321.466327 -106.684404 
L 321.349815 -108.853656 
L 321.03774 -111.022907 
L 320.599724 -113.192158 
L 319.936538 -115.36141 
L 319.129082 -117.530661 
L 318.479624 -119.699912 
L 318.082656 -121.869164 
L 317.874118 -124.038415 
L 317.889475 -126.207666 
L 318.447582 -128.376918 
L 319.496696 -130.546169 
L 321.026586 -132.71542 
L 322.995423 -134.884672 
L 325.194532 -137.053923 
L 327.461799 -139.223174 
L 329.770601 -141.392425 
L 331.825599 -143.561677 
L 333.501713 -145.730928 
L 334.908686 -147.900179 
L 336.011889 -150.069431 
L 336.807787 -152.238682 
L 337.342568 -154.407933 
L 337.667982 -156.577185 
L 337.883219 -158.746436 
L 337.998488 -160.915687 
L 338.089988 -163.084939 
L 338.142437 -165.25419 
L 338.165523 -167.423441 
L 338.179026 -169.592693 
L 338.185403 -171.761944 
L 338.187654 -173.931195 
L 338.189994 -176.100447 
L 338.191888 -178.269698 
L 338.192297 -180.438949 
L 338.192407 -182.608201 
L 338.193073 -184.777452 
L 338.192441 -186.946703 
L 338.192917 -189.115955 
L 338.193523 -191.285206 
L 338.193735 -193.454457 
L 338.194063 -195.623709 
L 338.194245 -197.79296 
L 338.194005 -199.962211 
L 338.193973 -202.131462 
L 338.194018 -204.300714 
L 338.193745 -206.469965 
L 338.193868 -208.639216 
L 338.194211 -210.808468 
L 338.194166 -212.977719 
L 338.1939 -215.14697 
L 338.194078 -217.316222 
L 338.193912 -219.485473 
L 338.194104 -221.654724 
L 338.194276 -223.823976 
L 338.194257 -225.993227 
L 338.194001 -228.162478 
L 338.19396 -230.33173 
L 338.193799 -232.500981 
L 338.193601 -234.670232 
L 338.194179 -236.839484 
L 338.194284 -239.008735 
L 338.194286 -241.177986 
L 338.194284 -243.347238 
L 338.194204 -245.516489 
L 338.19385 -247.68574 
L 338.193701 -249.854992 
L 338.193734 -252.024243 
L 338.194038 -254.193494 
L 338.194268 -256.362746 
L 338.194269 -258.531997 
L 338.194055 -260.701248 
L 338.193946 -262.870499 
L 338.194234 -265.039751 
L 338.194338 -265.039751 
L 338.194338 -265.039751 
L 338.194626 -262.870499 
L 338.194517 -260.701248 
L 338.194302 -258.531997 
L 338.194303 -256.362746 
L 338.194533 -254.193494 
L 338.194838 -252.024243 
L 338.19487 -249.854992 
L 338.194722 -247.68574 
L 338.194367 -245.516489 
L 338.194288 -243.347238 
L 338.194286 -241.177986 
L 338.194287 -239.008735 
L 338.194393 -236.839484 
L 338.194971 -234.670232 
L 338.194772 -232.500981 
L 338.194612 -230.33173 
L 338.19457 -228.162478 
L 338.194314 -225.993227 
L 338.194295 -223.823976 
L 338.194467 -221.654724 
L 338.19466 -219.485473 
L 338.194494 -217.316222 
L 338.194671 -215.14697 
L 338.194405 -212.977719 
L 338.19436 -210.808468 
L 338.194703 -208.639216 
L 338.194826 -206.469965 
L 338.194553 -204.300714 
L 338.194599 -202.131462 
L 338.194567 -199.962211 
L 338.194327 -197.79296 
L 338.194509 -195.623709 
L 338.194836 -193.454457 
L 338.195049 -191.285206 
L 338.195655 -189.115955 
L 338.19613 -186.946703 
L 338.195498 -184.777452 
L 338.196165 -182.608201 
L 338.196275 -180.438949 
L 338.196684 -178.269698 
L 338.198577 -176.100447 
L 338.200917 -173.931195 
L 338.203169 -171.761944 
L 338.209546 -169.592693 
L 338.223049 -167.423441 
L 338.246134 -165.25419 
L 338.298583 -163.084939 
L 338.390084 -160.915687 
L 338.505352 -158.746436 
L 338.72059 -156.577185 
L 339.046003 -154.407933 
L 339.580784 -152.238682 
L 340.376682 -150.069431 
L 341.479886 -147.900179 
L 342.886858 -145.730928 
L 344.562973 -143.561677 
L 346.617971 -141.392425 
L 348.926772 -139.223174 
L 351.194039 -137.053923 
L 353.393148 -134.884672 
L 355.361986 -132.71542 
L 356.891875 -130.546169 
L 357.940989 -128.376918 
L 358.499096 -126.207666 
L 358.514454 -124.038415 
L 358.305916 -121.869164 
L 357.908947 -119.699912 
L 357.259489 -117.530661 
L 356.452034 -115.36141 
L 355.788848 -113.192158 
L 355.350832 -111.022907 
L 355.038757 -108.853656 
L 354.922244 -106.684404 
L 354.877145 -104.515153 
L 354.881596 -102.345902 
L 355.336888 -100.17665 
L 355.852004 -98.007399 
L 356.435041 -95.838148 
L 357.248597 -93.668896 
L 358.019057 -91.499645 
L 358.985502 -89.330394 
L 359.912279 -87.161142 
L 360.502516 -84.991891 
L 360.641829 -82.82264 
L 360.172021 -80.653388 
L 359.131899 -78.484137 
L 357.567362 -76.314886 
L 355.708285 -74.145635 
L 353.731845 -71.976383 
L 351.756819 -69.807132 
L 349.847292 -67.637881 
L 348.119045 -65.468629 
L 346.272319 -63.299378 
L 344.207106 -61.130127 
L 341.917698 -58.960875 
L 339.73938 -56.791624 
L 338.48803 -54.622373 
L 338.232305 -52.453121 
L 338.197194 -50.28387 
z
" style="stroke: #494949; stroke-width: 1.25"/>
    </defs>
    <g clip-path="url(#p02f329ea6d)">
     <use xlink:href="#m55fdbfa333" x="0" y="345.6" style="fill: #8d7866; stroke: #494949; stroke-width: 1.25"/>
    </g>
   </g>
   <g id="PolyCollection_7">
    <defs>
     <path id="m4d96f55136" d="M 389.389824 -50.112 
L 389.033033 -50.112 
L 387.979581 -51.59687 
L 383.618905 -53.081741 
L 374.250021 -54.566611 
L 367.261742 -56.051482 
L 366.763886 -57.536352 
L 368.63121 -59.021223 
L 370.523175 -60.506093 
L 372.023427 -61.990964 
L 373.243579 -63.475834 
L 374.095737 -64.960705 
L 374.391327 -66.445575 
L 374.250274 -67.930446 
L 373.785602 -69.415316 
L 373.029746 -70.900187 
L 372.116552 -72.385057 
L 371.293584 -73.869927 
L 370.773109 -75.354798 
L 370.642196 -76.839668 
L 371.050226 -78.324539 
L 371.921462 -79.809409 
L 373.163652 -81.29428 
L 374.650717 -82.77915 
L 376.079919 -84.264021 
L 377.292915 -85.748891 
L 378.21118 -87.233762 
L 378.906066 -88.718632 
L 379.503733 -90.203503 
L 379.982858 -91.688373 
L 380.357346 -93.173243 
L 380.707384 -94.658114 
L 381.063588 -96.142984 
L 381.435811 -97.627855 
L 381.791789 -99.112725 
L 382.088239 -100.597596 
L 382.349338 -102.082466 
L 382.613691 -103.567337 
L 382.886108 -105.052207 
L 383.187308 -106.537078 
L 383.491868 -108.021948 
L 383.76923 -109.506819 
L 384.002316 -110.991689 
L 384.210922 -112.47656 
L 384.439049 -113.96143 
L 384.693332 -115.4463 
L 384.89801 -116.931171 
L 385.032986 -118.416041 
L 385.176509 -119.900912 
L 385.359115 -121.385782 
L 385.586973 -122.870653 
L 385.832362 -124.355523 
L 386.085309 -125.840394 
L 386.34185 -127.325264 
L 386.593834 -128.810135 
L 386.848724 -130.295005 
L 387.099436 -131.779876 
L 387.344666 -133.264746 
L 387.591827 -134.749617 
L 387.825376 -136.234487 
L 388.043934 -137.719357 
L 388.251406 -139.204228 
L 388.438874 -140.689098 
L 388.599104 -142.173969 
L 388.721604 -143.658839 
L 388.822392 -145.14371 
L 388.915746 -146.62858 
L 388.990208 -148.113451 
L 389.047533 -149.598321 
L 389.095351 -151.083192 
L 389.13274 -152.568062 
L 389.160401 -154.052933 
L 389.180127 -155.537803 
L 389.191729 -157.022673 
L 389.196575 -158.507544 
L 389.199384 -159.992414 
L 389.202328 -161.477285 
L 389.205491 -162.962155 
L 389.207456 -164.447026 
L 389.208142 -165.931896 
L 389.208455 -167.416767 
L 389.209121 -168.901637 
L 389.209966 -170.386508 
L 389.210025 -171.871378 
L 389.209319 -173.356249 
L 389.208681 -174.841119 
L 389.209459 -176.32599 
L 389.210814 -177.81086 
L 389.211286 -179.29573 
L 389.211136 -180.780601 
L 389.21095 -182.265471 
L 389.21112 -183.750342 
L 389.211351 -185.235212 
L 389.211421 -186.720083 
L 389.211428 -188.204953 
L 389.211421 -189.689824 
L 389.211348 -191.174694 
L 389.211114 -192.659565 
L 389.21095 -194.144435 
L 389.211146 -195.629306 
L 389.211364 -197.114176 
L 389.211493 -197.114176 
L 389.211493 -197.114176 
L 389.211711 -195.629306 
L 389.211907 -194.144435 
L 389.211744 -192.659565 
L 389.211509 -191.174694 
L 389.211437 -189.689824 
L 389.211429 -188.204953 
L 389.211436 -186.720083 
L 389.211506 -185.235212 
L 389.211737 -183.750342 
L 389.211907 -182.265471 
L 389.211721 -180.780601 
L 389.211571 -179.29573 
L 389.212043 -177.81086 
L 389.213399 -176.32599 
L 389.214176 -174.841119 
L 389.213538 -173.356249 
L 389.212832 -171.871378 
L 389.212891 -170.386508 
L 389.213737 -168.901637 
L 389.214402 -167.416767 
L 389.214715 -165.931896 
L 389.215401 -164.447026 
L 389.217366 -162.962155 
L 389.22053 -161.477285 
L 389.223473 -159.992414 
L 389.226283 -158.507544 
L 389.231128 -157.022673 
L 389.24273 -155.537803 
L 389.262456 -154.052933 
L 389.290117 -152.568062 
L 389.327506 -151.083192 
L 389.375324 -149.598321 
L 389.432649 -148.113451 
L 389.507112 -146.62858 
L 389.600465 -145.14371 
L 389.701253 -143.658839 
L 389.823753 -142.173969 
L 389.983983 -140.689098 
L 390.171452 -139.204228 
L 390.378923 -137.719357 
L 390.597481 -136.234487 
L 390.83103 -134.749617 
L 391.078191 -133.264746 
L 391.323421 -131.779876 
L 391.574133 -130.295005 
L 391.829023 -128.810135 
L 392.081007 -127.325264 
L 392.337548 -125.840394 
L 392.590495 -124.355523 
L 392.835884 -122.870653 
L 393.063742 -121.385782 
L 393.246348 -119.900912 
L 393.389871 -118.416041 
L 393.524848 -116.931171 
L 393.729525 -115.4463 
L 393.983808 -113.96143 
L 394.211935 -112.47656 
L 394.420542 -110.991689 
L 394.653627 -109.506819 
L 394.930989 -108.021948 
L 395.23555 -106.537078 
L 395.536749 -105.052207 
L 395.809166 -103.567337 
L 396.073519 -102.082466 
L 396.334618 -100.597596 
L 396.631068 -99.112725 
L 396.987046 -97.627855 
L 397.359269 -96.142984 
L 397.715473 -94.658114 
L 398.065511 -93.173243 
L 398.439999 -91.688373 
L 398.919124 -90.203503 
L 399.516791 -88.718632 
L 400.211678 -87.233762 
L 401.129943 -85.748891 
L 402.342939 -84.264021 
L 403.77214 -82.77915 
L 405.259206 -81.29428 
L 406.501395 -79.809409 
L 407.372632 -78.324539 
L 407.780661 -76.839668 
L 407.649748 -75.354798 
L 407.129273 -73.869927 
L 406.306306 -72.385057 
L 405.393111 -70.900187 
L 404.637255 -69.415316 
L 404.172583 -67.930446 
L 404.03153 -66.445575 
L 404.327121 -64.960705 
L 405.179279 -63.475834 
L 406.399431 -61.990964 
L 407.899683 -60.506093 
L 409.791647 -59.021223 
L 411.658971 -57.536352 
L 411.161115 -56.051482 
L 404.172836 -54.566611 
L 394.803952 -53.081741 
L 390.443276 -51.59687 
L 389.389824 -50.112 
z
" style="stroke: #494949; stroke-width: 1.25"/>
    </defs>
    <g clip-path="url(#p02f329ea6d)">
     <use xlink:href="#m4d96f55136" x="0" y="345.6" style="fill: #d095bf; stroke: #494949; stroke-width: 1.25"/>
    </g>
   </g>
   <g id="line2d_7">
    <path d="M 83.108571 292.432544 
L 83.108571 217.290536 
" clip-path="url(#p02f329ea6d)" style="fill: none; stroke: #494949; stroke-width: 1.875; stroke-linecap: round"/>
   </g>
   <g id="line2d_8">
    <path d="M 83.108571 280.691606 
L 83.108571 254.86154 
" clip-path="url(#p02f329ea6d)" style="fill: none; stroke: #494949; stroke-width: 5.625; stroke-linecap: round"/>
   </g>
   <g id="line2d_9">
    <path d="M 83.108571 271.298855 
" clip-path="url(#p02f329ea6d)" style="fill: none; stroke: #494949; stroke-width: 1.5; stroke-linecap: round"/>
    <defs>
     <path id="mb04917ebe5" d="M 2.34375 0 
L -2.34375 -0 
" style="stroke: #ffffff; stroke-width: 1.125"/>
    </defs>
    <g clip-path="url(#p02f329ea6d)">
     <use xlink:href="#mb04917ebe5" x="83.108571" y="271.298855" style="fill: #ffffff; stroke: #ffffff; stroke-width: 1.125"/>
    </g>
   </g>
   <g id="line2d_10">
    <path d="M 134.125714 292.432544 
L 134.125714 170.326781 
" clip-path="url(#p02f329ea6d)" style="fill: none; stroke: #494949; stroke-width: 1.875; stroke-linecap: round"/>
   </g>
   <g id="line2d_11">
    <path d="M 134.125714 264.254291 
L 134.125714 226.683287 
" clip-path="url(#p02f329ea6d)" style="fill: none; stroke: #494949; stroke-width: 5.625; stroke-linecap: round"/>
   </g>
   <g id="line2d_12">
    <path d="M 134.125714 245.468789 
" clip-path="url(#p02f329ea6d)" style="fill: none; stroke: #494949; stroke-width: 1.5; stroke-linecap: round"/>
    <g clip-path="url(#p02f329ea6d)">
     <use xlink:href="#mb04917ebe5" x="134.125714" y="245.468789" style="fill: #ffffff; stroke: #ffffff; stroke-width: 1.125"/>
    </g>
   </g>
   <g id="line2d_13">
    <path d="M 185.142857 292.432544 
L 185.142857 170.326781 
" clip-path="url(#p02f329ea6d)" style="fill: none; stroke: #494949; stroke-width: 1.875; stroke-linecap: round"/>
   </g>
   <g id="line2d_14">
    <path d="M 185.142857 264.254291 
L 185.142857 226.683287 
" clip-path="url(#p02f329ea6d)" style="fill: none; stroke: #494949; stroke-width: 5.625; stroke-linecap: round"/>
   </g>
   <g id="line2d_15">
    <path d="M 185.142857 245.468789 
" clip-path="url(#p02f329ea6d)" style="fill: none; stroke: #494949; stroke-width: 1.5; stroke-linecap: round"/>
    <g clip-path="url(#p02f329ea6d)">
     <use xlink:href="#mb04917ebe5" x="185.142857" y="245.468789" style="fill: #ffffff; stroke: #ffffff; stroke-width: 1.125"/>
    </g>
   </g>
   <g id="line2d_16">
    <path d="M 236.16 292.432544 
L 236.16 189.112283 
" clip-path="url(#p02f329ea6d)" style="fill: none; stroke: #494949; stroke-width: 1.875; stroke-linecap: round"/>
   </g>
   <g id="line2d_17">
    <path d="M 236.16 264.254291 
L 236.16 233.727851 
" clip-path="url(#p02f329ea6d)" style="fill: none; stroke: #494949; stroke-width: 5.625; stroke-linecap: round"/>
   </g>
   <g id="line2d_18">
    <path d="M 236.16 247.816977 
" clip-path="url(#p02f329ea6d)" style="fill: none; stroke: #494949; stroke-width: 1.5; stroke-linecap: round"/>
    <g clip-path="url(#p02f329ea6d)">
     <use xlink:href="#mb04917ebe5" x="236.16" y="247.816977" style="fill: #ffffff; stroke: #ffffff; stroke-width: 1.125"/>
    </g>
   </g>
   <g id="line2d_19">
    <path d="M 287.177143 292.432544 
L 287.177143 177.371345 
" clip-path="url(#p02f329ea6d)" style="fill: none; stroke: #494949; stroke-width: 1.875; stroke-linecap: round"/>
   </g>
   <g id="line2d_20">
    <path d="M 287.177143 264.254291 
L 287.177143 229.031475 
" clip-path="url(#p02f329ea6d)" style="fill: none; stroke: #494949; stroke-width: 5.625; stroke-linecap: round"/>
   </g>
   <g id="line2d_21">
    <path d="M 287.177143 247.816977 
" clip-path="url(#p02f329ea6d)" style="fill: none; stroke: #494949; stroke-width: 1.5; stroke-linecap: round"/>
    <g clip-path="url(#p02f329ea6d)">
     <use xlink:href="#mb04917ebe5" x="287.177143" y="247.816977" style="fill: #ffffff; stroke: #ffffff; stroke-width: 1.125"/>
    </g>
   </g>
   <g id="line2d_22">
    <path d="M 338.194286 292.432544 
L 338.194286 163.282218 
" clip-path="url(#p02f329ea6d)" style="fill: none; stroke: #494949; stroke-width: 1.875; stroke-linecap: round"/>
   </g>
   <g id="line2d_23">
    <path d="M 338.194286 261.906104 
L 338.194286 221.986912 
" clip-path="url(#p02f329ea6d)" style="fill: none; stroke: #494949; stroke-width: 5.625; stroke-linecap: round"/>
   </g>
   <g id="line2d_24">
    <path d="M 338.194286 243.120602 
" clip-path="url(#p02f329ea6d)" style="fill: none; stroke: #494949; stroke-width: 1.5; stroke-linecap: round"/>
    <g clip-path="url(#p02f329ea6d)">
     <use xlink:href="#mb04917ebe5" x="338.194286" y="243.120602" style="fill: #ffffff; stroke: #ffffff; stroke-width: 1.125"/>
    </g>
   </g>
   <g id="line2d_25">
    <path d="M 389.211429 292.432544 
L 389.211429 210.245973 
" clip-path="url(#p02f329ea6d)" style="fill: none; stroke: #494949; stroke-width: 1.875; stroke-linecap: round"/>
   </g>
   <g id="line2d_26">
    <path d="M 389.211429 280.691606 
L 389.211429 252.513353 
" clip-path="url(#p02f329ea6d)" style="fill: none; stroke: #494949; stroke-width: 5.625; stroke-linecap: round"/>
   </g>
   <g id="line2d_27">
    <path d="M 389.211429 268.950667 
" clip-path="url(#p02f329ea6d)" style="fill: none; stroke: #494949; stroke-width: 1.5; stroke-linecap: round"/>
    <g clip-path="url(#p02f329ea6d)">
     <use xlink:href="#mb04917ebe5" x="389.211429" y="268.950667" style="fill: #ffffff; stroke: #ffffff; stroke-width: 1.125"/>
    </g>
   </g>
   <g id="patch_3">
    <path d="M 57.6 307.584 
L 57.6 41.472 
" style="fill: none; stroke: #cccccc; stroke-width: 1.25; stroke-linejoin: miter; stroke-linecap: square"/>
   </g>
   <g id="patch_4">
    <path d="M 414.72 307.584 
L 414.72 41.472 
" style="fill: none; stroke: #cccccc; stroke-width: 1.25; stroke-linejoin: miter; stroke-linecap: square"/>
   </g>
   <g id="patch_5">
    <path d="M 57.6 307.584 
L 414.72 307.584 
" style="fill: none; stroke: #cccccc; stroke-width: 1.25; stroke-linejoin: miter; stroke-linecap: square"/>
   </g>
   <g id="patch_6">
    <path d="M 57.6 41.472 
L 414.72 41.472 
" style="fill: none; stroke: #cccccc; stroke-width: 1.25; stroke-linejoin: miter; stroke-linecap: square"/>
   </g>
   <g id="text_14">
    <!-- Number of Lemmas per Tweet per Language -->
    <g style="fill: #262626" transform="translate(116.874375 35.472) scale(0.12 -0.12)">
     <defs>
      <path id="ArialMT-4e" d="M 488 0 
L 488 4581 
L 1109 4581 
L 3516 984 
L 3516 4581 
L 4097 4581 
L 4097 0 
L 3475 0 
L 1069 3600 
L 1069 0 
L 488 0 
z
" transform="scale(0.015625)"/>
      <path id="ArialMT-6d" d="M 422 0 
L 422 3319 
L 925 3319 
L 925 2853 
Q 1081 3097 1340 3245 
Q 1600 3394 1931 3394 
Q 2300 3394 2536 3241 
Q 2772 3088 2869 2813 
Q 3263 3394 3894 3394 
Q 4388 3394 4653 3120 
Q 4919 2847 4919 2278 
L 4919 0 
L 4359 0 
L 4359 2091 
Q 4359 2428 4304 2576 
Q 4250 2725 4106 2815 
Q 3963 2906 3769 2906 
Q 3419 2906 3187 2673 
Q 2956 2441 2956 1928 
L 2956 0 
L 2394 0 
L 2394 2156 
Q 2394 2531 2256 2718 
Q 2119 2906 1806 2906 
Q 1569 2906 1367 2781 
Q 1166 2656 1075 2415 
Q 984 2175 984 1722 
L 984 0 
L 422 0 
z
" transform="scale(0.015625)"/>
      <path id="ArialMT-62" d="M 941 0 
L 419 0 
L 419 4581 
L 981 4581 
L 981 2947 
Q 1338 3394 1891 3394 
Q 2197 3394 2470 3270 
Q 2744 3147 2920 2923 
Q 3097 2700 3197 2384 
Q 3297 2069 3297 1709 
Q 3297 856 2875 390 
Q 2453 -75 1863 -75 
Q 1275 -75 941 416 
L 941 0 
z
M 934 1684 
Q 934 1088 1097 822 
Q 1363 388 1816 388 
Q 2184 388 2453 708 
Q 2722 1028 2722 1663 
Q 2722 2313 2464 2622 
Q 2206 2931 1841 2931 
Q 1472 2931 1203 2611 
Q 934 2291 934 1684 
z
" transform="scale(0.015625)"/>
      <path id="ArialMT-20" transform="scale(0.015625)"/>
      <path id="ArialMT-6f" d="M 213 1659 
Q 213 2581 725 3025 
Q 1153 3394 1769 3394 
Q 2453 3394 2887 2945 
Q 3322 2497 3322 1706 
Q 3322 1066 3130 698 
Q 2938 331 2570 128 
Q 2203 -75 1769 -75 
Q 1072 -75 642 372 
Q 213 819 213 1659 
z
M 791 1659 
Q 791 1022 1069 705 
Q 1347 388 1769 388 
Q 2188 388 2466 706 
Q 2744 1025 2744 1678 
Q 2744 2294 2464 2611 
Q 2184 2928 1769 2928 
Q 1347 2928 1069 2612 
Q 791 2297 791 1659 
z
" transform="scale(0.015625)"/>
      <path id="ArialMT-4c" d="M 469 0 
L 469 4581 
L 1075 4581 
L 1075 541 
L 3331 541 
L 3331 0 
L 469 0 
z
" transform="scale(0.015625)"/>
      <path id="ArialMT-61" d="M 2588 409 
Q 2275 144 1986 34 
Q 1697 -75 1366 -75 
Q 819 -75 525 192 
Q 231 459 231 875 
Q 231 1119 342 1320 
Q 453 1522 633 1644 
Q 813 1766 1038 1828 
Q 1203 1872 1538 1913 
Q 2219 1994 2541 2106 
Q 2544 2222 2544 2253 
Q 2544 2597 2384 2738 
Q 2169 2928 1744 2928 
Q 1347 2928 1158 2789 
Q 969 2650 878 2297 
L 328 2372 
Q 403 2725 575 2942 
Q 747 3159 1072 3276 
Q 1397 3394 1825 3394 
Q 2250 3394 2515 3294 
Q 2781 3194 2906 3042 
Q 3031 2891 3081 2659 
Q 3109 2516 3109 2141 
L 3109 1391 
Q 3109 606 3145 398 
Q 3181 191 3288 0 
L 2700 0 
Q 2613 175 2588 409 
z
M 2541 1666 
Q 2234 1541 1622 1453 
Q 1275 1403 1131 1340 
Q 988 1278 909 1158 
Q 831 1038 831 891 
Q 831 666 1001 516 
Q 1172 366 1500 366 
Q 1825 366 2078 508 
Q 2331 650 2450 897 
Q 2541 1088 2541 1459 
L 2541 1666 
z
" transform="scale(0.015625)"/>
      <path id="ArialMT-70" d="M 422 -1272 
L 422 3319 
L 934 3319 
L 934 2888 
Q 1116 3141 1344 3267 
Q 1572 3394 1897 3394 
Q 2322 3394 2647 3175 
Q 2972 2956 3137 2557 
Q 3303 2159 3303 1684 
Q 3303 1175 3120 767 
Q 2938 359 2589 142 
Q 2241 -75 1856 -75 
Q 1575 -75 1351 44 
Q 1128 163 984 344 
L 984 -1272 
L 422 -1272 
z
M 931 1641 
Q 931 1000 1190 694 
Q 1450 388 1819 388 
Q 2194 388 2461 705 
Q 2728 1022 2728 1688 
Q 2728 2322 2467 2637 
Q 2206 2953 1844 2953 
Q 1484 2953 1207 2617 
Q 931 2281 931 1641 
z
" transform="scale(0.015625)"/>
      <path id="ArialMT-54" d="M 1659 0 
L 1659 4041 
L 150 4041 
L 150 4581 
L 3781 4581 
L 3781 4041 
L 2266 4041 
L 2266 0 
L 1659 0 
z
" transform="scale(0.015625)"/>
      <path id="ArialMT-77" d="M 1034 0 
L 19 3319 
L 600 3319 
L 1128 1403 
L 1325 691 
Q 1338 744 1497 1375 
L 2025 3319 
L 2603 3319 
L 3100 1394 
L 3266 759 
L 3456 1400 
L 4025 3319 
L 4572 3319 
L 3534 0 
L 2950 0 
L 2422 1988 
L 2294 2553 
L 1622 0 
L 1034 0 
z
" transform="scale(0.015625)"/>
      <path id="ArialMT-67" d="M 319 -275 
L 866 -356 
Q 900 -609 1056 -725 
Q 1266 -881 1628 -881 
Q 2019 -881 2231 -725 
Q 2444 -569 2519 -288 
Q 2563 -116 2559 434 
Q 2191 0 1641 0 
Q 956 0 581 494 
Q 206 988 206 1678 
Q 206 2153 378 2554 
Q 550 2956 876 3175 
Q 1203 3394 1644 3394 
Q 2231 3394 2613 2919 
L 2613 3319 
L 3131 3319 
L 3131 450 
Q 3131 -325 2973 -648 
Q 2816 -972 2473 -1159 
Q 2131 -1347 1631 -1347 
Q 1038 -1347 672 -1080 
Q 306 -813 319 -275 
z
M 784 1719 
Q 784 1066 1043 766 
Q 1303 466 1694 466 
Q 2081 466 2343 764 
Q 2606 1063 2606 1700 
Q 2606 2309 2336 2618 
Q 2066 2928 1684 2928 
Q 1309 2928 1046 2623 
Q 784 2319 784 1719 
z
" transform="scale(0.015625)"/>
     </defs>
     <use xlink:href="#ArialMT-4e"/>
     <use xlink:href="#ArialMT-75" x="72.216797"/>
     <use xlink:href="#ArialMT-6d" x="127.832031"/>
     <use xlink:href="#ArialMT-62" x="211.132812"/>
     <use xlink:href="#ArialMT-65" x="266.748047"/>
     <use xlink:href="#ArialMT-72" x="322.363281"/>
     <use xlink:href="#ArialMT-20" x="355.664062"/>
     <use xlink:href="#ArialMT-6f" x="383.447266"/>
     <use xlink:href="#ArialMT-66" x="439.0625"/>
     <use xlink:href="#ArialMT-20" x="466.845703"/>
     <use xlink:href="#ArialMT-4c" x="494.628906"/>
     <use xlink:href="#ArialMT-65" x="550.244141"/>
     <use xlink:href="#ArialMT-6d" x="605.859375"/>
     <use xlink:href="#ArialMT-6d" x="689.160156"/>
     <use xlink:href="#ArialMT-61" x="772.460938"/>
     <use xlink:href="#ArialMT-73" x="828.076172"/>
     <use xlink:href="#ArialMT-20" x="878.076172"/>
     <use xlink:href="#ArialMT-70" x="905.859375"/>
     <use xlink:href="#ArialMT-65" x="961.474609"/>
     <use xlink:href="#ArialMT-72" x="1017.089844"/>
     <use xlink:href="#ArialMT-20" x="1050.390625"/>
     <use xlink:href="#ArialMT-54" x="1076.423828"/>
     <use xlink:href="#ArialMT-77" x="1132.007812"/>
     <use xlink:href="#ArialMT-65" x="1204.224609"/>
     <use xlink:href="#ArialMT-65" x="1259.839844"/>
     <use xlink:href="#ArialMT-74" x="1315.455078"/>
     <use xlink:href="#ArialMT-20" x="1343.238281"/>
     <use xlink:href="#ArialMT-70" x="1371.021484"/>
     <use xlink:href="#ArialMT-65" x="1426.636719"/>
     <use xlink:href="#ArialMT-72" x="1482.251953"/>
     <use xlink:href="#ArialMT-20" x="1515.552734"/>
     <use xlink:href="#ArialMT-4c" x="1543.335938"/>
     <use xlink:href="#ArialMT-61" x="1598.951172"/>
     <use xlink:href="#ArialMT-6e" x="1654.566406"/>
     <use xlink:href="#ArialMT-67" x="1710.181641"/>
     <use xlink:href="#ArialMT-75" x="1765.796875"/>
     <use xlink:href="#ArialMT-61" x="1821.412109"/>
     <use xlink:href="#ArialMT-67" x="1877.027344"/>
     <use xlink:href="#ArialMT-65" x="1932.642578"/>
    </g>
   </g>
  </g>
 </g>
 <defs>
  <clipPath id="p02f329ea6d">
   <rect x="57.6" y="41.472" width="357.12" height="266.112"/>
  </clipPath>
 </defs>
</svg>
