<?xml version="1.0" encoding="utf-8" standalone="no"?>
<!DOCTYPE svg PUBLIC "-//W3C//DTD SVG 1.1//EN"
  "http://www.w3.org/Graphics/SVG/1.1/DTD/svg11.dtd">
<svg xmlns:xlink="http://www.w3.org/1999/xlink" width="1440pt" height="720pt" viewBox="0 0 1440 720" xmlns="http://www.w3.org/2000/svg" version="1.1">
 <metadata>
  <rdf:RDF xmlns:dc="http://purl.org/dc/elements/1.1/" xmlns:cc="http://creativecommons.org/ns#" xmlns:rdf="http://www.w3.org/1999/02/22-rdf-syntax-ns#">
   <cc:Work>
    <dc:type rdf:resource="http://purl.org/dc/dcmitype/StillImage"/>
    <dc:date>2024-06-20T17:25:45.919252</dc:date>
    <dc:format>image/svg+xml</dc:format>
    <dc:creator>
     <cc:Agent>
      <dc:title>Matplotlib v3.8.2, https://matplotlib.org/</dc:title>
     </cc:Agent>
    </dc:creator>
   </cc:Work>
  </rdf:RDF>
 </metadata>
 <defs>
  <style type="text/css">*{stroke-linejoin: round; stroke-linecap: butt}</style>
 </defs>
 <g id="figure_1">
  <g id="patch_1">
   <path d="M 0 720 
L 1440 720 
L 1440 0 
L 0 0 
z
" style="fill: #ffffff"/>
  </g>
  <g id="axes_1">
   <g id="patch_2">
    <path d="M 180 640.8 
L 1296 640.8 
L 1296 86.4 
L 180 86.4 
z
" style="fill: #ffffff"/>
   </g>
   <g id="PolyCollection_1"/>
   <g id="PolyCollection_2"/>
   <g id="PolyCollection_3"/>
   <g id="PolyCollection_4"/>
   <g id="PolyCollection_5"/>
   <g id="PolyCollection_6"/>
   <g id="PolyCollection_7"/>
   <g id="matplotlib.axis_1">
    <g id="xtick_1">
     <g id="line2d_1">
      <defs>
       <path id="m0fe878945f" d="M 0 0 
L 0 3.5 
" style="stroke: #000000; stroke-width: 0.8"/>
      </defs>
      <g>
       <use xlink:href="#m0fe878945f" x="230.727273" y="640.8" style="stroke: #000000; stroke-width: 0.8"/>
      </g>
     </g>
     <g id="text_1">
      <!-- 08 -->
      <g transform="translate(224.364773 655.398438) scale(0.1 -0.1)">
       <defs>
        <path id="DejaVuSans-30" d="M 2034 4250 
Q 1547 4250 1301 3770 
Q 1056 3291 1056 2328 
Q 1056 1369 1301 889 
Q 1547 409 2034 409 
Q 2525 409 2770 889 
Q 3016 1369 3016 2328 
Q 3016 3291 2770 3770 
Q 2525 4250 2034 4250 
z
M 2034 4750 
Q 2819 4750 3233 4129 
Q 3647 3509 3647 2328 
Q 3647 1150 3233 529 
Q 2819 -91 2034 -91 
Q 1250 -91 836 529 
Q 422 1150 422 2328 
Q 422 3509 836 4129 
Q 1250 4750 2034 4750 
z
" transform="scale(0.015625)"/>
        <path id="DejaVuSans-38" d="M 2034 2216 
Q 1584 2216 1326 1975 
Q 1069 1734 1069 1313 
Q 1069 891 1326 650 
Q 1584 409 2034 409 
Q 2484 409 2743 651 
Q 3003 894 3003 1313 
Q 3003 1734 2745 1975 
Q 2488 2216 2034 2216 
z
M 1403 2484 
Q 997 2584 770 2862 
Q 544 3141 544 3541 
Q 544 4100 942 4425 
Q 1341 4750 2034 4750 
Q 2731 4750 3128 4425 
Q 3525 4100 3525 3541 
Q 3525 3141 3298 2862 
Q 3072 2584 2669 2484 
Q 3125 2378 3379 2068 
Q 3634 1759 3634 1313 
Q 3634 634 3220 271 
Q 2806 -91 2034 -91 
Q 1263 -91 848 271 
Q 434 634 434 1313 
Q 434 1759 690 2068 
Q 947 2378 1403 2484 
z
M 1172 3481 
Q 1172 3119 1398 2916 
Q 1625 2713 2034 2713 
Q 2441 2713 2670 2916 
Q 2900 3119 2900 3481 
Q 2900 3844 2670 4047 
Q 2441 4250 2034 4250 
Q 1625 4250 1398 4047 
Q 1172 3844 1172 3481 
z
" transform="scale(0.015625)"/>
       </defs>
       <use xlink:href="#DejaVuSans-30"/>
       <use xlink:href="#DejaVuSans-38" x="63.623047"/>
      </g>
     </g>
    </g>
    <g id="xtick_2">
     <g id="line2d_2">
      <g>
       <use xlink:href="#m0fe878945f" x="245.43083" y="640.8" style="stroke: #000000; stroke-width: 0.8"/>
      </g>
     </g>
    </g>
    <g id="xtick_3">
     <g id="line2d_3">
      <g>
       <use xlink:href="#m0fe878945f" x="260.134387" y="640.8" style="stroke: #000000; stroke-width: 0.8"/>
      </g>
     </g>
     <g id="text_2">
      <!-- 10 -->
      <g transform="translate(253.771887 655.398438) scale(0.1 -0.1)">
       <defs>
        <path id="DejaVuSans-31" d="M 794 531 
L 1825 531 
L 1825 4091 
L 703 3866 
L 703 4441 
L 1819 4666 
L 2450 4666 
L 2450 531 
L 3481 531 
L 3481 0 
L 794 0 
L 794 531 
z
" transform="scale(0.015625)"/>
       </defs>
       <use xlink:href="#DejaVuSans-31"/>
       <use xlink:href="#DejaVuSans-30" x="63.623047"/>
      </g>
     </g>
    </g>
    <g id="xtick_4">
     <g id="line2d_4">
      <g>
       <use xlink:href="#m0fe878945f" x="274.837945" y="640.8" style="stroke: #000000; stroke-width: 0.8"/>
      </g>
     </g>
    </g>
    <g id="xtick_5">
     <g id="line2d_5">
      <g>
       <use xlink:href="#m0fe878945f" x="289.541502" y="640.8" style="stroke: #000000; stroke-width: 0.8"/>
      </g>
     </g>
     <g id="text_3">
      <!-- 12 -->
      <g transform="translate(283.179002 655.398438) scale(0.1 -0.1)">
       <defs>
        <path id="DejaVuSans-32" d="M 1228 531 
L 3431 531 
L 3431 0 
L 469 0 
L 469 531 
Q 828 903 1448 1529 
Q 2069 2156 2228 2338 
Q 2531 2678 2651 2914 
Q 2772 3150 2772 3378 
Q 2772 3750 2511 3984 
Q 2250 4219 1831 4219 
Q 1534 4219 1204 4116 
Q 875 4013 500 3803 
L 500 4441 
Q 881 4594 1212 4672 
Q 1544 4750 1819 4750 
Q 2544 4750 2975 4387 
Q 3406 4025 3406 3419 
Q 3406 3131 3298 2873 
Q 3191 2616 2906 2266 
Q 2828 2175 2409 1742 
Q 1991 1309 1228 531 
z
" transform="scale(0.015625)"/>
       </defs>
       <use xlink:href="#DejaVuSans-31"/>
       <use xlink:href="#DejaVuSans-32" x="63.623047"/>
      </g>
     </g>
    </g>
    <g id="xtick_6">
     <g id="line2d_6">
      <g>
       <use xlink:href="#m0fe878945f" x="304.245059" y="640.8" style="stroke: #000000; stroke-width: 0.8"/>
      </g>
     </g>
    </g>
    <g id="xtick_7">
     <g id="line2d_7">
      <g>
       <use xlink:href="#m0fe878945f" x="318.948617" y="640.8" style="stroke: #000000; stroke-width: 0.8"/>
      </g>
     </g>
     <g id="text_4">
      <!-- 14 -->
      <g transform="translate(312.586117 655.398438) scale(0.1 -0.1)">
       <defs>
        <path id="DejaVuSans-34" d="M 2419 4116 
L 825 1625 
L 2419 1625 
L 2419 4116 
z
M 2253 4666 
L 3047 4666 
L 3047 1625 
L 3713 1625 
L 3713 1100 
L 3047 1100 
L 3047 0 
L 2419 0 
L 2419 1100 
L 313 1100 
L 313 1709 
L 2253 4666 
z
" transform="scale(0.015625)"/>
       </defs>
       <use xlink:href="#DejaVuSans-31"/>
       <use xlink:href="#DejaVuSans-34" x="63.623047"/>
      </g>
     </g>
    </g>
    <g id="xtick_8">
     <g id="line2d_8">
      <g>
       <use xlink:href="#m0fe878945f" x="333.652174" y="640.8" style="stroke: #000000; stroke-width: 0.8"/>
      </g>
     </g>
    </g>
    <g id="xtick_9">
     <g id="line2d_9">
      <g>
       <use xlink:href="#m0fe878945f" x="348.355731" y="640.8" style="stroke: #000000; stroke-width: 0.8"/>
      </g>
     </g>
     <g id="text_5">
      <!-- 16 -->
      <g transform="translate(341.993231 655.398438) scale(0.1 -0.1)">
       <defs>
        <path id="DejaVuSans-36" d="M 2113 2584 
Q 1688 2584 1439 2293 
Q 1191 2003 1191 1497 
Q 1191 994 1439 701 
Q 1688 409 2113 409 
Q 2538 409 2786 701 
Q 3034 994 3034 1497 
Q 3034 2003 2786 2293 
Q 2538 2584 2113 2584 
z
M 3366 4563 
L 3366 3988 
Q 3128 4100 2886 4159 
Q 2644 4219 2406 4219 
Q 1781 4219 1451 3797 
Q 1122 3375 1075 2522 
Q 1259 2794 1537 2939 
Q 1816 3084 2150 3084 
Q 2853 3084 3261 2657 
Q 3669 2231 3669 1497 
Q 3669 778 3244 343 
Q 2819 -91 2113 -91 
Q 1303 -91 875 529 
Q 447 1150 447 2328 
Q 447 3434 972 4092 
Q 1497 4750 2381 4750 
Q 2619 4750 2861 4703 
Q 3103 4656 3366 4563 
z
" transform="scale(0.015625)"/>
       </defs>
       <use xlink:href="#DejaVuSans-31"/>
       <use xlink:href="#DejaVuSans-36" x="63.623047"/>
      </g>
     </g>
    </g>
    <g id="xtick_10">
     <g id="line2d_10">
      <g>
       <use xlink:href="#m0fe878945f" x="363.059289" y="640.8" style="stroke: #000000; stroke-width: 0.8"/>
      </g>
     </g>
    </g>
    <g id="xtick_11">
     <g id="line2d_11">
      <g>
       <use xlink:href="#m0fe878945f" x="377.762846" y="640.8" style="stroke: #000000; stroke-width: 0.8"/>
      </g>
     </g>
     <g id="text_6">
      <!-- 18 -->
      <g transform="translate(371.400346 655.398438) scale(0.1 -0.1)">
       <use xlink:href="#DejaVuSans-31"/>
       <use xlink:href="#DejaVuSans-38" x="63.623047"/>
      </g>
     </g>
    </g>
    <g id="xtick_12">
     <g id="line2d_12">
      <g>
       <use xlink:href="#m0fe878945f" x="392.466403" y="640.8" style="stroke: #000000; stroke-width: 0.8"/>
      </g>
     </g>
    </g>
    <g id="xtick_13">
     <g id="line2d_13">
      <g>
       <use xlink:href="#m0fe878945f" x="407.16996" y="640.8" style="stroke: #000000; stroke-width: 0.8"/>
      </g>
     </g>
     <g id="text_7">
      <!-- 20 -->
      <g transform="translate(400.80746 655.398438) scale(0.1 -0.1)">
       <use xlink:href="#DejaVuSans-32"/>
       <use xlink:href="#DejaVuSans-30" x="63.623047"/>
      </g>
     </g>
    </g>
    <g id="xtick_14">
     <g id="line2d_14">
      <g>
       <use xlink:href="#m0fe878945f" x="421.873518" y="640.8" style="stroke: #000000; stroke-width: 0.8"/>
      </g>
     </g>
    </g>
    <g id="xtick_15">
     <g id="line2d_15">
      <g>
       <use xlink:href="#m0fe878945f" x="436.577075" y="640.8" style="stroke: #000000; stroke-width: 0.8"/>
      </g>
     </g>
     <g id="text_8">
      <!-- 22 -->
      <g transform="translate(430.214575 655.398438) scale(0.1 -0.1)">
       <use xlink:href="#DejaVuSans-32"/>
       <use xlink:href="#DejaVuSans-32" x="63.623047"/>
      </g>
     </g>
    </g>
    <g id="xtick_16">
     <g id="line2d_16">
      <g>
       <use xlink:href="#m0fe878945f" x="451.280632" y="640.8" style="stroke: #000000; stroke-width: 0.8"/>
      </g>
     </g>
    </g>
    <g id="xtick_17">
     <g id="line2d_17">
      <g>
       <use xlink:href="#m0fe878945f" x="465.98419" y="640.8" style="stroke: #000000; stroke-width: 0.8"/>
      </g>
     </g>
     <g id="text_9">
      <!-- 24 -->
      <g transform="translate(459.62169 655.398438) scale(0.1 -0.1)">
       <use xlink:href="#DejaVuSans-32"/>
       <use xlink:href="#DejaVuSans-34" x="63.623047"/>
      </g>
     </g>
    </g>
    <g id="xtick_18">
     <g id="line2d_18">
      <g>
       <use xlink:href="#m0fe878945f" x="480.687747" y="640.8" style="stroke: #000000; stroke-width: 0.8"/>
      </g>
     </g>
    </g>
    <g id="xtick_19">
     <g id="line2d_19">
      <g>
       <use xlink:href="#m0fe878945f" x="495.391304" y="640.8" style="stroke: #000000; stroke-width: 0.8"/>
      </g>
     </g>
     <g id="text_10">
      <!-- 26 -->
      <g transform="translate(489.028804 655.398438) scale(0.1 -0.1)">
       <use xlink:href="#DejaVuSans-32"/>
       <use xlink:href="#DejaVuSans-36" x="63.623047"/>
      </g>
     </g>
    </g>
    <g id="xtick_20">
     <g id="line2d_20">
      <g>
       <use xlink:href="#m0fe878945f" x="510.094862" y="640.8" style="stroke: #000000; stroke-width: 0.8"/>
      </g>
     </g>
    </g>
    <g id="xtick_21">
     <g id="line2d_21">
      <g>
       <use xlink:href="#m0fe878945f" x="524.798419" y="640.8" style="stroke: #000000; stroke-width: 0.8"/>
      </g>
     </g>
     <g id="text_11">
      <!-- 28 -->
      <g transform="translate(518.435919 655.398438) scale(0.1 -0.1)">
       <use xlink:href="#DejaVuSans-32"/>
       <use xlink:href="#DejaVuSans-38" x="63.623047"/>
      </g>
     </g>
    </g>
    <g id="xtick_22">
     <g id="line2d_22">
      <g>
       <use xlink:href="#m0fe878945f" x="539.501976" y="640.8" style="stroke: #000000; stroke-width: 0.8"/>
      </g>
     </g>
    </g>
    <g id="xtick_23">
     <g id="line2d_23">
      <g>
       <use xlink:href="#m0fe878945f" x="554.205534" y="640.8" style="stroke: #000000; stroke-width: 0.8"/>
      </g>
     </g>
     <g id="text_12">
      <!-- 30 -->
      <g transform="translate(547.843034 655.398438) scale(0.1 -0.1)">
       <defs>
        <path id="DejaVuSans-33" d="M 2597 2516 
Q 3050 2419 3304 2112 
Q 3559 1806 3559 1356 
Q 3559 666 3084 287 
Q 2609 -91 1734 -91 
Q 1441 -91 1130 -33 
Q 819 25 488 141 
L 488 750 
Q 750 597 1062 519 
Q 1375 441 1716 441 
Q 2309 441 2620 675 
Q 2931 909 2931 1356 
Q 2931 1769 2642 2001 
Q 2353 2234 1838 2234 
L 1294 2234 
L 1294 2753 
L 1863 2753 
Q 2328 2753 2575 2939 
Q 2822 3125 2822 3475 
Q 2822 3834 2567 4026 
Q 2313 4219 1838 4219 
Q 1578 4219 1281 4162 
Q 984 4106 628 3988 
L 628 4550 
Q 988 4650 1302 4700 
Q 1616 4750 1894 4750 
Q 2613 4750 3031 4423 
Q 3450 4097 3450 3541 
Q 3450 3153 3228 2886 
Q 3006 2619 2597 2516 
z
" transform="scale(0.015625)"/>
       </defs>
       <use xlink:href="#DejaVuSans-33"/>
       <use xlink:href="#DejaVuSans-30" x="63.623047"/>
      </g>
     </g>
    </g>
    <g id="xtick_24">
     <g id="line2d_24">
      <g>
       <use xlink:href="#m0fe878945f" x="568.909091" y="640.8" style="stroke: #000000; stroke-width: 0.8"/>
      </g>
     </g>
    </g>
    <g id="xtick_25">
     <g id="line2d_25">
      <g>
       <use xlink:href="#m0fe878945f" x="583.612648" y="640.8" style="stroke: #000000; stroke-width: 0.8"/>
      </g>
     </g>
     <g id="text_13">
      <!-- 32 -->
      <g transform="translate(577.250148 655.398438) scale(0.1 -0.1)">
       <use xlink:href="#DejaVuSans-33"/>
       <use xlink:href="#DejaVuSans-32" x="63.623047"/>
      </g>
     </g>
    </g>
    <g id="xtick_26">
     <g id="line2d_26">
      <g>
       <use xlink:href="#m0fe878945f" x="598.316206" y="640.8" style="stroke: #000000; stroke-width: 0.8"/>
      </g>
     </g>
    </g>
    <g id="xtick_27">
     <g id="line2d_27">
      <g>
       <use xlink:href="#m0fe878945f" x="613.019763" y="640.8" style="stroke: #000000; stroke-width: 0.8"/>
      </g>
     </g>
     <g id="text_14">
      <!-- 34 -->
      <g transform="translate(606.657263 655.398438) scale(0.1 -0.1)">
       <use xlink:href="#DejaVuSans-33"/>
       <use xlink:href="#DejaVuSans-34" x="63.623047"/>
      </g>
     </g>
    </g>
    <g id="xtick_28">
     <g id="line2d_28">
      <g>
       <use xlink:href="#m0fe878945f" x="627.72332" y="640.8" style="stroke: #000000; stroke-width: 0.8"/>
      </g>
     </g>
    </g>
    <g id="xtick_29">
     <g id="line2d_29">
      <g>
       <use xlink:href="#m0fe878945f" x="642.426877" y="640.8" style="stroke: #000000; stroke-width: 0.8"/>
      </g>
     </g>
     <g id="text_15">
      <!-- 36 -->
      <g transform="translate(636.064377 655.398438) scale(0.1 -0.1)">
       <use xlink:href="#DejaVuSans-33"/>
       <use xlink:href="#DejaVuSans-36" x="63.623047"/>
      </g>
     </g>
    </g>
    <g id="xtick_30">
     <g id="line2d_30">
      <g>
       <use xlink:href="#m0fe878945f" x="657.130435" y="640.8" style="stroke: #000000; stroke-width: 0.8"/>
      </g>
     </g>
    </g>
    <g id="xtick_31">
     <g id="line2d_31">
      <g>
       <use xlink:href="#m0fe878945f" x="671.833992" y="640.8" style="stroke: #000000; stroke-width: 0.8"/>
      </g>
     </g>
     <g id="text_16">
      <!-- 38 -->
      <g transform="translate(665.471492 655.398438) scale(0.1 -0.1)">
       <use xlink:href="#DejaVuSans-33"/>
       <use xlink:href="#DejaVuSans-38" x="63.623047"/>
      </g>
     </g>
    </g>
    <g id="xtick_32">
     <g id="line2d_32">
      <g>
       <use xlink:href="#m0fe878945f" x="686.537549" y="640.8" style="stroke: #000000; stroke-width: 0.8"/>
      </g>
     </g>
    </g>
    <g id="xtick_33">
     <g id="line2d_33">
      <g>
       <use xlink:href="#m0fe878945f" x="701.241107" y="640.8" style="stroke: #000000; stroke-width: 0.8"/>
      </g>
     </g>
     <g id="text_17">
      <!-- 40 -->
      <g transform="translate(694.878607 655.398438) scale(0.1 -0.1)">
       <use xlink:href="#DejaVuSans-34"/>
       <use xlink:href="#DejaVuSans-30" x="63.623047"/>
      </g>
     </g>
    </g>
    <g id="xtick_34">
     <g id="line2d_34">
      <g>
       <use xlink:href="#m0fe878945f" x="715.944664" y="640.8" style="stroke: #000000; stroke-width: 0.8"/>
      </g>
     </g>
    </g>
    <g id="xtick_35">
     <g id="line2d_35">
      <g>
       <use xlink:href="#m0fe878945f" x="730.648221" y="640.8" style="stroke: #000000; stroke-width: 0.8"/>
      </g>
     </g>
     <g id="text_18">
      <!-- 42 -->
      <g transform="translate(724.285721 655.398438) scale(0.1 -0.1)">
       <use xlink:href="#DejaVuSans-34"/>
       <use xlink:href="#DejaVuSans-32" x="63.623047"/>
      </g>
     </g>
    </g>
    <g id="xtick_36">
     <g id="line2d_36">
      <g>
       <use xlink:href="#m0fe878945f" x="745.351779" y="640.8" style="stroke: #000000; stroke-width: 0.8"/>
      </g>
     </g>
    </g>
    <g id="xtick_37">
     <g id="line2d_37">
      <g>
       <use xlink:href="#m0fe878945f" x="760.055336" y="640.8" style="stroke: #000000; stroke-width: 0.8"/>
      </g>
     </g>
     <g id="text_19">
      <!-- 44 -->
      <g transform="translate(753.692836 655.398438) scale(0.1 -0.1)">
       <use xlink:href="#DejaVuSans-34"/>
       <use xlink:href="#DejaVuSans-34" x="63.623047"/>
      </g>
     </g>
    </g>
    <g id="xtick_38">
     <g id="line2d_38">
      <g>
       <use xlink:href="#m0fe878945f" x="774.758893" y="640.8" style="stroke: #000000; stroke-width: 0.8"/>
      </g>
     </g>
    </g>
    <g id="xtick_39">
     <g id="line2d_39">
      <g>
       <use xlink:href="#m0fe878945f" x="789.462451" y="640.8" style="stroke: #000000; stroke-width: 0.8"/>
      </g>
     </g>
     <g id="text_20">
      <!-- 46 -->
      <g transform="translate(783.099951 655.398438) scale(0.1 -0.1)">
       <use xlink:href="#DejaVuSans-34"/>
       <use xlink:href="#DejaVuSans-36" x="63.623047"/>
      </g>
     </g>
    </g>
    <g id="xtick_40">
     <g id="line2d_40">
      <g>
       <use xlink:href="#m0fe878945f" x="804.166008" y="640.8" style="stroke: #000000; stroke-width: 0.8"/>
      </g>
     </g>
    </g>
    <g id="xtick_41">
     <g id="line2d_41">
      <g>
       <use xlink:href="#m0fe878945f" x="818.869565" y="640.8" style="stroke: #000000; stroke-width: 0.8"/>
      </g>
     </g>
     <g id="text_21">
      <!-- 48 -->
      <g transform="translate(812.507065 655.398438) scale(0.1 -0.1)">
       <use xlink:href="#DejaVuSans-34"/>
       <use xlink:href="#DejaVuSans-38" x="63.623047"/>
      </g>
     </g>
    </g>
    <g id="xtick_42">
     <g id="line2d_42">
      <g>
       <use xlink:href="#m0fe878945f" x="833.573123" y="640.8" style="stroke: #000000; stroke-width: 0.8"/>
      </g>
     </g>
    </g>
    <g id="xtick_43">
     <g id="line2d_43">
      <g>
       <use xlink:href="#m0fe878945f" x="848.27668" y="640.8" style="stroke: #000000; stroke-width: 0.8"/>
      </g>
     </g>
     <g id="text_22">
      <!-- 50 -->
      <g transform="translate(841.91418 655.398438) scale(0.1 -0.1)">
       <defs>
        <path id="DejaVuSans-35" d="M 691 4666 
L 3169 4666 
L 3169 4134 
L 1269 4134 
L 1269 2991 
Q 1406 3038 1543 3061 
Q 1681 3084 1819 3084 
Q 2600 3084 3056 2656 
Q 3513 2228 3513 1497 
Q 3513 744 3044 326 
Q 2575 -91 1722 -91 
Q 1428 -91 1123 -41 
Q 819 9 494 109 
L 494 744 
Q 775 591 1075 516 
Q 1375 441 1709 441 
Q 2250 441 2565 725 
Q 2881 1009 2881 1497 
Q 2881 1984 2565 2268 
Q 2250 2553 1709 2553 
Q 1456 2553 1204 2497 
Q 953 2441 691 2322 
L 691 4666 
z
" transform="scale(0.015625)"/>
       </defs>
       <use xlink:href="#DejaVuSans-35"/>
       <use xlink:href="#DejaVuSans-30" x="63.623047"/>
      </g>
     </g>
    </g>
    <g id="xtick_44">
     <g id="line2d_44">
      <g>
       <use xlink:href="#m0fe878945f" x="862.980237" y="640.8" style="stroke: #000000; stroke-width: 0.8"/>
      </g>
     </g>
    </g>
    <g id="xtick_45">
     <g id="line2d_45">
      <g>
       <use xlink:href="#m0fe878945f" x="877.683794" y="640.8" style="stroke: #000000; stroke-width: 0.8"/>
      </g>
     </g>
     <g id="text_23">
      <!-- 52 -->
      <g transform="translate(871.321294 655.398438) scale(0.1 -0.1)">
       <use xlink:href="#DejaVuSans-35"/>
       <use xlink:href="#DejaVuSans-32" x="63.623047"/>
      </g>
     </g>
    </g>
    <g id="xtick_46">
     <g id="line2d_46">
      <g>
       <use xlink:href="#m0fe878945f" x="892.387352" y="640.8" style="stroke: #000000; stroke-width: 0.8"/>
      </g>
     </g>
    </g>
    <g id="xtick_47">
     <g id="line2d_47">
      <g>
       <use xlink:href="#m0fe878945f" x="907.090909" y="640.8" style="stroke: #000000; stroke-width: 0.8"/>
      </g>
     </g>
     <g id="text_24">
      <!-- 02 -->
      <g transform="translate(900.728409 655.398438) scale(0.1 -0.1)">
       <use xlink:href="#DejaVuSans-30"/>
       <use xlink:href="#DejaVuSans-32" x="63.623047"/>
      </g>
     </g>
    </g>
    <g id="xtick_48">
     <g id="line2d_48">
      <g>
       <use xlink:href="#m0fe878945f" x="921.794466" y="640.8" style="stroke: #000000; stroke-width: 0.8"/>
      </g>
     </g>
    </g>
    <g id="xtick_49">
     <g id="line2d_49">
      <g>
       <use xlink:href="#m0fe878945f" x="936.498024" y="640.8" style="stroke: #000000; stroke-width: 0.8"/>
      </g>
     </g>
     <g id="text_25">
      <!-- 04 -->
      <g transform="translate(930.135524 655.398438) scale(0.1 -0.1)">
       <use xlink:href="#DejaVuSans-30"/>
       <use xlink:href="#DejaVuSans-34" x="63.623047"/>
      </g>
     </g>
    </g>
    <g id="xtick_50">
     <g id="line2d_50">
      <g>
       <use xlink:href="#m0fe878945f" x="951.201581" y="640.8" style="stroke: #000000; stroke-width: 0.8"/>
      </g>
     </g>
    </g>
    <g id="xtick_51">
     <g id="line2d_51">
      <g>
       <use xlink:href="#m0fe878945f" x="965.905138" y="640.8" style="stroke: #000000; stroke-width: 0.8"/>
      </g>
     </g>
     <g id="text_26">
      <!-- 06 -->
      <g transform="translate(959.542638 655.398438) scale(0.1 -0.1)">
       <use xlink:href="#DejaVuSans-30"/>
       <use xlink:href="#DejaVuSans-36" x="63.623047"/>
      </g>
     </g>
    </g>
    <g id="xtick_52">
     <g id="line2d_52">
      <g>
       <use xlink:href="#m0fe878945f" x="980.608696" y="640.8" style="stroke: #000000; stroke-width: 0.8"/>
      </g>
     </g>
    </g>
    <g id="xtick_53">
     <g id="line2d_53">
      <g>
       <use xlink:href="#m0fe878945f" x="995.312253" y="640.8" style="stroke: #000000; stroke-width: 0.8"/>
      </g>
     </g>
     <g id="text_27">
      <!-- 08 -->
      <g transform="translate(988.949753 655.398438) scale(0.1 -0.1)">
       <use xlink:href="#DejaVuSans-30"/>
       <use xlink:href="#DejaVuSans-38" x="63.623047"/>
      </g>
     </g>
    </g>
    <g id="xtick_54">
     <g id="line2d_54">
      <g>
       <use xlink:href="#m0fe878945f" x="1010.01581" y="640.8" style="stroke: #000000; stroke-width: 0.8"/>
      </g>
     </g>
    </g>
    <g id="xtick_55">
     <g id="line2d_55">
      <g>
       <use xlink:href="#m0fe878945f" x="1024.719368" y="640.8" style="stroke: #000000; stroke-width: 0.8"/>
      </g>
     </g>
     <g id="text_28">
      <!-- 10 -->
      <g transform="translate(1018.356868 655.398438) scale(0.1 -0.1)">
       <use xlink:href="#DejaVuSans-31"/>
       <use xlink:href="#DejaVuSans-30" x="63.623047"/>
      </g>
     </g>
    </g>
    <g id="xtick_56">
     <g id="line2d_56">
      <g>
       <use xlink:href="#m0fe878945f" x="1039.422925" y="640.8" style="stroke: #000000; stroke-width: 0.8"/>
      </g>
     </g>
    </g>
    <g id="xtick_57">
     <g id="line2d_57">
      <g>
       <use xlink:href="#m0fe878945f" x="1054.126482" y="640.8" style="stroke: #000000; stroke-width: 0.8"/>
      </g>
     </g>
     <g id="text_29">
      <!-- 12 -->
      <g transform="translate(1047.763982 655.398438) scale(0.1 -0.1)">
       <use xlink:href="#DejaVuSans-31"/>
       <use xlink:href="#DejaVuSans-32" x="63.623047"/>
      </g>
     </g>
    </g>
    <g id="xtick_58">
     <g id="line2d_58">
      <g>
       <use xlink:href="#m0fe878945f" x="1068.83004" y="640.8" style="stroke: #000000; stroke-width: 0.8"/>
      </g>
     </g>
    </g>
    <g id="xtick_59">
     <g id="line2d_59">
      <g>
       <use xlink:href="#m0fe878945f" x="1083.533597" y="640.8" style="stroke: #000000; stroke-width: 0.8"/>
      </g>
     </g>
     <g id="text_30">
      <!-- 14 -->
      <g transform="translate(1077.171097 655.398438) scale(0.1 -0.1)">
       <use xlink:href="#DejaVuSans-31"/>
       <use xlink:href="#DejaVuSans-34" x="63.623047"/>
      </g>
     </g>
    </g>
    <g id="xtick_60">
     <g id="line2d_60">
      <g>
       <use xlink:href="#m0fe878945f" x="1098.237154" y="640.8" style="stroke: #000000; stroke-width: 0.8"/>
      </g>
     </g>
    </g>
    <g id="xtick_61">
     <g id="line2d_61">
      <g>
       <use xlink:href="#m0fe878945f" x="1112.940711" y="640.8" style="stroke: #000000; stroke-width: 0.8"/>
      </g>
     </g>
     <g id="text_31">
      <!-- 16 -->
      <g transform="translate(1106.578211 655.398438) scale(0.1 -0.1)">
       <use xlink:href="#DejaVuSans-31"/>
       <use xlink:href="#DejaVuSans-36" x="63.623047"/>
      </g>
     </g>
    </g>
    <g id="xtick_62">
     <g id="line2d_62">
      <g>
       <use xlink:href="#m0fe878945f" x="1127.644269" y="640.8" style="stroke: #000000; stroke-width: 0.8"/>
      </g>
     </g>
    </g>
    <g id="xtick_63">
     <g id="line2d_63">
      <g>
       <use xlink:href="#m0fe878945f" x="1142.347826" y="640.8" style="stroke: #000000; stroke-width: 0.8"/>
      </g>
     </g>
     <g id="text_32">
      <!-- 18 -->
      <g transform="translate(1135.985326 655.398438) scale(0.1 -0.1)">
       <use xlink:href="#DejaVuSans-31"/>
       <use xlink:href="#DejaVuSans-38" x="63.623047"/>
      </g>
     </g>
    </g>
    <g id="xtick_64">
     <g id="line2d_64">
      <g>
       <use xlink:href="#m0fe878945f" x="1157.051383" y="640.8" style="stroke: #000000; stroke-width: 0.8"/>
      </g>
     </g>
    </g>
    <g id="xtick_65">
     <g id="line2d_65">
      <g>
       <use xlink:href="#m0fe878945f" x="1171.754941" y="640.8" style="stroke: #000000; stroke-width: 0.8"/>
      </g>
     </g>
     <g id="text_33">
      <!-- 20 -->
      <g transform="translate(1165.392441 655.398438) scale(0.1 -0.1)">
       <use xlink:href="#DejaVuSans-32"/>
       <use xlink:href="#DejaVuSans-30" x="63.623047"/>
      </g>
     </g>
    </g>
    <g id="xtick_66">
     <g id="line2d_66">
      <g>
       <use xlink:href="#m0fe878945f" x="1186.458498" y="640.8" style="stroke: #000000; stroke-width: 0.8"/>
      </g>
     </g>
    </g>
    <g id="xtick_67">
     <g id="line2d_67">
      <g>
       <use xlink:href="#m0fe878945f" x="1201.162055" y="640.8" style="stroke: #000000; stroke-width: 0.8"/>
      </g>
     </g>
     <g id="text_34">
      <!-- 22 -->
      <g transform="translate(1194.799555 655.398438) scale(0.1 -0.1)">
       <use xlink:href="#DejaVuSans-32"/>
       <use xlink:href="#DejaVuSans-32" x="63.623047"/>
      </g>
     </g>
    </g>
    <g id="xtick_68">
     <g id="line2d_68">
      <g>
       <use xlink:href="#m0fe878945f" x="1215.865613" y="640.8" style="stroke: #000000; stroke-width: 0.8"/>
      </g>
     </g>
    </g>
    <g id="xtick_69">
     <g id="line2d_69">
      <g>
       <use xlink:href="#m0fe878945f" x="1230.56917" y="640.8" style="stroke: #000000; stroke-width: 0.8"/>
      </g>
     </g>
     <g id="text_35">
      <!-- 24 -->
      <g transform="translate(1224.20667 655.398438) scale(0.1 -0.1)">
       <use xlink:href="#DejaVuSans-32"/>
       <use xlink:href="#DejaVuSans-34" x="63.623047"/>
      </g>
     </g>
    </g>
    <g id="xtick_70">
     <g id="line2d_70">
      <g>
       <use xlink:href="#m0fe878945f" x="1245.272727" y="640.8" style="stroke: #000000; stroke-width: 0.8"/>
      </g>
     </g>
    </g>
   </g>
   <g id="matplotlib.axis_2">
    <g id="ytick_1">
     <g id="line2d_71">
      <defs>
       <path id="mefd25b6313" d="M 0 0 
L -3.5 0 
" style="stroke: #000000; stroke-width: 0.8"/>
      </defs>
      <g>
       <use xlink:href="#mefd25b6313" x="180" y="603.618141" style="stroke: #000000; stroke-width: 0.8"/>
      </g>
     </g>
     <g id="text_36">
      <!-- 100 -->
      <g transform="translate(153.9125 607.41736) scale(0.1 -0.1)">
       <use xlink:href="#DejaVuSans-31"/>
       <use xlink:href="#DejaVuSans-30" x="63.623047"/>
       <use xlink:href="#DejaVuSans-30" x="127.246094"/>
      </g>
     </g>
    </g>
    <g id="ytick_2">
     <g id="line2d_72">
      <g>
       <use xlink:href="#mefd25b6313" x="180" y="519.970559" style="stroke: #000000; stroke-width: 0.8"/>
      </g>
     </g>
     <g id="text_37">
      <!-- 120 -->
      <g transform="translate(153.9125 523.769778) scale(0.1 -0.1)">
       <use xlink:href="#DejaVuSans-31"/>
       <use xlink:href="#DejaVuSans-32" x="63.623047"/>
       <use xlink:href="#DejaVuSans-30" x="127.246094"/>
      </g>
     </g>
    </g>
    <g id="ytick_3">
     <g id="line2d_73">
      <g>
       <use xlink:href="#mefd25b6313" x="180" y="436.322977" style="stroke: #000000; stroke-width: 0.8"/>
      </g>
     </g>
     <g id="text_38">
      <!-- 140 -->
      <g transform="translate(153.9125 440.122196) scale(0.1 -0.1)">
       <use xlink:href="#DejaVuSans-31"/>
       <use xlink:href="#DejaVuSans-34" x="63.623047"/>
       <use xlink:href="#DejaVuSans-30" x="127.246094"/>
      </g>
     </g>
    </g>
    <g id="ytick_4">
     <g id="line2d_74">
      <g>
       <use xlink:href="#mefd25b6313" x="180" y="352.675395" style="stroke: #000000; stroke-width: 0.8"/>
      </g>
     </g>
     <g id="text_39">
      <!-- 160 -->
      <g transform="translate(153.9125 356.474613) scale(0.1 -0.1)">
       <use xlink:href="#DejaVuSans-31"/>
       <use xlink:href="#DejaVuSans-36" x="63.623047"/>
       <use xlink:href="#DejaVuSans-30" x="127.246094"/>
      </g>
     </g>
    </g>
    <g id="ytick_5">
     <g id="line2d_75">
      <g>
       <use xlink:href="#mefd25b6313" x="180" y="269.027812" style="stroke: #000000; stroke-width: 0.8"/>
      </g>
     </g>
     <g id="text_40">
      <!-- 180 -->
      <g transform="translate(153.9125 272.827031) scale(0.1 -0.1)">
       <use xlink:href="#DejaVuSans-31"/>
       <use xlink:href="#DejaVuSans-38" x="63.623047"/>
       <use xlink:href="#DejaVuSans-30" x="127.246094"/>
      </g>
     </g>
    </g>
    <g id="ytick_6">
     <g id="line2d_76">
      <g>
       <use xlink:href="#mefd25b6313" x="180" y="185.38023" style="stroke: #000000; stroke-width: 0.8"/>
      </g>
     </g>
     <g id="text_41">
      <!-- 200 -->
      <g transform="translate(153.9125 189.179449) scale(0.1 -0.1)">
       <use xlink:href="#DejaVuSans-32"/>
       <use xlink:href="#DejaVuSans-30" x="63.623047"/>
       <use xlink:href="#DejaVuSans-30" x="127.246094"/>
      </g>
     </g>
    </g>
    <g id="ytick_7">
     <g id="line2d_77">
      <g>
       <use xlink:href="#mefd25b6313" x="180" y="101.732648" style="stroke: #000000; stroke-width: 0.8"/>
      </g>
     </g>
     <g id="text_42">
      <!-- 220 -->
      <g transform="translate(153.9125 105.531867) scale(0.1 -0.1)">
       <use xlink:href="#DejaVuSans-32"/>
       <use xlink:href="#DejaVuSans-32" x="63.623047"/>
       <use xlink:href="#DejaVuSans-30" x="127.246094"/>
      </g>
     </g>
    </g>
    <g id="text_43">
     <!-- Mean Tweet Length in Characters -->
     <g transform="translate(147.832812 447.105469) rotate(-90) scale(0.1 -0.1)">
      <defs>
       <path id="DejaVuSans-4d" d="M 628 4666 
L 1569 4666 
L 2759 1491 
L 3956 4666 
L 4897 4666 
L 4897 0 
L 4281 0 
L 4281 4097 
L 3078 897 
L 2444 897 
L 1241 4097 
L 1241 0 
L 628 0 
L 628 4666 
z
" transform="scale(0.015625)"/>
       <path id="DejaVuSans-65" d="M 3597 1894 
L 3597 1613 
L 953 1613 
Q 991 1019 1311 708 
Q 1631 397 2203 397 
Q 2534 397 2845 478 
Q 3156 559 3463 722 
L 3463 178 
Q 3153 47 2828 -22 
Q 2503 -91 2169 -91 
Q 1331 -91 842 396 
Q 353 884 353 1716 
Q 353 2575 817 3079 
Q 1281 3584 2069 3584 
Q 2775 3584 3186 3129 
Q 3597 2675 3597 1894 
z
M 3022 2063 
Q 3016 2534 2758 2815 
Q 2500 3097 2075 3097 
Q 1594 3097 1305 2825 
Q 1016 2553 972 2059 
L 3022 2063 
z
" transform="scale(0.015625)"/>
       <path id="DejaVuSans-61" d="M 2194 1759 
Q 1497 1759 1228 1600 
Q 959 1441 959 1056 
Q 959 750 1161 570 
Q 1363 391 1709 391 
Q 2188 391 2477 730 
Q 2766 1069 2766 1631 
L 2766 1759 
L 2194 1759 
z
M 3341 1997 
L 3341 0 
L 2766 0 
L 2766 531 
Q 2569 213 2275 61 
Q 1981 -91 1556 -91 
Q 1019 -91 701 211 
Q 384 513 384 1019 
Q 384 1609 779 1909 
Q 1175 2209 1959 2209 
L 2766 2209 
L 2766 2266 
Q 2766 2663 2505 2880 
Q 2244 3097 1772 3097 
Q 1472 3097 1187 3025 
Q 903 2953 641 2809 
L 641 3341 
Q 956 3463 1253 3523 
Q 1550 3584 1831 3584 
Q 2591 3584 2966 3190 
Q 3341 2797 3341 1997 
z
" transform="scale(0.015625)"/>
       <path id="DejaVuSans-6e" d="M 3513 2113 
L 3513 0 
L 2938 0 
L 2938 2094 
Q 2938 2591 2744 2837 
Q 2550 3084 2163 3084 
Q 1697 3084 1428 2787 
Q 1159 2491 1159 1978 
L 1159 0 
L 581 0 
L 581 3500 
L 1159 3500 
L 1159 2956 
Q 1366 3272 1645 3428 
Q 1925 3584 2291 3584 
Q 2894 3584 3203 3211 
Q 3513 2838 3513 2113 
z
" transform="scale(0.015625)"/>
       <path id="DejaVuSans-20" transform="scale(0.015625)"/>
       <path id="DejaVuSans-54" d="M -19 4666 
L 3928 4666 
L 3928 4134 
L 2272 4134 
L 2272 0 
L 1638 0 
L 1638 4134 
L -19 4134 
L -19 4666 
z
" transform="scale(0.015625)"/>
       <path id="DejaVuSans-77" d="M 269 3500 
L 844 3500 
L 1563 769 
L 2278 3500 
L 2956 3500 
L 3675 769 
L 4391 3500 
L 4966 3500 
L 4050 0 
L 3372 0 
L 2619 2869 
L 1863 0 
L 1184 0 
L 269 3500 
z
" transform="scale(0.015625)"/>
       <path id="DejaVuSans-74" d="M 1172 4494 
L 1172 3500 
L 2356 3500 
L 2356 3053 
L 1172 3053 
L 1172 1153 
Q 1172 725 1289 603 
Q 1406 481 1766 481 
L 2356 481 
L 2356 0 
L 1766 0 
Q 1100 0 847 248 
Q 594 497 594 1153 
L 594 3053 
L 172 3053 
L 172 3500 
L 594 3500 
L 594 4494 
L 1172 4494 
z
" transform="scale(0.015625)"/>
       <path id="DejaVuSans-4c" d="M 628 4666 
L 1259 4666 
L 1259 531 
L 3531 531 
L 3531 0 
L 628 0 
L 628 4666 
z
" transform="scale(0.015625)"/>
       <path id="DejaVuSans-67" d="M 2906 1791 
Q 2906 2416 2648 2759 
Q 2391 3103 1925 3103 
Q 1463 3103 1205 2759 
Q 947 2416 947 1791 
Q 947 1169 1205 825 
Q 1463 481 1925 481 
Q 2391 481 2648 825 
Q 2906 1169 2906 1791 
z
M 3481 434 
Q 3481 -459 3084 -895 
Q 2688 -1331 1869 -1331 
Q 1566 -1331 1297 -1286 
Q 1028 -1241 775 -1147 
L 775 -588 
Q 1028 -725 1275 -790 
Q 1522 -856 1778 -856 
Q 2344 -856 2625 -561 
Q 2906 -266 2906 331 
L 2906 616 
Q 2728 306 2450 153 
Q 2172 0 1784 0 
Q 1141 0 747 490 
Q 353 981 353 1791 
Q 353 2603 747 3093 
Q 1141 3584 1784 3584 
Q 2172 3584 2450 3431 
Q 2728 3278 2906 2969 
L 2906 3500 
L 3481 3500 
L 3481 434 
z
" transform="scale(0.015625)"/>
       <path id="DejaVuSans-68" d="M 3513 2113 
L 3513 0 
L 2938 0 
L 2938 2094 
Q 2938 2591 2744 2837 
Q 2550 3084 2163 3084 
Q 1697 3084 1428 2787 
Q 1159 2491 1159 1978 
L 1159 0 
L 581 0 
L 581 4863 
L 1159 4863 
L 1159 2956 
Q 1366 3272 1645 3428 
Q 1925 3584 2291 3584 
Q 2894 3584 3203 3211 
Q 3513 2838 3513 2113 
z
" transform="scale(0.015625)"/>
       <path id="DejaVuSans-69" d="M 603 3500 
L 1178 3500 
L 1178 0 
L 603 0 
L 603 3500 
z
M 603 4863 
L 1178 4863 
L 1178 4134 
L 603 4134 
L 603 4863 
z
" transform="scale(0.015625)"/>
       <path id="DejaVuSans-43" d="M 4122 4306 
L 4122 3641 
Q 3803 3938 3442 4084 
Q 3081 4231 2675 4231 
Q 1875 4231 1450 3742 
Q 1025 3253 1025 2328 
Q 1025 1406 1450 917 
Q 1875 428 2675 428 
Q 3081 428 3442 575 
Q 3803 722 4122 1019 
L 4122 359 
Q 3791 134 3420 21 
Q 3050 -91 2638 -91 
Q 1578 -91 968 557 
Q 359 1206 359 2328 
Q 359 3453 968 4101 
Q 1578 4750 2638 4750 
Q 3056 4750 3426 4639 
Q 3797 4528 4122 4306 
z
" transform="scale(0.015625)"/>
       <path id="DejaVuSans-72" d="M 2631 2963 
Q 2534 3019 2420 3045 
Q 2306 3072 2169 3072 
Q 1681 3072 1420 2755 
Q 1159 2438 1159 1844 
L 1159 0 
L 581 0 
L 581 3500 
L 1159 3500 
L 1159 2956 
Q 1341 3275 1631 3429 
Q 1922 3584 2338 3584 
Q 2397 3584 2469 3576 
Q 2541 3569 2628 3553 
L 2631 2963 
z
" transform="scale(0.015625)"/>
       <path id="DejaVuSans-63" d="M 3122 3366 
L 3122 2828 
Q 2878 2963 2633 3030 
Q 2388 3097 2138 3097 
Q 1578 3097 1268 2742 
Q 959 2388 959 1747 
Q 959 1106 1268 751 
Q 1578 397 2138 397 
Q 2388 397 2633 464 
Q 2878 531 3122 666 
L 3122 134 
Q 2881 22 2623 -34 
Q 2366 -91 2075 -91 
Q 1284 -91 818 406 
Q 353 903 353 1747 
Q 353 2603 823 3093 
Q 1294 3584 2113 3584 
Q 2378 3584 2631 3529 
Q 2884 3475 3122 3366 
z
" transform="scale(0.015625)"/>
       <path id="DejaVuSans-73" d="M 2834 3397 
L 2834 2853 
Q 2591 2978 2328 3040 
Q 2066 3103 1784 3103 
Q 1356 3103 1142 2972 
Q 928 2841 928 2578 
Q 928 2378 1081 2264 
Q 1234 2150 1697 2047 
L 1894 2003 
Q 2506 1872 2764 1633 
Q 3022 1394 3022 966 
Q 3022 478 2636 193 
Q 2250 -91 1575 -91 
Q 1294 -91 989 -36 
Q 684 19 347 128 
L 347 722 
Q 666 556 975 473 
Q 1284 391 1588 391 
Q 1994 391 2212 530 
Q 2431 669 2431 922 
Q 2431 1156 2273 1281 
Q 2116 1406 1581 1522 
L 1381 1569 
Q 847 1681 609 1914 
Q 372 2147 372 2553 
Q 372 3047 722 3315 
Q 1072 3584 1716 3584 
Q 2034 3584 2315 3537 
Q 2597 3491 2834 3397 
z
" transform="scale(0.015625)"/>
      </defs>
      <use xlink:href="#DejaVuSans-4d"/>
      <use xlink:href="#DejaVuSans-65" x="86.279297"/>
      <use xlink:href="#DejaVuSans-61" x="147.802734"/>
      <use xlink:href="#DejaVuSans-6e" x="209.082031"/>
      <use xlink:href="#DejaVuSans-20" x="272.460938"/>
      <use xlink:href="#DejaVuSans-54" x="304.248047"/>
      <use xlink:href="#DejaVuSans-77" x="348.832031"/>
      <use xlink:href="#DejaVuSans-65" x="430.619141"/>
      <use xlink:href="#DejaVuSans-65" x="492.142578"/>
      <use xlink:href="#DejaVuSans-74" x="553.666016"/>
      <use xlink:href="#DejaVuSans-20" x="592.875"/>
      <use xlink:href="#DejaVuSans-4c" x="624.662109"/>
      <use xlink:href="#DejaVuSans-65" x="678.625"/>
      <use xlink:href="#DejaVuSans-6e" x="740.148438"/>
      <use xlink:href="#DejaVuSans-67" x="803.527344"/>
      <use xlink:href="#DejaVuSans-74" x="867.003906"/>
      <use xlink:href="#DejaVuSans-68" x="906.212891"/>
      <use xlink:href="#DejaVuSans-20" x="969.591797"/>
      <use xlink:href="#DejaVuSans-69" x="1001.378906"/>
      <use xlink:href="#DejaVuSans-6e" x="1029.162109"/>
      <use xlink:href="#DejaVuSans-20" x="1092.541016"/>
      <use xlink:href="#DejaVuSans-43" x="1124.328125"/>
      <use xlink:href="#DejaVuSans-68" x="1194.152344"/>
      <use xlink:href="#DejaVuSans-61" x="1257.53125"/>
      <use xlink:href="#DejaVuSans-72" x="1318.810547"/>
      <use xlink:href="#DejaVuSans-61" x="1359.923828"/>
      <use xlink:href="#DejaVuSans-63" x="1421.203125"/>
      <use xlink:href="#DejaVuSans-74" x="1476.183594"/>
      <use xlink:href="#DejaVuSans-65" x="1515.392578"/>
      <use xlink:href="#DejaVuSans-72" x="1576.916016"/>
      <use xlink:href="#DejaVuSans-73" x="1618.029297"/>
     </g>
    </g>
   </g>
   <g id="line2d_78">
    <path d="M 230.727273 299.911454 
L 245.43083 356.600027 
L 260.134387 280.933444 
L 274.837945 250.842884 
L 289.541502 260.692139 
L 304.245059 240.352391 
L 318.948617 213.063798 
L 333.652174 249.069824 
L 348.355731 262.893842 
L 363.059289 270.858419 
L 377.762846 260.574911 
L 392.466403 343.094255 
L 407.16996 351.322019 
L 421.873518 249.464758 
L 436.577075 265.110953 
L 451.280632 180.785348 
L 465.98419 245.299557 
L 480.687747 243.639788 
L 495.391304 273.558431 
L 510.094862 249.778511 
L 524.798419 288.186538 
L 539.501976 262.08467 
L 554.205534 295.856191 
L 568.909091 523.904767 
L 583.612648 536.797013 
L 598.316206 543.477292 
L 613.019763 554.208282 
L 627.72332 566.725844 
L 642.426877 565.603126 
L 657.130435 542.464658 
L 671.833992 552.753961 
L 686.537549 561.442397 
L 701.241107 560.846798 
L 715.944664 555.135656 
L 730.648221 564.884784 
L 745.351779 566.529384 
L 760.055336 557.844281 
L 774.758893 566.816824 
L 789.462451 551.988109 
L 804.166008 547.371549 
L 818.869565 562.550902 
L 833.573123 564.937219 
L 848.27668 582.099117 
L 862.980237 564.465438 
L 877.683794 576.898214 
L 892.387352 563.82622 
L 907.090909 508.11485 
L 921.794466 521.961796 
L 936.498024 543.177666 
L 951.201581 530.02728 
L 965.905138 543.482733 
L 980.608696 526.553538 
L 995.312253 516.414146 
L 1010.01581 549.627654 
L 1024.719368 526.478576 
L 1039.422925 508.192396 
L 1054.126482 516.17762 
L 1068.83004 516.902338 
L 1083.533597 543.34713 
L 1098.237154 528.34126 
L 1112.940711 534.129178 
L 1127.644269 585.044383 
L 1142.347826 600.441557 
L 1157.051383 607.967232 
L 1171.754941 594.503835 
L 1186.458498 596.692311 
L 1201.162055 580.460144 
L 1215.865613 266.267325 
L 1230.56917 225.150657 
L 1245.272727 615.6 
" clip-path="url(#pc88b00c298)" style="fill: none; stroke: #1f77b4; stroke-width: 1.5; stroke-linecap: square"/>
   </g>
   <g id="line2d_79">
    <path d="M 230.727273 239.366542 
L 245.43083 186.491137 
L 260.134387 188.716444 
L 274.837945 225.35948 
L 289.541502 186.87101 
L 304.245059 232.337739 
L 318.948617 179.909643 
L 333.652174 170.176259 
L 348.355731 176.98352 
L 363.059289 196.211219 
L 377.762846 174.648372 
L 392.466403 300.378179 
L 407.16996 168.215115 
L 421.873518 152.389188 
L 436.577075 153.28294 
L 451.280632 141.962253 
L 465.98419 149.991181 
L 480.687747 156.812304 
L 495.391304 169.15615 
L 510.094862 163.575806 
L 524.798419 155.918132 
L 539.501976 182.995337 
L 554.205534 198.248373 
L 568.909091 201.872737 
L 583.612648 180.921652 
L 598.316206 206.848102 
L 613.019763 190.506717 
L 627.72332 194.32568 
L 642.426877 221.591977 
L 657.130435 195.927564 
L 671.833992 191.571748 
L 686.537549 199.936922 
L 701.241107 195.324157 
L 715.944664 213.482428 
L 730.648221 211.17195 
L 745.351779 243.645394 
L 760.055336 178.634999 
L 774.758893 212.900566 
L 789.462451 231.297371 
L 804.166008 291.471414 
L 818.869565 250.170067 
L 833.573123 202.456922 
L 848.27668 293.95042 
L 862.980237 219.907848 
L 877.683794 227.305212 
L 892.387352 199.042701 
L 907.090909 276.762612 
L 921.794466 193.023988 
L 936.498024 183.233706 
L 951.201581 184.183487 
L 965.905138 261.034626 
L 980.608696 161.804465 
L 995.312253 184.358828 
L 1010.01581 165.673053 
L 1024.719368 171.088554 
L 1039.422925 205.12525 
L 1054.126482 165.287563 
L 1068.83004 172.346201 
L 1083.533597 180.143011 
L 1098.237154 183.143449 
L 1112.940711 162.36543 
L 1127.644269 137.469857 
L 1142.347826 155.744819 
L 1157.051383 165.119432 
L 1171.754941 153.892555 
L 1186.458498 130.445681 
L 1201.162055 153.734263 
L 1215.865613 161.130705 
L 1230.56917 184.776709 
L 1245.272727 248.072947 
" clip-path="url(#pc88b00c298)" style="fill: none; stroke: #ff7f0e; stroke-width: 1.5; stroke-linecap: square"/>
   </g>
   <g id="line2d_80">
    <path d="M 230.727273 227.444003 
L 245.43083 197.832503 
L 260.134387 205.394548 
L 274.837945 211.7256 
L 289.541502 199.511891 
L 304.245059 201.147692 
L 318.948617 190.134015 
L 333.652174 197.270224 
L 348.355731 210.487291 
L 363.059289 223.808221 
L 377.762846 209.360675 
L 392.466403 275.188966 
L 407.16996 214.095039 
L 421.873518 210.515107 
L 436.577075 200.31566 
L 451.280632 199.844953 
L 465.98419 216.779783 
L 480.687747 206.59966 
L 495.391304 217.287718 
L 510.094862 214.21469 
L 524.798419 221.920803 
L 539.501976 216.069254 
L 554.205534 203.492641 
L 568.909091 202.389368 
L 583.612648 168.513545 
L 598.316206 207.14114 
L 613.019763 194.052919 
L 627.72332 196.22237 
L 642.426877 224.648038 
L 657.130435 187.396581 
L 671.833992 206.424647 
L 686.537549 215.500129 
L 701.241107 204.241615 
L 715.944664 197.512821 
L 730.648221 236.420318 
L 745.351779 215.981618 
L 760.055336 162.653265 
L 774.758893 178.770809 
L 789.462451 228.091171 
L 804.166008 171.067746 
L 818.869565 162.488873 
L 833.573123 163.655398 
L 848.27668 179.87271 
L 862.980237 212.734192 
L 877.683794 199.463612 
L 892.387352 165.941737 
L 907.090909 189.025221 
L 921.794466 185.149021 
L 936.498024 207.602756 
L 951.201581 170.741484 
L 965.905138 500.427118 
L 980.608696 189.908051 
L 995.312253 209.976345 
L 1010.01581 175.015947 
L 1024.719368 186.313757 
L 1039.422925 197.028282 
L 1054.126482 193.612 
L 1068.83004 178.912561 
L 1083.533597 243.15244 
L 1098.237154 164.413503 
L 1112.940711 139.747175 
L 1127.644269 140.947282 
L 1142.347826 147.188954 
L 1157.051383 220.180954 
L 1171.754941 170.181972 
L 1186.458498 154.738312 
L 1201.162055 176.558775 
L 1215.865613 172.650664 
L 1230.56917 346.741584 
L 1245.272727 220.293492 
" clip-path="url(#pc88b00c298)" style="fill: none; stroke: #2ca02c; stroke-width: 1.5; stroke-linecap: square"/>
   </g>
   <g id="line2d_81">
    <path d="M 230.727273 186.05526 
L 245.43083 147.354653 
L 260.134387 150.824873 
L 274.837945 149.359361 
L 289.541502 143.511827 
L 304.245059 140.833823 
L 318.948617 130.2284 
L 333.652174 134.472796 
L 348.355731 138.604872 
L 363.059289 156.639937 
L 377.762846 159.943456 
L 392.466403 213.284888 
L 407.16996 183.439152 
L 421.873518 164.09815 
L 436.577075 179.445571 
L 451.280632 187.081384 
L 465.98419 189.229716 
L 480.687747 194.354298 
L 495.391304 192.64451 
L 510.094862 195.047437 
L 524.798419 186.069281 
L 539.501976 177.013604 
L 554.205534 171.246896 
L 568.909091 157.560303 
L 583.612648 154.101051 
L 598.316206 156.207104 
L 613.019763 143.724511 
L 627.72332 158.873991 
L 642.426877 163.466198 
L 657.130435 155.94741 
L 671.833992 178.411798 
L 686.537549 198.221915 
L 701.241107 175.93777 
L 715.944664 158.729704 
L 730.648221 148.532235 
L 745.351779 168.14324 
L 760.055336 148.857132 
L 774.758893 164.832913 
L 789.462451 188.146759 
L 804.166008 179.832294 
L 818.869565 151.226981 
L 833.573123 149.255738 
L 848.27668 150.333461 
L 862.980237 161.590515 
L 877.683794 164.04668 
L 892.387352 142.269491 
L 907.090909 140.043479 
L 921.794466 142.83484 
L 936.498024 160.68383 
L 951.201581 142.833177 
L 965.905138 147.47352 
L 980.608696 134.689268 
L 995.312253 185.109876 
L 1010.01581 149.329074 
L 1024.719368 164.941461 
L 1039.422925 175.798706 
L 1054.126482 170.78115 
L 1068.83004 169.018097 
L 1083.533597 177.359229 
L 1098.237154 157.53464 
L 1112.940711 139.241914 
L 1127.644269 116.332163 
L 1142.347826 111.6 
L 1157.051383 126.458908 
L 1171.754941 125.240626 
L 1186.458498 130.947548 
L 1201.162055 157.658843 
L 1215.865613 145.070527 
L 1230.56917 196.795076 
L 1245.272727 153.17869 
" clip-path="url(#pc88b00c298)" style="fill: none; stroke: #d62728; stroke-width: 1.5; stroke-linecap: square"/>
   </g>
   <g id="line2d_82">
    <path d="M 230.727273 262.37495 
L 245.43083 211.231146 
L 260.134387 204.427844 
L 274.837945 253.111542 
L 289.541502 198.074737 
L 304.245059 196.988872 
L 318.948617 185.070465 
L 333.652174 187.324412 
L 348.355731 194.334812 
L 363.059289 202.887505 
L 377.762846 205.963486 
L 392.466403 231.491494 
L 407.16996 203.303926 
L 421.873518 200.334798 
L 436.577075 207.109397 
L 451.280632 197.51277 
L 465.98419 201.759446 
L 480.687747 217.140762 
L 495.391304 215.46412 
L 510.094862 227.355224 
L 524.798419 214.411037 
L 539.501976 207.278117 
L 554.205534 194.833942 
L 568.909091 217.550559 
L 583.612648 212.650799 
L 598.316206 207.923462 
L 613.019763 213.841497 
L 627.72332 224.342691 
L 642.426877 245.497387 
L 657.130435 220.762505 
L 671.833992 220.46329 
L 686.537549 227.167331 
L 701.241107 241.821928 
L 715.944664 235.10978 
L 730.648221 219.950168 
L 745.351779 272.001502 
L 760.055336 201.829998 
L 774.758893 247.141839 
L 789.462451 255.668339 
L 804.166008 267.621788 
L 818.869565 232.133933 
L 833.573123 217.168679 
L 848.27668 226.068048 
L 862.980237 252.173386 
L 877.683794 224.853535 
L 892.387352 223.920214 
L 907.090909 216.100258 
L 921.794466 208.129775 
L 936.498024 209.228001 
L 951.201581 204.037957 
L 965.905138 214.912001 
L 980.608696 184.997658 
L 995.312253 226.859588 
L 1010.01581 190.315112 
L 1024.719368 205.239704 
L 1039.422925 207.836287 
L 1054.126482 197.234849 
L 1068.83004 194.819949 
L 1083.533597 202.530261 
L 1098.237154 198.299009 
L 1112.940711 202.461494 
L 1127.644269 188.551858 
L 1142.347826 245.964892 
L 1157.051383 239.748816 
L 1171.754941 232.98469 
L 1186.458498 235.624955 
L 1201.162055 204.004669 
L 1215.865613 190.162999 
L 1230.56917 190.485793 
L 1245.272727 266.903492 
" clip-path="url(#pc88b00c298)" style="fill: none; stroke: #9467bd; stroke-width: 1.5; stroke-linecap: square"/>
   </g>
   <g id="line2d_83">
    <path d="M 230.727273 257.072867 
L 245.43083 170.787644 
L 260.134387 165.885465 
L 274.837945 178.74806 
L 289.541502 175.456014 
L 304.245059 159.821761 
L 318.948617 161.446393 
L 333.652174 166.537521 
L 348.355731 221.57523 
L 363.059289 186.15406 
L 377.762846 180.287442 
L 392.466403 214.308592 
L 407.16996 190.875833 
L 421.873518 184.830751 
L 436.577075 180.344449 
L 451.280632 172.775714 
L 465.98419 190.175529 
L 480.687747 192.394264 
L 495.391304 190.742367 
L 510.094862 185.99953 
L 524.798419 194.108567 
L 539.501976 179.85164 
L 554.205534 196.521061 
L 568.909091 189.818875 
L 583.612648 178.41175 
L 598.316206 173.528352 
L 613.019763 171.520097 
L 627.72332 165.645458 
L 642.426877 205.802708 
L 657.130435 168.767001 
L 671.833992 178.081806 
L 686.537549 191.141125 
L 701.241107 181.913682 
L 715.944664 180.645329 
L 730.648221 185.313172 
L 745.351779 184.88567 
L 760.055336 160.491939 
L 774.758893 196.296801 
L 789.462451 202.078291 
L 804.166008 245.76013 
L 818.869565 188.398638 
L 833.573123 161.706351 
L 848.27668 177.142175 
L 862.980237 208.864896 
L 877.683794 207.750946 
L 892.387352 191.909129 
L 907.090909 190.85975 
L 921.794466 206.073134 
L 936.498024 188.61154 
L 951.201581 194.326191 
L 965.905138 214.297476 
L 980.608696 169.445761 
L 995.312253 191.646909 
L 1010.01581 177.260988 
L 1024.719368 179.697863 
L 1039.422925 185.047178 
L 1054.126482 191.115138 
L 1068.83004 181.882825 
L 1083.533597 180.431474 
L 1098.237154 189.747975 
L 1112.940711 170.215 
L 1127.644269 139.537971 
L 1142.347826 180.586183 
L 1157.051383 203.841221 
L 1171.754941 200.555369 
L 1186.458498 166.1185 
L 1201.162055 184.302273 
L 1215.865613 183.687423 
L 1230.56917 205.758853 
L 1245.272727 194.540608 
" clip-path="url(#pc88b00c298)" style="fill: none; stroke: #8c564b; stroke-width: 1.5; stroke-linecap: square"/>
   </g>
   <g id="line2d_84">
    <path d="M 230.727273 283.609397 
L 245.43083 302.388853 
L 260.134387 248.677549 
L 274.837945 221.257394 
L 289.541502 227.24546 
L 304.245059 215.847657 
L 318.948617 188.47254 
L 333.652174 216.798856 
L 348.355731 236.204572 
L 363.059289 258.047428 
L 377.762846 263.285519 
L 392.466403 332.382016 
L 407.16996 373.723101 
L 421.873518 272.540108 
L 436.577075 263.398511 
L 451.280632 272.359822 
L 465.98419 275.731781 
L 480.687747 259.255185 
L 495.391304 277.305498 
L 510.094862 262.86991 
L 524.798419 259.331168 
L 539.501976 265.88984 
L 554.205534 287.13785 
L 568.909091 477.094299 
L 583.612648 465.019386 
L 598.316206 488.082467 
L 613.019763 505.01547 
L 627.72332 515.760426 
L 642.426877 500.047204 
L 657.130435 466.629087 
L 671.833992 462.102284 
L 686.537549 486.181818 
L 701.241107 505.535471 
L 715.944664 491.058865 
L 730.648221 501.753487 
L 745.351779 505.805354 
L 760.055336 486.218327 
L 774.758893 493.236371 
L 789.462451 496.516754 
L 804.166008 477.762595 
L 818.869565 490.843599 
L 833.573123 496.900315 
L 848.27668 525.695322 
L 862.980237 500.144696 
L 877.683794 514.845173 
L 892.387352 492.895573 
L 907.090909 433.818229 
L 921.794466 451.824488 
L 936.498024 454.723586 
L 951.201581 447.952821 
L 965.905138 440.366339 
L 980.608696 453.715019 
L 995.312253 441.863342 
L 1010.01581 471.807051 
L 1024.719368 444.227753 
L 1039.422925 439.541163 
L 1054.126482 423.652894 
L 1068.83004 418.724988 
L 1083.533597 415.667631 
L 1098.237154 414.114303 
L 1112.940711 433.051791 
L 1127.644269 511.849277 
L 1142.347826 566.309068 
L 1157.051383 544.879272 
L 1171.754941 516.266308 
L 1186.458498 575.392524 
L 1201.162055 497.439567 
L 1215.865613 258.450216 
L 1230.56917 289.774801 
L 1245.272727 576.361548 
" clip-path="url(#pc88b00c298)" style="fill: none; stroke: #e377c2; stroke-width: 1.5; stroke-linecap: square"/>
   </g>
   <g id="line2d_85"/>
   <g id="line2d_86"/>
   <g id="line2d_87"/>
   <g id="line2d_88"/>
   <g id="line2d_89"/>
   <g id="line2d_90"/>
   <g id="line2d_91"/>
   <g id="patch_3">
    <path d="M 180 640.8 
L 180 86.4 
" style="fill: none; stroke: #000000; stroke-width: 0.8; stroke-linejoin: miter; stroke-linecap: square"/>
   </g>
   <g id="patch_4">
    <path d="M 1296 640.8 
L 1296 86.4 
" style="fill: none; stroke: #000000; stroke-width: 0.8; stroke-linejoin: miter; stroke-linecap: square"/>
   </g>
   <g id="patch_5">
    <path d="M 180 640.8 
L 1296 640.8 
" style="fill: none; stroke: #000000; stroke-width: 0.8; stroke-linejoin: miter; stroke-linecap: square"/>
   </g>
   <g id="patch_6">
    <path d="M 180 86.4 
L 1296 86.4 
" style="fill: none; stroke: #000000; stroke-width: 0.8; stroke-linejoin: miter; stroke-linecap: square"/>
   </g>
   <g id="text_44">
    <!-- Mean Tweet Length in Characters per Week per Language -->
    <g transform="translate(564.180938 80.4) scale(0.12 -0.12)">
     <defs>
      <path id="DejaVuSans-70" d="M 1159 525 
L 1159 -1331 
L 581 -1331 
L 581 3500 
L 1159 3500 
L 1159 2969 
Q 1341 3281 1617 3432 
Q 1894 3584 2278 3584 
Q 2916 3584 3314 3078 
Q 3713 2572 3713 1747 
Q 3713 922 3314 415 
Q 2916 -91 2278 -91 
Q 1894 -91 1617 61 
Q 1341 213 1159 525 
z
M 3116 1747 
Q 3116 2381 2855 2742 
Q 2594 3103 2138 3103 
Q 1681 3103 1420 2742 
Q 1159 2381 1159 1747 
Q 1159 1113 1420 752 
Q 1681 391 2138 391 
Q 2594 391 2855 752 
Q 3116 1113 3116 1747 
z
" transform="scale(0.015625)"/>
      <path id="DejaVuSans-57" d="M 213 4666 
L 850 4666 
L 1831 722 
L 2809 4666 
L 3519 4666 
L 4500 722 
L 5478 4666 
L 6119 4666 
L 4947 0 
L 4153 0 
L 3169 4050 
L 2175 0 
L 1381 0 
L 213 4666 
z
" transform="scale(0.015625)"/>
      <path id="DejaVuSans-6b" d="M 581 4863 
L 1159 4863 
L 1159 1991 
L 2875 3500 
L 3609 3500 
L 1753 1863 
L 3688 0 
L 2938 0 
L 1159 1709 
L 1159 0 
L 581 0 
L 581 4863 
z
" transform="scale(0.015625)"/>
      <path id="DejaVuSans-75" d="M 544 1381 
L 544 3500 
L 1119 3500 
L 1119 1403 
Q 1119 906 1312 657 
Q 1506 409 1894 409 
Q 2359 409 2629 706 
Q 2900 1003 2900 1516 
L 2900 3500 
L 3475 3500 
L 3475 0 
L 2900 0 
L 2900 538 
Q 2691 219 2414 64 
Q 2138 -91 1772 -91 
Q 1169 -91 856 284 
Q 544 659 544 1381 
z
M 1991 3584 
L 1991 3584 
z
" transform="scale(0.015625)"/>
     </defs>
     <use xlink:href="#DejaVuSans-4d"/>
     <use xlink:href="#DejaVuSans-65" x="86.279297"/>
     <use xlink:href="#DejaVuSans-61" x="147.802734"/>
     <use xlink:href="#DejaVuSans-6e" x="209.082031"/>
     <use xlink:href="#DejaVuSans-20" x="272.460938"/>
     <use xlink:href="#DejaVuSans-54" x="304.248047"/>
     <use xlink:href="#DejaVuSans-77" x="348.832031"/>
     <use xlink:href="#DejaVuSans-65" x="430.619141"/>
     <use xlink:href="#DejaVuSans-65" x="492.142578"/>
     <use xlink:href="#DejaVuSans-74" x="553.666016"/>
     <use xlink:href="#DejaVuSans-20" x="592.875"/>
     <use xlink:href="#DejaVuSans-4c" x="624.662109"/>
     <use xlink:href="#DejaVuSans-65" x="678.625"/>
     <use xlink:href="#DejaVuSans-6e" x="740.148438"/>
     <use xlink:href="#DejaVuSans-67" x="803.527344"/>
     <use xlink:href="#DejaVuSans-74" x="867.003906"/>
     <use xlink:href="#DejaVuSans-68" x="906.212891"/>
     <use xlink:href="#DejaVuSans-20" x="969.591797"/>
     <use xlink:href="#DejaVuSans-69" x="1001.378906"/>
     <use xlink:href="#DejaVuSans-6e" x="1029.162109"/>
     <use xlink:href="#DejaVuSans-20" x="1092.541016"/>
     <use xlink:href="#DejaVuSans-43" x="1124.328125"/>
     <use xlink:href="#DejaVuSans-68" x="1194.152344"/>
     <use xlink:href="#DejaVuSans-61" x="1257.53125"/>
     <use xlink:href="#DejaVuSans-72" x="1318.810547"/>
     <use xlink:href="#DejaVuSans-61" x="1359.923828"/>
     <use xlink:href="#DejaVuSans-63" x="1421.203125"/>
     <use xlink:href="#DejaVuSans-74" x="1476.183594"/>
     <use xlink:href="#DejaVuSans-65" x="1515.392578"/>
     <use xlink:href="#DejaVuSans-72" x="1576.916016"/>
     <use xlink:href="#DejaVuSans-73" x="1618.029297"/>
     <use xlink:href="#DejaVuSans-20" x="1670.128906"/>
     <use xlink:href="#DejaVuSans-70" x="1701.916016"/>
     <use xlink:href="#DejaVuSans-65" x="1765.392578"/>
     <use xlink:href="#DejaVuSans-72" x="1826.916016"/>
     <use xlink:href="#DejaVuSans-20" x="1868.029297"/>
     <use xlink:href="#DejaVuSans-57" x="1899.816406"/>
     <use xlink:href="#DejaVuSans-65" x="1992.818359"/>
     <use xlink:href="#DejaVuSans-65" x="2054.341797"/>
     <use xlink:href="#DejaVuSans-6b" x="2115.865234"/>
     <use xlink:href="#DejaVuSans-20" x="2173.775391"/>
     <use xlink:href="#DejaVuSans-70" x="2205.5625"/>
     <use xlink:href="#DejaVuSans-65" x="2269.039062"/>
     <use xlink:href="#DejaVuSans-72" x="2330.5625"/>
     <use xlink:href="#DejaVuSans-20" x="2371.675781"/>
     <use xlink:href="#DejaVuSans-4c" x="2403.462891"/>
     <use xlink:href="#DejaVuSans-61" x="2459.175781"/>
     <use xlink:href="#DejaVuSans-6e" x="2520.455078"/>
     <use xlink:href="#DejaVuSans-67" x="2583.833984"/>
     <use xlink:href="#DejaVuSans-75" x="2647.310547"/>
     <use xlink:href="#DejaVuSans-61" x="2710.689453"/>
     <use xlink:href="#DejaVuSans-67" x="2771.96875"/>
     <use xlink:href="#DejaVuSans-65" x="2835.445312"/>
    </g>
   </g>
   <g id="legend_1">
    <g id="patch_7">
     <path d="M 187 635.8 
L 231.501563 635.8 
Q 233.501563 635.8 233.501563 633.8 
L 233.501563 517.375 
Q 233.501563 515.375 231.501563 515.375 
L 187 515.375 
Q 185 515.375 185 517.375 
L 185 633.8 
Q 185 635.8 187 635.8 
z
" style="fill: #ffffff; opacity: 0.8; stroke: #cccccc; stroke-linejoin: miter"/>
    </g>
    <g id="text_45">
     <!-- lang -->
     <g transform="translate(198.454688 526.973438) scale(0.1 -0.1)">
      <defs>
       <path id="DejaVuSans-6c" d="M 603 4863 
L 1178 4863 
L 1178 0 
L 603 0 
L 603 4863 
z
" transform="scale(0.015625)"/>
      </defs>
      <use xlink:href="#DejaVuSans-6c"/>
      <use xlink:href="#DejaVuSans-61" x="27.783203"/>
      <use xlink:href="#DejaVuSans-6e" x="89.0625"/>
      <use xlink:href="#DejaVuSans-67" x="152.441406"/>
     </g>
    </g>
    <g id="line2d_92">
     <path d="M 189 538.151563 
L 199 538.151563 
L 209 538.151563 
" style="fill: none; stroke: #1f77b4; stroke-width: 1.5; stroke-linecap: square"/>
    </g>
    <g id="text_46">
     <!-- uk -->
     <g transform="translate(217 541.651563) scale(0.1 -0.1)">
      <use xlink:href="#DejaVuSans-75"/>
      <use xlink:href="#DejaVuSans-6b" x="63.378906"/>
     </g>
    </g>
    <g id="line2d_93">
     <path d="M 189 552.829688 
L 199 552.829688 
L 209 552.829688 
" style="fill: none; stroke: #ff7f0e; stroke-width: 1.5; stroke-linecap: square"/>
    </g>
    <g id="text_47">
     <!-- es -->
     <g transform="translate(217 556.329688) scale(0.1 -0.1)">
      <use xlink:href="#DejaVuSans-65"/>
      <use xlink:href="#DejaVuSans-73" x="61.523438"/>
     </g>
    </g>
    <g id="line2d_94">
     <path d="M 189 567.507812 
L 199 567.507812 
L 209 567.507812 
" style="fill: none; stroke: #2ca02c; stroke-width: 1.5; stroke-linecap: square"/>
    </g>
    <g id="text_48">
     <!-- it -->
     <g transform="translate(217 571.007812) scale(0.1 -0.1)">
      <use xlink:href="#DejaVuSans-69"/>
      <use xlink:href="#DejaVuSans-74" x="27.783203"/>
     </g>
    </g>
    <g id="line2d_95">
     <path d="M 189 582.185938 
L 199 582.185938 
L 209 582.185938 
" style="fill: none; stroke: #d62728; stroke-width: 1.5; stroke-linecap: square"/>
    </g>
    <g id="text_49">
     <!-- de -->
     <g transform="translate(217 585.685938) scale(0.1 -0.1)">
      <defs>
       <path id="DejaVuSans-64" d="M 2906 2969 
L 2906 4863 
L 3481 4863 
L 3481 0 
L 2906 0 
L 2906 525 
Q 2725 213 2448 61 
Q 2172 -91 1784 -91 
Q 1150 -91 751 415 
Q 353 922 353 1747 
Q 353 2572 751 3078 
Q 1150 3584 1784 3584 
Q 2172 3584 2448 3432 
Q 2725 3281 2906 2969 
z
M 947 1747 
Q 947 1113 1208 752 
Q 1469 391 1925 391 
Q 2381 391 2643 752 
Q 2906 1113 2906 1747 
Q 2906 2381 2643 2742 
Q 2381 3103 1925 3103 
Q 1469 3103 1208 2742 
Q 947 2381 947 1747 
z
" transform="scale(0.015625)"/>
      </defs>
      <use xlink:href="#DejaVuSans-64"/>
      <use xlink:href="#DejaVuSans-65" x="63.476562"/>
     </g>
    </g>
    <g id="line2d_96">
     <path d="M 189 596.864063 
L 199 596.864063 
L 209 596.864063 
" style="fill: none; stroke: #9467bd; stroke-width: 1.5; stroke-linecap: square"/>
    </g>
    <g id="text_50">
     <!-- en -->
     <g transform="translate(217 600.364063) scale(0.1 -0.1)">
      <use xlink:href="#DejaVuSans-65"/>
      <use xlink:href="#DejaVuSans-6e" x="61.523438"/>
     </g>
    </g>
    <g id="line2d_97">
     <path d="M 189 611.542188 
L 199 611.542188 
L 209 611.542188 
" style="fill: none; stroke: #8c564b; stroke-width: 1.5; stroke-linecap: square"/>
    </g>
    <g id="text_51">
     <!-- fr -->
     <g transform="translate(217 615.042188) scale(0.1 -0.1)">
      <defs>
       <path id="DejaVuSans-66" d="M 2375 4863 
L 2375 4384 
L 1825 4384 
Q 1516 4384 1395 4259 
Q 1275 4134 1275 3809 
L 1275 3500 
L 2222 3500 
L 2222 3053 
L 1275 3053 
L 1275 0 
L 697 0 
L 697 3053 
L 147 3053 
L 147 3500 
L 697 3500 
L 697 3744 
Q 697 4328 969 4595 
Q 1241 4863 1831 4863 
L 2375 4863 
z
" transform="scale(0.015625)"/>
      </defs>
      <use xlink:href="#DejaVuSans-66"/>
      <use xlink:href="#DejaVuSans-72" x="35.205078"/>
     </g>
    </g>
    <g id="line2d_98">
     <path d="M 189 626.220313 
L 199 626.220313 
L 209 626.220313 
" style="fill: none; stroke: #e377c2; stroke-width: 1.5; stroke-linecap: square"/>
    </g>
    <g id="text_52">
     <!-- ru -->
     <g transform="translate(217 629.720313) scale(0.1 -0.1)">
      <use xlink:href="#DejaVuSans-72"/>
      <use xlink:href="#DejaVuSans-75" x="41.113281"/>
     </g>
    </g>
   </g>
  </g>
 </g>
 <defs>
  <clipPath id="pc88b00c298">
   <rect x="180" y="86.4" width="1116" height="554.4"/>
  </clipPath>
 </defs>
</svg>
