<?xml version="1.0" encoding="utf-8" standalone="no"?>
<!DOCTYPE svg PUBLIC "-//W3C//DTD SVG 1.1//EN"
  "http://www.w3.org/Graphics/SVG/1.1/DTD/svg11.dtd">
<svg xmlns:xlink="http://www.w3.org/1999/xlink" width="1440pt" height="720pt" viewBox="0 0 1440 720" xmlns="http://www.w3.org/2000/svg" version="1.1">
 <metadata>
  <rdf:RDF xmlns:dc="http://purl.org/dc/elements/1.1/" xmlns:cc="http://creativecommons.org/ns#" xmlns:rdf="http://www.w3.org/1999/02/22-rdf-syntax-ns#">
   <cc:Work>
    <dc:type rdf:resource="http://purl.org/dc/dcmitype/StillImage"/>
    <dc:date>2024-06-04T18:22:24.069498</dc:date>
    <dc:format>image/svg+xml</dc:format>
    <dc:creator>
     <cc:Agent>
      <dc:title>Matplotlib v3.8.2, https://matplotlib.org/</dc:title>
     </cc:Agent>
    </dc:creator>
   </cc:Work>
  </rdf:RDF>
 </metadata>
 <defs>
  <style type="text/css">*{stroke-linejoin: round; stroke-linecap: butt}</style>
 </defs>
 <g id="figure_1">
  <g id="patch_1">
   <path d="M 0 720 
L 1440 720 
L 1440 0 
L 0 0 
z
" style="fill: #ffffff"/>
  </g>
  <g id="axes_1">
   <g id="patch_2">
    <path d="M 180 640.8 
L 1296 640.8 
L 1296 86.4 
L 180 86.4 
z
" style="fill: #ffffff"/>
   </g>
   <g id="matplotlib.axis_1">
    <g id="xtick_1">
     <g id="text_1">
      <!-- lda -->
      <g style="fill: #262626" transform="translate(284.260938 658.173594) scale(0.11 -0.11)">
       <defs>
        <path id="ArialMT-6c" d="M 409 0 
L 409 4581 
L 972 4581 
L 972 0 
L 409 0 
z
" transform="scale(0.015625)"/>
        <path id="ArialMT-64" d="M 2575 0 
L 2575 419 
Q 2259 -75 1647 -75 
Q 1250 -75 917 144 
Q 584 363 401 755 
Q 219 1147 219 1656 
Q 219 2153 384 2558 
Q 550 2963 881 3178 
Q 1213 3394 1622 3394 
Q 1922 3394 2156 3267 
Q 2391 3141 2538 2938 
L 2538 4581 
L 3097 4581 
L 3097 0 
L 2575 0 
z
M 797 1656 
Q 797 1019 1065 703 
Q 1334 388 1700 388 
Q 2069 388 2326 689 
Q 2584 991 2584 1609 
Q 2584 2291 2321 2609 
Q 2059 2928 1675 2928 
Q 1300 2928 1048 2622 
Q 797 2316 797 1656 
z
" transform="scale(0.015625)"/>
        <path id="ArialMT-61" d="M 2588 409 
Q 2275 144 1986 34 
Q 1697 -75 1366 -75 
Q 819 -75 525 192 
Q 231 459 231 875 
Q 231 1119 342 1320 
Q 453 1522 633 1644 
Q 813 1766 1038 1828 
Q 1203 1872 1538 1913 
Q 2219 1994 2541 2106 
Q 2544 2222 2544 2253 
Q 2544 2597 2384 2738 
Q 2169 2928 1744 2928 
Q 1347 2928 1158 2789 
Q 969 2650 878 2297 
L 328 2372 
Q 403 2725 575 2942 
Q 747 3159 1072 3276 
Q 1397 3394 1825 3394 
Q 2250 3394 2515 3294 
Q 2781 3194 2906 3042 
Q 3031 2891 3081 2659 
Q 3109 2516 3109 2141 
L 3109 1391 
Q 3109 606 3145 398 
Q 3181 191 3288 0 
L 2700 0 
Q 2613 175 2588 409 
z
M 2541 1666 
Q 2234 1541 1622 1453 
Q 1275 1403 1131 1340 
Q 988 1278 909 1158 
Q 831 1038 831 891 
Q 831 666 1001 516 
Q 1172 366 1500 366 
Q 1825 366 2078 508 
Q 2331 650 2450 897 
Q 2541 1088 2541 1459 
L 2541 1666 
z
" transform="scale(0.015625)"/>
       </defs>
       <use xlink:href="#ArialMT-6c"/>
       <use xlink:href="#ArialMT-64" x="22.216797"/>
       <use xlink:href="#ArialMT-61" x="77.832031"/>
      </g>
     </g>
    </g>
    <g id="xtick_2">
     <g id="text_2">
      <!-- labse -->
      <g style="fill: #262626" transform="translate(501.652422 658.173594) scale(0.11 -0.11)">
       <defs>
        <path id="ArialMT-62" d="M 941 0 
L 419 0 
L 419 4581 
L 981 4581 
L 981 2947 
Q 1338 3394 1891 3394 
Q 2197 3394 2470 3270 
Q 2744 3147 2920 2923 
Q 3097 2700 3197 2384 
Q 3297 2069 3297 1709 
Q 3297 856 2875 390 
Q 2453 -75 1863 -75 
Q 1275 -75 941 416 
L 941 0 
z
M 934 1684 
Q 934 1088 1097 822 
Q 1363 388 1816 388 
Q 2184 388 2453 708 
Q 2722 1028 2722 1663 
Q 2722 2313 2464 2622 
Q 2206 2931 1841 2931 
Q 1472 2931 1203 2611 
Q 934 2291 934 1684 
z
" transform="scale(0.015625)"/>
        <path id="ArialMT-73" d="M 197 991 
L 753 1078 
Q 800 744 1014 566 
Q 1228 388 1613 388 
Q 2000 388 2187 545 
Q 2375 703 2375 916 
Q 2375 1106 2209 1216 
Q 2094 1291 1634 1406 
Q 1016 1563 777 1677 
Q 538 1791 414 1992 
Q 291 2194 291 2438 
Q 291 2659 392 2848 
Q 494 3038 669 3163 
Q 800 3259 1026 3326 
Q 1253 3394 1513 3394 
Q 1903 3394 2198 3281 
Q 2494 3169 2634 2976 
Q 2775 2784 2828 2463 
L 2278 2388 
Q 2241 2644 2061 2787 
Q 1881 2931 1553 2931 
Q 1166 2931 1000 2803 
Q 834 2675 834 2503 
Q 834 2394 903 2306 
Q 972 2216 1119 2156 
Q 1203 2125 1616 2013 
Q 2213 1853 2448 1751 
Q 2684 1650 2818 1456 
Q 2953 1263 2953 975 
Q 2953 694 2789 445 
Q 2625 197 2315 61 
Q 2006 -75 1616 -75 
Q 969 -75 630 194 
Q 291 463 197 991 
z
" transform="scale(0.015625)"/>
        <path id="ArialMT-65" d="M 2694 1069 
L 3275 997 
Q 3138 488 2766 206 
Q 2394 -75 1816 -75 
Q 1088 -75 661 373 
Q 234 822 234 1631 
Q 234 2469 665 2931 
Q 1097 3394 1784 3394 
Q 2450 3394 2872 2941 
Q 3294 2488 3294 1666 
Q 3294 1616 3291 1516 
L 816 1516 
Q 847 969 1125 678 
Q 1403 388 1819 388 
Q 2128 388 2347 550 
Q 2566 713 2694 1069 
z
M 847 1978 
L 2700 1978 
Q 2663 2397 2488 2606 
Q 2219 2931 1791 2931 
Q 1403 2931 1139 2672 
Q 875 2413 847 1978 
z
" transform="scale(0.015625)"/>
       </defs>
       <use xlink:href="#ArialMT-6c"/>
       <use xlink:href="#ArialMT-61" x="22.216797"/>
       <use xlink:href="#ArialMT-62" x="77.832031"/>
       <use xlink:href="#ArialMT-73" x="133.447266"/>
       <use xlink:href="#ArialMT-65" x="183.447266"/>
      </g>
     </g>
    </g>
    <g id="xtick_3">
     <g id="text_3">
      <!-- paraphrase_min -->
      <g style="fill: #262626" transform="translate(698.257344 658.173594) scale(0.11 -0.11)">
       <defs>
        <path id="ArialMT-70" d="M 422 -1272 
L 422 3319 
L 934 3319 
L 934 2888 
Q 1116 3141 1344 3267 
Q 1572 3394 1897 3394 
Q 2322 3394 2647 3175 
Q 2972 2956 3137 2557 
Q 3303 2159 3303 1684 
Q 3303 1175 3120 767 
Q 2938 359 2589 142 
Q 2241 -75 1856 -75 
Q 1575 -75 1351 44 
Q 1128 163 984 344 
L 984 -1272 
L 422 -1272 
z
M 931 1641 
Q 931 1000 1190 694 
Q 1450 388 1819 388 
Q 2194 388 2461 705 
Q 2728 1022 2728 1688 
Q 2728 2322 2467 2637 
Q 2206 2953 1844 2953 
Q 1484 2953 1207 2617 
Q 931 2281 931 1641 
z
" transform="scale(0.015625)"/>
        <path id="ArialMT-72" d="M 416 0 
L 416 3319 
L 922 3319 
L 922 2816 
Q 1116 3169 1280 3281 
Q 1444 3394 1641 3394 
Q 1925 3394 2219 3213 
L 2025 2691 
Q 1819 2813 1613 2813 
Q 1428 2813 1281 2702 
Q 1134 2591 1072 2394 
Q 978 2094 978 1738 
L 978 0 
L 416 0 
z
" transform="scale(0.015625)"/>
        <path id="ArialMT-68" d="M 422 0 
L 422 4581 
L 984 4581 
L 984 2938 
Q 1378 3394 1978 3394 
Q 2347 3394 2619 3248 
Q 2891 3103 3008 2847 
Q 3125 2591 3125 2103 
L 3125 0 
L 2563 0 
L 2563 2103 
Q 2563 2525 2380 2717 
Q 2197 2909 1863 2909 
Q 1613 2909 1392 2779 
Q 1172 2650 1078 2428 
Q 984 2206 984 1816 
L 984 0 
L 422 0 
z
" transform="scale(0.015625)"/>
        <path id="ArialMT-5f" d="M -97 -1272 
L -97 -866 
L 3631 -866 
L 3631 -1272 
L -97 -1272 
z
" transform="scale(0.015625)"/>
        <path id="ArialMT-6d" d="M 422 0 
L 422 3319 
L 925 3319 
L 925 2853 
Q 1081 3097 1340 3245 
Q 1600 3394 1931 3394 
Q 2300 3394 2536 3241 
Q 2772 3088 2869 2813 
Q 3263 3394 3894 3394 
Q 4388 3394 4653 3120 
Q 4919 2847 4919 2278 
L 4919 0 
L 4359 0 
L 4359 2091 
Q 4359 2428 4304 2576 
Q 4250 2725 4106 2815 
Q 3963 2906 3769 2906 
Q 3419 2906 3187 2673 
Q 2956 2441 2956 1928 
L 2956 0 
L 2394 0 
L 2394 2156 
Q 2394 2531 2256 2718 
Q 2119 2906 1806 2906 
Q 1569 2906 1367 2781 
Q 1166 2656 1075 2415 
Q 984 2175 984 1722 
L 984 0 
L 422 0 
z
" transform="scale(0.015625)"/>
        <path id="ArialMT-69" d="M 425 3934 
L 425 4581 
L 988 4581 
L 988 3934 
L 425 3934 
z
M 425 0 
L 425 3319 
L 988 3319 
L 988 0 
L 425 0 
z
" transform="scale(0.015625)"/>
        <path id="ArialMT-6e" d="M 422 0 
L 422 3319 
L 928 3319 
L 928 2847 
Q 1294 3394 1984 3394 
Q 2284 3394 2536 3286 
Q 2788 3178 2913 3003 
Q 3038 2828 3088 2588 
Q 3119 2431 3119 2041 
L 3119 0 
L 2556 0 
L 2556 2019 
Q 2556 2363 2490 2533 
Q 2425 2703 2258 2804 
Q 2091 2906 1866 2906 
Q 1506 2906 1245 2678 
Q 984 2450 984 1813 
L 984 0 
L 422 0 
z
" transform="scale(0.015625)"/>
       </defs>
       <use xlink:href="#ArialMT-70"/>
       <use xlink:href="#ArialMT-61" x="55.615234"/>
       <use xlink:href="#ArialMT-72" x="111.230469"/>
       <use xlink:href="#ArialMT-61" x="144.53125"/>
       <use xlink:href="#ArialMT-70" x="200.146484"/>
       <use xlink:href="#ArialMT-68" x="255.761719"/>
       <use xlink:href="#ArialMT-72" x="311.376953"/>
       <use xlink:href="#ArialMT-61" x="344.677734"/>
       <use xlink:href="#ArialMT-73" x="400.292969"/>
       <use xlink:href="#ArialMT-65" x="450.292969"/>
       <use xlink:href="#ArialMT-5f" x="505.908203"/>
       <use xlink:href="#ArialMT-6d" x="561.523438"/>
       <use xlink:href="#ArialMT-69" x="644.824219"/>
       <use xlink:href="#ArialMT-6e" x="667.041016"/>
      </g>
     </g>
    </g>
    <g id="xtick_4">
     <g id="text_4">
      <!-- paraphrase_max -->
      <g style="fill: #262626" transform="translate(919.929375 658.173594) scale(0.11 -0.11)">
       <defs>
        <path id="ArialMT-78" d="M 47 0 
L 1259 1725 
L 138 3319 
L 841 3319 
L 1350 2541 
Q 1494 2319 1581 2169 
Q 1719 2375 1834 2534 
L 2394 3319 
L 3066 3319 
L 1919 1756 
L 3153 0 
L 2463 0 
L 1781 1031 
L 1600 1309 
L 728 0 
L 47 0 
z
" transform="scale(0.015625)"/>
       </defs>
       <use xlink:href="#ArialMT-70"/>
       <use xlink:href="#ArialMT-61" x="55.615234"/>
       <use xlink:href="#ArialMT-72" x="111.230469"/>
       <use xlink:href="#ArialMT-61" x="144.53125"/>
       <use xlink:href="#ArialMT-70" x="200.146484"/>
       <use xlink:href="#ArialMT-68" x="255.761719"/>
       <use xlink:href="#ArialMT-72" x="311.376953"/>
       <use xlink:href="#ArialMT-61" x="344.677734"/>
       <use xlink:href="#ArialMT-73" x="400.292969"/>
       <use xlink:href="#ArialMT-65" x="450.292969"/>
       <use xlink:href="#ArialMT-5f" x="505.908203"/>
       <use xlink:href="#ArialMT-6d" x="561.523438"/>
       <use xlink:href="#ArialMT-61" x="644.824219"/>
       <use xlink:href="#ArialMT-78" x="700.439453"/>
      </g>
     </g>
    </g>
    <g id="xtick_5">
     <g id="text_5">
      <!-- random -->
      <g style="fill: #262626" transform="translate(1165.753281 658.173594) scale(0.11 -0.11)">
       <defs>
        <path id="ArialMT-6f" d="M 213 1659 
Q 213 2581 725 3025 
Q 1153 3394 1769 3394 
Q 2453 3394 2887 2945 
Q 3322 2497 3322 1706 
Q 3322 1066 3130 698 
Q 2938 331 2570 128 
Q 2203 -75 1769 -75 
Q 1072 -75 642 372 
Q 213 819 213 1659 
z
M 791 1659 
Q 791 1022 1069 705 
Q 1347 388 1769 388 
Q 2188 388 2466 706 
Q 2744 1025 2744 1678 
Q 2744 2294 2464 2611 
Q 2184 2928 1769 2928 
Q 1347 2928 1069 2612 
Q 791 2297 791 1659 
z
" transform="scale(0.015625)"/>
       </defs>
       <use xlink:href="#ArialMT-72"/>
       <use xlink:href="#ArialMT-61" x="33.300781"/>
       <use xlink:href="#ArialMT-6e" x="88.916016"/>
       <use xlink:href="#ArialMT-64" x="144.53125"/>
       <use xlink:href="#ArialMT-6f" x="200.146484"/>
       <use xlink:href="#ArialMT-6d" x="255.761719"/>
      </g>
     </g>
    </g>
    <g id="text_6">
     <!-- model -->
     <g style="fill: #262626" transform="translate(721.659375 672.949219) scale(0.12 -0.12)">
      <use xlink:href="#ArialMT-6d"/>
      <use xlink:href="#ArialMT-6f" x="83.300781"/>
      <use xlink:href="#ArialMT-64" x="138.916016"/>
      <use xlink:href="#ArialMT-65" x="194.53125"/>
      <use xlink:href="#ArialMT-6c" x="250.146484"/>
     </g>
    </g>
   </g>
   <g id="matplotlib.axis_2">
    <g id="ytick_1">
     <g id="line2d_1">
      <path d="M 180 592.690909 
L 1296 592.690909 
" clip-path="url(#p81034719cc)" style="fill: none; stroke: #cccccc; stroke-linecap: round"/>
     </g>
     <g id="text_7">
      <!-- 30 -->
      <g style="fill: #262626" transform="translate(158.265938 596.627706) scale(0.11 -0.11)">
       <defs>
        <path id="ArialMT-33" d="M 269 1209 
L 831 1284 
Q 928 806 1161 595 
Q 1394 384 1728 384 
Q 2125 384 2398 659 
Q 2672 934 2672 1341 
Q 2672 1728 2419 1979 
Q 2166 2231 1775 2231 
Q 1616 2231 1378 2169 
L 1441 2663 
Q 1497 2656 1531 2656 
Q 1891 2656 2178 2843 
Q 2466 3031 2466 3422 
Q 2466 3731 2256 3934 
Q 2047 4138 1716 4138 
Q 1388 4138 1169 3931 
Q 950 3725 888 3313 
L 325 3413 
Q 428 3978 793 4289 
Q 1159 4600 1703 4600 
Q 2078 4600 2393 4439 
Q 2709 4278 2876 4000 
Q 3044 3722 3044 3409 
Q 3044 3113 2884 2869 
Q 2725 2625 2413 2481 
Q 2819 2388 3044 2092 
Q 3269 1797 3269 1353 
Q 3269 753 2831 336 
Q 2394 -81 1725 -81 
Q 1122 -81 723 278 
Q 325 638 269 1209 
z
" transform="scale(0.015625)"/>
        <path id="ArialMT-30" d="M 266 2259 
Q 266 3072 433 3567 
Q 600 4063 929 4331 
Q 1259 4600 1759 4600 
Q 2128 4600 2406 4451 
Q 2684 4303 2865 4023 
Q 3047 3744 3150 3342 
Q 3253 2941 3253 2259 
Q 3253 1453 3087 958 
Q 2922 463 2592 192 
Q 2263 -78 1759 -78 
Q 1097 -78 719 397 
Q 266 969 266 2259 
z
M 844 2259 
Q 844 1131 1108 757 
Q 1372 384 1759 384 
Q 2147 384 2411 759 
Q 2675 1134 2675 2259 
Q 2675 3391 2411 3762 
Q 2147 4134 1753 4134 
Q 1366 4134 1134 3806 
Q 844 3388 844 2259 
z
" transform="scale(0.015625)"/>
       </defs>
       <use xlink:href="#ArialMT-33"/>
       <use xlink:href="#ArialMT-30" x="55.615234"/>
      </g>
     </g>
    </g>
    <g id="ytick_2">
     <g id="line2d_2">
      <path d="M 180 516.327273 
L 1296 516.327273 
" clip-path="url(#p81034719cc)" style="fill: none; stroke: #cccccc; stroke-linecap: round"/>
     </g>
     <g id="text_8">
      <!-- 40 -->
      <g style="fill: #262626" transform="translate(158.265938 520.26407) scale(0.11 -0.11)">
       <defs>
        <path id="ArialMT-34" d="M 2069 0 
L 2069 1097 
L 81 1097 
L 81 1613 
L 2172 4581 
L 2631 4581 
L 2631 1613 
L 3250 1613 
L 3250 1097 
L 2631 1097 
L 2631 0 
L 2069 0 
z
M 2069 1613 
L 2069 3678 
L 634 1613 
L 2069 1613 
z
" transform="scale(0.015625)"/>
       </defs>
       <use xlink:href="#ArialMT-34"/>
       <use xlink:href="#ArialMT-30" x="55.615234"/>
      </g>
     </g>
    </g>
    <g id="ytick_3">
     <g id="line2d_3">
      <path d="M 180 439.963636 
L 1296 439.963636 
" clip-path="url(#p81034719cc)" style="fill: none; stroke: #cccccc; stroke-linecap: round"/>
     </g>
     <g id="text_9">
      <!-- 50 -->
      <g style="fill: #262626" transform="translate(158.265938 443.900433) scale(0.11 -0.11)">
       <defs>
        <path id="ArialMT-35" d="M 266 1200 
L 856 1250 
Q 922 819 1161 601 
Q 1400 384 1738 384 
Q 2144 384 2425 690 
Q 2706 997 2706 1503 
Q 2706 1984 2436 2262 
Q 2166 2541 1728 2541 
Q 1456 2541 1237 2417 
Q 1019 2294 894 2097 
L 366 2166 
L 809 4519 
L 3088 4519 
L 3088 3981 
L 1259 3981 
L 1013 2750 
Q 1425 3038 1878 3038 
Q 2478 3038 2890 2622 
Q 3303 2206 3303 1553 
Q 3303 931 2941 478 
Q 2500 -78 1738 -78 
Q 1113 -78 717 272 
Q 322 622 266 1200 
z
" transform="scale(0.015625)"/>
       </defs>
       <use xlink:href="#ArialMT-35"/>
       <use xlink:href="#ArialMT-30" x="55.615234"/>
      </g>
     </g>
    </g>
    <g id="ytick_4">
     <g id="line2d_4">
      <path d="M 180 363.6 
L 1296 363.6 
" clip-path="url(#p81034719cc)" style="fill: none; stroke: #cccccc; stroke-linecap: round"/>
     </g>
     <g id="text_10">
      <!-- 60 -->
      <g style="fill: #262626" transform="translate(158.265938 367.536797) scale(0.11 -0.11)">
       <defs>
        <path id="ArialMT-36" d="M 3184 3459 
L 2625 3416 
Q 2550 3747 2413 3897 
Q 2184 4138 1850 4138 
Q 1581 4138 1378 3988 
Q 1113 3794 959 3422 
Q 806 3050 800 2363 
Q 1003 2672 1297 2822 
Q 1591 2972 1913 2972 
Q 2475 2972 2870 2558 
Q 3266 2144 3266 1488 
Q 3266 1056 3080 686 
Q 2894 316 2569 119 
Q 2244 -78 1831 -78 
Q 1128 -78 684 439 
Q 241 956 241 2144 
Q 241 3472 731 4075 
Q 1159 4600 1884 4600 
Q 2425 4600 2770 4297 
Q 3116 3994 3184 3459 
z
M 888 1484 
Q 888 1194 1011 928 
Q 1134 663 1356 523 
Q 1578 384 1822 384 
Q 2178 384 2434 671 
Q 2691 959 2691 1453 
Q 2691 1928 2437 2201 
Q 2184 2475 1800 2475 
Q 1419 2475 1153 2201 
Q 888 1928 888 1484 
z
" transform="scale(0.015625)"/>
       </defs>
       <use xlink:href="#ArialMT-36"/>
       <use xlink:href="#ArialMT-30" x="55.615234"/>
      </g>
     </g>
    </g>
    <g id="ytick_5">
     <g id="line2d_5">
      <path d="M 180 287.236364 
L 1296 287.236364 
" clip-path="url(#p81034719cc)" style="fill: none; stroke: #cccccc; stroke-linecap: round"/>
     </g>
     <g id="text_11">
      <!-- 70 -->
      <g style="fill: #262626" transform="translate(158.265938 291.173161) scale(0.11 -0.11)">
       <defs>
        <path id="ArialMT-37" d="M 303 3981 
L 303 4522 
L 3269 4522 
L 3269 4084 
Q 2831 3619 2401 2847 
Q 1972 2075 1738 1259 
Q 1569 684 1522 0 
L 944 0 
Q 953 541 1156 1306 
Q 1359 2072 1739 2783 
Q 2119 3494 2547 3981 
L 303 3981 
z
" transform="scale(0.015625)"/>
       </defs>
       <use xlink:href="#ArialMT-37"/>
       <use xlink:href="#ArialMT-30" x="55.615234"/>
      </g>
     </g>
    </g>
    <g id="ytick_6">
     <g id="line2d_6">
      <path d="M 180 210.872727 
L 1296 210.872727 
" clip-path="url(#p81034719cc)" style="fill: none; stroke: #cccccc; stroke-linecap: round"/>
     </g>
     <g id="text_12">
      <!-- 80 -->
      <g style="fill: #262626" transform="translate(158.265938 214.809524) scale(0.11 -0.11)">
       <defs>
        <path id="ArialMT-38" d="M 1131 2484 
Q 781 2613 612 2850 
Q 444 3088 444 3419 
Q 444 3919 803 4259 
Q 1163 4600 1759 4600 
Q 2359 4600 2725 4251 
Q 3091 3903 3091 3403 
Q 3091 3084 2923 2848 
Q 2756 2613 2416 2484 
Q 2838 2347 3058 2040 
Q 3278 1734 3278 1309 
Q 3278 722 2862 322 
Q 2447 -78 1769 -78 
Q 1091 -78 675 323 
Q 259 725 259 1325 
Q 259 1772 486 2073 
Q 713 2375 1131 2484 
z
M 1019 3438 
Q 1019 3113 1228 2906 
Q 1438 2700 1772 2700 
Q 2097 2700 2305 2904 
Q 2513 3109 2513 3406 
Q 2513 3716 2298 3927 
Q 2084 4138 1766 4138 
Q 1444 4138 1231 3931 
Q 1019 3725 1019 3438 
z
M 838 1322 
Q 838 1081 952 856 
Q 1066 631 1291 507 
Q 1516 384 1775 384 
Q 2178 384 2440 643 
Q 2703 903 2703 1303 
Q 2703 1709 2433 1975 
Q 2163 2241 1756 2241 
Q 1359 2241 1098 1978 
Q 838 1716 838 1322 
z
" transform="scale(0.015625)"/>
       </defs>
       <use xlink:href="#ArialMT-38"/>
       <use xlink:href="#ArialMT-30" x="55.615234"/>
      </g>
     </g>
    </g>
    <g id="ytick_7">
     <g id="line2d_7">
      <path d="M 180 134.509091 
L 1296 134.509091 
" clip-path="url(#p81034719cc)" style="fill: none; stroke: #cccccc; stroke-linecap: round"/>
     </g>
     <g id="text_13">
      <!-- 90 -->
      <g style="fill: #262626" transform="translate(158.265938 138.445888) scale(0.11 -0.11)">
       <defs>
        <path id="ArialMT-39" d="M 350 1059 
L 891 1109 
Q 959 728 1153 556 
Q 1347 384 1650 384 
Q 1909 384 2104 503 
Q 2300 622 2425 820 
Q 2550 1019 2634 1356 
Q 2719 1694 2719 2044 
Q 2719 2081 2716 2156 
Q 2547 1888 2255 1720 
Q 1963 1553 1622 1553 
Q 1053 1553 659 1965 
Q 266 2378 266 3053 
Q 266 3750 677 4175 
Q 1088 4600 1706 4600 
Q 2153 4600 2523 4359 
Q 2894 4119 3086 3673 
Q 3278 3228 3278 2384 
Q 3278 1506 3087 986 
Q 2897 466 2520 194 
Q 2144 -78 1638 -78 
Q 1100 -78 759 220 
Q 419 519 350 1059 
z
M 2653 3081 
Q 2653 3566 2395 3850 
Q 2138 4134 1775 4134 
Q 1400 4134 1122 3828 
Q 844 3522 844 3034 
Q 844 2597 1108 2323 
Q 1372 2050 1759 2050 
Q 2150 2050 2401 2323 
Q 2653 2597 2653 3081 
z
" transform="scale(0.015625)"/>
       </defs>
       <use xlink:href="#ArialMT-39"/>
       <use xlink:href="#ArialMT-30" x="55.615234"/>
      </g>
     </g>
    </g>
    <g id="text_14">
     <!-- match in percent -->
     <g style="fill: #262626" transform="translate(151.880938 407.952187) rotate(-90) scale(0.12 -0.12)">
      <defs>
       <path id="ArialMT-74" d="M 1650 503 
L 1731 6 
Q 1494 -44 1306 -44 
Q 1000 -44 831 53 
Q 663 150 594 308 
Q 525 466 525 972 
L 525 2881 
L 113 2881 
L 113 3319 
L 525 3319 
L 525 4141 
L 1084 4478 
L 1084 3319 
L 1650 3319 
L 1650 2881 
L 1084 2881 
L 1084 941 
Q 1084 700 1114 631 
Q 1144 563 1211 522 
Q 1278 481 1403 481 
Q 1497 481 1650 503 
z
" transform="scale(0.015625)"/>
       <path id="ArialMT-63" d="M 2588 1216 
L 3141 1144 
Q 3050 572 2676 248 
Q 2303 -75 1759 -75 
Q 1078 -75 664 370 
Q 250 816 250 1647 
Q 250 2184 428 2587 
Q 606 2991 970 3192 
Q 1334 3394 1763 3394 
Q 2303 3394 2647 3120 
Q 2991 2847 3088 2344 
L 2541 2259 
Q 2463 2594 2264 2762 
Q 2066 2931 1784 2931 
Q 1359 2931 1093 2626 
Q 828 2322 828 1663 
Q 828 994 1084 691 
Q 1341 388 1753 388 
Q 2084 388 2306 591 
Q 2528 794 2588 1216 
z
" transform="scale(0.015625)"/>
       <path id="ArialMT-20" transform="scale(0.015625)"/>
      </defs>
      <use xlink:href="#ArialMT-6d"/>
      <use xlink:href="#ArialMT-61" x="83.300781"/>
      <use xlink:href="#ArialMT-74" x="138.916016"/>
      <use xlink:href="#ArialMT-63" x="166.699219"/>
      <use xlink:href="#ArialMT-68" x="216.699219"/>
      <use xlink:href="#ArialMT-20" x="272.314453"/>
      <use xlink:href="#ArialMT-69" x="300.097656"/>
      <use xlink:href="#ArialMT-6e" x="322.314453"/>
      <use xlink:href="#ArialMT-20" x="377.929688"/>
      <use xlink:href="#ArialMT-70" x="405.712891"/>
      <use xlink:href="#ArialMT-65" x="461.328125"/>
      <use xlink:href="#ArialMT-72" x="516.943359"/>
      <use xlink:href="#ArialMT-63" x="550.244141"/>
      <use xlink:href="#ArialMT-65" x="600.244141"/>
      <use xlink:href="#ArialMT-6e" x="655.859375"/>
      <use xlink:href="#ArialMT-74" x="711.474609"/>
     </g>
    </g>
   </g>
   <g id="patch_3">
    <path d="M 291.6 821.781818 
L 291.6 821.781818 
L 291.6 821.781818 
L 291.6 821.781818 
z
" clip-path="url(#p81034719cc)" style="fill: #5875a4; stroke: #4c4c4c; stroke-linejoin: miter"/>
   </g>
   <g id="patch_4">
    <path d="M 291.6 821.781818 
L 291.6 821.781818 
L 291.6 821.781818 
L 291.6 821.781818 
z
" clip-path="url(#p81034719cc)" style="fill: #cc8963; stroke: #4c4c4c; stroke-linejoin: miter"/>
   </g>
   <g id="patch_5">
    <path d="M 291.6 821.781818 
L 291.6 821.781818 
L 291.6 821.781818 
L 291.6 821.781818 
z
" clip-path="url(#p81034719cc)" style="fill: #5f9e6e; stroke: #4c4c4c; stroke-linejoin: miter"/>
   </g>
   <g id="patch_6">
    <path d="M 291.6 821.781818 
L 291.6 821.781818 
L 291.6 821.781818 
L 291.6 821.781818 
z
" clip-path="url(#p81034719cc)" style="fill: #b55d60; stroke: #4c4c4c; stroke-linejoin: miter"/>
   </g>
   <g id="patch_7">
    <path d="M 202.32 569.781818 
L 246.96 569.781818 
L 246.96 537.327273 
L 202.32 537.327273 
L 202.32 569.781818 
z
" clip-path="url(#p81034719cc)" style="fill: #5875a4; stroke: #4c4c4c; stroke-linejoin: miter"/>
   </g>
   <g id="line2d_8">
    <path d="M 224.64 569.781818 
L 224.64 600.327273 
" clip-path="url(#p81034719cc)" style="fill: none; stroke: #4c4c4c"/>
   </g>
   <g id="line2d_9">
    <path d="M 224.64 537.327273 
L 224.64 493.418182 
" clip-path="url(#p81034719cc)" style="fill: none; stroke: #4c4c4c"/>
   </g>
   <g id="line2d_10">
    <path d="M 213.48 600.327273 
L 235.8 600.327273 
" clip-path="url(#p81034719cc)" style="fill: none; stroke: #4c4c4c; stroke-linecap: round"/>
   </g>
   <g id="line2d_11">
    <path d="M 213.48 493.418182 
L 235.8 493.418182 
" clip-path="url(#p81034719cc)" style="fill: none; stroke: #4c4c4c; stroke-linecap: round"/>
   </g>
   <g id="patch_8">
    <path d="M 425.52 249.054545 
L 470.16 249.054545 
L 470.16 233.781818 
L 425.52 233.781818 
L 425.52 249.054545 
z
" clip-path="url(#p81034719cc)" style="fill: #5875a4; stroke: #4c4c4c; stroke-linejoin: miter"/>
   </g>
   <g id="line2d_12">
    <path d="M 447.84 249.054545 
L 447.84 271.963636 
" clip-path="url(#p81034719cc)" style="fill: none; stroke: #4c4c4c"/>
   </g>
   <g id="line2d_13">
    <path d="M 447.84 233.781818 
L 447.84 218.509091 
" clip-path="url(#p81034719cc)" style="fill: none; stroke: #4c4c4c"/>
   </g>
   <g id="line2d_14">
    <path d="M 436.68 271.963636 
L 459 271.963636 
" clip-path="url(#p81034719cc)" style="fill: none; stroke: #4c4c4c; stroke-linecap: round"/>
   </g>
   <g id="line2d_15">
    <path d="M 436.68 218.509091 
L 459 218.509091 
" clip-path="url(#p81034719cc)" style="fill: none; stroke: #4c4c4c; stroke-linecap: round"/>
   </g>
   <g id="patch_9">
    <path d="M 648.72 287.236364 
L 693.36 287.236364 
L 693.36 264.327273 
L 648.72 264.327273 
L 648.72 287.236364 
z
" clip-path="url(#p81034719cc)" style="fill: #5875a4; stroke: #4c4c4c; stroke-linejoin: miter"/>
   </g>
   <g id="line2d_16">
    <path d="M 671.04 287.236364 
L 671.04 317.781818 
" clip-path="url(#p81034719cc)" style="fill: none; stroke: #4c4c4c"/>
   </g>
   <g id="line2d_17">
    <path d="M 671.04 264.327273 
L 671.04 233.781818 
" clip-path="url(#p81034719cc)" style="fill: none; stroke: #4c4c4c"/>
   </g>
   <g id="line2d_18">
    <path d="M 659.88 317.781818 
L 682.2 317.781818 
" clip-path="url(#p81034719cc)" style="fill: none; stroke: #4c4c4c; stroke-linecap: round"/>
   </g>
   <g id="line2d_19">
    <path d="M 659.88 233.781818 
L 682.2 233.781818 
" clip-path="url(#p81034719cc)" style="fill: none; stroke: #4c4c4c; stroke-linecap: round"/>
   </g>
   <g id="patch_10">
    <path d="M 871.92 233.781818 
L 916.56 233.781818 
L 916.56 226.145455 
L 871.92 226.145455 
L 871.92 233.781818 
z
" clip-path="url(#p81034719cc)" style="fill: #5875a4; stroke: #4c4c4c; stroke-linejoin: miter"/>
   </g>
   <g id="line2d_20">
    <path d="M 894.24 233.781818 
L 894.24 241.418182 
" clip-path="url(#p81034719cc)" style="fill: none; stroke: #4c4c4c"/>
   </g>
   <g id="line2d_21">
    <path d="M 894.24 226.145455 
L 894.24 218.509091 
" clip-path="url(#p81034719cc)" style="fill: none; stroke: #4c4c4c"/>
   </g>
   <g id="line2d_22">
    <path d="M 883.08 241.418182 
L 905.4 241.418182 
" clip-path="url(#p81034719cc)" style="fill: none; stroke: #4c4c4c; stroke-linecap: round"/>
   </g>
   <g id="line2d_23">
    <path d="M 883.08 218.509091 
L 905.4 218.509091 
" clip-path="url(#p81034719cc)" style="fill: none; stroke: #4c4c4c; stroke-linecap: round"/>
   </g>
   <g id="patch_11">
    <path d="M 246.96 569.781818 
L 291.6 569.781818 
L 291.6 531.6 
L 246.96 531.6 
L 246.96 569.781818 
z
" clip-path="url(#p81034719cc)" style="fill: #cc8963; stroke: #4c4c4c; stroke-linejoin: miter"/>
   </g>
   <g id="line2d_24">
    <path d="M 269.28 569.781818 
L 269.28 592.690909 
" clip-path="url(#p81034719cc)" style="fill: none; stroke: #4c4c4c"/>
   </g>
   <g id="line2d_25">
    <path d="M 269.28 531.6 
L 269.28 485.781818 
" clip-path="url(#p81034719cc)" style="fill: none; stroke: #4c4c4c"/>
   </g>
   <g id="line2d_26">
    <path d="M 258.12 592.690909 
L 280.44 592.690909 
" clip-path="url(#p81034719cc)" style="fill: none; stroke: #4c4c4c; stroke-linecap: round"/>
   </g>
   <g id="line2d_27">
    <path d="M 258.12 485.781818 
L 280.44 485.781818 
" clip-path="url(#p81034719cc)" style="fill: none; stroke: #4c4c4c; stroke-linecap: round"/>
   </g>
   <g id="patch_12">
    <path d="M 470.16 256.690909 
L 514.8 256.690909 
L 514.8 241.418182 
L 470.16 241.418182 
L 470.16 256.690909 
z
" clip-path="url(#p81034719cc)" style="fill: #cc8963; stroke: #4c4c4c; stroke-linejoin: miter"/>
   </g>
   <g id="line2d_28">
    <path d="M 492.48 256.690909 
L 492.48 279.6 
" clip-path="url(#p81034719cc)" style="fill: none; stroke: #4c4c4c"/>
   </g>
   <g id="line2d_29">
    <path d="M 492.48 241.418182 
L 492.48 218.509091 
" clip-path="url(#p81034719cc)" style="fill: none; stroke: #4c4c4c"/>
   </g>
   <g id="line2d_30">
    <path d="M 481.32 279.6 
L 503.64 279.6 
" clip-path="url(#p81034719cc)" style="fill: none; stroke: #4c4c4c; stroke-linecap: round"/>
   </g>
   <g id="line2d_31">
    <path d="M 481.32 218.509091 
L 503.64 218.509091 
" clip-path="url(#p81034719cc)" style="fill: none; stroke: #4c4c4c; stroke-linecap: round"/>
   </g>
   <g id="patch_13">
    <path d="M 693.36 195.6 
L 738 195.6 
L 738 172.690909 
L 693.36 172.690909 
L 693.36 195.6 
z
" clip-path="url(#p81034719cc)" style="fill: #cc8963; stroke: #4c4c4c; stroke-linejoin: miter"/>
   </g>
   <g id="line2d_32">
    <path d="M 715.68 195.6 
L 715.68 226.145455 
" clip-path="url(#p81034719cc)" style="fill: none; stroke: #4c4c4c"/>
   </g>
   <g id="line2d_33">
    <path d="M 715.68 172.690909 
L 715.68 165.054545 
" clip-path="url(#p81034719cc)" style="fill: none; stroke: #4c4c4c"/>
   </g>
   <g id="line2d_34">
    <path d="M 704.52 226.145455 
L 726.84 226.145455 
" clip-path="url(#p81034719cc)" style="fill: none; stroke: #4c4c4c; stroke-linecap: round"/>
   </g>
   <g id="line2d_35">
    <path d="M 704.52 165.054545 
L 726.84 165.054545 
" clip-path="url(#p81034719cc)" style="fill: none; stroke: #4c4c4c; stroke-linecap: round"/>
   </g>
   <g id="patch_14">
    <path d="M 916.56 264.327273 
L 961.2 264.327273 
L 961.2 256.690909 
L 916.56 256.690909 
L 916.56 264.327273 
z
" clip-path="url(#p81034719cc)" style="fill: #cc8963; stroke: #4c4c4c; stroke-linejoin: miter"/>
   </g>
   <g id="line2d_36">
    <path d="M 938.88 264.327273 
L 938.88 271.963636 
" clip-path="url(#p81034719cc)" style="fill: none; stroke: #4c4c4c"/>
   </g>
   <g id="line2d_37">
    <path d="M 938.88 256.690909 
L 938.88 249.054545 
" clip-path="url(#p81034719cc)" style="fill: none; stroke: #4c4c4c"/>
   </g>
   <g id="line2d_38">
    <path d="M 927.72 271.963636 
L 950.04 271.963636 
" clip-path="url(#p81034719cc)" style="fill: none; stroke: #4c4c4c; stroke-linecap: round"/>
   </g>
   <g id="line2d_39">
    <path d="M 927.72 249.054545 
L 950.04 249.054545 
" clip-path="url(#p81034719cc)" style="fill: none; stroke: #4c4c4c; stroke-linecap: round"/>
   </g>
   <g id="patch_15">
    <path d="M 291.6 562.145455 
L 336.24 562.145455 
L 336.24 531.6 
L 291.6 531.6 
L 291.6 562.145455 
z
" clip-path="url(#p81034719cc)" style="fill: #5f9e6e; stroke: #4c4c4c; stroke-linejoin: miter"/>
   </g>
   <g id="line2d_40">
    <path d="M 313.92 562.145455 
L 313.92 592.690909 
" clip-path="url(#p81034719cc)" style="fill: none; stroke: #4c4c4c"/>
   </g>
   <g id="line2d_41">
    <path d="M 313.92 531.6 
L 313.92 493.418182 
" clip-path="url(#p81034719cc)" style="fill: none; stroke: #4c4c4c"/>
   </g>
   <g id="line2d_42">
    <path d="M 302.76 592.690909 
L 325.08 592.690909 
" clip-path="url(#p81034719cc)" style="fill: none; stroke: #4c4c4c; stroke-linecap: round"/>
   </g>
   <g id="line2d_43">
    <path d="M 302.76 493.418182 
L 325.08 493.418182 
" clip-path="url(#p81034719cc)" style="fill: none; stroke: #4c4c4c; stroke-linecap: round"/>
   </g>
   <g id="patch_16">
    <path d="M 514.8 172.690909 
L 559.44 172.690909 
L 559.44 165.054545 
L 514.8 165.054545 
L 514.8 172.690909 
z
" clip-path="url(#p81034719cc)" style="fill: #5f9e6e; stroke: #4c4c4c; stroke-linejoin: miter"/>
   </g>
   <g id="line2d_44">
    <path d="M 537.12 172.690909 
L 537.12 180.327273 
" clip-path="url(#p81034719cc)" style="fill: none; stroke: #4c4c4c"/>
   </g>
   <g id="line2d_45">
    <path d="M 537.12 165.054545 
L 537.12 157.418182 
" clip-path="url(#p81034719cc)" style="fill: none; stroke: #4c4c4c"/>
   </g>
   <g id="line2d_46">
    <path d="M 525.96 180.327273 
L 548.28 180.327273 
" clip-path="url(#p81034719cc)" style="fill: none; stroke: #4c4c4c; stroke-linecap: round"/>
   </g>
   <g id="line2d_47">
    <path d="M 525.96 157.418182 
L 548.28 157.418182 
" clip-path="url(#p81034719cc)" style="fill: none; stroke: #4c4c4c; stroke-linecap: round"/>
   </g>
   <g id="patch_17">
    <path d="M 738 264.327273 
L 782.64 264.327273 
L 782.64 241.418182 
L 738 241.418182 
L 738 264.327273 
z
" clip-path="url(#p81034719cc)" style="fill: #5f9e6e; stroke: #4c4c4c; stroke-linejoin: miter"/>
   </g>
   <g id="line2d_48">
    <path d="M 760.32 264.327273 
L 760.32 287.236364 
" clip-path="url(#p81034719cc)" style="fill: none; stroke: #4c4c4c"/>
   </g>
   <g id="line2d_49">
    <path d="M 760.32 241.418182 
L 760.32 210.872727 
" clip-path="url(#p81034719cc)" style="fill: none; stroke: #4c4c4c"/>
   </g>
   <g id="line2d_50">
    <path d="M 749.16 287.236364 
L 771.48 287.236364 
" clip-path="url(#p81034719cc)" style="fill: none; stroke: #4c4c4c; stroke-linecap: round"/>
   </g>
   <g id="line2d_51">
    <path d="M 749.16 210.872727 
L 771.48 210.872727 
" clip-path="url(#p81034719cc)" style="fill: none; stroke: #4c4c4c; stroke-linecap: round"/>
   </g>
   <g id="patch_18">
    <path d="M 961.2 157.418182 
L 1005.84 157.418182 
L 1005.84 149.781818 
L 961.2 149.781818 
L 961.2 157.418182 
z
" clip-path="url(#p81034719cc)" style="fill: #5f9e6e; stroke: #4c4c4c; stroke-linejoin: miter"/>
   </g>
   <g id="line2d_52">
    <path d="M 983.52 157.418182 
L 983.52 165.054545 
" clip-path="url(#p81034719cc)" style="fill: none; stroke: #4c4c4c"/>
   </g>
   <g id="line2d_53">
    <path d="M 983.52 149.781818 
L 983.52 142.145455 
" clip-path="url(#p81034719cc)" style="fill: none; stroke: #4c4c4c"/>
   </g>
   <g id="line2d_54">
    <path d="M 972.36 165.054545 
L 994.68 165.054545 
" clip-path="url(#p81034719cc)" style="fill: none; stroke: #4c4c4c; stroke-linecap: round"/>
   </g>
   <g id="line2d_55">
    <path d="M 972.36 142.145455 
L 994.68 142.145455 
" clip-path="url(#p81034719cc)" style="fill: none; stroke: #4c4c4c; stroke-linecap: round"/>
   </g>
   <g id="patch_19">
    <path d="M 1184.4 585.054545 
L 1229.04 585.054545 
L 1229.04 554.509091 
L 1184.4 554.509091 
L 1184.4 585.054545 
z
" clip-path="url(#p81034719cc)" style="fill: #5f9e6e; stroke: #4c4c4c; stroke-linejoin: miter"/>
   </g>
   <g id="line2d_56">
    <path d="M 1206.72 585.054545 
L 1206.72 615.6 
" clip-path="url(#p81034719cc)" style="fill: none; stroke: #4c4c4c"/>
   </g>
   <g id="line2d_57">
    <path d="M 1206.72 554.509091 
L 1206.72 508.690909 
" clip-path="url(#p81034719cc)" style="fill: none; stroke: #4c4c4c"/>
   </g>
   <g id="line2d_58">
    <path d="M 1195.56 615.6 
L 1217.88 615.6 
" clip-path="url(#p81034719cc)" style="fill: none; stroke: #4c4c4c; stroke-linecap: round"/>
   </g>
   <g id="line2d_59">
    <path d="M 1195.56 508.690909 
L 1217.88 508.690909 
" clip-path="url(#p81034719cc)" style="fill: none; stroke: #4c4c4c; stroke-linecap: round"/>
   </g>
   <g id="patch_20">
    <path d="M 559.44 378.872727 
L 604.08 378.872727 
L 604.08 371.236364 
L 559.44 371.236364 
L 559.44 378.872727 
z
" clip-path="url(#p81034719cc)" style="fill: #b55d60; stroke: #4c4c4c; stroke-linejoin: miter"/>
   </g>
   <g id="line2d_60">
    <path d="M 581.76 378.872727 
L 581.76 386.509091 
" clip-path="url(#p81034719cc)" style="fill: none; stroke: #4c4c4c"/>
   </g>
   <g id="line2d_61">
    <path d="M 581.76 371.236364 
L 581.76 363.6 
" clip-path="url(#p81034719cc)" style="fill: none; stroke: #4c4c4c"/>
   </g>
   <g id="line2d_62">
    <path d="M 570.6 386.509091 
L 592.92 386.509091 
" clip-path="url(#p81034719cc)" style="fill: none; stroke: #4c4c4c; stroke-linecap: round"/>
   </g>
   <g id="line2d_63">
    <path d="M 570.6 363.6 
L 592.92 363.6 
" clip-path="url(#p81034719cc)" style="fill: none; stroke: #4c4c4c; stroke-linecap: round"/>
   </g>
   <g id="patch_21">
    <path d="M 782.64 218.509091 
L 827.28 218.509091 
L 827.28 187.963636 
L 782.64 187.963636 
L 782.64 218.509091 
z
" clip-path="url(#p81034719cc)" style="fill: #b55d60; stroke: #4c4c4c; stroke-linejoin: miter"/>
   </g>
   <g id="line2d_64">
    <path d="M 804.96 218.509091 
L 804.96 233.781818 
" clip-path="url(#p81034719cc)" style="fill: none; stroke: #4c4c4c"/>
   </g>
   <g id="line2d_65">
    <path d="M 804.96 187.963636 
L 804.96 142.145455 
" clip-path="url(#p81034719cc)" style="fill: none; stroke: #4c4c4c"/>
   </g>
   <g id="line2d_66">
    <path d="M 793.8 233.781818 
L 816.12 233.781818 
" clip-path="url(#p81034719cc)" style="fill: none; stroke: #4c4c4c; stroke-linecap: round"/>
   </g>
   <g id="line2d_67">
    <path d="M 793.8 142.145455 
L 816.12 142.145455 
" clip-path="url(#p81034719cc)" style="fill: none; stroke: #4c4c4c; stroke-linecap: round"/>
   </g>
   <g id="patch_22">
    <path d="M 1005.84 165.054545 
L 1050.48 165.054545 
L 1050.48 142.145455 
L 1005.84 142.145455 
L 1005.84 165.054545 
z
" clip-path="url(#p81034719cc)" style="fill: #b55d60; stroke: #4c4c4c; stroke-linejoin: miter"/>
   </g>
   <g id="line2d_68">
    <path d="M 1028.16 165.054545 
L 1028.16 195.6 
" clip-path="url(#p81034719cc)" style="fill: none; stroke: #4c4c4c"/>
   </g>
   <g id="line2d_69">
    <path d="M 1028.16 142.145455 
L 1028.16 111.6 
" clip-path="url(#p81034719cc)" style="fill: none; stroke: #4c4c4c"/>
   </g>
   <g id="line2d_70">
    <path d="M 1017 195.6 
L 1039.32 195.6 
" clip-path="url(#p81034719cc)" style="fill: none; stroke: #4c4c4c; stroke-linecap: round"/>
   </g>
   <g id="line2d_71">
    <path d="M 1017 111.6 
L 1039.32 111.6 
" clip-path="url(#p81034719cc)" style="fill: none; stroke: #4c4c4c; stroke-linecap: round"/>
   </g>
   <g id="line2d_72">
    <path d="M 202.32 554.509091 
L 246.96 554.509091 
" clip-path="url(#p81034719cc)" style="fill: none; stroke: #4c4c4c"/>
   </g>
   <g id="line2d_73">
    <path d="M 425.52 241.418182 
L 470.16 241.418182 
" clip-path="url(#p81034719cc)" style="fill: none; stroke: #4c4c4c"/>
   </g>
   <g id="line2d_74">
    <path d="M 648.72 271.963636 
L 693.36 271.963636 
" clip-path="url(#p81034719cc)" style="fill: none; stroke: #4c4c4c"/>
   </g>
   <g id="line2d_75">
    <path d="M 871.92 233.781818 
L 916.56 233.781818 
" clip-path="url(#p81034719cc)" style="fill: none; stroke: #4c4c4c"/>
   </g>
   <g id="line2d_76">
    <path d="M 246.96 554.509091 
L 291.6 554.509091 
" clip-path="url(#p81034719cc)" style="fill: none; stroke: #4c4c4c"/>
   </g>
   <g id="line2d_77">
    <path d="M 470.16 249.054545 
L 514.8 249.054545 
" clip-path="url(#p81034719cc)" style="fill: none; stroke: #4c4c4c"/>
   </g>
   <g id="line2d_78">
    <path d="M 693.36 180.327273 
L 738 180.327273 
" clip-path="url(#p81034719cc)" style="fill: none; stroke: #4c4c4c"/>
   </g>
   <g id="line2d_79">
    <path d="M 916.56 264.327273 
L 961.2 264.327273 
" clip-path="url(#p81034719cc)" style="fill: none; stroke: #4c4c4c"/>
   </g>
   <g id="line2d_80">
    <path d="M 291.6 546.872727 
L 336.24 546.872727 
" clip-path="url(#p81034719cc)" style="fill: none; stroke: #4c4c4c"/>
   </g>
   <g id="line2d_81">
    <path d="M 514.8 172.690909 
L 559.44 172.690909 
" clip-path="url(#p81034719cc)" style="fill: none; stroke: #4c4c4c"/>
   </g>
   <g id="line2d_82">
    <path d="M 738 249.054545 
L 782.64 249.054545 
" clip-path="url(#p81034719cc)" style="fill: none; stroke: #4c4c4c"/>
   </g>
   <g id="line2d_83">
    <path d="M 961.2 149.781818 
L 1005.84 149.781818 
" clip-path="url(#p81034719cc)" style="fill: none; stroke: #4c4c4c"/>
   </g>
   <g id="line2d_84">
    <path d="M 1184.4 569.781818 
L 1229.04 569.781818 
" clip-path="url(#p81034719cc)" style="fill: none; stroke: #4c4c4c"/>
   </g>
   <g id="line2d_85">
    <path d="M 559.44 371.236364 
L 604.08 371.236364 
" clip-path="url(#p81034719cc)" style="fill: none; stroke: #4c4c4c"/>
   </g>
   <g id="line2d_86">
    <path d="M 782.64 210.872727 
L 827.28 210.872727 
" clip-path="url(#p81034719cc)" style="fill: none; stroke: #4c4c4c"/>
   </g>
   <g id="line2d_87">
    <path d="M 1005.84 157.418182 
L 1050.48 157.418182 
" clip-path="url(#p81034719cc)" style="fill: none; stroke: #4c4c4c"/>
   </g>
   <g id="patch_23">
    <path d="M 180 640.8 
L 180 86.4 
" style="fill: none; stroke: #cccccc; stroke-width: 1.25; stroke-linejoin: miter; stroke-linecap: square"/>
   </g>
   <g id="patch_24">
    <path d="M 1296 640.8 
L 1296 86.4 
" style="fill: none; stroke: #cccccc; stroke-width: 1.25; stroke-linejoin: miter; stroke-linecap: square"/>
   </g>
   <g id="patch_25">
    <path d="M 180 640.8 
L 1296 640.8 
" style="fill: none; stroke: #cccccc; stroke-width: 1.25; stroke-linejoin: miter; stroke-linecap: square"/>
   </g>
   <g id="patch_26">
    <path d="M 180 86.4 
L 1296 86.4 
" style="fill: none; stroke: #cccccc; stroke-width: 1.25; stroke-linejoin: miter; stroke-linecap: square"/>
   </g>
   <g id="text_15">
    <!-- Match with Handpicked Topics by Preprocessing and Model -->
    <g style="fill: #262626" transform="translate(579.703125 80.4) scale(0.12 -0.12)">
     <defs>
      <path id="ArialMT-4d" d="M 475 0 
L 475 4581 
L 1388 4581 
L 2472 1338 
Q 2622 884 2691 659 
Q 2769 909 2934 1394 
L 4031 4581 
L 4847 4581 
L 4847 0 
L 4263 0 
L 4263 3834 
L 2931 0 
L 2384 0 
L 1059 3900 
L 1059 0 
L 475 0 
z
" transform="scale(0.015625)"/>
      <path id="ArialMT-77" d="M 1034 0 
L 19 3319 
L 600 3319 
L 1128 1403 
L 1325 691 
Q 1338 744 1497 1375 
L 2025 3319 
L 2603 3319 
L 3100 1394 
L 3266 759 
L 3456 1400 
L 4025 3319 
L 4572 3319 
L 3534 0 
L 2950 0 
L 2422 1988 
L 2294 2553 
L 1622 0 
L 1034 0 
z
" transform="scale(0.015625)"/>
      <path id="ArialMT-48" d="M 513 0 
L 513 4581 
L 1119 4581 
L 1119 2700 
L 3500 2700 
L 3500 4581 
L 4106 4581 
L 4106 0 
L 3500 0 
L 3500 2159 
L 1119 2159 
L 1119 0 
L 513 0 
z
" transform="scale(0.015625)"/>
      <path id="ArialMT-6b" d="M 425 0 
L 425 4581 
L 988 4581 
L 988 1969 
L 2319 3319 
L 3047 3319 
L 1778 2088 
L 3175 0 
L 2481 0 
L 1384 1697 
L 988 1316 
L 988 0 
L 425 0 
z
" transform="scale(0.015625)"/>
      <path id="ArialMT-54" d="M 1659 0 
L 1659 4041 
L 150 4041 
L 150 4581 
L 3781 4581 
L 3781 4041 
L 2266 4041 
L 2266 0 
L 1659 0 
z
" transform="scale(0.015625)"/>
      <path id="ArialMT-79" d="M 397 -1278 
L 334 -750 
Q 519 -800 656 -800 
Q 844 -800 956 -737 
Q 1069 -675 1141 -563 
Q 1194 -478 1313 -144 
Q 1328 -97 1363 -6 
L 103 3319 
L 709 3319 
L 1400 1397 
Q 1534 1031 1641 628 
Q 1738 1016 1872 1384 
L 2581 3319 
L 3144 3319 
L 1881 -56 
Q 1678 -603 1566 -809 
Q 1416 -1088 1222 -1217 
Q 1028 -1347 759 -1347 
Q 597 -1347 397 -1278 
z
" transform="scale(0.015625)"/>
      <path id="ArialMT-50" d="M 494 0 
L 494 4581 
L 2222 4581 
Q 2678 4581 2919 4538 
Q 3256 4481 3484 4323 
Q 3713 4166 3852 3881 
Q 3991 3597 3991 3256 
Q 3991 2672 3619 2267 
Q 3247 1863 2275 1863 
L 1100 1863 
L 1100 0 
L 494 0 
z
M 1100 2403 
L 2284 2403 
Q 2872 2403 3119 2622 
Q 3366 2841 3366 3238 
Q 3366 3525 3220 3729 
Q 3075 3934 2838 4000 
Q 2684 4041 2272 4041 
L 1100 4041 
L 1100 2403 
z
" transform="scale(0.015625)"/>
      <path id="ArialMT-67" d="M 319 -275 
L 866 -356 
Q 900 -609 1056 -725 
Q 1266 -881 1628 -881 
Q 2019 -881 2231 -725 
Q 2444 -569 2519 -288 
Q 2563 -116 2559 434 
Q 2191 0 1641 0 
Q 956 0 581 494 
Q 206 988 206 1678 
Q 206 2153 378 2554 
Q 550 2956 876 3175 
Q 1203 3394 1644 3394 
Q 2231 3394 2613 2919 
L 2613 3319 
L 3131 3319 
L 3131 450 
Q 3131 -325 2973 -648 
Q 2816 -972 2473 -1159 
Q 2131 -1347 1631 -1347 
Q 1038 -1347 672 -1080 
Q 306 -813 319 -275 
z
M 784 1719 
Q 784 1066 1043 766 
Q 1303 466 1694 466 
Q 2081 466 2343 764 
Q 2606 1063 2606 1700 
Q 2606 2309 2336 2618 
Q 2066 2928 1684 2928 
Q 1309 2928 1046 2623 
Q 784 2319 784 1719 
z
" transform="scale(0.015625)"/>
     </defs>
     <use xlink:href="#ArialMT-4d"/>
     <use xlink:href="#ArialMT-61" x="83.300781"/>
     <use xlink:href="#ArialMT-74" x="138.916016"/>
     <use xlink:href="#ArialMT-63" x="166.699219"/>
     <use xlink:href="#ArialMT-68" x="216.699219"/>
     <use xlink:href="#ArialMT-20" x="272.314453"/>
     <use xlink:href="#ArialMT-77" x="300.097656"/>
     <use xlink:href="#ArialMT-69" x="372.314453"/>
     <use xlink:href="#ArialMT-74" x="394.53125"/>
     <use xlink:href="#ArialMT-68" x="422.314453"/>
     <use xlink:href="#ArialMT-20" x="477.929688"/>
     <use xlink:href="#ArialMT-48" x="505.712891"/>
     <use xlink:href="#ArialMT-61" x="577.929688"/>
     <use xlink:href="#ArialMT-6e" x="633.544922"/>
     <use xlink:href="#ArialMT-64" x="689.160156"/>
     <use xlink:href="#ArialMT-70" x="744.775391"/>
     <use xlink:href="#ArialMT-69" x="800.390625"/>
     <use xlink:href="#ArialMT-63" x="822.607422"/>
     <use xlink:href="#ArialMT-6b" x="872.607422"/>
     <use xlink:href="#ArialMT-65" x="922.607422"/>
     <use xlink:href="#ArialMT-64" x="978.222656"/>
     <use xlink:href="#ArialMT-20" x="1033.837891"/>
     <use xlink:href="#ArialMT-54" x="1059.871094"/>
     <use xlink:href="#ArialMT-6f" x="1109.830078"/>
     <use xlink:href="#ArialMT-70" x="1165.445312"/>
     <use xlink:href="#ArialMT-69" x="1221.060547"/>
     <use xlink:href="#ArialMT-63" x="1243.277344"/>
     <use xlink:href="#ArialMT-73" x="1293.277344"/>
     <use xlink:href="#ArialMT-20" x="1343.277344"/>
     <use xlink:href="#ArialMT-62" x="1371.060547"/>
     <use xlink:href="#ArialMT-79" x="1426.675781"/>
     <use xlink:href="#ArialMT-20" x="1476.675781"/>
     <use xlink:href="#ArialMT-50" x="1504.458984"/>
     <use xlink:href="#ArialMT-72" x="1571.158203"/>
     <use xlink:href="#ArialMT-65" x="1604.458984"/>
     <use xlink:href="#ArialMT-70" x="1660.074219"/>
     <use xlink:href="#ArialMT-72" x="1715.689453"/>
     <use xlink:href="#ArialMT-6f" x="1748.990234"/>
     <use xlink:href="#ArialMT-63" x="1804.605469"/>
     <use xlink:href="#ArialMT-65" x="1854.605469"/>
     <use xlink:href="#ArialMT-73" x="1910.220703"/>
     <use xlink:href="#ArialMT-73" x="1960.220703"/>
     <use xlink:href="#ArialMT-69" x="2010.220703"/>
     <use xlink:href="#ArialMT-6e" x="2032.4375"/>
     <use xlink:href="#ArialMT-67" x="2088.052734"/>
     <use xlink:href="#ArialMT-20" x="2143.667969"/>
     <use xlink:href="#ArialMT-61" x="2171.451172"/>
     <use xlink:href="#ArialMT-6e" x="2227.066406"/>
     <use xlink:href="#ArialMT-64" x="2282.681641"/>
     <use xlink:href="#ArialMT-20" x="2338.296875"/>
     <use xlink:href="#ArialMT-4d" x="2366.080078"/>
     <use xlink:href="#ArialMT-6f" x="2449.380859"/>
     <use xlink:href="#ArialMT-64" x="2504.996094"/>
     <use xlink:href="#ArialMT-65" x="2560.611328"/>
     <use xlink:href="#ArialMT-6c" x="2616.226562"/>
    </g>
   </g>
   <g id="legend_1">
    <g id="patch_27">
     <path d="M 1097.18875 174.317344 
L 1288.3 174.317344 
Q 1290.5 174.317344 1290.5 172.117344 
L 1290.5 94.1 
Q 1290.5 91.9 1288.3 91.9 
L 1097.18875 91.9 
Q 1094.98875 91.9 1094.98875 94.1 
L 1094.98875 172.117344 
Q 1094.98875 174.317344 1097.18875 174.317344 
z
" style="fill: #ffffff; opacity: 0.8; stroke: #cccccc; stroke-linejoin: miter"/>
    </g>
    <g id="text_16">
     <!-- preprocessing -->
     <g style="fill: #262626" transform="translate(1155.059688 104.889375) scale(0.12 -0.12)">
      <use xlink:href="#ArialMT-70"/>
      <use xlink:href="#ArialMT-72" x="55.615234"/>
      <use xlink:href="#ArialMT-65" x="88.916016"/>
      <use xlink:href="#ArialMT-70" x="144.53125"/>
      <use xlink:href="#ArialMT-72" x="200.146484"/>
      <use xlink:href="#ArialMT-6f" x="233.447266"/>
      <use xlink:href="#ArialMT-63" x="289.0625"/>
      <use xlink:href="#ArialMT-65" x="339.0625"/>
      <use xlink:href="#ArialMT-73" x="394.677734"/>
      <use xlink:href="#ArialMT-73" x="444.677734"/>
      <use xlink:href="#ArialMT-69" x="494.677734"/>
      <use xlink:href="#ArialMT-6e" x="516.894531"/>
      <use xlink:href="#ArialMT-67" x="572.509766"/>
     </g>
    </g>
    <g id="patch_28">
     <path d="M 1099.38875 120.788594 
L 1121.38875 120.788594 
L 1121.38875 113.088594 
L 1099.38875 113.088594 
z
" style="fill: #5875a4; stroke: #4c4c4c; stroke-linejoin: miter"/>
    </g>
    <g id="text_17">
     <!-- stop_word_removed_lemmas -->
     <g style="fill: #262626" transform="translate(1130.18875 120.788594) scale(0.11 -0.11)">
      <defs>
       <path id="ArialMT-76" d="M 1344 0 
L 81 3319 
L 675 3319 
L 1388 1331 
Q 1503 1009 1600 663 
Q 1675 925 1809 1294 
L 2547 3319 
L 3125 3319 
L 1869 0 
L 1344 0 
z
" transform="scale(0.015625)"/>
      </defs>
      <use xlink:href="#ArialMT-73"/>
      <use xlink:href="#ArialMT-74" x="50"/>
      <use xlink:href="#ArialMT-6f" x="77.783203"/>
      <use xlink:href="#ArialMT-70" x="133.398438"/>
      <use xlink:href="#ArialMT-5f" x="189.013672"/>
      <use xlink:href="#ArialMT-77" x="244.628906"/>
      <use xlink:href="#ArialMT-6f" x="316.845703"/>
      <use xlink:href="#ArialMT-72" x="372.460938"/>
      <use xlink:href="#ArialMT-64" x="405.761719"/>
      <use xlink:href="#ArialMT-5f" x="461.376953"/>
      <use xlink:href="#ArialMT-72" x="516.992188"/>
      <use xlink:href="#ArialMT-65" x="550.292969"/>
      <use xlink:href="#ArialMT-6d" x="605.908203"/>
      <use xlink:href="#ArialMT-6f" x="689.208984"/>
      <use xlink:href="#ArialMT-76" x="744.824219"/>
      <use xlink:href="#ArialMT-65" x="794.824219"/>
      <use xlink:href="#ArialMT-64" x="850.439453"/>
      <use xlink:href="#ArialMT-5f" x="906.054688"/>
      <use xlink:href="#ArialMT-6c" x="961.669922"/>
      <use xlink:href="#ArialMT-65" x="983.886719"/>
      <use xlink:href="#ArialMT-6d" x="1039.501953"/>
      <use xlink:href="#ArialMT-6d" x="1122.802734"/>
      <use xlink:href="#ArialMT-61" x="1206.103516"/>
      <use xlink:href="#ArialMT-73" x="1261.71875"/>
     </g>
    </g>
    <g id="patch_29">
     <path d="M 1099.38875 136.348438 
L 1121.38875 136.348438 
L 1121.38875 128.648438 
L 1099.38875 128.648438 
z
" style="fill: #cc8963; stroke: #4c4c4c; stroke-linejoin: miter"/>
    </g>
    <g id="text_18">
     <!-- lemmas -->
     <g style="fill: #262626" transform="translate(1130.18875 136.348438) scale(0.11 -0.11)">
      <use xlink:href="#ArialMT-6c"/>
      <use xlink:href="#ArialMT-65" x="22.216797"/>
      <use xlink:href="#ArialMT-6d" x="77.832031"/>
      <use xlink:href="#ArialMT-6d" x="161.132812"/>
      <use xlink:href="#ArialMT-61" x="244.433594"/>
      <use xlink:href="#ArialMT-73" x="300.048828"/>
     </g>
    </g>
    <g id="patch_30">
     <path d="M 1099.38875 152.042344 
L 1121.38875 152.042344 
L 1121.38875 144.342344 
L 1099.38875 144.342344 
z
" style="fill: #5f9e6e; stroke: #4c4c4c; stroke-linejoin: miter"/>
    </g>
    <g id="text_19">
     <!-- text / for lda:  nouns_adjs_verbs -->
     <g style="fill: #262626" transform="translate(1130.18875 152.042344) scale(0.11 -0.11)">
      <defs>
       <path id="ArialMT-2f" d="M 0 -78 
L 1328 4659 
L 1778 4659 
L 453 -78 
L 0 -78 
z
" transform="scale(0.015625)"/>
       <path id="ArialMT-66" d="M 556 0 
L 556 2881 
L 59 2881 
L 59 3319 
L 556 3319 
L 556 3672 
Q 556 4006 616 4169 
Q 697 4388 901 4523 
Q 1106 4659 1475 4659 
Q 1713 4659 2000 4603 
L 1916 4113 
Q 1741 4144 1584 4144 
Q 1328 4144 1222 4034 
Q 1116 3925 1116 3625 
L 1116 3319 
L 1763 3319 
L 1763 2881 
L 1116 2881 
L 1116 0 
L 556 0 
z
" transform="scale(0.015625)"/>
       <path id="ArialMT-3a" d="M 578 2678 
L 578 3319 
L 1219 3319 
L 1219 2678 
L 578 2678 
z
M 578 0 
L 578 641 
L 1219 641 
L 1219 0 
L 578 0 
z
" transform="scale(0.015625)"/>
       <path id="ArialMT-75" d="M 2597 0 
L 2597 488 
Q 2209 -75 1544 -75 
Q 1250 -75 995 37 
Q 741 150 617 320 
Q 494 491 444 738 
Q 409 903 409 1263 
L 409 3319 
L 972 3319 
L 972 1478 
Q 972 1038 1006 884 
Q 1059 663 1231 536 
Q 1403 409 1656 409 
Q 1909 409 2131 539 
Q 2353 669 2445 892 
Q 2538 1116 2538 1541 
L 2538 3319 
L 3100 3319 
L 3100 0 
L 2597 0 
z
" transform="scale(0.015625)"/>
       <path id="ArialMT-6a" d="M 419 3928 
L 419 4581 
L 981 4581 
L 981 3928 
L 419 3928 
z
M -294 -1288 
L -188 -809 
Q -19 -853 78 -853 
Q 250 -853 334 -739 
Q 419 -625 419 -169 
L 419 3319 
L 981 3319 
L 981 -181 
Q 981 -794 822 -1034 
Q 619 -1347 147 -1347 
Q -81 -1347 -294 -1288 
z
" transform="scale(0.015625)"/>
      </defs>
      <use xlink:href="#ArialMT-74"/>
      <use xlink:href="#ArialMT-65" x="27.783203"/>
      <use xlink:href="#ArialMT-78" x="83.398438"/>
      <use xlink:href="#ArialMT-74" x="133.398438"/>
      <use xlink:href="#ArialMT-20" x="161.181641"/>
      <use xlink:href="#ArialMT-2f" x="188.964844"/>
      <use xlink:href="#ArialMT-20" x="216.748047"/>
      <use xlink:href="#ArialMT-66" x="244.53125"/>
      <use xlink:href="#ArialMT-6f" x="272.314453"/>
      <use xlink:href="#ArialMT-72" x="327.929688"/>
      <use xlink:href="#ArialMT-20" x="361.230469"/>
      <use xlink:href="#ArialMT-6c" x="389.013672"/>
      <use xlink:href="#ArialMT-64" x="411.230469"/>
      <use xlink:href="#ArialMT-61" x="466.845703"/>
      <use xlink:href="#ArialMT-3a" x="522.460938"/>
      <use xlink:href="#ArialMT-20" x="550.244141"/>
      <use xlink:href="#ArialMT-20" x="578.027344"/>
      <use xlink:href="#ArialMT-6e" x="605.810547"/>
      <use xlink:href="#ArialMT-6f" x="661.425781"/>
      <use xlink:href="#ArialMT-75" x="717.041016"/>
      <use xlink:href="#ArialMT-6e" x="772.65625"/>
      <use xlink:href="#ArialMT-73" x="828.271484"/>
      <use xlink:href="#ArialMT-5f" x="878.271484"/>
      <use xlink:href="#ArialMT-61" x="933.886719"/>
      <use xlink:href="#ArialMT-64" x="989.501953"/>
      <use xlink:href="#ArialMT-6a" x="1045.117188"/>
      <use xlink:href="#ArialMT-73" x="1067.333984"/>
      <use xlink:href="#ArialMT-5f" x="1117.333984"/>
      <use xlink:href="#ArialMT-76" x="1172.949219"/>
      <use xlink:href="#ArialMT-65" x="1222.949219"/>
      <use xlink:href="#ArialMT-72" x="1278.564453"/>
      <use xlink:href="#ArialMT-62" x="1311.865234"/>
      <use xlink:href="#ArialMT-73" x="1367.480469"/>
     </g>
    </g>
    <g id="patch_31">
     <path d="M 1099.38875 167.731094 
L 1121.38875 167.731094 
L 1121.38875 160.031094 
L 1099.38875 160.031094 
z
" style="fill: #b55d60; stroke: #4c4c4c; stroke-linejoin: miter"/>
    </g>
    <g id="text_20">
     <!-- cleaned_text -->
     <g style="fill: #262626" transform="translate(1130.18875 167.731094) scale(0.11 -0.11)">
      <use xlink:href="#ArialMT-63"/>
      <use xlink:href="#ArialMT-6c" x="50"/>
      <use xlink:href="#ArialMT-65" x="72.216797"/>
      <use xlink:href="#ArialMT-61" x="127.832031"/>
      <use xlink:href="#ArialMT-6e" x="183.447266"/>
      <use xlink:href="#ArialMT-65" x="239.0625"/>
      <use xlink:href="#ArialMT-64" x="294.677734"/>
      <use xlink:href="#ArialMT-5f" x="350.292969"/>
      <use xlink:href="#ArialMT-74" x="405.908203"/>
      <use xlink:href="#ArialMT-65" x="433.691406"/>
      <use xlink:href="#ArialMT-78" x="489.306641"/>
      <use xlink:href="#ArialMT-74" x="539.306641"/>
     </g>
    </g>
   </g>
  </g>
 </g>
 <defs>
  <clipPath id="p81034719cc">
   <rect x="180" y="86.4" width="1116" height="554.4"/>
  </clipPath>
 </defs>
</svg>
