<?xml version="1.0" encoding="utf-8" standalone="no"?>
<!DOCTYPE svg PUBLIC "-//W3C//DTD SVG 1.1//EN"
  "http://www.w3.org/Graphics/SVG/1.1/DTD/svg11.dtd">
<svg xmlns:xlink="http://www.w3.org/1999/xlink" width="1584pt" height="936pt" viewBox="0 0 1584 936" xmlns="http://www.w3.org/2000/svg" version="1.1">
 <metadata>
  <rdf:RDF xmlns:dc="http://purl.org/dc/elements/1.1/" xmlns:cc="http://creativecommons.org/ns#" xmlns:rdf="http://www.w3.org/1999/02/22-rdf-syntax-ns#">
   <cc:Work>
    <dc:type rdf:resource="http://purl.org/dc/dcmitype/StillImage"/>
    <dc:date>2024-06-27T13:11:35.581915</dc:date>
    <dc:format>image/svg+xml</dc:format>
    <dc:creator>
     <cc:Agent>
      <dc:title>Matplotlib v3.8.2, https://matplotlib.org/</dc:title>
     </cc:Agent>
    </dc:creator>
   </cc:Work>
  </rdf:RDF>
 </metadata>
 <defs>
  <style type="text/css">*{stroke-linejoin: round; stroke-linecap: butt}</style>
 </defs>
 <g id="figure_1">
  <g id="patch_1">
   <path d="M 0 936 
L 1584 936 
L 1584 0 
L 0 0 
z
" style="fill: #ffffff"/>
  </g>
  <g id="axes_1">
   <g id="patch_2">
    <path d="M 198 439.92 
L 1425.6 439.92 
L 1425.6 112.32 
L 198 112.32 
z
" style="fill: #ffffff"/>
   </g>
   <g id="matplotlib.axis_1">
    <g id="xtick_1">
     <g id="text_1">
      <!-- 2022-02 -->
      <g style="fill: #262626" transform="translate(233.617578 457.293594) scale(0.11 -0.11)">
       <defs>
        <path id="ArialMT-32" d="M 3222 541 
L 3222 0 
L 194 0 
Q 188 203 259 391 
Q 375 700 629 1000 
Q 884 1300 1366 1694 
Q 2113 2306 2375 2664 
Q 2638 3022 2638 3341 
Q 2638 3675 2398 3904 
Q 2159 4134 1775 4134 
Q 1369 4134 1125 3890 
Q 881 3647 878 3216 
L 300 3275 
Q 359 3922 746 4261 
Q 1134 4600 1788 4600 
Q 2447 4600 2831 4234 
Q 3216 3869 3216 3328 
Q 3216 3053 3103 2787 
Q 2991 2522 2730 2228 
Q 2469 1934 1863 1422 
Q 1356 997 1212 845 
Q 1069 694 975 541 
L 3222 541 
z
" transform="scale(0.015625)"/>
        <path id="ArialMT-30" d="M 266 2259 
Q 266 3072 433 3567 
Q 600 4063 929 4331 
Q 1259 4600 1759 4600 
Q 2128 4600 2406 4451 
Q 2684 4303 2865 4023 
Q 3047 3744 3150 3342 
Q 3253 2941 3253 2259 
Q 3253 1453 3087 958 
Q 2922 463 2592 192 
Q 2263 -78 1759 -78 
Q 1097 -78 719 397 
Q 266 969 266 2259 
z
M 844 2259 
Q 844 1131 1108 757 
Q 1372 384 1759 384 
Q 2147 384 2411 759 
Q 2675 1134 2675 2259 
Q 2675 3391 2411 3762 
Q 2147 4134 1753 4134 
Q 1366 4134 1134 3806 
Q 844 3388 844 2259 
z
" transform="scale(0.015625)"/>
        <path id="ArialMT-2d" d="M 203 1375 
L 203 1941 
L 1931 1941 
L 1931 1375 
L 203 1375 
z
" transform="scale(0.015625)"/>
       </defs>
       <use xlink:href="#ArialMT-32"/>
       <use xlink:href="#ArialMT-30" x="55.615234"/>
       <use xlink:href="#ArialMT-32" x="111.230469"/>
       <use xlink:href="#ArialMT-32" x="166.845703"/>
       <use xlink:href="#ArialMT-2d" x="222.460938"/>
       <use xlink:href="#ArialMT-30" x="255.761719"/>
       <use xlink:href="#ArialMT-32" x="311.376953"/>
      </g>
     </g>
    </g>
    <g id="xtick_2">
     <g id="text_2">
      <!-- 2022-03 -->
      <g style="fill: #262626" transform="translate(313.331864 457.293594) scale(0.11 -0.11)">
       <defs>
        <path id="ArialMT-33" d="M 269 1209 
L 831 1284 
Q 928 806 1161 595 
Q 1394 384 1728 384 
Q 2125 384 2398 659 
Q 2672 934 2672 1341 
Q 2672 1728 2419 1979 
Q 2166 2231 1775 2231 
Q 1616 2231 1378 2169 
L 1441 2663 
Q 1497 2656 1531 2656 
Q 1891 2656 2178 2843 
Q 2466 3031 2466 3422 
Q 2466 3731 2256 3934 
Q 2047 4138 1716 4138 
Q 1388 4138 1169 3931 
Q 950 3725 888 3313 
L 325 3413 
Q 428 3978 793 4289 
Q 1159 4600 1703 4600 
Q 2078 4600 2393 4439 
Q 2709 4278 2876 4000 
Q 3044 3722 3044 3409 
Q 3044 3113 2884 2869 
Q 2725 2625 2413 2481 
Q 2819 2388 3044 2092 
Q 3269 1797 3269 1353 
Q 3269 753 2831 336 
Q 2394 -81 1725 -81 
Q 1122 -81 723 278 
Q 325 638 269 1209 
z
" transform="scale(0.015625)"/>
       </defs>
       <use xlink:href="#ArialMT-32"/>
       <use xlink:href="#ArialMT-30" x="55.615234"/>
       <use xlink:href="#ArialMT-32" x="111.230469"/>
       <use xlink:href="#ArialMT-32" x="166.845703"/>
       <use xlink:href="#ArialMT-2d" x="222.460938"/>
       <use xlink:href="#ArialMT-30" x="255.761719"/>
       <use xlink:href="#ArialMT-33" x="311.376953"/>
      </g>
     </g>
    </g>
    <g id="xtick_3">
     <g id="text_3">
      <!-- 2022-04 -->
      <g style="fill: #262626" transform="translate(393.04615 457.293594) scale(0.11 -0.11)">
       <defs>
        <path id="ArialMT-34" d="M 2069 0 
L 2069 1097 
L 81 1097 
L 81 1613 
L 2172 4581 
L 2631 4581 
L 2631 1613 
L 3250 1613 
L 3250 1097 
L 2631 1097 
L 2631 0 
L 2069 0 
z
M 2069 1613 
L 2069 3678 
L 634 1613 
L 2069 1613 
z
" transform="scale(0.015625)"/>
       </defs>
       <use xlink:href="#ArialMT-32"/>
       <use xlink:href="#ArialMT-30" x="55.615234"/>
       <use xlink:href="#ArialMT-32" x="111.230469"/>
       <use xlink:href="#ArialMT-32" x="166.845703"/>
       <use xlink:href="#ArialMT-2d" x="222.460938"/>
       <use xlink:href="#ArialMT-30" x="255.761719"/>
       <use xlink:href="#ArialMT-34" x="311.376953"/>
      </g>
     </g>
    </g>
    <g id="xtick_4">
     <g id="text_4">
      <!-- 2022-05 -->
      <g style="fill: #262626" transform="translate(472.760435 457.293594) scale(0.11 -0.11)">
       <defs>
        <path id="ArialMT-35" d="M 266 1200 
L 856 1250 
Q 922 819 1161 601 
Q 1400 384 1738 384 
Q 2144 384 2425 690 
Q 2706 997 2706 1503 
Q 2706 1984 2436 2262 
Q 2166 2541 1728 2541 
Q 1456 2541 1237 2417 
Q 1019 2294 894 2097 
L 366 2166 
L 809 4519 
L 3088 4519 
L 3088 3981 
L 1259 3981 
L 1013 2750 
Q 1425 3038 1878 3038 
Q 2478 3038 2890 2622 
Q 3303 2206 3303 1553 
Q 3303 931 2941 478 
Q 2500 -78 1738 -78 
Q 1113 -78 717 272 
Q 322 622 266 1200 
z
" transform="scale(0.015625)"/>
       </defs>
       <use xlink:href="#ArialMT-32"/>
       <use xlink:href="#ArialMT-30" x="55.615234"/>
       <use xlink:href="#ArialMT-32" x="111.230469"/>
       <use xlink:href="#ArialMT-32" x="166.845703"/>
       <use xlink:href="#ArialMT-2d" x="222.460938"/>
       <use xlink:href="#ArialMT-30" x="255.761719"/>
       <use xlink:href="#ArialMT-35" x="311.376953"/>
      </g>
     </g>
    </g>
    <g id="xtick_5">
     <g id="text_5">
      <!-- 2022-06 -->
      <g style="fill: #262626" transform="translate(552.474721 457.293594) scale(0.11 -0.11)">
       <defs>
        <path id="ArialMT-36" d="M 3184 3459 
L 2625 3416 
Q 2550 3747 2413 3897 
Q 2184 4138 1850 4138 
Q 1581 4138 1378 3988 
Q 1113 3794 959 3422 
Q 806 3050 800 2363 
Q 1003 2672 1297 2822 
Q 1591 2972 1913 2972 
Q 2475 2972 2870 2558 
Q 3266 2144 3266 1488 
Q 3266 1056 3080 686 
Q 2894 316 2569 119 
Q 2244 -78 1831 -78 
Q 1128 -78 684 439 
Q 241 956 241 2144 
Q 241 3472 731 4075 
Q 1159 4600 1884 4600 
Q 2425 4600 2770 4297 
Q 3116 3994 3184 3459 
z
M 888 1484 
Q 888 1194 1011 928 
Q 1134 663 1356 523 
Q 1578 384 1822 384 
Q 2178 384 2434 671 
Q 2691 959 2691 1453 
Q 2691 1928 2437 2201 
Q 2184 2475 1800 2475 
Q 1419 2475 1153 2201 
Q 888 1928 888 1484 
z
" transform="scale(0.015625)"/>
       </defs>
       <use xlink:href="#ArialMT-32"/>
       <use xlink:href="#ArialMT-30" x="55.615234"/>
       <use xlink:href="#ArialMT-32" x="111.230469"/>
       <use xlink:href="#ArialMT-32" x="166.845703"/>
       <use xlink:href="#ArialMT-2d" x="222.460938"/>
       <use xlink:href="#ArialMT-30" x="255.761719"/>
       <use xlink:href="#ArialMT-36" x="311.376953"/>
      </g>
     </g>
    </g>
    <g id="xtick_6">
     <g id="text_6">
      <!-- 2022-07 -->
      <g style="fill: #262626" transform="translate(632.189007 457.293594) scale(0.11 -0.11)">
       <defs>
        <path id="ArialMT-37" d="M 303 3981 
L 303 4522 
L 3269 4522 
L 3269 4084 
Q 2831 3619 2401 2847 
Q 1972 2075 1738 1259 
Q 1569 684 1522 0 
L 944 0 
Q 953 541 1156 1306 
Q 1359 2072 1739 2783 
Q 2119 3494 2547 3981 
L 303 3981 
z
" transform="scale(0.015625)"/>
       </defs>
       <use xlink:href="#ArialMT-32"/>
       <use xlink:href="#ArialMT-30" x="55.615234"/>
       <use xlink:href="#ArialMT-32" x="111.230469"/>
       <use xlink:href="#ArialMT-32" x="166.845703"/>
       <use xlink:href="#ArialMT-2d" x="222.460938"/>
       <use xlink:href="#ArialMT-30" x="255.761719"/>
       <use xlink:href="#ArialMT-37" x="311.376953"/>
      </g>
     </g>
    </g>
    <g id="xtick_7">
     <g id="text_7">
      <!-- 2022-08 -->
      <g style="fill: #262626" transform="translate(711.903292 457.293594) scale(0.11 -0.11)">
       <defs>
        <path id="ArialMT-38" d="M 1131 2484 
Q 781 2613 612 2850 
Q 444 3088 444 3419 
Q 444 3919 803 4259 
Q 1163 4600 1759 4600 
Q 2359 4600 2725 4251 
Q 3091 3903 3091 3403 
Q 3091 3084 2923 2848 
Q 2756 2613 2416 2484 
Q 2838 2347 3058 2040 
Q 3278 1734 3278 1309 
Q 3278 722 2862 322 
Q 2447 -78 1769 -78 
Q 1091 -78 675 323 
Q 259 725 259 1325 
Q 259 1772 486 2073 
Q 713 2375 1131 2484 
z
M 1019 3438 
Q 1019 3113 1228 2906 
Q 1438 2700 1772 2700 
Q 2097 2700 2305 2904 
Q 2513 3109 2513 3406 
Q 2513 3716 2298 3927 
Q 2084 4138 1766 4138 
Q 1444 4138 1231 3931 
Q 1019 3725 1019 3438 
z
M 838 1322 
Q 838 1081 952 856 
Q 1066 631 1291 507 
Q 1516 384 1775 384 
Q 2178 384 2440 643 
Q 2703 903 2703 1303 
Q 2703 1709 2433 1975 
Q 2163 2241 1756 2241 
Q 1359 2241 1098 1978 
Q 838 1716 838 1322 
z
" transform="scale(0.015625)"/>
       </defs>
       <use xlink:href="#ArialMT-32"/>
       <use xlink:href="#ArialMT-30" x="55.615234"/>
       <use xlink:href="#ArialMT-32" x="111.230469"/>
       <use xlink:href="#ArialMT-32" x="166.845703"/>
       <use xlink:href="#ArialMT-2d" x="222.460938"/>
       <use xlink:href="#ArialMT-30" x="255.761719"/>
       <use xlink:href="#ArialMT-38" x="311.376953"/>
      </g>
     </g>
    </g>
    <g id="xtick_8">
     <g id="text_8">
      <!-- 2022-09 -->
      <g style="fill: #262626" transform="translate(791.617578 457.293594) scale(0.11 -0.11)">
       <defs>
        <path id="ArialMT-39" d="M 350 1059 
L 891 1109 
Q 959 728 1153 556 
Q 1347 384 1650 384 
Q 1909 384 2104 503 
Q 2300 622 2425 820 
Q 2550 1019 2634 1356 
Q 2719 1694 2719 2044 
Q 2719 2081 2716 2156 
Q 2547 1888 2255 1720 
Q 1963 1553 1622 1553 
Q 1053 1553 659 1965 
Q 266 2378 266 3053 
Q 266 3750 677 4175 
Q 1088 4600 1706 4600 
Q 2153 4600 2523 4359 
Q 2894 4119 3086 3673 
Q 3278 3228 3278 2384 
Q 3278 1506 3087 986 
Q 2897 466 2520 194 
Q 2144 -78 1638 -78 
Q 1100 -78 759 220 
Q 419 519 350 1059 
z
M 2653 3081 
Q 2653 3566 2395 3850 
Q 2138 4134 1775 4134 
Q 1400 4134 1122 3828 
Q 844 3522 844 3034 
Q 844 2597 1108 2323 
Q 1372 2050 1759 2050 
Q 2150 2050 2401 2323 
Q 2653 2597 2653 3081 
z
" transform="scale(0.015625)"/>
       </defs>
       <use xlink:href="#ArialMT-32"/>
       <use xlink:href="#ArialMT-30" x="55.615234"/>
       <use xlink:href="#ArialMT-32" x="111.230469"/>
       <use xlink:href="#ArialMT-32" x="166.845703"/>
       <use xlink:href="#ArialMT-2d" x="222.460938"/>
       <use xlink:href="#ArialMT-30" x="255.761719"/>
       <use xlink:href="#ArialMT-39" x="311.376953"/>
      </g>
     </g>
    </g>
    <g id="xtick_9">
     <g id="text_9">
      <!-- 2022-10 -->
      <g style="fill: #262626" transform="translate(871.331864 457.293594) scale(0.11 -0.11)">
       <defs>
        <path id="ArialMT-31" d="M 2384 0 
L 1822 0 
L 1822 3584 
Q 1619 3391 1289 3197 
Q 959 3003 697 2906 
L 697 3450 
Q 1169 3672 1522 3987 
Q 1875 4303 2022 4600 
L 2384 4600 
L 2384 0 
z
" transform="scale(0.015625)"/>
       </defs>
       <use xlink:href="#ArialMT-32"/>
       <use xlink:href="#ArialMT-30" x="55.615234"/>
       <use xlink:href="#ArialMT-32" x="111.230469"/>
       <use xlink:href="#ArialMT-32" x="166.845703"/>
       <use xlink:href="#ArialMT-2d" x="222.460938"/>
       <use xlink:href="#ArialMT-31" x="255.761719"/>
       <use xlink:href="#ArialMT-30" x="311.376953"/>
      </g>
     </g>
    </g>
    <g id="xtick_10">
     <g id="text_10">
      <!-- 2022-11 -->
      <g style="fill: #262626" transform="translate(951.451775 457.293594) scale(0.11 -0.11)">
       <use xlink:href="#ArialMT-32"/>
       <use xlink:href="#ArialMT-30" x="55.615234"/>
       <use xlink:href="#ArialMT-32" x="111.230469"/>
       <use xlink:href="#ArialMT-32" x="166.845703"/>
       <use xlink:href="#ArialMT-2d" x="222.460938"/>
       <use xlink:href="#ArialMT-31" x="255.761719"/>
       <use xlink:href="#ArialMT-31" x="304.001953"/>
      </g>
     </g>
    </g>
    <g id="xtick_11">
     <g id="text_11">
      <!-- 2022-12 -->
      <g style="fill: #262626" transform="translate(1030.760435 457.293594) scale(0.11 -0.11)">
       <use xlink:href="#ArialMT-32"/>
       <use xlink:href="#ArialMT-30" x="55.615234"/>
       <use xlink:href="#ArialMT-32" x="111.230469"/>
       <use xlink:href="#ArialMT-32" x="166.845703"/>
       <use xlink:href="#ArialMT-2d" x="222.460938"/>
       <use xlink:href="#ArialMT-31" x="255.761719"/>
       <use xlink:href="#ArialMT-32" x="311.376953"/>
      </g>
     </g>
    </g>
    <g id="xtick_12">
     <g id="text_12">
      <!-- 2023-01 -->
      <g style="fill: #262626" transform="translate(1110.474721 457.293594) scale(0.11 -0.11)">
       <use xlink:href="#ArialMT-32"/>
       <use xlink:href="#ArialMT-30" x="55.615234"/>
       <use xlink:href="#ArialMT-32" x="111.230469"/>
       <use xlink:href="#ArialMT-33" x="166.845703"/>
       <use xlink:href="#ArialMT-2d" x="222.460938"/>
       <use xlink:href="#ArialMT-30" x="255.761719"/>
       <use xlink:href="#ArialMT-31" x="311.376953"/>
      </g>
     </g>
    </g>
    <g id="xtick_13">
     <g id="text_13">
      <!-- 2023-02 -->
      <g style="fill: #262626" transform="translate(1190.189007 457.293594) scale(0.11 -0.11)">
       <use xlink:href="#ArialMT-32"/>
       <use xlink:href="#ArialMT-30" x="55.615234"/>
       <use xlink:href="#ArialMT-32" x="111.230469"/>
       <use xlink:href="#ArialMT-33" x="166.845703"/>
       <use xlink:href="#ArialMT-2d" x="222.460938"/>
       <use xlink:href="#ArialMT-30" x="255.761719"/>
       <use xlink:href="#ArialMT-32" x="311.376953"/>
      </g>
     </g>
    </g>
    <g id="xtick_14">
     <g id="text_14">
      <!-- 2023-03 -->
      <g style="fill: #262626" transform="translate(1269.903292 457.293594) scale(0.11 -0.11)">
       <use xlink:href="#ArialMT-32"/>
       <use xlink:href="#ArialMT-30" x="55.615234"/>
       <use xlink:href="#ArialMT-32" x="111.230469"/>
       <use xlink:href="#ArialMT-33" x="166.845703"/>
       <use xlink:href="#ArialMT-2d" x="222.460938"/>
       <use xlink:href="#ArialMT-30" x="255.761719"/>
       <use xlink:href="#ArialMT-33" x="311.376953"/>
      </g>
     </g>
    </g>
    <g id="xtick_15">
     <g id="text_15">
      <!-- 2023-04 -->
      <g style="fill: #262626" transform="translate(1349.617578 457.293594) scale(0.11 -0.11)">
       <use xlink:href="#ArialMT-32"/>
       <use xlink:href="#ArialMT-30" x="55.615234"/>
       <use xlink:href="#ArialMT-32" x="111.230469"/>
       <use xlink:href="#ArialMT-33" x="166.845703"/>
       <use xlink:href="#ArialMT-2d" x="222.460938"/>
       <use xlink:href="#ArialMT-30" x="255.761719"/>
       <use xlink:href="#ArialMT-34" x="311.376953"/>
      </g>
     </g>
    </g>
    <g id="text_16">
     <!-- Month -->
     <g style="fill: #262626" transform="translate(795.125625 472.069219) scale(0.12 -0.12)">
      <defs>
       <path id="ArialMT-4d" d="M 475 0 
L 475 4581 
L 1388 4581 
L 2472 1338 
Q 2622 884 2691 659 
Q 2769 909 2934 1394 
L 4031 4581 
L 4847 4581 
L 4847 0 
L 4263 0 
L 4263 3834 
L 2931 0 
L 2384 0 
L 1059 3900 
L 1059 0 
L 475 0 
z
" transform="scale(0.015625)"/>
       <path id="ArialMT-6f" d="M 213 1659 
Q 213 2581 725 3025 
Q 1153 3394 1769 3394 
Q 2453 3394 2887 2945 
Q 3322 2497 3322 1706 
Q 3322 1066 3130 698 
Q 2938 331 2570 128 
Q 2203 -75 1769 -75 
Q 1072 -75 642 372 
Q 213 819 213 1659 
z
M 791 1659 
Q 791 1022 1069 705 
Q 1347 388 1769 388 
Q 2188 388 2466 706 
Q 2744 1025 2744 1678 
Q 2744 2294 2464 2611 
Q 2184 2928 1769 2928 
Q 1347 2928 1069 2612 
Q 791 2297 791 1659 
z
" transform="scale(0.015625)"/>
       <path id="ArialMT-6e" d="M 422 0 
L 422 3319 
L 928 3319 
L 928 2847 
Q 1294 3394 1984 3394 
Q 2284 3394 2536 3286 
Q 2788 3178 2913 3003 
Q 3038 2828 3088 2588 
Q 3119 2431 3119 2041 
L 3119 0 
L 2556 0 
L 2556 2019 
Q 2556 2363 2490 2533 
Q 2425 2703 2258 2804 
Q 2091 2906 1866 2906 
Q 1506 2906 1245 2678 
Q 984 2450 984 1813 
L 984 0 
L 422 0 
z
" transform="scale(0.015625)"/>
       <path id="ArialMT-74" d="M 1650 503 
L 1731 6 
Q 1494 -44 1306 -44 
Q 1000 -44 831 53 
Q 663 150 594 308 
Q 525 466 525 972 
L 525 2881 
L 113 2881 
L 113 3319 
L 525 3319 
L 525 4141 
L 1084 4478 
L 1084 3319 
L 1650 3319 
L 1650 2881 
L 1084 2881 
L 1084 941 
Q 1084 700 1114 631 
Q 1144 563 1211 522 
Q 1278 481 1403 481 
Q 1497 481 1650 503 
z
" transform="scale(0.015625)"/>
       <path id="ArialMT-68" d="M 422 0 
L 422 4581 
L 984 4581 
L 984 2938 
Q 1378 3394 1978 3394 
Q 2347 3394 2619 3248 
Q 2891 3103 3008 2847 
Q 3125 2591 3125 2103 
L 3125 0 
L 2563 0 
L 2563 2103 
Q 2563 2525 2380 2717 
Q 2197 2909 1863 2909 
Q 1613 2909 1392 2779 
Q 1172 2650 1078 2428 
Q 984 2206 984 1816 
L 984 0 
L 422 0 
z
" transform="scale(0.015625)"/>
      </defs>
      <use xlink:href="#ArialMT-4d"/>
      <use xlink:href="#ArialMT-6f" x="83.300781"/>
      <use xlink:href="#ArialMT-6e" x="138.916016"/>
      <use xlink:href="#ArialMT-74" x="194.53125"/>
      <use xlink:href="#ArialMT-68" x="222.314453"/>
     </g>
    </g>
   </g>
   <g id="matplotlib.axis_2">
    <g id="ytick_1">
     <g id="text_17">
      <!-- 0.0 -->
      <g style="fill: #262626" transform="translate(173.21 443.856797) scale(0.11 -0.11)">
       <defs>
        <path id="ArialMT-2e" d="M 581 0 
L 581 641 
L 1222 641 
L 1222 0 
L 581 0 
z
" transform="scale(0.015625)"/>
       </defs>
       <use xlink:href="#ArialMT-30"/>
       <use xlink:href="#ArialMT-2e" x="55.615234"/>
       <use xlink:href="#ArialMT-30" x="83.398438"/>
      </g>
     </g>
    </g>
    <g id="ytick_2">
     <g id="text_18">
      <!-- 0.2 -->
      <g style="fill: #262626" transform="translate(173.21 381.456797) scale(0.11 -0.11)">
       <use xlink:href="#ArialMT-30"/>
       <use xlink:href="#ArialMT-2e" x="55.615234"/>
       <use xlink:href="#ArialMT-32" x="83.398438"/>
      </g>
     </g>
    </g>
    <g id="ytick_3">
     <g id="text_19">
      <!-- 0.4 -->
      <g style="fill: #262626" transform="translate(173.21 319.056797) scale(0.11 -0.11)">
       <use xlink:href="#ArialMT-30"/>
       <use xlink:href="#ArialMT-2e" x="55.615234"/>
       <use xlink:href="#ArialMT-34" x="83.398438"/>
      </g>
     </g>
    </g>
    <g id="ytick_4">
     <g id="text_20">
      <!-- 0.6 -->
      <g style="fill: #262626" transform="translate(173.21 256.656797) scale(0.11 -0.11)">
       <use xlink:href="#ArialMT-30"/>
       <use xlink:href="#ArialMT-2e" x="55.615234"/>
       <use xlink:href="#ArialMT-36" x="83.398438"/>
      </g>
     </g>
    </g>
    <g id="ytick_5">
     <g id="text_21">
      <!-- 0.8 -->
      <g style="fill: #262626" transform="translate(173.21 194.256797) scale(0.11 -0.11)">
       <use xlink:href="#ArialMT-30"/>
       <use xlink:href="#ArialMT-2e" x="55.615234"/>
       <use xlink:href="#ArialMT-38" x="83.398438"/>
      </g>
     </g>
    </g>
    <g id="ytick_6">
     <g id="text_22">
      <!-- 1.0 -->
      <g style="fill: #262626" transform="translate(173.21 131.856797) scale(0.11 -0.11)">
       <use xlink:href="#ArialMT-31"/>
       <use xlink:href="#ArialMT-2e" x="55.615234"/>
       <use xlink:href="#ArialMT-30" x="83.398438"/>
      </g>
     </g>
    </g>
    <g id="text_23">
     <!-- Number of Tweets per Week in % -->
     <g style="fill: #262626" transform="translate(166.825 365.273438) rotate(-90) scale(0.12 -0.12)">
      <defs>
       <path id="ArialMT-4e" d="M 488 0 
L 488 4581 
L 1109 4581 
L 3516 984 
L 3516 4581 
L 4097 4581 
L 4097 0 
L 3475 0 
L 1069 3600 
L 1069 0 
L 488 0 
z
" transform="scale(0.015625)"/>
       <path id="ArialMT-75" d="M 2597 0 
L 2597 488 
Q 2209 -75 1544 -75 
Q 1250 -75 995 37 
Q 741 150 617 320 
Q 494 491 444 738 
Q 409 903 409 1263 
L 409 3319 
L 972 3319 
L 972 1478 
Q 972 1038 1006 884 
Q 1059 663 1231 536 
Q 1403 409 1656 409 
Q 1909 409 2131 539 
Q 2353 669 2445 892 
Q 2538 1116 2538 1541 
L 2538 3319 
L 3100 3319 
L 3100 0 
L 2597 0 
z
" transform="scale(0.015625)"/>
       <path id="ArialMT-6d" d="M 422 0 
L 422 3319 
L 925 3319 
L 925 2853 
Q 1081 3097 1340 3245 
Q 1600 3394 1931 3394 
Q 2300 3394 2536 3241 
Q 2772 3088 2869 2813 
Q 3263 3394 3894 3394 
Q 4388 3394 4653 3120 
Q 4919 2847 4919 2278 
L 4919 0 
L 4359 0 
L 4359 2091 
Q 4359 2428 4304 2576 
Q 4250 2725 4106 2815 
Q 3963 2906 3769 2906 
Q 3419 2906 3187 2673 
Q 2956 2441 2956 1928 
L 2956 0 
L 2394 0 
L 2394 2156 
Q 2394 2531 2256 2718 
Q 2119 2906 1806 2906 
Q 1569 2906 1367 2781 
Q 1166 2656 1075 2415 
Q 984 2175 984 1722 
L 984 0 
L 422 0 
z
" transform="scale(0.015625)"/>
       <path id="ArialMT-62" d="M 941 0 
L 419 0 
L 419 4581 
L 981 4581 
L 981 2947 
Q 1338 3394 1891 3394 
Q 2197 3394 2470 3270 
Q 2744 3147 2920 2923 
Q 3097 2700 3197 2384 
Q 3297 2069 3297 1709 
Q 3297 856 2875 390 
Q 2453 -75 1863 -75 
Q 1275 -75 941 416 
L 941 0 
z
M 934 1684 
Q 934 1088 1097 822 
Q 1363 388 1816 388 
Q 2184 388 2453 708 
Q 2722 1028 2722 1663 
Q 2722 2313 2464 2622 
Q 2206 2931 1841 2931 
Q 1472 2931 1203 2611 
Q 934 2291 934 1684 
z
" transform="scale(0.015625)"/>
       <path id="ArialMT-65" d="M 2694 1069 
L 3275 997 
Q 3138 488 2766 206 
Q 2394 -75 1816 -75 
Q 1088 -75 661 373 
Q 234 822 234 1631 
Q 234 2469 665 2931 
Q 1097 3394 1784 3394 
Q 2450 3394 2872 2941 
Q 3294 2488 3294 1666 
Q 3294 1616 3291 1516 
L 816 1516 
Q 847 969 1125 678 
Q 1403 388 1819 388 
Q 2128 388 2347 550 
Q 2566 713 2694 1069 
z
M 847 1978 
L 2700 1978 
Q 2663 2397 2488 2606 
Q 2219 2931 1791 2931 
Q 1403 2931 1139 2672 
Q 875 2413 847 1978 
z
" transform="scale(0.015625)"/>
       <path id="ArialMT-72" d="M 416 0 
L 416 3319 
L 922 3319 
L 922 2816 
Q 1116 3169 1280 3281 
Q 1444 3394 1641 3394 
Q 1925 3394 2219 3213 
L 2025 2691 
Q 1819 2813 1613 2813 
Q 1428 2813 1281 2702 
Q 1134 2591 1072 2394 
Q 978 2094 978 1738 
L 978 0 
L 416 0 
z
" transform="scale(0.015625)"/>
       <path id="ArialMT-20" transform="scale(0.015625)"/>
       <path id="ArialMT-66" d="M 556 0 
L 556 2881 
L 59 2881 
L 59 3319 
L 556 3319 
L 556 3672 
Q 556 4006 616 4169 
Q 697 4388 901 4523 
Q 1106 4659 1475 4659 
Q 1713 4659 2000 4603 
L 1916 4113 
Q 1741 4144 1584 4144 
Q 1328 4144 1222 4034 
Q 1116 3925 1116 3625 
L 1116 3319 
L 1763 3319 
L 1763 2881 
L 1116 2881 
L 1116 0 
L 556 0 
z
" transform="scale(0.015625)"/>
       <path id="ArialMT-54" d="M 1659 0 
L 1659 4041 
L 150 4041 
L 150 4581 
L 3781 4581 
L 3781 4041 
L 2266 4041 
L 2266 0 
L 1659 0 
z
" transform="scale(0.015625)"/>
       <path id="ArialMT-77" d="M 1034 0 
L 19 3319 
L 600 3319 
L 1128 1403 
L 1325 691 
Q 1338 744 1497 1375 
L 2025 3319 
L 2603 3319 
L 3100 1394 
L 3266 759 
L 3456 1400 
L 4025 3319 
L 4572 3319 
L 3534 0 
L 2950 0 
L 2422 1988 
L 2294 2553 
L 1622 0 
L 1034 0 
z
" transform="scale(0.015625)"/>
       <path id="ArialMT-73" d="M 197 991 
L 753 1078 
Q 800 744 1014 566 
Q 1228 388 1613 388 
Q 2000 388 2187 545 
Q 2375 703 2375 916 
Q 2375 1106 2209 1216 
Q 2094 1291 1634 1406 
Q 1016 1563 777 1677 
Q 538 1791 414 1992 
Q 291 2194 291 2438 
Q 291 2659 392 2848 
Q 494 3038 669 3163 
Q 800 3259 1026 3326 
Q 1253 3394 1513 3394 
Q 1903 3394 2198 3281 
Q 2494 3169 2634 2976 
Q 2775 2784 2828 2463 
L 2278 2388 
Q 2241 2644 2061 2787 
Q 1881 2931 1553 2931 
Q 1166 2931 1000 2803 
Q 834 2675 834 2503 
Q 834 2394 903 2306 
Q 972 2216 1119 2156 
Q 1203 2125 1616 2013 
Q 2213 1853 2448 1751 
Q 2684 1650 2818 1456 
Q 2953 1263 2953 975 
Q 2953 694 2789 445 
Q 2625 197 2315 61 
Q 2006 -75 1616 -75 
Q 969 -75 630 194 
Q 291 463 197 991 
z
" transform="scale(0.015625)"/>
       <path id="ArialMT-70" d="M 422 -1272 
L 422 3319 
L 934 3319 
L 934 2888 
Q 1116 3141 1344 3267 
Q 1572 3394 1897 3394 
Q 2322 3394 2647 3175 
Q 2972 2956 3137 2557 
Q 3303 2159 3303 1684 
Q 3303 1175 3120 767 
Q 2938 359 2589 142 
Q 2241 -75 1856 -75 
Q 1575 -75 1351 44 
Q 1128 163 984 344 
L 984 -1272 
L 422 -1272 
z
M 931 1641 
Q 931 1000 1190 694 
Q 1450 388 1819 388 
Q 2194 388 2461 705 
Q 2728 1022 2728 1688 
Q 2728 2322 2467 2637 
Q 2206 2953 1844 2953 
Q 1484 2953 1207 2617 
Q 931 2281 931 1641 
z
" transform="scale(0.015625)"/>
       <path id="ArialMT-57" d="M 1294 0 
L 78 4581 
L 700 4581 
L 1397 1578 
Q 1509 1106 1591 641 
Q 1766 1375 1797 1488 
L 2669 4581 
L 3400 4581 
L 4056 2263 
Q 4303 1400 4413 641 
Q 4500 1075 4641 1638 
L 5359 4581 
L 5969 4581 
L 4713 0 
L 4128 0 
L 3163 3491 
Q 3041 3928 3019 4028 
Q 2947 3713 2884 3491 
L 1913 0 
L 1294 0 
z
" transform="scale(0.015625)"/>
       <path id="ArialMT-6b" d="M 425 0 
L 425 4581 
L 988 4581 
L 988 1969 
L 2319 3319 
L 3047 3319 
L 1778 2088 
L 3175 0 
L 2481 0 
L 1384 1697 
L 988 1316 
L 988 0 
L 425 0 
z
" transform="scale(0.015625)"/>
       <path id="ArialMT-69" d="M 425 3934 
L 425 4581 
L 988 4581 
L 988 3934 
L 425 3934 
z
M 425 0 
L 425 3319 
L 988 3319 
L 988 0 
L 425 0 
z
" transform="scale(0.015625)"/>
       <path id="ArialMT-25" d="M 372 3481 
Q 372 3972 619 4315 
Q 866 4659 1334 4659 
Q 1766 4659 2048 4351 
Q 2331 4044 2331 3447 
Q 2331 2866 2045 2552 
Q 1759 2238 1341 2238 
Q 925 2238 648 2547 
Q 372 2856 372 3481 
z
M 1350 4272 
Q 1141 4272 1002 4090 
Q 863 3909 863 3425 
Q 863 2984 1003 2804 
Q 1144 2625 1350 2625 
Q 1563 2625 1702 2806 
Q 1841 2988 1841 3469 
Q 1841 3913 1700 4092 
Q 1559 4272 1350 4272 
z
M 1353 -169 
L 3859 4659 
L 4316 4659 
L 1819 -169 
L 1353 -169 
z
M 3334 1075 
Q 3334 1569 3581 1911 
Q 3828 2253 4300 2253 
Q 4731 2253 5014 1945 
Q 5297 1638 5297 1041 
Q 5297 459 5011 145 
Q 4725 -169 4303 -169 
Q 3888 -169 3611 142 
Q 3334 453 3334 1075 
z
M 4316 1866 
Q 4103 1866 3964 1684 
Q 3825 1503 3825 1019 
Q 3825 581 3965 400 
Q 4106 219 4313 219 
Q 4528 219 4667 400 
Q 4806 581 4806 1063 
Q 4806 1506 4665 1686 
Q 4525 1866 4316 1866 
z
" transform="scale(0.015625)"/>
      </defs>
      <use xlink:href="#ArialMT-4e"/>
      <use xlink:href="#ArialMT-75" x="72.216797"/>
      <use xlink:href="#ArialMT-6d" x="127.832031"/>
      <use xlink:href="#ArialMT-62" x="211.132812"/>
      <use xlink:href="#ArialMT-65" x="266.748047"/>
      <use xlink:href="#ArialMT-72" x="322.363281"/>
      <use xlink:href="#ArialMT-20" x="355.664062"/>
      <use xlink:href="#ArialMT-6f" x="383.447266"/>
      <use xlink:href="#ArialMT-66" x="439.0625"/>
      <use xlink:href="#ArialMT-20" x="466.845703"/>
      <use xlink:href="#ArialMT-54" x="492.878906"/>
      <use xlink:href="#ArialMT-77" x="548.462891"/>
      <use xlink:href="#ArialMT-65" x="620.679688"/>
      <use xlink:href="#ArialMT-65" x="676.294922"/>
      <use xlink:href="#ArialMT-74" x="731.910156"/>
      <use xlink:href="#ArialMT-73" x="759.693359"/>
      <use xlink:href="#ArialMT-20" x="809.693359"/>
      <use xlink:href="#ArialMT-70" x="837.476562"/>
      <use xlink:href="#ArialMT-65" x="893.091797"/>
      <use xlink:href="#ArialMT-72" x="948.707031"/>
      <use xlink:href="#ArialMT-20" x="982.007812"/>
      <use xlink:href="#ArialMT-57" x="1009.791016"/>
      <use xlink:href="#ArialMT-65" x="1102.425781"/>
      <use xlink:href="#ArialMT-65" x="1158.041016"/>
      <use xlink:href="#ArialMT-6b" x="1213.65625"/>
      <use xlink:href="#ArialMT-20" x="1263.65625"/>
      <use xlink:href="#ArialMT-69" x="1291.439453"/>
      <use xlink:href="#ArialMT-6e" x="1313.65625"/>
      <use xlink:href="#ArialMT-20" x="1369.271484"/>
      <use xlink:href="#ArialMT-25" x="1397.054688"/>
     </g>
    </g>
   </g>
   <g id="PolyCollection_1">
    <defs>
     <path id="m4caf134e1f" d="M 253.8 -516.28301 
L 253.8 -496.08 
L 333.514286 -496.08 
L 413.228571 -496.08 
L 492.942857 -496.08 
L 572.657143 -496.08 
L 652.371429 -496.08 
L 732.085714 -496.08 
L 811.8 -496.08 
L 891.514286 -496.08 
L 971.228571 -496.08 
L 1050.942857 -496.08 
L 1130.657143 -496.08 
L 1210.371429 -496.08 
L 1290.085714 -496.08 
L 1369.8 -496.08 
L 1369.8 -502.778446 
L 1369.8 -502.778446 
L 1290.085714 -504.322879 
L 1210.371429 -504.726818 
L 1130.657143 -505.881302 
L 1050.942857 -500.498965 
L 971.228571 -502.859627 
L 891.514286 -503.505864 
L 811.8 -508.945644 
L 732.085714 -503.049792 
L 652.371429 -514.9226 
L 572.657143 -517.368444 
L 492.942857 -512.668875 
L 413.228571 -522.449843 
L 333.514286 -506.844419 
L 253.8 -516.28301 
z
" style="stroke: #ffffff; stroke-opacity: 0.8"/>
    </defs>
    <g clip-path="url(#p9d6070e0ec)">
     <use xlink:href="#m4caf134e1f" x="0" y="936" style="fill: #4c72b0; fill-opacity: 0.8; stroke: #ffffff; stroke-opacity: 0.8"/>
    </g>
   </g>
   <g id="PolyCollection_2">
    <defs>
     <path id="mbbaff553d4" d="M 253.8 -681.183255 
L 253.8 -516.28301 
L 333.514286 -506.844419 
L 413.228571 -522.449843 
L 492.942857 -512.668875 
L 572.657143 -517.368444 
L 652.371429 -514.9226 
L 732.085714 -503.049792 
L 811.8 -508.945644 
L 891.514286 -503.505864 
L 971.228571 -502.859627 
L 1050.942857 -500.498965 
L 1130.657143 -505.881302 
L 1210.371429 -504.726818 
L 1290.085714 -504.322879 
L 1369.8 -502.778446 
L 1369.8 -620.913258 
L 1369.8 -620.913258 
L 1290.085714 -642.764814 
L 1210.371429 -620.93153 
L 1130.657143 -637.895969 
L 1050.942857 -660.362383 
L 971.228571 -641.834917 
L 891.514286 -632.463438 
L 811.8 -634.661981 
L 732.085714 -641.928915 
L 652.371429 -751.267437 
L 572.657143 -747.0265 
L 492.942857 -736.220647 
L 413.228571 -718.312219 
L 333.514286 -756.135663 
L 253.8 -681.183255 
z
" style="stroke: #ffffff; stroke-opacity: 0.8"/>
    </defs>
    <g clip-path="url(#p9d6070e0ec)">
     <use xlink:href="#mbbaff553d4" x="0" y="936" style="fill: #dd8452; fill-opacity: 0.8; stroke: #ffffff; stroke-opacity: 0.8"/>
    </g>
   </g>
   <g id="PolyCollection_3">
    <defs>
     <path id="md6ef978b5f" d="M 253.8 -723.336563 
L 253.8 -681.183255 
L 333.514286 -756.135663 
L 413.228571 -718.312219 
L 492.942857 -736.220647 
L 572.657143 -747.0265 
L 652.371429 -751.267437 
L 732.085714 -641.928915 
L 811.8 -634.661981 
L 891.514286 -632.463438 
L 971.228571 -641.834917 
L 1050.942857 -660.362383 
L 1130.657143 -637.895969 
L 1210.371429 -620.93153 
L 1290.085714 -642.764814 
L 1369.8 -620.913258 
L 1369.8 -644.235699 
L 1369.8 -644.235699 
L 1290.085714 -664.296362 
L 1210.371429 -636.749676 
L 1130.657143 -658.455985 
L 1050.942857 -680.402045 
L 971.228571 -663.442582 
L 891.514286 -646.666966 
L 811.8 -646.834943 
L 732.085714 -655.875644 
L 652.371429 -771.874545 
L 572.657143 -769.074039 
L 492.942857 -759.561907 
L 413.228571 -740.566414 
L 333.514286 -776.734964 
L 253.8 -723.336563 
z
" style="stroke: #ffffff; stroke-opacity: 0.8"/>
    </defs>
    <g clip-path="url(#p9d6070e0ec)">
     <use xlink:href="#md6ef978b5f" x="0" y="936" style="fill: #55a868; fill-opacity: 0.8; stroke: #ffffff; stroke-opacity: 0.8"/>
    </g>
   </g>
   <g id="PolyCollection_4">
    <defs>
     <path id="m8ffe1b8af4" d="M 253.8 -786.730333 
L 253.8 -723.336563 
L 333.514286 -776.734964 
L 413.228571 -740.566414 
L 492.942857 -759.561907 
L 572.657143 -769.074039 
L 652.371429 -771.874545 
L 732.085714 -655.875644 
L 811.8 -646.834943 
L 891.514286 -646.666966 
L 971.228571 -663.442582 
L 1050.942857 -680.402045 
L 1130.657143 -658.455985 
L 1210.371429 -636.749676 
L 1290.085714 -664.296362 
L 1369.8 -644.235699 
L 1369.8 -651.49538 
L 1369.8 -651.49538 
L 1290.085714 -675.455671 
L 1210.371429 -644.597771 
L 1130.657143 -667.497307 
L 1050.942857 -688.778834 
L 971.228571 -673.780454 
L 891.514286 -658.264429 
L 811.8 -660.39544 
L 732.085714 -665.383802 
L 652.371429 -783.537075 
L 572.657143 -781.404366 
L 492.942857 -771.173834 
L 413.228571 -759.001968 
L 333.514286 -783.258076 
L 253.8 -786.730333 
z
" style="stroke: #ffffff; stroke-opacity: 0.8"/>
    </defs>
    <g clip-path="url(#p9d6070e0ec)">
     <use xlink:href="#m8ffe1b8af4" x="0" y="936" style="fill: #c44e52; fill-opacity: 0.8; stroke: #ffffff; stroke-opacity: 0.8"/>
    </g>
   </g>
   <g id="PolyCollection_5">
    <defs>
     <path id="m2d92d70cf8" d="M 253.8 -802.619727 
L 253.8 -786.730333 
L 333.514286 -783.258076 
L 413.228571 -759.001968 
L 492.942857 -771.173834 
L 572.657143 -781.404366 
L 652.371429 -783.537075 
L 732.085714 -665.383802 
L 811.8 -660.39544 
L 891.514286 -658.264429 
L 971.228571 -673.780454 
L 1050.942857 -688.778834 
L 1130.657143 -667.497307 
L 1210.371429 -644.597771 
L 1290.085714 -675.455671 
L 1369.8 -651.49538 
L 1369.8 -662.413483 
L 1369.8 -662.413483 
L 1290.085714 -683.131128 
L 1210.371429 -736.093609 
L 1130.657143 -678.134316 
L 1050.942857 -694.639318 
L 971.228571 -681.255996 
L 891.514286 -671.088164 
L 811.8 -672.55103 
L 732.085714 -674.93006 
L 652.371429 -804.179778 
L 572.657143 -803.002806 
L 492.942857 -795.808012 
L 413.228571 -799.505028 
L 333.514286 -799.912681 
L 253.8 -802.619727 
z
" style="stroke: #ffffff; stroke-opacity: 0.8"/>
    </defs>
    <g clip-path="url(#p9d6070e0ec)">
     <use xlink:href="#m2d92d70cf8" x="0" y="936" style="fill: #8172b3; fill-opacity: 0.8; stroke: #ffffff; stroke-opacity: 0.8"/>
    </g>
   </g>
   <g id="PolyCollection_6">
    <defs>
     <path id="mc89246bde9" d="M 253.8 -805.732083 
L 253.8 -802.619727 
L 333.514286 -799.912681 
L 413.228571 -799.505028 
L 492.942857 -795.808012 
L 572.657143 -803.002806 
L 652.371429 -804.179778 
L 732.085714 -674.93006 
L 811.8 -672.55103 
L 891.514286 -671.088164 
L 971.228571 -681.255996 
L 1050.942857 -694.639318 
L 1130.657143 -678.134316 
L 1210.371429 -736.093609 
L 1290.085714 -683.131128 
L 1369.8 -662.413483 
L 1369.8 -689.945188 
L 1369.8 -689.945188 
L 1290.085714 -706.956771 
L 1210.371429 -750.795261 
L 1130.657143 -706.534833 
L 1050.942857 -720.022043 
L 971.228571 -709.947877 
L 891.514286 -706.674693 
L 811.8 -707.801808 
L 732.085714 -711.055348 
L 652.371429 -806.073953 
L 572.657143 -805.214515 
L 492.942857 -799.503497 
L 413.228571 -803.332155 
L 333.514286 -803.567772 
L 253.8 -805.732083 
z
" style="stroke: #ffffff; stroke-opacity: 0.8"/>
    </defs>
    <g clip-path="url(#p9d6070e0ec)">
     <use xlink:href="#mc89246bde9" x="0" y="936" style="fill: #937860; fill-opacity: 0.8; stroke: #ffffff; stroke-opacity: 0.8"/>
    </g>
   </g>
   <g id="PolyCollection_7">
    <defs>
     <path id="ma7ab18b899" d="M 253.8 -808.08 
L 253.8 -805.732083 
L 333.514286 -803.567772 
L 413.228571 -803.332155 
L 492.942857 -799.503497 
L 572.657143 -805.214515 
L 652.371429 -806.073953 
L 732.085714 -711.055348 
L 811.8 -707.801808 
L 891.514286 -706.674693 
L 971.228571 -709.947877 
L 1050.942857 -720.022043 
L 1130.657143 -706.534833 
L 1210.371429 -750.795261 
L 1290.085714 -706.956771 
L 1369.8 -689.945188 
L 1369.8 -808.08 
L 1369.8 -808.08 
L 1290.085714 -808.08 
L 1210.371429 -808.08 
L 1130.657143 -808.08 
L 1050.942857 -808.08 
L 971.228571 -808.08 
L 891.514286 -808.08 
L 811.8 -808.08 
L 732.085714 -808.08 
L 652.371429 -808.08 
L 572.657143 -808.08 
L 492.942857 -808.08 
L 413.228571 -808.08 
L 333.514286 -808.08 
L 253.8 -808.08 
z
" style="stroke: #ffffff; stroke-opacity: 0.8"/>
    </defs>
    <g clip-path="url(#p9d6070e0ec)">
     <use xlink:href="#ma7ab18b899" x="0" y="936" style="fill: #da8bc3; fill-opacity: 0.8; stroke: #ffffff; stroke-opacity: 0.8"/>
    </g>
   </g>
   <g id="patch_3">
    <path d="M 198 439.92 
L 198 112.32 
" style="fill: none; stroke: #262626; stroke-width: 1.25; stroke-linejoin: miter; stroke-linecap: square"/>
   </g>
   <g id="patch_4">
    <path d="M 1425.6 439.92 
L 1425.6 112.32 
" style="fill: none; stroke: #262626; stroke-width: 1.25; stroke-linejoin: miter; stroke-linecap: square"/>
   </g>
   <g id="patch_5">
    <path d="M 198 439.92 
L 1425.6 439.92 
" style="fill: none; stroke: #262626; stroke-width: 1.25; stroke-linejoin: miter; stroke-linecap: square"/>
   </g>
   <g id="patch_6">
    <path d="M 198 112.32 
L 1425.6 112.32 
" style="fill: none; stroke: #262626; stroke-width: 1.25; stroke-linejoin: miter; stroke-linecap: square"/>
   </g>
   <g id="text_24">
    <!-- Number of Tweets per Language per Month in Percent for Topic 9 -->
    <g style="fill: #262626" transform="translate(637.928438 106.32) scale(0.12 -0.12)">
     <defs>
      <path id="ArialMT-4c" d="M 469 0 
L 469 4581 
L 1075 4581 
L 1075 541 
L 3331 541 
L 3331 0 
L 469 0 
z
" transform="scale(0.015625)"/>
      <path id="ArialMT-61" d="M 2588 409 
Q 2275 144 1986 34 
Q 1697 -75 1366 -75 
Q 819 -75 525 192 
Q 231 459 231 875 
Q 231 1119 342 1320 
Q 453 1522 633 1644 
Q 813 1766 1038 1828 
Q 1203 1872 1538 1913 
Q 2219 1994 2541 2106 
Q 2544 2222 2544 2253 
Q 2544 2597 2384 2738 
Q 2169 2928 1744 2928 
Q 1347 2928 1158 2789 
Q 969 2650 878 2297 
L 328 2372 
Q 403 2725 575 2942 
Q 747 3159 1072 3276 
Q 1397 3394 1825 3394 
Q 2250 3394 2515 3294 
Q 2781 3194 2906 3042 
Q 3031 2891 3081 2659 
Q 3109 2516 3109 2141 
L 3109 1391 
Q 3109 606 3145 398 
Q 3181 191 3288 0 
L 2700 0 
Q 2613 175 2588 409 
z
M 2541 1666 
Q 2234 1541 1622 1453 
Q 1275 1403 1131 1340 
Q 988 1278 909 1158 
Q 831 1038 831 891 
Q 831 666 1001 516 
Q 1172 366 1500 366 
Q 1825 366 2078 508 
Q 2331 650 2450 897 
Q 2541 1088 2541 1459 
L 2541 1666 
z
" transform="scale(0.015625)"/>
      <path id="ArialMT-67" d="M 319 -275 
L 866 -356 
Q 900 -609 1056 -725 
Q 1266 -881 1628 -881 
Q 2019 -881 2231 -725 
Q 2444 -569 2519 -288 
Q 2563 -116 2559 434 
Q 2191 0 1641 0 
Q 956 0 581 494 
Q 206 988 206 1678 
Q 206 2153 378 2554 
Q 550 2956 876 3175 
Q 1203 3394 1644 3394 
Q 2231 3394 2613 2919 
L 2613 3319 
L 3131 3319 
L 3131 450 
Q 3131 -325 2973 -648 
Q 2816 -972 2473 -1159 
Q 2131 -1347 1631 -1347 
Q 1038 -1347 672 -1080 
Q 306 -813 319 -275 
z
M 784 1719 
Q 784 1066 1043 766 
Q 1303 466 1694 466 
Q 2081 466 2343 764 
Q 2606 1063 2606 1700 
Q 2606 2309 2336 2618 
Q 2066 2928 1684 2928 
Q 1309 2928 1046 2623 
Q 784 2319 784 1719 
z
" transform="scale(0.015625)"/>
      <path id="ArialMT-50" d="M 494 0 
L 494 4581 
L 2222 4581 
Q 2678 4581 2919 4538 
Q 3256 4481 3484 4323 
Q 3713 4166 3852 3881 
Q 3991 3597 3991 3256 
Q 3991 2672 3619 2267 
Q 3247 1863 2275 1863 
L 1100 1863 
L 1100 0 
L 494 0 
z
M 1100 2403 
L 2284 2403 
Q 2872 2403 3119 2622 
Q 3366 2841 3366 3238 
Q 3366 3525 3220 3729 
Q 3075 3934 2838 4000 
Q 2684 4041 2272 4041 
L 1100 4041 
L 1100 2403 
z
" transform="scale(0.015625)"/>
      <path id="ArialMT-63" d="M 2588 1216 
L 3141 1144 
Q 3050 572 2676 248 
Q 2303 -75 1759 -75 
Q 1078 -75 664 370 
Q 250 816 250 1647 
Q 250 2184 428 2587 
Q 606 2991 970 3192 
Q 1334 3394 1763 3394 
Q 2303 3394 2647 3120 
Q 2991 2847 3088 2344 
L 2541 2259 
Q 2463 2594 2264 2762 
Q 2066 2931 1784 2931 
Q 1359 2931 1093 2626 
Q 828 2322 828 1663 
Q 828 994 1084 691 
Q 1341 388 1753 388 
Q 2084 388 2306 591 
Q 2528 794 2588 1216 
z
" transform="scale(0.015625)"/>
     </defs>
     <use xlink:href="#ArialMT-4e"/>
     <use xlink:href="#ArialMT-75" x="72.216797"/>
     <use xlink:href="#ArialMT-6d" x="127.832031"/>
     <use xlink:href="#ArialMT-62" x="211.132812"/>
     <use xlink:href="#ArialMT-65" x="266.748047"/>
     <use xlink:href="#ArialMT-72" x="322.363281"/>
     <use xlink:href="#ArialMT-20" x="355.664062"/>
     <use xlink:href="#ArialMT-6f" x="383.447266"/>
     <use xlink:href="#ArialMT-66" x="439.0625"/>
     <use xlink:href="#ArialMT-20" x="466.845703"/>
     <use xlink:href="#ArialMT-54" x="492.878906"/>
     <use xlink:href="#ArialMT-77" x="548.462891"/>
     <use xlink:href="#ArialMT-65" x="620.679688"/>
     <use xlink:href="#ArialMT-65" x="676.294922"/>
     <use xlink:href="#ArialMT-74" x="731.910156"/>
     <use xlink:href="#ArialMT-73" x="759.693359"/>
     <use xlink:href="#ArialMT-20" x="809.693359"/>
     <use xlink:href="#ArialMT-70" x="837.476562"/>
     <use xlink:href="#ArialMT-65" x="893.091797"/>
     <use xlink:href="#ArialMT-72" x="948.707031"/>
     <use xlink:href="#ArialMT-20" x="982.007812"/>
     <use xlink:href="#ArialMT-4c" x="1009.791016"/>
     <use xlink:href="#ArialMT-61" x="1065.40625"/>
     <use xlink:href="#ArialMT-6e" x="1121.021484"/>
     <use xlink:href="#ArialMT-67" x="1176.636719"/>
     <use xlink:href="#ArialMT-75" x="1232.251953"/>
     <use xlink:href="#ArialMT-61" x="1287.867188"/>
     <use xlink:href="#ArialMT-67" x="1343.482422"/>
     <use xlink:href="#ArialMT-65" x="1399.097656"/>
     <use xlink:href="#ArialMT-20" x="1454.712891"/>
     <use xlink:href="#ArialMT-70" x="1482.496094"/>
     <use xlink:href="#ArialMT-65" x="1538.111328"/>
     <use xlink:href="#ArialMT-72" x="1593.726562"/>
     <use xlink:href="#ArialMT-20" x="1627.027344"/>
     <use xlink:href="#ArialMT-4d" x="1654.810547"/>
     <use xlink:href="#ArialMT-6f" x="1738.111328"/>
     <use xlink:href="#ArialMT-6e" x="1793.726562"/>
     <use xlink:href="#ArialMT-74" x="1849.341797"/>
     <use xlink:href="#ArialMT-68" x="1877.125"/>
     <use xlink:href="#ArialMT-20" x="1932.740234"/>
     <use xlink:href="#ArialMT-69" x="1960.523438"/>
     <use xlink:href="#ArialMT-6e" x="1982.740234"/>
     <use xlink:href="#ArialMT-20" x="2038.355469"/>
     <use xlink:href="#ArialMT-50" x="2066.138672"/>
     <use xlink:href="#ArialMT-65" x="2132.837891"/>
     <use xlink:href="#ArialMT-72" x="2188.453125"/>
     <use xlink:href="#ArialMT-63" x="2221.753906"/>
     <use xlink:href="#ArialMT-65" x="2271.753906"/>
     <use xlink:href="#ArialMT-6e" x="2327.369141"/>
     <use xlink:href="#ArialMT-74" x="2382.984375"/>
     <use xlink:href="#ArialMT-20" x="2410.767578"/>
     <use xlink:href="#ArialMT-66" x="2438.550781"/>
     <use xlink:href="#ArialMT-6f" x="2466.333984"/>
     <use xlink:href="#ArialMT-72" x="2521.949219"/>
     <use xlink:href="#ArialMT-20" x="2555.25"/>
     <use xlink:href="#ArialMT-54" x="2581.283203"/>
     <use xlink:href="#ArialMT-6f" x="2631.242188"/>
     <use xlink:href="#ArialMT-70" x="2686.857422"/>
     <use xlink:href="#ArialMT-69" x="2742.472656"/>
     <use xlink:href="#ArialMT-63" x="2764.689453"/>
     <use xlink:href="#ArialMT-20" x="2814.689453"/>
     <use xlink:href="#ArialMT-39" x="2842.472656"/>
    </g>
   </g>
   <g id="legend_1">
    <g id="patch_7">
     <path d="M 205.7 230.038906 
L 253.134063 230.038906 
Q 255.334063 230.038906 255.334063 227.838906 
L 255.334063 120.02 
Q 255.334063 117.82 253.134063 117.82 
L 205.7 117.82 
Q 203.5 117.82 203.5 120.02 
L 203.5 227.838906 
Q 203.5 230.038906 205.7 230.038906 
z
" style="fill: #ffffff; opacity: 0.8; stroke: #cccccc; stroke-linejoin: miter"/>
    </g>
    <g id="patch_8">
     <path d="M 207.9 130.093594 
L 229.9 130.093594 
L 229.9 122.393594 
L 207.9 122.393594 
z
" style="fill: #4c72b0; fill-opacity: 0.8; stroke: #ffffff; stroke-opacity: 0.8; stroke-linejoin: miter"/>
    </g>
    <g id="text_25">
     <!-- de -->
     <g style="fill: #262626" transform="translate(238.7 130.093594) scale(0.11 -0.11)">
      <defs>
       <path id="ArialMT-64" d="M 2575 0 
L 2575 419 
Q 2259 -75 1647 -75 
Q 1250 -75 917 144 
Q 584 363 401 755 
Q 219 1147 219 1656 
Q 219 2153 384 2558 
Q 550 2963 881 3178 
Q 1213 3394 1622 3394 
Q 1922 3394 2156 3267 
Q 2391 3141 2538 2938 
L 2538 4581 
L 3097 4581 
L 3097 0 
L 2575 0 
z
M 797 1656 
Q 797 1019 1065 703 
Q 1334 388 1700 388 
Q 2069 388 2326 689 
Q 2584 991 2584 1609 
Q 2584 2291 2321 2609 
Q 2059 2928 1675 2928 
Q 1300 2928 1048 2622 
Q 797 2316 797 1656 
z
" transform="scale(0.015625)"/>
      </defs>
      <use xlink:href="#ArialMT-64"/>
      <use xlink:href="#ArialMT-65" x="55.615234"/>
     </g>
    </g>
    <g id="patch_9">
     <path d="M 207.9 145.653438 
L 229.9 145.653438 
L 229.9 137.953438 
L 207.9 137.953438 
z
" style="fill: #dd8452; fill-opacity: 0.8; stroke: #ffffff; stroke-opacity: 0.8; stroke-linejoin: miter"/>
    </g>
    <g id="text_26">
     <!-- en -->
     <g style="fill: #262626" transform="translate(238.7 145.653438) scale(0.11 -0.11)">
      <use xlink:href="#ArialMT-65"/>
      <use xlink:href="#ArialMT-6e" x="55.615234"/>
     </g>
    </g>
    <g id="patch_10">
     <path d="M 207.9 161.213281 
L 229.9 161.213281 
L 229.9 153.513281 
L 207.9 153.513281 
z
" style="fill: #55a868; fill-opacity: 0.8; stroke: #ffffff; stroke-opacity: 0.8; stroke-linejoin: miter"/>
    </g>
    <g id="text_27">
     <!-- es -->
     <g style="fill: #262626" transform="translate(238.7 161.213281) scale(0.11 -0.11)">
      <use xlink:href="#ArialMT-65"/>
      <use xlink:href="#ArialMT-73" x="55.615234"/>
     </g>
    </g>
    <g id="patch_11">
     <path d="M 207.9 176.773125 
L 229.9 176.773125 
L 229.9 169.073125 
L 207.9 169.073125 
z
" style="fill: #c44e52; fill-opacity: 0.8; stroke: #ffffff; stroke-opacity: 0.8; stroke-linejoin: miter"/>
    </g>
    <g id="text_28">
     <!-- fr -->
     <g style="fill: #262626" transform="translate(238.7 176.773125) scale(0.11 -0.11)">
      <use xlink:href="#ArialMT-66"/>
      <use xlink:href="#ArialMT-72" x="27.783203"/>
     </g>
    </g>
    <g id="patch_12">
     <path d="M 207.9 192.332969 
L 229.9 192.332969 
L 229.9 184.632969 
L 207.9 184.632969 
z
" style="fill: #8172b3; fill-opacity: 0.8; stroke: #ffffff; stroke-opacity: 0.8; stroke-linejoin: miter"/>
    </g>
    <g id="text_29">
     <!-- it -->
     <g style="fill: #262626" transform="translate(238.7 192.332969) scale(0.11 -0.11)">
      <use xlink:href="#ArialMT-69"/>
      <use xlink:href="#ArialMT-74" x="22.216797"/>
     </g>
    </g>
    <g id="patch_13">
     <path d="M 207.9 207.892813 
L 229.9 207.892813 
L 229.9 200.192813 
L 207.9 200.192813 
z
" style="fill: #937860; fill-opacity: 0.8; stroke: #ffffff; stroke-opacity: 0.8; stroke-linejoin: miter"/>
    </g>
    <g id="text_30">
     <!-- ru -->
     <g style="fill: #262626" transform="translate(238.7 207.892813) scale(0.11 -0.11)">
      <use xlink:href="#ArialMT-72"/>
      <use xlink:href="#ArialMT-75" x="33.300781"/>
     </g>
    </g>
    <g id="patch_14">
     <path d="M 207.9 223.452656 
L 229.9 223.452656 
L 229.9 215.752656 
L 207.9 215.752656 
z
" style="fill: #da8bc3; fill-opacity: 0.8; stroke: #ffffff; stroke-opacity: 0.8; stroke-linejoin: miter"/>
    </g>
    <g id="text_31">
     <!-- uk -->
     <g style="fill: #262626" transform="translate(238.7 223.452656) scale(0.11 -0.11)">
      <use xlink:href="#ArialMT-75"/>
      <use xlink:href="#ArialMT-6b" x="55.615234"/>
     </g>
    </g>
   </g>
  </g>
  <g id="axes_2">
   <g id="patch_15">
    <path d="M 198 833.04 
L 1425.6 833.04 
L 1425.6 505.44 
L 198 505.44 
z
" style="fill: #ffffff"/>
   </g>
   <g id="matplotlib.axis_3">
    <g id="xtick_16">
     <g id="text_32">
      <!-- 2022-02 -->
      <g style="fill: #262626" transform="translate(233.617578 850.413594) scale(0.11 -0.11)">
       <use xlink:href="#ArialMT-32"/>
       <use xlink:href="#ArialMT-30" x="55.615234"/>
       <use xlink:href="#ArialMT-32" x="111.230469"/>
       <use xlink:href="#ArialMT-32" x="166.845703"/>
       <use xlink:href="#ArialMT-2d" x="222.460938"/>
       <use xlink:href="#ArialMT-30" x="255.761719"/>
       <use xlink:href="#ArialMT-32" x="311.376953"/>
      </g>
     </g>
    </g>
    <g id="xtick_17">
     <g id="text_33">
      <!-- 2022-03 -->
      <g style="fill: #262626" transform="translate(313.331864 850.413594) scale(0.11 -0.11)">
       <use xlink:href="#ArialMT-32"/>
       <use xlink:href="#ArialMT-30" x="55.615234"/>
       <use xlink:href="#ArialMT-32" x="111.230469"/>
       <use xlink:href="#ArialMT-32" x="166.845703"/>
       <use xlink:href="#ArialMT-2d" x="222.460938"/>
       <use xlink:href="#ArialMT-30" x="255.761719"/>
       <use xlink:href="#ArialMT-33" x="311.376953"/>
      </g>
     </g>
    </g>
    <g id="xtick_18">
     <g id="text_34">
      <!-- 2022-04 -->
      <g style="fill: #262626" transform="translate(393.04615 850.413594) scale(0.11 -0.11)">
       <use xlink:href="#ArialMT-32"/>
       <use xlink:href="#ArialMT-30" x="55.615234"/>
       <use xlink:href="#ArialMT-32" x="111.230469"/>
       <use xlink:href="#ArialMT-32" x="166.845703"/>
       <use xlink:href="#ArialMT-2d" x="222.460938"/>
       <use xlink:href="#ArialMT-30" x="255.761719"/>
       <use xlink:href="#ArialMT-34" x="311.376953"/>
      </g>
     </g>
    </g>
    <g id="xtick_19">
     <g id="text_35">
      <!-- 2022-05 -->
      <g style="fill: #262626" transform="translate(472.760435 850.413594) scale(0.11 -0.11)">
       <use xlink:href="#ArialMT-32"/>
       <use xlink:href="#ArialMT-30" x="55.615234"/>
       <use xlink:href="#ArialMT-32" x="111.230469"/>
       <use xlink:href="#ArialMT-32" x="166.845703"/>
       <use xlink:href="#ArialMT-2d" x="222.460938"/>
       <use xlink:href="#ArialMT-30" x="255.761719"/>
       <use xlink:href="#ArialMT-35" x="311.376953"/>
      </g>
     </g>
    </g>
    <g id="xtick_20">
     <g id="text_36">
      <!-- 2022-06 -->
      <g style="fill: #262626" transform="translate(552.474721 850.413594) scale(0.11 -0.11)">
       <use xlink:href="#ArialMT-32"/>
       <use xlink:href="#ArialMT-30" x="55.615234"/>
       <use xlink:href="#ArialMT-32" x="111.230469"/>
       <use xlink:href="#ArialMT-32" x="166.845703"/>
       <use xlink:href="#ArialMT-2d" x="222.460938"/>
       <use xlink:href="#ArialMT-30" x="255.761719"/>
       <use xlink:href="#ArialMT-36" x="311.376953"/>
      </g>
     </g>
    </g>
    <g id="xtick_21">
     <g id="text_37">
      <!-- 2022-07 -->
      <g style="fill: #262626" transform="translate(632.189007 850.413594) scale(0.11 -0.11)">
       <use xlink:href="#ArialMT-32"/>
       <use xlink:href="#ArialMT-30" x="55.615234"/>
       <use xlink:href="#ArialMT-32" x="111.230469"/>
       <use xlink:href="#ArialMT-32" x="166.845703"/>
       <use xlink:href="#ArialMT-2d" x="222.460938"/>
       <use xlink:href="#ArialMT-30" x="255.761719"/>
       <use xlink:href="#ArialMT-37" x="311.376953"/>
      </g>
     </g>
    </g>
    <g id="xtick_22">
     <g id="text_38">
      <!-- 2022-08 -->
      <g style="fill: #262626" transform="translate(711.903292 850.413594) scale(0.11 -0.11)">
       <use xlink:href="#ArialMT-32"/>
       <use xlink:href="#ArialMT-30" x="55.615234"/>
       <use xlink:href="#ArialMT-32" x="111.230469"/>
       <use xlink:href="#ArialMT-32" x="166.845703"/>
       <use xlink:href="#ArialMT-2d" x="222.460938"/>
       <use xlink:href="#ArialMT-30" x="255.761719"/>
       <use xlink:href="#ArialMT-38" x="311.376953"/>
      </g>
     </g>
    </g>
    <g id="xtick_23">
     <g id="text_39">
      <!-- 2022-09 -->
      <g style="fill: #262626" transform="translate(791.617578 850.413594) scale(0.11 -0.11)">
       <use xlink:href="#ArialMT-32"/>
       <use xlink:href="#ArialMT-30" x="55.615234"/>
       <use xlink:href="#ArialMT-32" x="111.230469"/>
       <use xlink:href="#ArialMT-32" x="166.845703"/>
       <use xlink:href="#ArialMT-2d" x="222.460938"/>
       <use xlink:href="#ArialMT-30" x="255.761719"/>
       <use xlink:href="#ArialMT-39" x="311.376953"/>
      </g>
     </g>
    </g>
    <g id="xtick_24">
     <g id="text_40">
      <!-- 2022-10 -->
      <g style="fill: #262626" transform="translate(871.331864 850.413594) scale(0.11 -0.11)">
       <use xlink:href="#ArialMT-32"/>
       <use xlink:href="#ArialMT-30" x="55.615234"/>
       <use xlink:href="#ArialMT-32" x="111.230469"/>
       <use xlink:href="#ArialMT-32" x="166.845703"/>
       <use xlink:href="#ArialMT-2d" x="222.460938"/>
       <use xlink:href="#ArialMT-31" x="255.761719"/>
       <use xlink:href="#ArialMT-30" x="311.376953"/>
      </g>
     </g>
    </g>
    <g id="xtick_25">
     <g id="text_41">
      <!-- 2022-11 -->
      <g style="fill: #262626" transform="translate(951.451775 850.413594) scale(0.11 -0.11)">
       <use xlink:href="#ArialMT-32"/>
       <use xlink:href="#ArialMT-30" x="55.615234"/>
       <use xlink:href="#ArialMT-32" x="111.230469"/>
       <use xlink:href="#ArialMT-32" x="166.845703"/>
       <use xlink:href="#ArialMT-2d" x="222.460938"/>
       <use xlink:href="#ArialMT-31" x="255.761719"/>
       <use xlink:href="#ArialMT-31" x="304.001953"/>
      </g>
     </g>
    </g>
    <g id="xtick_26">
     <g id="text_42">
      <!-- 2022-12 -->
      <g style="fill: #262626" transform="translate(1030.760435 850.413594) scale(0.11 -0.11)">
       <use xlink:href="#ArialMT-32"/>
       <use xlink:href="#ArialMT-30" x="55.615234"/>
       <use xlink:href="#ArialMT-32" x="111.230469"/>
       <use xlink:href="#ArialMT-32" x="166.845703"/>
       <use xlink:href="#ArialMT-2d" x="222.460938"/>
       <use xlink:href="#ArialMT-31" x="255.761719"/>
       <use xlink:href="#ArialMT-32" x="311.376953"/>
      </g>
     </g>
    </g>
    <g id="xtick_27">
     <g id="text_43">
      <!-- 2023-01 -->
      <g style="fill: #262626" transform="translate(1110.474721 850.413594) scale(0.11 -0.11)">
       <use xlink:href="#ArialMT-32"/>
       <use xlink:href="#ArialMT-30" x="55.615234"/>
       <use xlink:href="#ArialMT-32" x="111.230469"/>
       <use xlink:href="#ArialMT-33" x="166.845703"/>
       <use xlink:href="#ArialMT-2d" x="222.460938"/>
       <use xlink:href="#ArialMT-30" x="255.761719"/>
       <use xlink:href="#ArialMT-31" x="311.376953"/>
      </g>
     </g>
    </g>
    <g id="xtick_28">
     <g id="text_44">
      <!-- 2023-02 -->
      <g style="fill: #262626" transform="translate(1190.189007 850.413594) scale(0.11 -0.11)">
       <use xlink:href="#ArialMT-32"/>
       <use xlink:href="#ArialMT-30" x="55.615234"/>
       <use xlink:href="#ArialMT-32" x="111.230469"/>
       <use xlink:href="#ArialMT-33" x="166.845703"/>
       <use xlink:href="#ArialMT-2d" x="222.460938"/>
       <use xlink:href="#ArialMT-30" x="255.761719"/>
       <use xlink:href="#ArialMT-32" x="311.376953"/>
      </g>
     </g>
    </g>
    <g id="xtick_29">
     <g id="text_45">
      <!-- 2023-03 -->
      <g style="fill: #262626" transform="translate(1269.903292 850.413594) scale(0.11 -0.11)">
       <use xlink:href="#ArialMT-32"/>
       <use xlink:href="#ArialMT-30" x="55.615234"/>
       <use xlink:href="#ArialMT-32" x="111.230469"/>
       <use xlink:href="#ArialMT-33" x="166.845703"/>
       <use xlink:href="#ArialMT-2d" x="222.460938"/>
       <use xlink:href="#ArialMT-30" x="255.761719"/>
       <use xlink:href="#ArialMT-33" x="311.376953"/>
      </g>
     </g>
    </g>
    <g id="xtick_30">
     <g id="text_46">
      <!-- 2023-04 -->
      <g style="fill: #262626" transform="translate(1349.617578 850.413594) scale(0.11 -0.11)">
       <use xlink:href="#ArialMT-32"/>
       <use xlink:href="#ArialMT-30" x="55.615234"/>
       <use xlink:href="#ArialMT-32" x="111.230469"/>
       <use xlink:href="#ArialMT-33" x="166.845703"/>
       <use xlink:href="#ArialMT-2d" x="222.460938"/>
       <use xlink:href="#ArialMT-30" x="255.761719"/>
       <use xlink:href="#ArialMT-34" x="311.376953"/>
      </g>
     </g>
    </g>
    <g id="text_47">
     <!-- Month -->
     <g style="fill: #262626" transform="translate(795.125625 865.189219) scale(0.12 -0.12)">
      <use xlink:href="#ArialMT-4d"/>
      <use xlink:href="#ArialMT-6f" x="83.300781"/>
      <use xlink:href="#ArialMT-6e" x="138.916016"/>
      <use xlink:href="#ArialMT-74" x="194.53125"/>
      <use xlink:href="#ArialMT-68" x="222.314453"/>
     </g>
    </g>
   </g>
   <g id="matplotlib.axis_4">
    <g id="ytick_7">
     <g id="text_48">
      <!-- 0 -->
      <g style="fill: #262626" transform="translate(182.382969 836.976797) scale(0.11 -0.11)">
       <use xlink:href="#ArialMT-30"/>
      </g>
     </g>
    </g>
    <g id="ytick_8">
     <g id="text_49">
      <!-- 50000 -->
      <g style="fill: #262626" transform="translate(157.914844 765.386623) scale(0.11 -0.11)">
       <use xlink:href="#ArialMT-35"/>
       <use xlink:href="#ArialMT-30" x="55.615234"/>
       <use xlink:href="#ArialMT-30" x="111.230469"/>
       <use xlink:href="#ArialMT-30" x="166.845703"/>
       <use xlink:href="#ArialMT-30" x="222.460938"/>
      </g>
     </g>
    </g>
    <g id="ytick_9">
     <g id="text_50">
      <!-- 100000 -->
      <g style="fill: #262626" transform="translate(151.797812 693.796449) scale(0.11 -0.11)">
       <use xlink:href="#ArialMT-31"/>
       <use xlink:href="#ArialMT-30" x="55.615234"/>
       <use xlink:href="#ArialMT-30" x="111.230469"/>
       <use xlink:href="#ArialMT-30" x="166.845703"/>
       <use xlink:href="#ArialMT-30" x="222.460938"/>
       <use xlink:href="#ArialMT-30" x="278.076172"/>
      </g>
     </g>
    </g>
    <g id="ytick_10">
     <g id="text_51">
      <!-- 150000 -->
      <g style="fill: #262626" transform="translate(151.797812 622.206276) scale(0.11 -0.11)">
       <use xlink:href="#ArialMT-31"/>
       <use xlink:href="#ArialMT-35" x="55.615234"/>
       <use xlink:href="#ArialMT-30" x="111.230469"/>
       <use xlink:href="#ArialMT-30" x="166.845703"/>
       <use xlink:href="#ArialMT-30" x="222.460938"/>
       <use xlink:href="#ArialMT-30" x="278.076172"/>
      </g>
     </g>
    </g>
    <g id="ytick_11">
     <g id="text_52">
      <!-- 200000 -->
      <g style="fill: #262626" transform="translate(151.797812 550.616102) scale(0.11 -0.11)">
       <use xlink:href="#ArialMT-32"/>
       <use xlink:href="#ArialMT-30" x="55.615234"/>
       <use xlink:href="#ArialMT-30" x="111.230469"/>
       <use xlink:href="#ArialMT-30" x="166.845703"/>
       <use xlink:href="#ArialMT-30" x="222.460938"/>
       <use xlink:href="#ArialMT-30" x="278.076172"/>
      </g>
     </g>
    </g>
    <g id="text_53">
     <!-- Number of Sentiment Labelled Tweets per Week -->
     <g style="fill: #262626" transform="translate(145.412812 798.087188) rotate(-90) scale(0.12 -0.12)">
      <defs>
       <path id="ArialMT-53" d="M 288 1472 
L 859 1522 
Q 900 1178 1048 958 
Q 1197 738 1509 602 
Q 1822 466 2213 466 
Q 2559 466 2825 569 
Q 3091 672 3220 851 
Q 3350 1031 3350 1244 
Q 3350 1459 3225 1620 
Q 3100 1781 2813 1891 
Q 2628 1963 1997 2114 
Q 1366 2266 1113 2400 
Q 784 2572 623 2826 
Q 463 3081 463 3397 
Q 463 3744 659 4045 
Q 856 4347 1234 4503 
Q 1613 4659 2075 4659 
Q 2584 4659 2973 4495 
Q 3363 4331 3572 4012 
Q 3781 3694 3797 3291 
L 3216 3247 
Q 3169 3681 2898 3903 
Q 2628 4125 2100 4125 
Q 1550 4125 1298 3923 
Q 1047 3722 1047 3438 
Q 1047 3191 1225 3031 
Q 1400 2872 2139 2705 
Q 2878 2538 3153 2413 
Q 3553 2228 3743 1945 
Q 3934 1663 3934 1294 
Q 3934 928 3725 604 
Q 3516 281 3123 101 
Q 2731 -78 2241 -78 
Q 1619 -78 1198 103 
Q 778 284 539 648 
Q 300 1013 288 1472 
z
" transform="scale(0.015625)"/>
       <path id="ArialMT-6c" d="M 409 0 
L 409 4581 
L 972 4581 
L 972 0 
L 409 0 
z
" transform="scale(0.015625)"/>
      </defs>
      <use xlink:href="#ArialMT-4e"/>
      <use xlink:href="#ArialMT-75" x="72.216797"/>
      <use xlink:href="#ArialMT-6d" x="127.832031"/>
      <use xlink:href="#ArialMT-62" x="211.132812"/>
      <use xlink:href="#ArialMT-65" x="266.748047"/>
      <use xlink:href="#ArialMT-72" x="322.363281"/>
      <use xlink:href="#ArialMT-20" x="355.664062"/>
      <use xlink:href="#ArialMT-6f" x="383.447266"/>
      <use xlink:href="#ArialMT-66" x="439.0625"/>
      <use xlink:href="#ArialMT-20" x="466.845703"/>
      <use xlink:href="#ArialMT-53" x="494.628906"/>
      <use xlink:href="#ArialMT-65" x="561.328125"/>
      <use xlink:href="#ArialMT-6e" x="616.943359"/>
      <use xlink:href="#ArialMT-74" x="672.558594"/>
      <use xlink:href="#ArialMT-69" x="700.341797"/>
      <use xlink:href="#ArialMT-6d" x="722.558594"/>
      <use xlink:href="#ArialMT-65" x="805.859375"/>
      <use xlink:href="#ArialMT-6e" x="861.474609"/>
      <use xlink:href="#ArialMT-74" x="917.089844"/>
      <use xlink:href="#ArialMT-20" x="944.873047"/>
      <use xlink:href="#ArialMT-4c" x="972.65625"/>
      <use xlink:href="#ArialMT-61" x="1028.271484"/>
      <use xlink:href="#ArialMT-62" x="1083.886719"/>
      <use xlink:href="#ArialMT-65" x="1139.501953"/>
      <use xlink:href="#ArialMT-6c" x="1195.117188"/>
      <use xlink:href="#ArialMT-6c" x="1217.333984"/>
      <use xlink:href="#ArialMT-65" x="1239.550781"/>
      <use xlink:href="#ArialMT-64" x="1295.166016"/>
      <use xlink:href="#ArialMT-20" x="1350.78125"/>
      <use xlink:href="#ArialMT-54" x="1376.814453"/>
      <use xlink:href="#ArialMT-77" x="1432.398438"/>
      <use xlink:href="#ArialMT-65" x="1504.615234"/>
      <use xlink:href="#ArialMT-65" x="1560.230469"/>
      <use xlink:href="#ArialMT-74" x="1615.845703"/>
      <use xlink:href="#ArialMT-73" x="1643.628906"/>
      <use xlink:href="#ArialMT-20" x="1693.628906"/>
      <use xlink:href="#ArialMT-70" x="1721.412109"/>
      <use xlink:href="#ArialMT-65" x="1777.027344"/>
      <use xlink:href="#ArialMT-72" x="1832.642578"/>
      <use xlink:href="#ArialMT-20" x="1865.943359"/>
      <use xlink:href="#ArialMT-57" x="1893.726562"/>
      <use xlink:href="#ArialMT-65" x="1986.361328"/>
      <use xlink:href="#ArialMT-65" x="2041.976562"/>
      <use xlink:href="#ArialMT-6b" x="2097.591797"/>
     </g>
    </g>
   </g>
   <g id="PolyCollection_8">
    <defs>
     <path id="ma7944c611d" d="M 253.8 -105.741994 
L 253.8 -102.96 
L 333.514286 -102.96 
L 413.228571 -102.96 
L 492.942857 -102.96 
L 572.657143 -102.96 
L 652.371429 -102.96 
L 732.085714 -102.96 
L 811.8 -102.96 
L 891.514286 -102.96 
L 971.228571 -102.96 
L 1050.942857 -102.96 
L 1130.657143 -102.96 
L 1210.371429 -102.96 
L 1290.085714 -102.96 
L 1369.8 -102.96 
L 1369.8 -120.173141 
L 1369.8 -120.173141 
L 1290.085714 -133.307075 
L 1210.371429 -167.477065 
L 1130.657143 -137.397737 
L 1050.942857 -147.602201 
L 971.228571 -153.435368 
L 891.514286 -156.205908 
L 811.8 -152.332879 
L 732.085714 -143.991192 
L 652.371429 -140.557727 
L 572.657143 -147.826994 
L 492.942857 -166.191305 
L 413.228571 -134.398109 
L 333.514286 -145.464518 
L 253.8 -105.741994 
z
" style="stroke: #ffffff; stroke-opacity: 0.8"/>
    </defs>
    <g clip-path="url(#pa963e72001)">
     <use xlink:href="#ma7944c611d" x="0" y="936" style="fill: #4c72b0; fill-opacity: 0.8; stroke: #ffffff; stroke-opacity: 0.8"/>
    </g>
   </g>
   <g id="PolyCollection_9">
    <defs>
     <path id="mc45f037aae" d="M 253.8 -109.510501 
L 253.8 -105.741994 
L 333.514286 -145.464518 
L 413.228571 -134.398109 
L 492.942857 -166.191305 
L 572.657143 -147.826994 
L 652.371429 -140.557727 
L 732.085714 -143.991192 
L 811.8 -152.332879 
L 891.514286 -156.205908 
L 971.228571 -153.435368 
L 1050.942857 -147.602201 
L 1130.657143 -137.397737 
L 1210.371429 -167.477065 
L 1290.085714 -133.307075 
L 1369.8 -120.173141 
L 1369.8 -162.763568 
L 1369.8 -162.763568 
L 1290.085714 -205.193632 
L 1210.371429 -278.238518 
L 1130.657143 -212.830872 
L 1050.942857 -253.935086 
L 971.228571 -258.226201 
L 891.514286 -265.740305 
L 811.8 -248.477051 
L 732.085714 -234.406718 
L 652.371429 -235.570774 
L 572.657143 -279.797752 
L 492.942857 -333.484655 
L 413.228571 -181.51017 
L 333.514286 -219.706392 
L 253.8 -109.510501 
z
" style="stroke: #ffffff; stroke-opacity: 0.8"/>
    </defs>
    <g clip-path="url(#pa963e72001)">
     <use xlink:href="#mc45f037aae" x="0" y="936" style="fill: #dd8452; fill-opacity: 0.8; stroke: #ffffff; stroke-opacity: 0.8"/>
    </g>
   </g>
   <g id="PolyCollection_10">
    <defs>
     <path id="m70a99f6673" d="M 253.8 -111.141325 
L 253.8 -109.510501 
L 333.514286 -219.706392 
L 413.228571 -181.51017 
L 492.942857 -333.484655 
L 572.657143 -279.797752 
L 652.371429 -235.570774 
L 732.085714 -234.406718 
L 811.8 -248.477051 
L 891.514286 -265.740305 
L 971.228571 -258.226201 
L 1050.942857 -253.935086 
L 1130.657143 -212.830872 
L 1210.371429 -278.238518 
L 1290.085714 -205.193632 
L 1369.8 -162.763568 
L 1369.8 -188.924049 
L 1369.8 -188.924049 
L 1290.085714 -249.394837 
L 1210.371429 -363.032783 
L 1130.657143 -268.134281 
L 1050.942857 -349.018291 
L 971.228571 -324.422771 
L 891.514286 -338.656329 
L 811.8 -308.688682 
L 732.085714 -290.563482 
L 652.371429 -278.6609 
L 572.657143 -327.7646 
L 492.942857 -414.96 
L 413.228571 -208.246237 
L 333.514286 -294.233195 
L 253.8 -111.141325 
z
" style="stroke: #ffffff; stroke-opacity: 0.8"/>
    </defs>
    <g clip-path="url(#pa963e72001)">
     <use xlink:href="#m70a99f6673" x="0" y="936" style="fill: #55a868; fill-opacity: 0.8; stroke: #ffffff; stroke-opacity: 0.8"/>
    </g>
   </g>
   <g id="patch_16">
    <path d="M 198 833.04 
L 198 505.44 
" style="fill: none; stroke: #262626; stroke-width: 1.25; stroke-linejoin: miter; stroke-linecap: square"/>
   </g>
   <g id="patch_17">
    <path d="M 1425.6 833.04 
L 1425.6 505.44 
" style="fill: none; stroke: #262626; stroke-width: 1.25; stroke-linejoin: miter; stroke-linecap: square"/>
   </g>
   <g id="patch_18">
    <path d="M 198 833.04 
L 1425.6 833.04 
" style="fill: none; stroke: #262626; stroke-width: 1.25; stroke-linejoin: miter; stroke-linecap: square"/>
   </g>
   <g id="patch_19">
    <path d="M 198 505.44 
L 1425.6 505.44 
" style="fill: none; stroke: #262626; stroke-width: 1.25; stroke-linejoin: miter; stroke-linecap: square"/>
   </g>
   <g id="text_54">
    <!-- Number of Sentiment Labelled Tweets per Month for Topic 9 -->
    <g style="fill: #262626" transform="translate(652.273125 499.44) scale(0.12 -0.12)">
     <use xlink:href="#ArialMT-4e"/>
     <use xlink:href="#ArialMT-75" x="72.216797"/>
     <use xlink:href="#ArialMT-6d" x="127.832031"/>
     <use xlink:href="#ArialMT-62" x="211.132812"/>
     <use xlink:href="#ArialMT-65" x="266.748047"/>
     <use xlink:href="#ArialMT-72" x="322.363281"/>
     <use xlink:href="#ArialMT-20" x="355.664062"/>
     <use xlink:href="#ArialMT-6f" x="383.447266"/>
     <use xlink:href="#ArialMT-66" x="439.0625"/>
     <use xlink:href="#ArialMT-20" x="466.845703"/>
     <use xlink:href="#ArialMT-53" x="494.628906"/>
     <use xlink:href="#ArialMT-65" x="561.328125"/>
     <use xlink:href="#ArialMT-6e" x="616.943359"/>
     <use xlink:href="#ArialMT-74" x="672.558594"/>
     <use xlink:href="#ArialMT-69" x="700.341797"/>
     <use xlink:href="#ArialMT-6d" x="722.558594"/>
     <use xlink:href="#ArialMT-65" x="805.859375"/>
     <use xlink:href="#ArialMT-6e" x="861.474609"/>
     <use xlink:href="#ArialMT-74" x="917.089844"/>
     <use xlink:href="#ArialMT-20" x="944.873047"/>
     <use xlink:href="#ArialMT-4c" x="972.65625"/>
     <use xlink:href="#ArialMT-61" x="1028.271484"/>
     <use xlink:href="#ArialMT-62" x="1083.886719"/>
     <use xlink:href="#ArialMT-65" x="1139.501953"/>
     <use xlink:href="#ArialMT-6c" x="1195.117188"/>
     <use xlink:href="#ArialMT-6c" x="1217.333984"/>
     <use xlink:href="#ArialMT-65" x="1239.550781"/>
     <use xlink:href="#ArialMT-64" x="1295.166016"/>
     <use xlink:href="#ArialMT-20" x="1350.78125"/>
     <use xlink:href="#ArialMT-54" x="1376.814453"/>
     <use xlink:href="#ArialMT-77" x="1432.398438"/>
     <use xlink:href="#ArialMT-65" x="1504.615234"/>
     <use xlink:href="#ArialMT-65" x="1560.230469"/>
     <use xlink:href="#ArialMT-74" x="1615.845703"/>
     <use xlink:href="#ArialMT-73" x="1643.628906"/>
     <use xlink:href="#ArialMT-20" x="1693.628906"/>
     <use xlink:href="#ArialMT-70" x="1721.412109"/>
     <use xlink:href="#ArialMT-65" x="1777.027344"/>
     <use xlink:href="#ArialMT-72" x="1832.642578"/>
     <use xlink:href="#ArialMT-20" x="1865.943359"/>
     <use xlink:href="#ArialMT-4d" x="1893.726562"/>
     <use xlink:href="#ArialMT-6f" x="1977.027344"/>
     <use xlink:href="#ArialMT-6e" x="2032.642578"/>
     <use xlink:href="#ArialMT-74" x="2088.257812"/>
     <use xlink:href="#ArialMT-68" x="2116.041016"/>
     <use xlink:href="#ArialMT-20" x="2171.65625"/>
     <use xlink:href="#ArialMT-66" x="2199.439453"/>
     <use xlink:href="#ArialMT-6f" x="2227.222656"/>
     <use xlink:href="#ArialMT-72" x="2282.837891"/>
     <use xlink:href="#ArialMT-20" x="2316.138672"/>
     <use xlink:href="#ArialMT-54" x="2342.171875"/>
     <use xlink:href="#ArialMT-6f" x="2392.130859"/>
     <use xlink:href="#ArialMT-70" x="2447.746094"/>
     <use xlink:href="#ArialMT-69" x="2503.361328"/>
     <use xlink:href="#ArialMT-63" x="2525.578125"/>
     <use xlink:href="#ArialMT-20" x="2575.578125"/>
     <use xlink:href="#ArialMT-39" x="2603.361328"/>
    </g>
   </g>
   <g id="legend_2">
    <g id="patch_20">
     <path d="M 205.7 561.048437 
L 282.485156 561.048437 
Q 284.685156 561.048437 284.685156 558.848438 
L 284.685156 513.14 
Q 284.685156 510.94 282.485156 510.94 
L 205.7 510.94 
Q 203.5 510.94 203.5 513.14 
L 203.5 558.848438 
Q 203.5 561.048437 205.7 561.048437 
z
" style="fill: #ffffff; opacity: 0.8; stroke: #cccccc; stroke-linejoin: miter"/>
    </g>
    <g id="patch_21">
     <path d="M 207.9 523.213594 
L 229.9 523.213594 
L 229.9 515.513594 
L 207.9 515.513594 
z
" style="fill: #4c72b0; fill-opacity: 0.8; stroke: #ffffff; stroke-opacity: 0.8; stroke-linejoin: miter"/>
    </g>
    <g id="text_55">
     <!-- negative -->
     <g style="fill: #262626" transform="translate(238.7 523.213594) scale(0.11 -0.11)">
      <defs>
       <path id="ArialMT-76" d="M 1344 0 
L 81 3319 
L 675 3319 
L 1388 1331 
Q 1503 1009 1600 663 
Q 1675 925 1809 1294 
L 2547 3319 
L 3125 3319 
L 1869 0 
L 1344 0 
z
" transform="scale(0.015625)"/>
      </defs>
      <use xlink:href="#ArialMT-6e"/>
      <use xlink:href="#ArialMT-65" x="55.615234"/>
      <use xlink:href="#ArialMT-67" x="111.230469"/>
      <use xlink:href="#ArialMT-61" x="166.845703"/>
      <use xlink:href="#ArialMT-74" x="222.460938"/>
      <use xlink:href="#ArialMT-69" x="250.244141"/>
      <use xlink:href="#ArialMT-76" x="272.460938"/>
      <use xlink:href="#ArialMT-65" x="322.460938"/>
     </g>
    </g>
    <g id="patch_22">
     <path d="M 207.9 538.902344 
L 229.9 538.902344 
L 229.9 531.202344 
L 207.9 531.202344 
z
" style="fill: #dd8452; fill-opacity: 0.8; stroke: #ffffff; stroke-opacity: 0.8; stroke-linejoin: miter"/>
    </g>
    <g id="text_56">
     <!-- neutral -->
     <g style="fill: #262626" transform="translate(238.7 538.902344) scale(0.11 -0.11)">
      <use xlink:href="#ArialMT-6e"/>
      <use xlink:href="#ArialMT-65" x="55.615234"/>
      <use xlink:href="#ArialMT-75" x="111.230469"/>
      <use xlink:href="#ArialMT-74" x="166.845703"/>
      <use xlink:href="#ArialMT-72" x="194.628906"/>
      <use xlink:href="#ArialMT-61" x="227.929688"/>
      <use xlink:href="#ArialMT-6c" x="283.544922"/>
     </g>
    </g>
    <g id="patch_23">
     <path d="M 207.9 554.462188 
L 229.9 554.462188 
L 229.9 546.762187 
L 207.9 546.762187 
z
" style="fill: #55a868; fill-opacity: 0.8; stroke: #ffffff; stroke-opacity: 0.8; stroke-linejoin: miter"/>
    </g>
    <g id="text_57">
     <!-- positive -->
     <g style="fill: #262626" transform="translate(238.7 554.462188) scale(0.11 -0.11)">
      <use xlink:href="#ArialMT-70"/>
      <use xlink:href="#ArialMT-6f" x="55.615234"/>
      <use xlink:href="#ArialMT-73" x="111.230469"/>
      <use xlink:href="#ArialMT-69" x="161.230469"/>
      <use xlink:href="#ArialMT-74" x="183.447266"/>
      <use xlink:href="#ArialMT-69" x="211.230469"/>
      <use xlink:href="#ArialMT-76" x="233.447266"/>
      <use xlink:href="#ArialMT-65" x="283.447266"/>
     </g>
    </g>
   </g>
  </g>
 </g>
 <defs>
  <clipPath id="p9d6070e0ec">
   <rect x="198" y="112.32" width="1227.6" height="327.6"/>
  </clipPath>
  <clipPath id="pa963e72001">
   <rect x="198" y="505.44" width="1227.6" height="327.6"/>
  </clipPath>
 </defs>
</svg>
