<?xml version="1.0" encoding="utf-8" standalone="no"?>
<!DOCTYPE svg PUBLIC "-//W3C//DTD SVG 1.1//EN"
  "http://www.w3.org/Graphics/SVG/1.1/DTD/svg11.dtd">
<svg xmlns:xlink="http://www.w3.org/1999/xlink" width="1440pt" height="720pt" viewBox="0 0 1440 720" xmlns="http://www.w3.org/2000/svg" version="1.1">
 <metadata>
  <rdf:RDF xmlns:dc="http://purl.org/dc/elements/1.1/" xmlns:cc="http://creativecommons.org/ns#" xmlns:rdf="http://www.w3.org/1999/02/22-rdf-syntax-ns#">
   <cc:Work>
    <dc:type rdf:resource="http://purl.org/dc/dcmitype/StillImage"/>
    <dc:date>2024-06-22T12:12:53.388088</dc:date>
    <dc:format>image/svg+xml</dc:format>
    <dc:creator>
     <cc:Agent>
      <dc:title>Matplotlib v3.8.2, https://matplotlib.org/</dc:title>
     </cc:Agent>
    </dc:creator>
   </cc:Work>
  </rdf:RDF>
 </metadata>
 <defs>
  <style type="text/css">*{stroke-linejoin: round; stroke-linecap: butt}</style>
 </defs>
 <g id="figure_1">
  <g id="patch_1">
   <path d="M 0 720 
L 1440 720 
L 1440 0 
L 0 0 
z
" style="fill: #ffffff"/>
  </g>
  <g id="axes_1">
   <g id="patch_2">
    <path d="M 180 640.8 
L 1296 640.8 
L 1296 86.4 
L 180 86.4 
z
" style="fill: #ffffff"/>
   </g>
   <g id="matplotlib.axis_1">
    <g id="xtick_1">
     <g id="text_1">
      <!-- 2022-08 -->
      <g style="fill: #262626" transform="translate(210.544851 658.173594) scale(0.11 -0.11)">
       <defs>
        <path id="ArialMT-32" d="M 3222 541 
L 3222 0 
L 194 0 
Q 188 203 259 391 
Q 375 700 629 1000 
Q 884 1300 1366 1694 
Q 2113 2306 2375 2664 
Q 2638 3022 2638 3341 
Q 2638 3675 2398 3904 
Q 2159 4134 1775 4134 
Q 1369 4134 1125 3890 
Q 881 3647 878 3216 
L 300 3275 
Q 359 3922 746 4261 
Q 1134 4600 1788 4600 
Q 2447 4600 2831 4234 
Q 3216 3869 3216 3328 
Q 3216 3053 3103 2787 
Q 2991 2522 2730 2228 
Q 2469 1934 1863 1422 
Q 1356 997 1212 845 
Q 1069 694 975 541 
L 3222 541 
z
" transform="scale(0.015625)"/>
        <path id="ArialMT-30" d="M 266 2259 
Q 266 3072 433 3567 
Q 600 4063 929 4331 
Q 1259 4600 1759 4600 
Q 2128 4600 2406 4451 
Q 2684 4303 2865 4023 
Q 3047 3744 3150 3342 
Q 3253 2941 3253 2259 
Q 3253 1453 3087 958 
Q 2922 463 2592 192 
Q 2263 -78 1759 -78 
Q 1097 -78 719 397 
Q 266 969 266 2259 
z
M 844 2259 
Q 844 1131 1108 757 
Q 1372 384 1759 384 
Q 2147 384 2411 759 
Q 2675 1134 2675 2259 
Q 2675 3391 2411 3762 
Q 2147 4134 1753 4134 
Q 1366 4134 1134 3806 
Q 844 3388 844 2259 
z
" transform="scale(0.015625)"/>
        <path id="ArialMT-2d" d="M 203 1375 
L 203 1941 
L 1931 1941 
L 1931 1375 
L 203 1375 
z
" transform="scale(0.015625)"/>
        <path id="ArialMT-38" d="M 1131 2484 
Q 781 2613 612 2850 
Q 444 3088 444 3419 
Q 444 3919 803 4259 
Q 1163 4600 1759 4600 
Q 2359 4600 2725 4251 
Q 3091 3903 3091 3403 
Q 3091 3084 2923 2848 
Q 2756 2613 2416 2484 
Q 2838 2347 3058 2040 
Q 3278 1734 3278 1309 
Q 3278 722 2862 322 
Q 2447 -78 1769 -78 
Q 1091 -78 675 323 
Q 259 725 259 1325 
Q 259 1772 486 2073 
Q 713 2375 1131 2484 
z
M 1019 3438 
Q 1019 3113 1228 2906 
Q 1438 2700 1772 2700 
Q 2097 2700 2305 2904 
Q 2513 3109 2513 3406 
Q 2513 3716 2298 3927 
Q 2084 4138 1766 4138 
Q 1444 4138 1231 3931 
Q 1019 3725 1019 3438 
z
M 838 1322 
Q 838 1081 952 856 
Q 1066 631 1291 507 
Q 1516 384 1775 384 
Q 2178 384 2440 643 
Q 2703 903 2703 1303 
Q 2703 1709 2433 1975 
Q 2163 2241 1756 2241 
Q 1359 2241 1098 1978 
Q 838 1716 838 1322 
z
" transform="scale(0.015625)"/>
       </defs>
       <use xlink:href="#ArialMT-32"/>
       <use xlink:href="#ArialMT-30" x="55.615234"/>
       <use xlink:href="#ArialMT-32" x="111.230469"/>
       <use xlink:href="#ArialMT-32" x="166.845703"/>
       <use xlink:href="#ArialMT-2d" x="222.460938"/>
       <use xlink:href="#ArialMT-30" x="255.761719"/>
       <use xlink:href="#ArialMT-38" x="311.376953"/>
      </g>
     </g>
    </g>
    <g id="xtick_2"/>
    <g id="xtick_3"/>
    <g id="xtick_4"/>
    <g id="xtick_5">
     <g id="text_2">
      <!-- 2022-12 -->
      <g style="fill: #262626" transform="translate(269.35908 658.173594) scale(0.11 -0.11)">
       <defs>
        <path id="ArialMT-31" d="M 2384 0 
L 1822 0 
L 1822 3584 
Q 1619 3391 1289 3197 
Q 959 3003 697 2906 
L 697 3450 
Q 1169 3672 1522 3987 
Q 1875 4303 2022 4600 
L 2384 4600 
L 2384 0 
z
" transform="scale(0.015625)"/>
       </defs>
       <use xlink:href="#ArialMT-32"/>
       <use xlink:href="#ArialMT-30" x="55.615234"/>
       <use xlink:href="#ArialMT-32" x="111.230469"/>
       <use xlink:href="#ArialMT-32" x="166.845703"/>
       <use xlink:href="#ArialMT-2d" x="222.460938"/>
       <use xlink:href="#ArialMT-31" x="255.761719"/>
       <use xlink:href="#ArialMT-32" x="311.376953"/>
      </g>
     </g>
    </g>
    <g id="xtick_6"/>
    <g id="xtick_7"/>
    <g id="xtick_8"/>
    <g id="xtick_9">
     <g id="text_3">
      <!-- 2022-16 -->
      <g style="fill: #262626" transform="translate(328.173309 658.173594) scale(0.11 -0.11)">
       <defs>
        <path id="ArialMT-36" d="M 3184 3459 
L 2625 3416 
Q 2550 3747 2413 3897 
Q 2184 4138 1850 4138 
Q 1581 4138 1378 3988 
Q 1113 3794 959 3422 
Q 806 3050 800 2363 
Q 1003 2672 1297 2822 
Q 1591 2972 1913 2972 
Q 2475 2972 2870 2558 
Q 3266 2144 3266 1488 
Q 3266 1056 3080 686 
Q 2894 316 2569 119 
Q 2244 -78 1831 -78 
Q 1128 -78 684 439 
Q 241 956 241 2144 
Q 241 3472 731 4075 
Q 1159 4600 1884 4600 
Q 2425 4600 2770 4297 
Q 3116 3994 3184 3459 
z
M 888 1484 
Q 888 1194 1011 928 
Q 1134 663 1356 523 
Q 1578 384 1822 384 
Q 2178 384 2434 671 
Q 2691 959 2691 1453 
Q 2691 1928 2437 2201 
Q 2184 2475 1800 2475 
Q 1419 2475 1153 2201 
Q 888 1928 888 1484 
z
" transform="scale(0.015625)"/>
       </defs>
       <use xlink:href="#ArialMT-32"/>
       <use xlink:href="#ArialMT-30" x="55.615234"/>
       <use xlink:href="#ArialMT-32" x="111.230469"/>
       <use xlink:href="#ArialMT-32" x="166.845703"/>
       <use xlink:href="#ArialMT-2d" x="222.460938"/>
       <use xlink:href="#ArialMT-31" x="255.761719"/>
       <use xlink:href="#ArialMT-36" x="311.376953"/>
      </g>
     </g>
    </g>
    <g id="xtick_10"/>
    <g id="xtick_11"/>
    <g id="xtick_12"/>
    <g id="xtick_13">
     <g id="text_4">
      <!-- 2022-20 -->
      <g style="fill: #262626" transform="translate(386.987539 658.173594) scale(0.11 -0.11)">
       <use xlink:href="#ArialMT-32"/>
       <use xlink:href="#ArialMT-30" x="55.615234"/>
       <use xlink:href="#ArialMT-32" x="111.230469"/>
       <use xlink:href="#ArialMT-32" x="166.845703"/>
       <use xlink:href="#ArialMT-2d" x="222.460938"/>
       <use xlink:href="#ArialMT-32" x="255.761719"/>
       <use xlink:href="#ArialMT-30" x="311.376953"/>
      </g>
     </g>
    </g>
    <g id="xtick_14"/>
    <g id="xtick_15"/>
    <g id="xtick_16"/>
    <g id="xtick_17">
     <g id="text_5">
      <!-- 2022-24 -->
      <g style="fill: #262626" transform="translate(445.801768 658.173594) scale(0.11 -0.11)">
       <defs>
        <path id="ArialMT-34" d="M 2069 0 
L 2069 1097 
L 81 1097 
L 81 1613 
L 2172 4581 
L 2631 4581 
L 2631 1613 
L 3250 1613 
L 3250 1097 
L 2631 1097 
L 2631 0 
L 2069 0 
z
M 2069 1613 
L 2069 3678 
L 634 1613 
L 2069 1613 
z
" transform="scale(0.015625)"/>
       </defs>
       <use xlink:href="#ArialMT-32"/>
       <use xlink:href="#ArialMT-30" x="55.615234"/>
       <use xlink:href="#ArialMT-32" x="111.230469"/>
       <use xlink:href="#ArialMT-32" x="166.845703"/>
       <use xlink:href="#ArialMT-2d" x="222.460938"/>
       <use xlink:href="#ArialMT-32" x="255.761719"/>
       <use xlink:href="#ArialMT-34" x="311.376953"/>
      </g>
     </g>
    </g>
    <g id="xtick_18"/>
    <g id="xtick_19"/>
    <g id="xtick_20"/>
    <g id="xtick_21">
     <g id="text_6">
      <!-- 2022-28 -->
      <g style="fill: #262626" transform="translate(504.615997 658.173594) scale(0.11 -0.11)">
       <use xlink:href="#ArialMT-32"/>
       <use xlink:href="#ArialMT-30" x="55.615234"/>
       <use xlink:href="#ArialMT-32" x="111.230469"/>
       <use xlink:href="#ArialMT-32" x="166.845703"/>
       <use xlink:href="#ArialMT-2d" x="222.460938"/>
       <use xlink:href="#ArialMT-32" x="255.761719"/>
       <use xlink:href="#ArialMT-38" x="311.376953"/>
      </g>
     </g>
    </g>
    <g id="xtick_22"/>
    <g id="xtick_23"/>
    <g id="xtick_24"/>
    <g id="xtick_25">
     <g id="text_7">
      <!-- 2022-32 -->
      <g style="fill: #262626" transform="translate(563.430226 658.173594) scale(0.11 -0.11)">
       <defs>
        <path id="ArialMT-33" d="M 269 1209 
L 831 1284 
Q 928 806 1161 595 
Q 1394 384 1728 384 
Q 2125 384 2398 659 
Q 2672 934 2672 1341 
Q 2672 1728 2419 1979 
Q 2166 2231 1775 2231 
Q 1616 2231 1378 2169 
L 1441 2663 
Q 1497 2656 1531 2656 
Q 1891 2656 2178 2843 
Q 2466 3031 2466 3422 
Q 2466 3731 2256 3934 
Q 2047 4138 1716 4138 
Q 1388 4138 1169 3931 
Q 950 3725 888 3313 
L 325 3413 
Q 428 3978 793 4289 
Q 1159 4600 1703 4600 
Q 2078 4600 2393 4439 
Q 2709 4278 2876 4000 
Q 3044 3722 3044 3409 
Q 3044 3113 2884 2869 
Q 2725 2625 2413 2481 
Q 2819 2388 3044 2092 
Q 3269 1797 3269 1353 
Q 3269 753 2831 336 
Q 2394 -81 1725 -81 
Q 1122 -81 723 278 
Q 325 638 269 1209 
z
" transform="scale(0.015625)"/>
       </defs>
       <use xlink:href="#ArialMT-32"/>
       <use xlink:href="#ArialMT-30" x="55.615234"/>
       <use xlink:href="#ArialMT-32" x="111.230469"/>
       <use xlink:href="#ArialMT-32" x="166.845703"/>
       <use xlink:href="#ArialMT-2d" x="222.460938"/>
       <use xlink:href="#ArialMT-33" x="255.761719"/>
       <use xlink:href="#ArialMT-32" x="311.376953"/>
      </g>
     </g>
    </g>
    <g id="xtick_26"/>
    <g id="xtick_27"/>
    <g id="xtick_28"/>
    <g id="xtick_29">
     <g id="text_8">
      <!-- 2022-36 -->
      <g style="fill: #262626" transform="translate(622.244456 658.173594) scale(0.11 -0.11)">
       <use xlink:href="#ArialMT-32"/>
       <use xlink:href="#ArialMT-30" x="55.615234"/>
       <use xlink:href="#ArialMT-32" x="111.230469"/>
       <use xlink:href="#ArialMT-32" x="166.845703"/>
       <use xlink:href="#ArialMT-2d" x="222.460938"/>
       <use xlink:href="#ArialMT-33" x="255.761719"/>
       <use xlink:href="#ArialMT-36" x="311.376953"/>
      </g>
     </g>
    </g>
    <g id="xtick_30"/>
    <g id="xtick_31"/>
    <g id="xtick_32"/>
    <g id="xtick_33">
     <g id="text_9">
      <!-- 2022-40 -->
      <g style="fill: #262626" transform="translate(681.058685 658.173594) scale(0.11 -0.11)">
       <use xlink:href="#ArialMT-32"/>
       <use xlink:href="#ArialMT-30" x="55.615234"/>
       <use xlink:href="#ArialMT-32" x="111.230469"/>
       <use xlink:href="#ArialMT-32" x="166.845703"/>
       <use xlink:href="#ArialMT-2d" x="222.460938"/>
       <use xlink:href="#ArialMT-34" x="255.761719"/>
       <use xlink:href="#ArialMT-30" x="311.376953"/>
      </g>
     </g>
    </g>
    <g id="xtick_34"/>
    <g id="xtick_35"/>
    <g id="xtick_36"/>
    <g id="xtick_37">
     <g id="text_10">
      <!-- 2022-44 -->
      <g style="fill: #262626" transform="translate(739.872914 658.173594) scale(0.11 -0.11)">
       <use xlink:href="#ArialMT-32"/>
       <use xlink:href="#ArialMT-30" x="55.615234"/>
       <use xlink:href="#ArialMT-32" x="111.230469"/>
       <use xlink:href="#ArialMT-32" x="166.845703"/>
       <use xlink:href="#ArialMT-2d" x="222.460938"/>
       <use xlink:href="#ArialMT-34" x="255.761719"/>
       <use xlink:href="#ArialMT-34" x="311.376953"/>
      </g>
     </g>
    </g>
    <g id="xtick_38"/>
    <g id="xtick_39"/>
    <g id="xtick_40"/>
    <g id="xtick_41">
     <g id="text_11">
      <!-- 2022-48 -->
      <g style="fill: #262626" transform="translate(798.687143 658.173594) scale(0.11 -0.11)">
       <use xlink:href="#ArialMT-32"/>
       <use xlink:href="#ArialMT-30" x="55.615234"/>
       <use xlink:href="#ArialMT-32" x="111.230469"/>
       <use xlink:href="#ArialMT-32" x="166.845703"/>
       <use xlink:href="#ArialMT-2d" x="222.460938"/>
       <use xlink:href="#ArialMT-34" x="255.761719"/>
       <use xlink:href="#ArialMT-38" x="311.376953"/>
      </g>
     </g>
    </g>
    <g id="xtick_42"/>
    <g id="xtick_43"/>
    <g id="xtick_44"/>
    <g id="xtick_45">
     <g id="text_12">
      <!-- 2022-52 -->
      <g style="fill: #262626" transform="translate(857.501373 658.173594) scale(0.11 -0.11)">
       <defs>
        <path id="ArialMT-35" d="M 266 1200 
L 856 1250 
Q 922 819 1161 601 
Q 1400 384 1738 384 
Q 2144 384 2425 690 
Q 2706 997 2706 1503 
Q 2706 1984 2436 2262 
Q 2166 2541 1728 2541 
Q 1456 2541 1237 2417 
Q 1019 2294 894 2097 
L 366 2166 
L 809 4519 
L 3088 4519 
L 3088 3981 
L 1259 3981 
L 1013 2750 
Q 1425 3038 1878 3038 
Q 2478 3038 2890 2622 
Q 3303 2206 3303 1553 
Q 3303 931 2941 478 
Q 2500 -78 1738 -78 
Q 1113 -78 717 272 
Q 322 622 266 1200 
z
" transform="scale(0.015625)"/>
       </defs>
       <use xlink:href="#ArialMT-32"/>
       <use xlink:href="#ArialMT-30" x="55.615234"/>
       <use xlink:href="#ArialMT-32" x="111.230469"/>
       <use xlink:href="#ArialMT-32" x="166.845703"/>
       <use xlink:href="#ArialMT-2d" x="222.460938"/>
       <use xlink:href="#ArialMT-35" x="255.761719"/>
       <use xlink:href="#ArialMT-32" x="311.376953"/>
      </g>
     </g>
    </g>
    <g id="xtick_46"/>
    <g id="xtick_47"/>
    <g id="xtick_48"/>
    <g id="xtick_49">
     <g id="text_13">
      <!-- 2023-04 -->
      <g style="fill: #262626" transform="translate(916.315602 658.173594) scale(0.11 -0.11)">
       <use xlink:href="#ArialMT-32"/>
       <use xlink:href="#ArialMT-30" x="55.615234"/>
       <use xlink:href="#ArialMT-32" x="111.230469"/>
       <use xlink:href="#ArialMT-33" x="166.845703"/>
       <use xlink:href="#ArialMT-2d" x="222.460938"/>
       <use xlink:href="#ArialMT-30" x="255.761719"/>
       <use xlink:href="#ArialMT-34" x="311.376953"/>
      </g>
     </g>
    </g>
    <g id="xtick_50"/>
    <g id="xtick_51"/>
    <g id="xtick_52"/>
    <g id="xtick_53">
     <g id="text_14">
      <!-- 2023-08 -->
      <g style="fill: #262626" transform="translate(975.129831 658.173594) scale(0.11 -0.11)">
       <use xlink:href="#ArialMT-32"/>
       <use xlink:href="#ArialMT-30" x="55.615234"/>
       <use xlink:href="#ArialMT-32" x="111.230469"/>
       <use xlink:href="#ArialMT-33" x="166.845703"/>
       <use xlink:href="#ArialMT-2d" x="222.460938"/>
       <use xlink:href="#ArialMT-30" x="255.761719"/>
       <use xlink:href="#ArialMT-38" x="311.376953"/>
      </g>
     </g>
    </g>
    <g id="xtick_54"/>
    <g id="xtick_55"/>
    <g id="xtick_56"/>
    <g id="xtick_57">
     <g id="text_15">
      <!-- 2023-12 -->
      <g style="fill: #262626" transform="translate(1033.94406 658.173594) scale(0.11 -0.11)">
       <use xlink:href="#ArialMT-32"/>
       <use xlink:href="#ArialMT-30" x="55.615234"/>
       <use xlink:href="#ArialMT-32" x="111.230469"/>
       <use xlink:href="#ArialMT-33" x="166.845703"/>
       <use xlink:href="#ArialMT-2d" x="222.460938"/>
       <use xlink:href="#ArialMT-31" x="255.761719"/>
       <use xlink:href="#ArialMT-32" x="311.376953"/>
      </g>
     </g>
    </g>
    <g id="xtick_58"/>
    <g id="xtick_59"/>
    <g id="xtick_60"/>
    <g id="xtick_61">
     <g id="text_16">
      <!-- 2023-16 -->
      <g style="fill: #262626" transform="translate(1092.75829 658.173594) scale(0.11 -0.11)">
       <use xlink:href="#ArialMT-32"/>
       <use xlink:href="#ArialMT-30" x="55.615234"/>
       <use xlink:href="#ArialMT-32" x="111.230469"/>
       <use xlink:href="#ArialMT-33" x="166.845703"/>
       <use xlink:href="#ArialMT-2d" x="222.460938"/>
       <use xlink:href="#ArialMT-31" x="255.761719"/>
       <use xlink:href="#ArialMT-36" x="311.376953"/>
      </g>
     </g>
    </g>
    <g id="xtick_62"/>
    <g id="xtick_63"/>
    <g id="xtick_64"/>
    <g id="xtick_65">
     <g id="text_17">
      <!-- 2023-20 -->
      <g style="fill: #262626" transform="translate(1151.572519 658.173594) scale(0.11 -0.11)">
       <use xlink:href="#ArialMT-32"/>
       <use xlink:href="#ArialMT-30" x="55.615234"/>
       <use xlink:href="#ArialMT-32" x="111.230469"/>
       <use xlink:href="#ArialMT-33" x="166.845703"/>
       <use xlink:href="#ArialMT-2d" x="222.460938"/>
       <use xlink:href="#ArialMT-32" x="255.761719"/>
       <use xlink:href="#ArialMT-30" x="311.376953"/>
      </g>
     </g>
    </g>
    <g id="xtick_66"/>
    <g id="xtick_67"/>
    <g id="xtick_68"/>
    <g id="xtick_69">
     <g id="text_18">
      <!-- 2023-24 -->
      <g style="fill: #262626" transform="translate(1210.386748 658.173594) scale(0.11 -0.11)">
       <use xlink:href="#ArialMT-32"/>
       <use xlink:href="#ArialMT-30" x="55.615234"/>
       <use xlink:href="#ArialMT-32" x="111.230469"/>
       <use xlink:href="#ArialMT-33" x="166.845703"/>
       <use xlink:href="#ArialMT-2d" x="222.460938"/>
       <use xlink:href="#ArialMT-32" x="255.761719"/>
       <use xlink:href="#ArialMT-34" x="311.376953"/>
      </g>
     </g>
    </g>
    <g id="xtick_70"/>
   </g>
   <g id="matplotlib.axis_2">
    <g id="ytick_1">
     <g id="text_19">
      <!-- 0.000 -->
      <g style="fill: #262626" transform="translate(142.975937 623.661643) scale(0.11 -0.11)">
       <defs>
        <path id="ArialMT-2e" d="M 581 0 
L 581 641 
L 1222 641 
L 1222 0 
L 581 0 
z
" transform="scale(0.015625)"/>
       </defs>
       <use xlink:href="#ArialMT-30"/>
       <use xlink:href="#ArialMT-2e" x="55.615234"/>
       <use xlink:href="#ArialMT-30" x="83.398438"/>
       <use xlink:href="#ArialMT-30" x="139.013672"/>
       <use xlink:href="#ArialMT-30" x="194.628906"/>
      </g>
     </g>
    </g>
    <g id="ytick_2">
     <g id="text_20">
      <!-- 0.005 -->
      <g style="fill: #262626" transform="translate(142.975937 524.55122) scale(0.11 -0.11)">
       <use xlink:href="#ArialMT-30"/>
       <use xlink:href="#ArialMT-2e" x="55.615234"/>
       <use xlink:href="#ArialMT-30" x="83.398438"/>
       <use xlink:href="#ArialMT-30" x="139.013672"/>
       <use xlink:href="#ArialMT-35" x="194.628906"/>
      </g>
     </g>
    </g>
    <g id="ytick_3">
     <g id="text_21">
      <!-- 0.010 -->
      <g style="fill: #262626" transform="translate(142.975937 425.440797) scale(0.11 -0.11)">
       <use xlink:href="#ArialMT-30"/>
       <use xlink:href="#ArialMT-2e" x="55.615234"/>
       <use xlink:href="#ArialMT-30" x="83.398438"/>
       <use xlink:href="#ArialMT-31" x="139.013672"/>
       <use xlink:href="#ArialMT-30" x="194.628906"/>
      </g>
     </g>
    </g>
    <g id="ytick_4">
     <g id="text_22">
      <!-- 0.015 -->
      <g style="fill: #262626" transform="translate(142.975937 326.330375) scale(0.11 -0.11)">
       <use xlink:href="#ArialMT-30"/>
       <use xlink:href="#ArialMT-2e" x="55.615234"/>
       <use xlink:href="#ArialMT-30" x="83.398438"/>
       <use xlink:href="#ArialMT-31" x="139.013672"/>
       <use xlink:href="#ArialMT-35" x="194.628906"/>
      </g>
     </g>
    </g>
    <g id="ytick_5">
     <g id="text_23">
      <!-- 0.020 -->
      <g style="fill: #262626" transform="translate(142.975937 227.219952) scale(0.11 -0.11)">
       <use xlink:href="#ArialMT-30"/>
       <use xlink:href="#ArialMT-2e" x="55.615234"/>
       <use xlink:href="#ArialMT-30" x="83.398438"/>
       <use xlink:href="#ArialMT-32" x="139.013672"/>
       <use xlink:href="#ArialMT-30" x="194.628906"/>
      </g>
     </g>
    </g>
    <g id="ytick_6">
     <g id="text_24">
      <!-- 0.025 -->
      <g style="fill: #262626" transform="translate(142.975937 128.109529) scale(0.11 -0.11)">
       <use xlink:href="#ArialMT-30"/>
       <use xlink:href="#ArialMT-2e" x="55.615234"/>
       <use xlink:href="#ArialMT-30" x="83.398438"/>
       <use xlink:href="#ArialMT-32" x="139.013672"/>
       <use xlink:href="#ArialMT-35" x="194.628906"/>
      </g>
     </g>
    </g>
    <g id="text_25">
     <!-- Frequency of Occurences per Week -->
     <g style="fill: #262626" transform="translate(136.450312 459.529687) rotate(-90) scale(0.12 -0.12)">
      <defs>
       <path id="ArialMT-46" d="M 525 0 
L 525 4581 
L 3616 4581 
L 3616 4041 
L 1131 4041 
L 1131 2622 
L 3281 2622 
L 3281 2081 
L 1131 2081 
L 1131 0 
L 525 0 
z
" transform="scale(0.015625)"/>
       <path id="ArialMT-72" d="M 416 0 
L 416 3319 
L 922 3319 
L 922 2816 
Q 1116 3169 1280 3281 
Q 1444 3394 1641 3394 
Q 1925 3394 2219 3213 
L 2025 2691 
Q 1819 2813 1613 2813 
Q 1428 2813 1281 2702 
Q 1134 2591 1072 2394 
Q 978 2094 978 1738 
L 978 0 
L 416 0 
z
" transform="scale(0.015625)"/>
       <path id="ArialMT-65" d="M 2694 1069 
L 3275 997 
Q 3138 488 2766 206 
Q 2394 -75 1816 -75 
Q 1088 -75 661 373 
Q 234 822 234 1631 
Q 234 2469 665 2931 
Q 1097 3394 1784 3394 
Q 2450 3394 2872 2941 
Q 3294 2488 3294 1666 
Q 3294 1616 3291 1516 
L 816 1516 
Q 847 969 1125 678 
Q 1403 388 1819 388 
Q 2128 388 2347 550 
Q 2566 713 2694 1069 
z
M 847 1978 
L 2700 1978 
Q 2663 2397 2488 2606 
Q 2219 2931 1791 2931 
Q 1403 2931 1139 2672 
Q 875 2413 847 1978 
z
" transform="scale(0.015625)"/>
       <path id="ArialMT-71" d="M 2538 -1272 
L 2538 353 
Q 2406 169 2170 47 
Q 1934 -75 1669 -75 
Q 1078 -75 651 397 
Q 225 869 225 1691 
Q 225 2191 398 2587 
Q 572 2984 901 3189 
Q 1231 3394 1625 3394 
Q 2241 3394 2594 2875 
L 2594 3319 
L 3100 3319 
L 3100 -1272 
L 2538 -1272 
z
M 803 1669 
Q 803 1028 1072 708 
Q 1341 388 1716 388 
Q 2075 388 2334 692 
Q 2594 997 2594 1619 
Q 2594 2281 2320 2615 
Q 2047 2950 1678 2950 
Q 1313 2950 1058 2639 
Q 803 2328 803 1669 
z
" transform="scale(0.015625)"/>
       <path id="ArialMT-75" d="M 2597 0 
L 2597 488 
Q 2209 -75 1544 -75 
Q 1250 -75 995 37 
Q 741 150 617 320 
Q 494 491 444 738 
Q 409 903 409 1263 
L 409 3319 
L 972 3319 
L 972 1478 
Q 972 1038 1006 884 
Q 1059 663 1231 536 
Q 1403 409 1656 409 
Q 1909 409 2131 539 
Q 2353 669 2445 892 
Q 2538 1116 2538 1541 
L 2538 3319 
L 3100 3319 
L 3100 0 
L 2597 0 
z
" transform="scale(0.015625)"/>
       <path id="ArialMT-6e" d="M 422 0 
L 422 3319 
L 928 3319 
L 928 2847 
Q 1294 3394 1984 3394 
Q 2284 3394 2536 3286 
Q 2788 3178 2913 3003 
Q 3038 2828 3088 2588 
Q 3119 2431 3119 2041 
L 3119 0 
L 2556 0 
L 2556 2019 
Q 2556 2363 2490 2533 
Q 2425 2703 2258 2804 
Q 2091 2906 1866 2906 
Q 1506 2906 1245 2678 
Q 984 2450 984 1813 
L 984 0 
L 422 0 
z
" transform="scale(0.015625)"/>
       <path id="ArialMT-63" d="M 2588 1216 
L 3141 1144 
Q 3050 572 2676 248 
Q 2303 -75 1759 -75 
Q 1078 -75 664 370 
Q 250 816 250 1647 
Q 250 2184 428 2587 
Q 606 2991 970 3192 
Q 1334 3394 1763 3394 
Q 2303 3394 2647 3120 
Q 2991 2847 3088 2344 
L 2541 2259 
Q 2463 2594 2264 2762 
Q 2066 2931 1784 2931 
Q 1359 2931 1093 2626 
Q 828 2322 828 1663 
Q 828 994 1084 691 
Q 1341 388 1753 388 
Q 2084 388 2306 591 
Q 2528 794 2588 1216 
z
" transform="scale(0.015625)"/>
       <path id="ArialMT-79" d="M 397 -1278 
L 334 -750 
Q 519 -800 656 -800 
Q 844 -800 956 -737 
Q 1069 -675 1141 -563 
Q 1194 -478 1313 -144 
Q 1328 -97 1363 -6 
L 103 3319 
L 709 3319 
L 1400 1397 
Q 1534 1031 1641 628 
Q 1738 1016 1872 1384 
L 2581 3319 
L 3144 3319 
L 1881 -56 
Q 1678 -603 1566 -809 
Q 1416 -1088 1222 -1217 
Q 1028 -1347 759 -1347 
Q 597 -1347 397 -1278 
z
" transform="scale(0.015625)"/>
       <path id="ArialMT-20" transform="scale(0.015625)"/>
       <path id="ArialMT-6f" d="M 213 1659 
Q 213 2581 725 3025 
Q 1153 3394 1769 3394 
Q 2453 3394 2887 2945 
Q 3322 2497 3322 1706 
Q 3322 1066 3130 698 
Q 2938 331 2570 128 
Q 2203 -75 1769 -75 
Q 1072 -75 642 372 
Q 213 819 213 1659 
z
M 791 1659 
Q 791 1022 1069 705 
Q 1347 388 1769 388 
Q 2188 388 2466 706 
Q 2744 1025 2744 1678 
Q 2744 2294 2464 2611 
Q 2184 2928 1769 2928 
Q 1347 2928 1069 2612 
Q 791 2297 791 1659 
z
" transform="scale(0.015625)"/>
       <path id="ArialMT-66" d="M 556 0 
L 556 2881 
L 59 2881 
L 59 3319 
L 556 3319 
L 556 3672 
Q 556 4006 616 4169 
Q 697 4388 901 4523 
Q 1106 4659 1475 4659 
Q 1713 4659 2000 4603 
L 1916 4113 
Q 1741 4144 1584 4144 
Q 1328 4144 1222 4034 
Q 1116 3925 1116 3625 
L 1116 3319 
L 1763 3319 
L 1763 2881 
L 1116 2881 
L 1116 0 
L 556 0 
z
" transform="scale(0.015625)"/>
       <path id="ArialMT-4f" d="M 309 2231 
Q 309 3372 921 4017 
Q 1534 4663 2503 4663 
Q 3138 4663 3647 4359 
Q 4156 4056 4423 3514 
Q 4691 2972 4691 2284 
Q 4691 1588 4409 1038 
Q 4128 488 3612 205 
Q 3097 -78 2500 -78 
Q 1853 -78 1343 234 
Q 834 547 571 1087 
Q 309 1628 309 2231 
z
M 934 2222 
Q 934 1394 1379 917 
Q 1825 441 2497 441 
Q 3181 441 3623 922 
Q 4066 1403 4066 2288 
Q 4066 2847 3877 3264 
Q 3688 3681 3323 3911 
Q 2959 4141 2506 4141 
Q 1863 4141 1398 3698 
Q 934 3256 934 2222 
z
" transform="scale(0.015625)"/>
       <path id="ArialMT-73" d="M 197 991 
L 753 1078 
Q 800 744 1014 566 
Q 1228 388 1613 388 
Q 2000 388 2187 545 
Q 2375 703 2375 916 
Q 2375 1106 2209 1216 
Q 2094 1291 1634 1406 
Q 1016 1563 777 1677 
Q 538 1791 414 1992 
Q 291 2194 291 2438 
Q 291 2659 392 2848 
Q 494 3038 669 3163 
Q 800 3259 1026 3326 
Q 1253 3394 1513 3394 
Q 1903 3394 2198 3281 
Q 2494 3169 2634 2976 
Q 2775 2784 2828 2463 
L 2278 2388 
Q 2241 2644 2061 2787 
Q 1881 2931 1553 2931 
Q 1166 2931 1000 2803 
Q 834 2675 834 2503 
Q 834 2394 903 2306 
Q 972 2216 1119 2156 
Q 1203 2125 1616 2013 
Q 2213 1853 2448 1751 
Q 2684 1650 2818 1456 
Q 2953 1263 2953 975 
Q 2953 694 2789 445 
Q 2625 197 2315 61 
Q 2006 -75 1616 -75 
Q 969 -75 630 194 
Q 291 463 197 991 
z
" transform="scale(0.015625)"/>
       <path id="ArialMT-70" d="M 422 -1272 
L 422 3319 
L 934 3319 
L 934 2888 
Q 1116 3141 1344 3267 
Q 1572 3394 1897 3394 
Q 2322 3394 2647 3175 
Q 2972 2956 3137 2557 
Q 3303 2159 3303 1684 
Q 3303 1175 3120 767 
Q 2938 359 2589 142 
Q 2241 -75 1856 -75 
Q 1575 -75 1351 44 
Q 1128 163 984 344 
L 984 -1272 
L 422 -1272 
z
M 931 1641 
Q 931 1000 1190 694 
Q 1450 388 1819 388 
Q 2194 388 2461 705 
Q 2728 1022 2728 1688 
Q 2728 2322 2467 2637 
Q 2206 2953 1844 2953 
Q 1484 2953 1207 2617 
Q 931 2281 931 1641 
z
" transform="scale(0.015625)"/>
       <path id="ArialMT-57" d="M 1294 0 
L 78 4581 
L 700 4581 
L 1397 1578 
Q 1509 1106 1591 641 
Q 1766 1375 1797 1488 
L 2669 4581 
L 3400 4581 
L 4056 2263 
Q 4303 1400 4413 641 
Q 4500 1075 4641 1638 
L 5359 4581 
L 5969 4581 
L 4713 0 
L 4128 0 
L 3163 3491 
Q 3041 3928 3019 4028 
Q 2947 3713 2884 3491 
L 1913 0 
L 1294 0 
z
" transform="scale(0.015625)"/>
       <path id="ArialMT-6b" d="M 425 0 
L 425 4581 
L 988 4581 
L 988 1969 
L 2319 3319 
L 3047 3319 
L 1778 2088 
L 3175 0 
L 2481 0 
L 1384 1697 
L 988 1316 
L 988 0 
L 425 0 
z
" transform="scale(0.015625)"/>
      </defs>
      <use xlink:href="#ArialMT-46"/>
      <use xlink:href="#ArialMT-72" x="61.083984"/>
      <use xlink:href="#ArialMT-65" x="94.384766"/>
      <use xlink:href="#ArialMT-71" x="150"/>
      <use xlink:href="#ArialMT-75" x="205.615234"/>
      <use xlink:href="#ArialMT-65" x="261.230469"/>
      <use xlink:href="#ArialMT-6e" x="316.845703"/>
      <use xlink:href="#ArialMT-63" x="372.460938"/>
      <use xlink:href="#ArialMT-79" x="422.460938"/>
      <use xlink:href="#ArialMT-20" x="472.460938"/>
      <use xlink:href="#ArialMT-6f" x="500.244141"/>
      <use xlink:href="#ArialMT-66" x="555.859375"/>
      <use xlink:href="#ArialMT-20" x="583.642578"/>
      <use xlink:href="#ArialMT-4f" x="611.425781"/>
      <use xlink:href="#ArialMT-63" x="689.208984"/>
      <use xlink:href="#ArialMT-63" x="739.208984"/>
      <use xlink:href="#ArialMT-75" x="789.208984"/>
      <use xlink:href="#ArialMT-72" x="844.824219"/>
      <use xlink:href="#ArialMT-65" x="878.125"/>
      <use xlink:href="#ArialMT-6e" x="933.740234"/>
      <use xlink:href="#ArialMT-63" x="989.355469"/>
      <use xlink:href="#ArialMT-65" x="1039.355469"/>
      <use xlink:href="#ArialMT-73" x="1094.970703"/>
      <use xlink:href="#ArialMT-20" x="1144.970703"/>
      <use xlink:href="#ArialMT-70" x="1172.753906"/>
      <use xlink:href="#ArialMT-65" x="1228.369141"/>
      <use xlink:href="#ArialMT-72" x="1283.984375"/>
      <use xlink:href="#ArialMT-20" x="1317.285156"/>
      <use xlink:href="#ArialMT-57" x="1345.068359"/>
      <use xlink:href="#ArialMT-65" x="1437.703125"/>
      <use xlink:href="#ArialMT-65" x="1493.318359"/>
      <use xlink:href="#ArialMT-6b" x="1548.933594"/>
     </g>
    </g>
   </g>
   <g id="PolyCollection_1"/>
   <g id="PolyCollection_2"/>
   <g id="PolyCollection_3"/>
   <g id="PolyCollection_4"/>
   <g id="PolyCollection_5"/>
   <g id="PolyCollection_6"/>
   <g id="PolyCollection_7"/>
   <g id="line2d_1">
    <path d="M 230.727273 410.635874 
L 245.43083 438.481611 
L 260.134387 441.679209 
L 274.837945 457.555366 
L 289.541502 410.248943 
L 304.245059 494.235102 
L 318.948617 467.336889 
L 333.652174 435.361664 
L 348.355731 470.747131 
L 363.059289 492.76901 
L 377.762846 552.899483 
L 392.466403 475.139509 
L 407.16996 454.499619 
L 421.873518 543.492598 
L 436.577075 549.694531 
L 451.280632 556.898385 
L 465.98419 547.810332 
L 480.687747 527.29685 
L 495.391304 367.183435 
L 510.094862 526.269872 
L 524.798419 555.652056 
L 539.501976 522.930766 
L 554.205534 514.628992 
L 568.909091 525.878096 
L 583.612648 542.777779 
L 598.316206 521.80783 
L 613.019763 515.2426 
L 627.72332 532.148598 
L 642.426877 520.075932 
L 657.130435 520.804014 
L 671.833992 506.701442 
L 686.537549 432.463674 
L 701.241107 484.108086 
L 715.944664 446.820769 
L 730.648221 466.658209 
L 745.351779 509.273117 
L 760.055336 516.170486 
L 774.758893 540.17952 
L 789.462451 298.283435 
L 804.166008 521.926467 
L 818.869565 495.481736 
L 833.573123 530.668064 
L 848.27668 533.995615 
L 862.980237 544.055655 
L 877.683794 541.313465 
L 892.387352 529.581756 
L 907.090909 482.506039 
L 921.794466 439.691138 
L 936.498024 435.94123 
L 951.201581 438.858046 
L 965.905138 493.58313 
L 980.608696 454.586219 
L 995.312253 496.556263 
L 1010.01581 478.874795 
L 1024.719368 506.31288 
L 1039.422925 505.014815 
L 1054.126482 504.401231 
L 1068.83004 463.342957 
L 1083.533597 316.306224 
L 1098.237154 498.230112 
L 1112.940711 505.391102 
L 1127.644269 508.247104 
L 1142.347826 487.425378 
L 1157.051383 475.621776 
L 1171.754941 477.405925 
L 1186.458498 472.957571 
L 1201.162055 472.243835 
L 1215.865613 507.055794 
L 1230.56917 502.750797 
L 1245.272727 537.839872 
" clip-path="url(#p7292b31532)" style="fill: none; stroke: #4c72b0; stroke-width: 1.5; stroke-linecap: round"/>
   </g>
   <g id="line2d_2">
    <path d="M 230.727273 437.088787 
L 245.43083 434.977996 
L 260.134387 443.78675 
L 274.837945 429.994295 
L 289.541502 414.193832 
L 304.245059 502.409685 
L 318.948617 443.995583 
L 333.652174 415.936398 
L 348.355731 447.039472 
L 363.059289 454.25078 
L 377.762846 485.493492 
L 392.466403 345.241485 
L 407.16996 257.921914 
L 421.873518 441.532112 
L 436.577075 488.891835 
L 451.280632 496.595255 
L 465.98419 497.705336 
L 480.687747 468.810995 
L 495.391304 216.444148 
L 510.094862 469.470735 
L 524.798419 502.081425 
L 539.501976 495.93934 
L 554.205534 514.797574 
L 568.909091 508.798851 
L 583.612648 521.915271 
L 598.316206 515.489896 
L 613.019763 510.694047 
L 627.72332 515.466242 
L 642.426877 504.176628 
L 657.130435 470.88361 
L 671.833992 509.852378 
L 686.537549 439.677214 
L 701.241107 461.372058 
L 715.944664 446.307073 
L 730.648221 454.535266 
L 745.351779 492.330374 
L 760.055336 483.51475 
L 774.758893 513.715032 
L 789.462451 111.6 
L 804.166008 445.035661 
L 818.869565 416.262616 
L 833.573123 442.002754 
L 848.27668 469.588949 
L 862.980237 478.213402 
L 877.683794 465.261136 
L 892.387352 443.488371 
L 907.090909 424.46237 
L 921.794466 404.267405 
L 936.498024 427.788139 
L 951.201581 417.532718 
L 965.905138 431.925025 
L 980.608696 376.780919 
L 995.312253 481.245813 
L 1010.01581 400.006081 
L 1024.719368 443.165033 
L 1039.422925 437.058191 
L 1054.126482 436.999074 
L 1068.83004 433.663658 
L 1083.533597 240.920237 
L 1098.237154 456.184401 
L 1112.940711 464.221488 
L 1127.644269 548.849421 
L 1142.347826 564.229063 
L 1157.051383 576.917705 
L 1171.754941 523.159327 
L 1186.458498 572.989343 
L 1201.162055 504.036534 
L 1215.865613 489.158622 
L 1230.56917 471.119583 
L 1245.272727 479.31587 
" clip-path="url(#p7292b31532)" style="fill: none; stroke: #dd8452; stroke-width: 1.5; stroke-linecap: round"/>
   </g>
   <g id="line2d_3">
    <path d="M 230.727273 500.189519 
L 245.43083 508.65263 
L 260.134387 525.679156 
L 274.837945 527.548221 
L 289.541502 498.599607 
L 304.245059 551.480072 
L 318.948617 543.043301 
L 333.652174 525.380861 
L 348.355731 567.474638 
L 363.059289 520.097125 
L 377.762846 550.33016 
L 392.466403 441.179102 
L 407.16996 451.668678 
L 421.873518 537.473429 
L 436.577075 558.086861 
L 451.280632 549.146953 
L 465.98419 554.339143 
L 480.687747 542.099726 
L 495.391304 398.750339 
L 510.094862 529.310648 
L 524.798419 543.378797 
L 539.501976 545.090198 
L 554.205534 550.247927 
L 568.909091 540.614372 
L 583.612648 555.145376 
L 598.316206 547.945524 
L 613.019763 535.80824 
L 627.72332 551.65565 
L 642.426877 556.075485 
L 657.130435 523.121307 
L 671.833992 519.585811 
L 686.537549 499.064311 
L 701.241107 520.145505 
L 715.944664 501.755388 
L 730.648221 518.547992 
L 745.351779 540.147516 
L 760.055336 540.483466 
L 774.758893 552.641982 
L 789.462451 372.000552 
L 804.166008 542.011589 
L 818.869565 526.857672 
L 833.573123 544.26979 
L 848.27668 551.343738 
L 862.980237 534.78184 
L 877.683794 550.522389 
L 892.387352 539.733028 
L 907.090909 497.299433 
L 921.794466 493.832047 
L 936.498024 491.872364 
L 951.201581 486.170084 
L 965.905138 536.364895 
L 980.608696 462.605003 
L 995.312253 521.011802 
L 1010.01581 508.885909 
L 1024.719368 517.384989 
L 1039.422925 539.654212 
L 1054.126482 552.212418 
L 1068.83004 513.708646 
L 1083.533597 400.311311 
L 1098.237154 527.280932 
L 1112.940711 529.072129 
L 1127.644269 487.504917 
L 1142.347826 543.410584 
L 1157.051383 553.232576 
L 1171.754941 541.302468 
L 1186.458498 517.422593 
L 1201.162055 485.127249 
L 1215.865613 516.178683 
L 1230.56917 518.919053 
L 1245.272727 570.392803 
" clip-path="url(#p7292b31532)" style="fill: none; stroke: #55a868; stroke-width: 1.5; stroke-linecap: round"/>
   </g>
   <g id="line2d_4">
    <path d="M 230.727273 561.935539 
L 245.43083 572.924657 
L 260.134387 583.715767 
L 274.837945 573.284163 
L 289.541502 585.894786 
L 304.245059 591.389161 
L 318.948617 588.648599 
L 333.652174 553.76221 
L 348.355731 590.335151 
L 363.059289 578.047761 
L 377.762846 571.956139 
L 392.466403 548.902971 
L 407.16996 558.012307 
L 421.873518 599.288725 
L 436.577075 601.288959 
L 451.280632 604.748224 
L 465.98419 589.755892 
L 480.687747 596.101918 
L 495.391304 538.604229 
L 510.094862 588.976054 
L 524.798419 605.245483 
L 539.501976 602.277617 
L 554.205534 601.833939 
L 568.909091 585.544683 
L 583.612648 598.074156 
L 598.316206 597.770532 
L 613.019763 599.73796 
L 627.72332 603.636186 
L 642.426877 606.575179 
L 657.130435 595.047694 
L 671.833992 592.584237 
L 686.537549 574.238029 
L 701.241107 587.453248 
L 715.944664 579.864778 
L 730.648221 594.867432 
L 745.351779 595.81226 
L 760.055336 599.725013 
L 774.758893 597.836712 
L 789.462451 547.853507 
L 804.166008 582.796979 
L 818.869565 569.202673 
L 833.573123 594.568734 
L 848.27668 598.742981 
L 862.980237 594.529858 
L 877.683794 595.488366 
L 892.387352 594.065651 
L 907.090909 585.441021 
L 921.794466 580.720059 
L 936.498024 578.398796 
L 951.201581 582.573046 
L 965.905138 611.763716 
L 980.608696 573.346189 
L 995.312253 588.977201 
L 1010.01581 584.777095 
L 1024.719368 591.164864 
L 1039.422925 596.33768 
L 1054.126482 590.826571 
L 1068.83004 581.949696 
L 1083.533597 533.595366 
L 1098.237154 588.854523 
L 1112.940711 584.248856 
L 1127.644269 605.286351 
L 1142.347826 596.206031 
L 1157.051383 603.432627 
L 1171.754941 590.209203 
L 1186.458498 595.968963 
L 1201.162055 573.49797 
L 1215.865613 581.312677 
L 1230.56917 611.730573 
L 1245.272727 595.186489 
" clip-path="url(#p7292b31532)" style="fill: none; stroke: #c44e52; stroke-width: 1.5; stroke-linecap: round"/>
   </g>
   <g id="line2d_5">
    <path d="M 230.727273 569.082966 
L 245.43083 583.001345 
L 260.134387 593.467297 
L 274.837945 587.800819 
L 289.541502 579.514535 
L 304.245059 600.065522 
L 318.948617 601.165935 
L 333.652174 584.488117 
L 348.355731 600.082069 
L 363.059289 595.550846 
L 377.762846 596.986278 
L 392.466403 573.316528 
L 407.16996 568.308937 
L 421.873518 603.128274 
L 436.577075 600.549467 
L 451.280632 604.59357 
L 465.98419 597.526984 
L 480.687747 581.868636 
L 495.391304 507.975124 
L 510.094862 596.299505 
L 524.798419 608.23393 
L 539.501976 605.520627 
L 554.205534 603.771965 
L 568.909091 602.820972 
L 583.612648 604.367959 
L 598.316206 602.458603 
L 613.019763 602.383844 
L 627.72332 603.10572 
L 642.426877 606.436188 
L 657.130435 599.076502 
L 671.833992 589.987648 
L 686.537549 568.597193 
L 701.241107 588.20488 
L 715.944664 573.349137 
L 730.648221 583.81384 
L 745.351779 595.846926 
L 760.055336 603.396 
L 774.758893 604.436001 
L 789.462451 506.104951 
L 804.166008 608.29919 
L 818.869565 600.328831 
L 833.573123 605.154545 
L 848.27668 609.019218 
L 862.980237 607.264395 
L 877.683794 608.339691 
L 892.387352 601.79914 
L 907.090909 599.753959 
L 921.794466 583.051445 
L 936.498024 582.828553 
L 951.201581 584.67007 
L 965.905138 593.608543 
L 980.608696 581.780187 
L 995.312253 586.415599 
L 1010.01581 585.956388 
L 1024.719368 595.074639 
L 1039.422925 599.660842 
L 1054.126482 595.526179 
L 1068.83004 586.653972 
L 1083.533597 531.274794 
L 1098.237154 590.017713 
L 1112.940711 584.41987 
L 1127.644269 589.223811 
L 1142.347826 585.355144 
L 1157.051383 590.529402 
L 1171.754941 580.558705 
L 1186.458498 581.043277 
L 1201.162055 578.07863 
L 1215.865613 586.662245 
L 1230.56917 601.591525 
L 1245.272727 594.566369 
" clip-path="url(#p7292b31532)" style="fill: none; stroke: #8172b3; stroke-width: 1.5; stroke-linecap: round"/>
   </g>
   <g id="line2d_6">
    <path d="M 230.727273 537.85953 
L 245.43083 561.663991 
L 260.134387 572.925876 
L 274.837945 581.200992 
L 289.541502 576.68758 
L 304.245059 587.187088 
L 318.948617 594.720496 
L 333.652174 591.115529 
L 348.355731 597.357339 
L 363.059289 604.028239 
L 377.762846 606.714146 
L 392.466403 598.80444 
L 407.16996 603.881121 
L 421.873518 599.537052 
L 436.577075 604.471673 
L 451.280632 614.097968 
L 465.98419 598.958589 
L 480.687747 594.970963 
L 495.391304 582.973801 
L 510.094862 596.240034 
L 524.798419 613.065244 
L 539.501976 602.579425 
L 554.205534 612.924934 
L 568.909091 608.930087 
L 583.612648 614.688747 
L 598.316206 614.449507 
L 613.019763 613.164345 
L 627.72332 615.6 
L 642.426877 608.726996 
L 657.130435 608.944592 
L 671.833992 609.080058 
L 686.537549 558.121691 
L 701.241107 605.6101 
L 715.944664 604.220544 
L 730.648221 610.290341 
L 745.351779 613.329403 
L 760.055336 611.213284 
L 774.758893 615.04516 
L 789.462451 552.37719 
L 804.166008 596.897596 
L 818.869565 604.776959 
L 833.573123 612.018587 
L 848.27668 614.376513 
L 862.980237 610.628212 
L 877.683794 613.405084 
L 892.387352 610.898424 
L 907.090909 609.976959 
L 921.794466 604.635113 
L 936.498024 602.376426 
L 951.201581 607.363341 
L 965.905138 603.907757 
L 980.608696 600.831976 
L 995.312253 606.808631 
L 1010.01581 612.804017 
L 1024.719368 609.094436 
L 1039.422925 607.225251 
L 1054.126482 610.235903 
L 1068.83004 609.937371 
L 1083.533597 599.028195 
L 1098.237154 611.83055 
L 1112.940711 597.86797 
L 1127.644269 611.292159 
L 1142.347826 613.057638 
L 1157.051383 609.595584 
L 1171.754941 615.491438 
L 1186.458498 614.321647 
L 1201.162055 613.02799 
L 1215.865613 588.879147 
L 1230.56917 605.332336 
L 1245.272727 610.760647 
" clip-path="url(#p7292b31532)" style="fill: none; stroke: #937860; stroke-width: 1.5; stroke-linecap: round"/>
   </g>
   <g id="line2d_7">
    <path d="M 230.727273 575.931004 
L 245.43083 582.535194 
L 260.134387 573.068412 
L 274.837945 585.124906 
L 289.541502 571.65663 
L 304.245059 584.323669 
L 318.948617 586.666351 
L 333.652174 579.439655 
L 348.355731 584.615974 
L 363.059289 587.322007 
L 377.762846 576.175516 
L 392.466403 550.526959 
L 407.16996 540.024996 
L 421.873518 584.914959 
L 436.577075 584.478125 
L 451.280632 589.336407 
L 465.98419 588.744936 
L 480.687747 573.5134 
L 495.391304 537.32688 
L 510.094862 571.590194 
L 524.798419 602.050466 
L 539.501976 597.019136 
L 554.205534 600.983881 
L 568.909091 595.763307 
L 583.612648 602.094995 
L 598.316206 596.546285 
L 613.019763 596.144214 
L 627.72332 606.171573 
L 642.426877 597.655567 
L 657.130435 593.993018 
L 671.833992 585.787147 
L 686.537549 551.733527 
L 701.241107 580.195105 
L 715.944664 579.370696 
L 730.648221 588.663659 
L 745.351779 600.881182 
L 760.055336 593.585624 
L 774.758893 598.853665 
L 789.462451 540.458668 
L 804.166008 578.399528 
L 818.869565 578.480392 
L 833.573123 600.51513 
L 848.27668 604.138587 
L 862.980237 600.289313 
L 877.683794 606.990718 
L 892.387352 598.991068 
L 907.090909 588.05105 
L 921.794466 597.855821 
L 936.498024 574.855164 
L 951.201581 583.11101 
L 965.905138 589.601485 
L 980.608696 560.262309 
L 995.312253 563.814162 
L 1010.01581 596.742719 
L 1024.719368 584.509062 
L 1039.422925 570.168194 
L 1054.126482 570.087386 
L 1068.83004 574.307802 
L 1083.533597 480.734137 
L 1098.237154 578.74636 
L 1112.940711 555.30868 
L 1127.644269 590.761759 
L 1142.347826 567.379037 
L 1157.051383 598.273824 
L 1171.754941 603.948729 
L 1186.458498 595.0442 
L 1201.162055 575.780657 
L 1215.865613 546.046581 
L 1230.56917 573.5485 
L 1245.272727 614.177103 
" clip-path="url(#p7292b31532)" style="fill: none; stroke: #da8bc3; stroke-width: 1.5; stroke-linecap: round"/>
   </g>
   <g id="line2d_8"/>
   <g id="line2d_9"/>
   <g id="line2d_10"/>
   <g id="line2d_11"/>
   <g id="line2d_12"/>
   <g id="line2d_13"/>
   <g id="line2d_14"/>
   <g id="patch_3">
    <path d="M 180 640.8 
L 180 86.4 
" style="fill: none; stroke: #262626; stroke-width: 1.25; stroke-linejoin: miter; stroke-linecap: square"/>
   </g>
   <g id="patch_4">
    <path d="M 1296 640.8 
L 1296 86.4 
" style="fill: none; stroke: #262626; stroke-width: 1.25; stroke-linejoin: miter; stroke-linecap: square"/>
   </g>
   <g id="patch_5">
    <path d="M 180 640.8 
L 1296 640.8 
" style="fill: none; stroke: #262626; stroke-width: 1.25; stroke-linejoin: miter; stroke-linecap: square"/>
   </g>
   <g id="patch_6">
    <path d="M 180 86.4 
L 1296 86.4 
" style="fill: none; stroke: #262626; stroke-width: 1.25; stroke-linejoin: miter; stroke-linecap: square"/>
   </g>
   <g id="text_26">
    <!-- Frequency of Occurences of the word Nato per Week per Language -->
    <g style="fill: #262626" transform="translate(557.685 80.4) scale(0.12 -0.12)">
     <defs>
      <path id="ArialMT-74" d="M 1650 503 
L 1731 6 
Q 1494 -44 1306 -44 
Q 1000 -44 831 53 
Q 663 150 594 308 
Q 525 466 525 972 
L 525 2881 
L 113 2881 
L 113 3319 
L 525 3319 
L 525 4141 
L 1084 4478 
L 1084 3319 
L 1650 3319 
L 1650 2881 
L 1084 2881 
L 1084 941 
Q 1084 700 1114 631 
Q 1144 563 1211 522 
Q 1278 481 1403 481 
Q 1497 481 1650 503 
z
" transform="scale(0.015625)"/>
      <path id="ArialMT-68" d="M 422 0 
L 422 4581 
L 984 4581 
L 984 2938 
Q 1378 3394 1978 3394 
Q 2347 3394 2619 3248 
Q 2891 3103 3008 2847 
Q 3125 2591 3125 2103 
L 3125 0 
L 2563 0 
L 2563 2103 
Q 2563 2525 2380 2717 
Q 2197 2909 1863 2909 
Q 1613 2909 1392 2779 
Q 1172 2650 1078 2428 
Q 984 2206 984 1816 
L 984 0 
L 422 0 
z
" transform="scale(0.015625)"/>
      <path id="ArialMT-77" d="M 1034 0 
L 19 3319 
L 600 3319 
L 1128 1403 
L 1325 691 
Q 1338 744 1497 1375 
L 2025 3319 
L 2603 3319 
L 3100 1394 
L 3266 759 
L 3456 1400 
L 4025 3319 
L 4572 3319 
L 3534 0 
L 2950 0 
L 2422 1988 
L 2294 2553 
L 1622 0 
L 1034 0 
z
" transform="scale(0.015625)"/>
      <path id="ArialMT-64" d="M 2575 0 
L 2575 419 
Q 2259 -75 1647 -75 
Q 1250 -75 917 144 
Q 584 363 401 755 
Q 219 1147 219 1656 
Q 219 2153 384 2558 
Q 550 2963 881 3178 
Q 1213 3394 1622 3394 
Q 1922 3394 2156 3267 
Q 2391 3141 2538 2938 
L 2538 4581 
L 3097 4581 
L 3097 0 
L 2575 0 
z
M 797 1656 
Q 797 1019 1065 703 
Q 1334 388 1700 388 
Q 2069 388 2326 689 
Q 2584 991 2584 1609 
Q 2584 2291 2321 2609 
Q 2059 2928 1675 2928 
Q 1300 2928 1048 2622 
Q 797 2316 797 1656 
z
" transform="scale(0.015625)"/>
      <path id="ArialMT-4e" d="M 488 0 
L 488 4581 
L 1109 4581 
L 3516 984 
L 3516 4581 
L 4097 4581 
L 4097 0 
L 3475 0 
L 1069 3600 
L 1069 0 
L 488 0 
z
" transform="scale(0.015625)"/>
      <path id="ArialMT-61" d="M 2588 409 
Q 2275 144 1986 34 
Q 1697 -75 1366 -75 
Q 819 -75 525 192 
Q 231 459 231 875 
Q 231 1119 342 1320 
Q 453 1522 633 1644 
Q 813 1766 1038 1828 
Q 1203 1872 1538 1913 
Q 2219 1994 2541 2106 
Q 2544 2222 2544 2253 
Q 2544 2597 2384 2738 
Q 2169 2928 1744 2928 
Q 1347 2928 1158 2789 
Q 969 2650 878 2297 
L 328 2372 
Q 403 2725 575 2942 
Q 747 3159 1072 3276 
Q 1397 3394 1825 3394 
Q 2250 3394 2515 3294 
Q 2781 3194 2906 3042 
Q 3031 2891 3081 2659 
Q 3109 2516 3109 2141 
L 3109 1391 
Q 3109 606 3145 398 
Q 3181 191 3288 0 
L 2700 0 
Q 2613 175 2588 409 
z
M 2541 1666 
Q 2234 1541 1622 1453 
Q 1275 1403 1131 1340 
Q 988 1278 909 1158 
Q 831 1038 831 891 
Q 831 666 1001 516 
Q 1172 366 1500 366 
Q 1825 366 2078 508 
Q 2331 650 2450 897 
Q 2541 1088 2541 1459 
L 2541 1666 
z
" transform="scale(0.015625)"/>
      <path id="ArialMT-4c" d="M 469 0 
L 469 4581 
L 1075 4581 
L 1075 541 
L 3331 541 
L 3331 0 
L 469 0 
z
" transform="scale(0.015625)"/>
      <path id="ArialMT-67" d="M 319 -275 
L 866 -356 
Q 900 -609 1056 -725 
Q 1266 -881 1628 -881 
Q 2019 -881 2231 -725 
Q 2444 -569 2519 -288 
Q 2563 -116 2559 434 
Q 2191 0 1641 0 
Q 956 0 581 494 
Q 206 988 206 1678 
Q 206 2153 378 2554 
Q 550 2956 876 3175 
Q 1203 3394 1644 3394 
Q 2231 3394 2613 2919 
L 2613 3319 
L 3131 3319 
L 3131 450 
Q 3131 -325 2973 -648 
Q 2816 -972 2473 -1159 
Q 2131 -1347 1631 -1347 
Q 1038 -1347 672 -1080 
Q 306 -813 319 -275 
z
M 784 1719 
Q 784 1066 1043 766 
Q 1303 466 1694 466 
Q 2081 466 2343 764 
Q 2606 1063 2606 1700 
Q 2606 2309 2336 2618 
Q 2066 2928 1684 2928 
Q 1309 2928 1046 2623 
Q 784 2319 784 1719 
z
" transform="scale(0.015625)"/>
     </defs>
     <use xlink:href="#ArialMT-46"/>
     <use xlink:href="#ArialMT-72" x="61.083984"/>
     <use xlink:href="#ArialMT-65" x="94.384766"/>
     <use xlink:href="#ArialMT-71" x="150"/>
     <use xlink:href="#ArialMT-75" x="205.615234"/>
     <use xlink:href="#ArialMT-65" x="261.230469"/>
     <use xlink:href="#ArialMT-6e" x="316.845703"/>
     <use xlink:href="#ArialMT-63" x="372.460938"/>
     <use xlink:href="#ArialMT-79" x="422.460938"/>
     <use xlink:href="#ArialMT-20" x="472.460938"/>
     <use xlink:href="#ArialMT-6f" x="500.244141"/>
     <use xlink:href="#ArialMT-66" x="555.859375"/>
     <use xlink:href="#ArialMT-20" x="583.642578"/>
     <use xlink:href="#ArialMT-4f" x="611.425781"/>
     <use xlink:href="#ArialMT-63" x="689.208984"/>
     <use xlink:href="#ArialMT-63" x="739.208984"/>
     <use xlink:href="#ArialMT-75" x="789.208984"/>
     <use xlink:href="#ArialMT-72" x="844.824219"/>
     <use xlink:href="#ArialMT-65" x="878.125"/>
     <use xlink:href="#ArialMT-6e" x="933.740234"/>
     <use xlink:href="#ArialMT-63" x="989.355469"/>
     <use xlink:href="#ArialMT-65" x="1039.355469"/>
     <use xlink:href="#ArialMT-73" x="1094.970703"/>
     <use xlink:href="#ArialMT-20" x="1144.970703"/>
     <use xlink:href="#ArialMT-6f" x="1172.753906"/>
     <use xlink:href="#ArialMT-66" x="1228.369141"/>
     <use xlink:href="#ArialMT-20" x="1256.152344"/>
     <use xlink:href="#ArialMT-74" x="1283.935547"/>
     <use xlink:href="#ArialMT-68" x="1311.71875"/>
     <use xlink:href="#ArialMT-65" x="1367.333984"/>
     <use xlink:href="#ArialMT-20" x="1422.949219"/>
     <use xlink:href="#ArialMT-77" x="1450.732422"/>
     <use xlink:href="#ArialMT-6f" x="1522.949219"/>
     <use xlink:href="#ArialMT-72" x="1578.564453"/>
     <use xlink:href="#ArialMT-64" x="1611.865234"/>
     <use xlink:href="#ArialMT-20" x="1667.480469"/>
     <use xlink:href="#ArialMT-4e" x="1695.263672"/>
     <use xlink:href="#ArialMT-61" x="1767.480469"/>
     <use xlink:href="#ArialMT-74" x="1823.095703"/>
     <use xlink:href="#ArialMT-6f" x="1850.878906"/>
     <use xlink:href="#ArialMT-20" x="1906.494141"/>
     <use xlink:href="#ArialMT-70" x="1934.277344"/>
     <use xlink:href="#ArialMT-65" x="1989.892578"/>
     <use xlink:href="#ArialMT-72" x="2045.507812"/>
     <use xlink:href="#ArialMT-20" x="2078.808594"/>
     <use xlink:href="#ArialMT-57" x="2106.591797"/>
     <use xlink:href="#ArialMT-65" x="2199.226562"/>
     <use xlink:href="#ArialMT-65" x="2254.841797"/>
     <use xlink:href="#ArialMT-6b" x="2310.457031"/>
     <use xlink:href="#ArialMT-20" x="2360.457031"/>
     <use xlink:href="#ArialMT-70" x="2388.240234"/>
     <use xlink:href="#ArialMT-65" x="2443.855469"/>
     <use xlink:href="#ArialMT-72" x="2499.470703"/>
     <use xlink:href="#ArialMT-20" x="2532.771484"/>
     <use xlink:href="#ArialMT-4c" x="2560.554688"/>
     <use xlink:href="#ArialMT-61" x="2616.169922"/>
     <use xlink:href="#ArialMT-6e" x="2671.785156"/>
     <use xlink:href="#ArialMT-67" x="2727.400391"/>
     <use xlink:href="#ArialMT-75" x="2783.015625"/>
     <use xlink:href="#ArialMT-61" x="2838.630859"/>
     <use xlink:href="#ArialMT-67" x="2894.246094"/>
     <use xlink:href="#ArialMT-65" x="2949.861328"/>
    </g>
   </g>
   <g id="legend_1">
    <g id="patch_7">
     <path d="M 1230.515 220.733906 
L 1288.3 220.733906 
Q 1290.5 220.733906 1290.5 218.533906 
L 1290.5 94.1 
Q 1290.5 91.9 1288.3 91.9 
L 1230.515 91.9 
Q 1228.315 91.9 1228.315 94.1 
L 1228.315 218.533906 
Q 1228.315 220.733906 1230.515 220.733906 
z
" style="fill: #ffffff; opacity: 0.8; stroke: #cccccc; stroke-linejoin: miter"/>
    </g>
    <g id="text_27">
     <!-- Language -->
     <g style="fill: #262626" transform="translate(1232.715 104.889375) scale(0.12 -0.12)">
      <use xlink:href="#ArialMT-4c"/>
      <use xlink:href="#ArialMT-61" x="55.615234"/>
      <use xlink:href="#ArialMT-6e" x="111.230469"/>
      <use xlink:href="#ArialMT-67" x="166.845703"/>
      <use xlink:href="#ArialMT-75" x="222.460938"/>
      <use xlink:href="#ArialMT-61" x="278.076172"/>
      <use xlink:href="#ArialMT-67" x="333.691406"/>
      <use xlink:href="#ArialMT-65" x="389.306641"/>
     </g>
    </g>
    <g id="line2d_15">
     <path d="M 1237.890469 116.938594 
L 1248.890469 116.938594 
L 1259.890469 116.938594 
" style="fill: none; stroke: #4c72b0; stroke-width: 1.5; stroke-linecap: round"/>
    </g>
    <g id="text_28">
     <!-- en -->
     <g style="fill: #262626" transform="translate(1268.690469 120.788594) scale(0.11 -0.11)">
      <use xlink:href="#ArialMT-65"/>
      <use xlink:href="#ArialMT-6e" x="55.615234"/>
     </g>
    </g>
    <g id="line2d_16">
     <path d="M 1237.890469 132.498438 
L 1248.890469 132.498438 
L 1259.890469 132.498438 
" style="fill: none; stroke: #dd8452; stroke-width: 1.5; stroke-linecap: round"/>
    </g>
    <g id="text_29">
     <!-- de -->
     <g style="fill: #262626" transform="translate(1268.690469 136.348438) scale(0.11 -0.11)">
      <use xlink:href="#ArialMT-64"/>
      <use xlink:href="#ArialMT-65" x="55.615234"/>
     </g>
    </g>
    <g id="line2d_17">
     <path d="M 1237.890469 148.058281 
L 1248.890469 148.058281 
L 1259.890469 148.058281 
" style="fill: none; stroke: #55a868; stroke-width: 1.5; stroke-linecap: round"/>
    </g>
    <g id="text_30">
     <!-- fr -->
     <g style="fill: #262626" transform="translate(1268.690469 151.908281) scale(0.11 -0.11)">
      <use xlink:href="#ArialMT-66"/>
      <use xlink:href="#ArialMT-72" x="27.783203"/>
     </g>
    </g>
    <g id="line2d_18">
     <path d="M 1237.890469 163.618125 
L 1248.890469 163.618125 
L 1259.890469 163.618125 
" style="fill: none; stroke: #c44e52; stroke-width: 1.5; stroke-linecap: round"/>
    </g>
    <g id="text_31">
     <!-- it -->
     <g style="fill: #262626" transform="translate(1268.690469 167.468125) scale(0.11 -0.11)">
      <defs>
       <path id="ArialMT-69" d="M 425 3934 
L 425 4581 
L 988 4581 
L 988 3934 
L 425 3934 
z
M 425 0 
L 425 3319 
L 988 3319 
L 988 0 
L 425 0 
z
" transform="scale(0.015625)"/>
      </defs>
      <use xlink:href="#ArialMT-69"/>
      <use xlink:href="#ArialMT-74" x="22.216797"/>
     </g>
    </g>
    <g id="line2d_19">
     <path d="M 1237.890469 179.177969 
L 1248.890469 179.177969 
L 1259.890469 179.177969 
" style="fill: none; stroke: #8172b3; stroke-width: 1.5; stroke-linecap: round"/>
    </g>
    <g id="text_32">
     <!-- es -->
     <g style="fill: #262626" transform="translate(1268.690469 183.027969) scale(0.11 -0.11)">
      <use xlink:href="#ArialMT-65"/>
      <use xlink:href="#ArialMT-73" x="55.615234"/>
     </g>
    </g>
    <g id="line2d_20">
     <path d="M 1237.890469 194.737813 
L 1248.890469 194.737813 
L 1259.890469 194.737813 
" style="fill: none; stroke: #937860; stroke-width: 1.5; stroke-linecap: round"/>
    </g>
    <g id="text_33">
     <!-- uk -->
     <g style="fill: #262626" transform="translate(1268.690469 198.587813) scale(0.11 -0.11)">
      <use xlink:href="#ArialMT-75"/>
      <use xlink:href="#ArialMT-6b" x="55.615234"/>
     </g>
    </g>
    <g id="line2d_21">
     <path d="M 1237.890469 210.297656 
L 1248.890469 210.297656 
L 1259.890469 210.297656 
" style="fill: none; stroke: #da8bc3; stroke-width: 1.5; stroke-linecap: round"/>
    </g>
    <g id="text_34">
     <!-- ru -->
     <g style="fill: #262626" transform="translate(1268.690469 214.147656) scale(0.11 -0.11)">
      <use xlink:href="#ArialMT-72"/>
      <use xlink:href="#ArialMT-75" x="33.300781"/>
     </g>
    </g>
   </g>
  </g>
 </g>
 <defs>
  <clipPath id="p7292b31532">
   <rect x="180" y="86.4" width="1116" height="554.4"/>
  </clipPath>
 </defs>
</svg>
