<?xml version="1.0" encoding="utf-8" standalone="no"?>
<!DOCTYPE svg PUBLIC "-//W3C//DTD SVG 1.1//EN"
  "http://www.w3.org/Graphics/SVG/1.1/DTD/svg11.dtd">
<svg xmlns:xlink="http://www.w3.org/1999/xlink" width="1440pt" height="720pt" viewBox="0 0 1440 720" xmlns="http://www.w3.org/2000/svg" version="1.1">
 <metadata>
  <rdf:RDF xmlns:dc="http://purl.org/dc/elements/1.1/" xmlns:cc="http://creativecommons.org/ns#" xmlns:rdf="http://www.w3.org/1999/02/22-rdf-syntax-ns#">
   <cc:Work>
    <dc:type rdf:resource="http://purl.org/dc/dcmitype/StillImage"/>
    <dc:date>2024-06-15T17:44:54.149336</dc:date>
    <dc:format>image/svg+xml</dc:format>
    <dc:creator>
     <cc:Agent>
      <dc:title>Matplotlib v3.8.2, https://matplotlib.org/</dc:title>
     </cc:Agent>
    </dc:creator>
   </cc:Work>
  </rdf:RDF>
 </metadata>
 <defs>
  <style type="text/css">*{stroke-linejoin: round; stroke-linecap: butt}</style>
 </defs>
 <g id="figure_1">
  <g id="patch_1">
   <path d="M 0 720 
L 1440 720 
L 1440 0 
L 0 0 
z
" style="fill: #ffffff"/>
  </g>
  <g id="axes_1">
   <g id="patch_2">
    <path d="M 180 640.8 
L 1296 640.8 
L 1296 86.4 
L 180 86.4 
z
" style="fill: #ffffff"/>
   </g>
   <g id="PolyCollection_1">
    <path d="M 230.727273 498.703194 
L 230.727273 640.8 
L 245.43083 640.8 
L 260.134387 640.8 
L 274.837945 640.8 
L 289.541502 640.8 
L 304.245059 640.8 
L 318.948617 640.8 
L 333.652174 640.8 
L 348.355731 640.8 
L 363.059289 640.8 
L 377.762846 640.8 
L 392.466403 640.8 
L 407.16996 640.8 
L 421.873518 640.8 
L 436.577075 640.8 
L 451.280632 640.8 
L 465.98419 640.8 
L 480.687747 640.8 
L 495.391304 640.8 
L 510.094862 640.8 
L 524.798419 640.8 
L 539.501976 640.8 
L 554.205534 640.8 
L 568.909091 640.8 
L 583.612648 640.8 
L 598.316206 640.8 
L 613.019763 640.8 
L 627.72332 640.8 
L 642.426877 640.8 
L 657.130435 640.8 
L 671.833992 640.8 
L 686.537549 640.8 
L 701.241107 640.8 
L 715.944664 640.8 
L 730.648221 640.8 
L 745.351779 640.8 
L 760.055336 640.8 
L 774.758893 640.8 
L 789.462451 640.8 
L 804.166008 640.8 
L 818.869565 640.8 
L 833.573123 640.8 
L 848.27668 640.8 
L 862.980237 640.8 
L 877.683794 640.8 
L 892.387352 640.8 
L 907.090909 640.8 
L 921.794466 640.8 
L 936.498024 640.8 
L 951.201581 640.8 
L 965.905138 640.8 
L 980.608696 640.8 
L 995.312253 640.8 
L 1010.01581 640.8 
L 1024.719368 640.8 
L 1039.422925 640.8 
L 1054.126482 640.8 
L 1068.83004 640.8 
L 1083.533597 640.8 
L 1098.237154 640.8 
L 1112.940711 640.8 
L 1127.644269 640.8 
L 1142.347826 640.8 
L 1157.051383 640.8 
L 1171.754941 640.8 
L 1186.458498 640.8 
L 1201.162055 640.8 
L 1215.865613 640.8 
L 1230.56917 640.8 
L 1245.272727 640.8 
L 1245.272727 636.747507 
L 1245.272727 636.747507 
L 1230.56917 620.224073 
L 1215.865613 582.339929 
L 1201.162055 626.006699 
L 1186.458498 632.045855 
L 1171.754941 625.992305 
L 1157.051383 623.915281 
L 1142.347826 626.747979 
L 1127.644269 627.958337 
L 1112.940711 604.612724 
L 1098.237154 558.615759 
L 1083.533597 553.382336 
L 1068.83004 544.671692 
L 1054.126482 526.551026 
L 1039.422925 531.082831 
L 1024.719368 544.610118 
L 1010.01581 529.46337 
L 995.312253 561.629499 
L 980.608696 611.284567 
L 965.905138 609.252004 
L 951.201581 617.596566 
L 936.498024 613.849062 
L 921.794466 615.016238 
L 907.090909 614.701654 
L 892.387352 615.828368 
L 877.683794 614.569711 
L 862.980237 604.012023 
L 848.27668 613.070677 
L 833.573123 610.934318 
L 818.869565 611.617224 
L 804.166008 605.159848 
L 789.462451 607.332032 
L 774.758893 610.010237 
L 760.055336 613.884086 
L 745.351779 608.75142 
L 730.648221 612.651978 
L 715.944664 602.139391 
L 701.241107 606.836885 
L 686.537549 607.931613 
L 671.833992 604.396338 
L 657.130435 607.044156 
L 642.426877 609.9114 
L 627.72332 612.874282 
L 613.019763 612.909947 
L 598.316206 615.945278 
L 583.612648 610.955749 
L 568.909091 496.595623 
L 554.205534 530.315162 
L 539.501976 536.406936 
L 524.798419 501.166772 
L 510.094862 512.262307 
L 495.391304 494.107576 
L 480.687747 491.229936 
L 465.98419 477.523207 
L 451.280632 453.285019 
L 436.577075 465.73629 
L 421.873518 462.672811 
L 407.16996 433.078052 
L 392.466403 396.97474 
L 377.762846 377.150329 
L 363.059289 386.402339 
L 348.355731 355.066252 
L 333.652174 358.037131 
L 318.948617 331.878011 
L 304.245059 351.177689 
L 289.541502 318.0363 
L 274.837945 294.098302 
L 260.134387 283.307915 
L 245.43083 290.086752 
L 230.727273 498.703194 
z
" clip-path="url(#pb208488320)" style="fill: #1f77b4; fill-opacity: 0.8"/>
   </g>
   <g id="PolyCollection_2">
    <path d="M 230.727273 488.593153 
L 230.727273 498.703194 
L 245.43083 290.086752 
L 260.134387 283.307915 
L 274.837945 294.098302 
L 289.541502 318.0363 
L 304.245059 351.177689 
L 318.948617 331.878011 
L 333.652174 358.037131 
L 348.355731 355.066252 
L 363.059289 386.402339 
L 377.762846 377.150329 
L 392.466403 396.97474 
L 407.16996 433.078052 
L 421.873518 462.672811 
L 436.577075 465.73629 
L 451.280632 453.285019 
L 465.98419 477.523207 
L 480.687747 491.229936 
L 495.391304 494.107576 
L 510.094862 512.262307 
L 524.798419 501.166772 
L 539.501976 536.406936 
L 554.205534 530.315162 
L 568.909091 496.595623 
L 583.612648 610.955749 
L 598.316206 615.945278 
L 613.019763 612.909947 
L 627.72332 612.874282 
L 642.426877 609.9114 
L 657.130435 607.044156 
L 671.833992 604.396338 
L 686.537549 607.931613 
L 701.241107 606.836885 
L 715.944664 602.139391 
L 730.648221 612.651978 
L 745.351779 608.75142 
L 760.055336 613.884086 
L 774.758893 610.010237 
L 789.462451 607.332032 
L 804.166008 605.159848 
L 818.869565 611.617224 
L 833.573123 610.934318 
L 848.27668 613.070677 
L 862.980237 604.012023 
L 877.683794 614.569711 
L 892.387352 615.828368 
L 907.090909 614.701654 
L 921.794466 615.016238 
L 936.498024 613.849062 
L 951.201581 617.596566 
L 965.905138 609.252004 
L 980.608696 611.284567 
L 995.312253 561.629499 
L 1010.01581 529.46337 
L 1024.719368 544.610118 
L 1039.422925 531.082831 
L 1054.126482 526.551026 
L 1068.83004 544.671692 
L 1083.533597 553.382336 
L 1098.237154 558.615759 
L 1112.940711 604.612724 
L 1127.644269 627.958337 
L 1142.347826 626.747979 
L 1157.051383 623.915281 
L 1171.754941 625.992305 
L 1186.458498 632.045855 
L 1201.162055 626.006699 
L 1215.865613 582.339929 
L 1230.56917 620.224073 
L 1245.272727 636.747507 
L 1245.272727 636.424287 
L 1245.272727 636.424287 
L 1230.56917 617.587609 
L 1215.865613 576.961608 
L 1201.162055 624.945237 
L 1186.458498 631.783568 
L 1171.754941 625.30956 
L 1157.051383 622.930745 
L 1142.347826 626.029889 
L 1127.644269 627.405776 
L 1112.940711 601.855993 
L 1098.237154 550.59026 
L 1083.533597 542.573716 
L 1068.83004 535.441912 
L 1054.126482 517.159235 
L 1039.422925 521.413241 
L 1024.719368 535.291577 
L 1010.01581 516.693996 
L 995.312253 547.517025 
L 980.608696 607.138835 
L 965.905138 605.374796 
L 951.201581 614.212265 
L 936.498024 607.612871 
L 921.794466 610.083006 
L 907.090909 611.848964 
L 892.387352 613.065719 
L 877.683794 612.466458 
L 862.980237 601.570036 
L 848.27668 610.896255 
L 833.573123 608.841461 
L 818.869565 609.126298 
L 804.166008 602.368892 
L 789.462451 603.630108 
L 774.758893 607.569529 
L 760.055336 610.919765 
L 745.351779 605.270841 
L 730.648221 609.176836 
L 715.944664 597.301317 
L 701.241107 602.058306 
L 686.537549 600.415654 
L 671.833992 598.503359 
L 657.130435 602.319953 
L 642.426877 605.697217 
L 627.72332 609.255682 
L 613.019763 609.311818 
L 598.316206 612.64702 
L 583.612648 608.526397 
L 568.909091 486.997362 
L 554.205534 519.771229 
L 539.501976 525.608392 
L 524.798419 489.374576 
L 510.094862 500.552636 
L 495.391304 479.957677 
L 480.687747 477.103548 
L 465.98419 463.911956 
L 451.280632 440.62104 
L 436.577075 451.274366 
L 421.873518 447.895343 
L 407.16996 418.341207 
L 392.466403 376.662379 
L 377.762846 352.811224 
L 363.059289 359.713688 
L 348.355731 328.816611 
L 333.652174 332.255768 
L 318.948617 308.541994 
L 304.245059 329.301042 
L 289.541502 298.48649 
L 274.837945 272.615406 
L 260.134387 259.894811 
L 245.43083 268.84935 
L 230.727273 488.593153 
z
" clip-path="url(#pb208488320)" style="fill: #ff7f0e; fill-opacity: 0.8"/>
   </g>
   <g id="PolyCollection_3">
    <path d="M 230.727273 473.220742 
L 230.727273 488.593153 
L 245.43083 268.84935 
L 260.134387 259.894811 
L 274.837945 272.615406 
L 289.541502 298.48649 
L 304.245059 329.301042 
L 318.948617 308.541994 
L 333.652174 332.255768 
L 348.355731 328.816611 
L 363.059289 359.713688 
L 377.762846 352.811224 
L 392.466403 376.662379 
L 407.16996 418.341207 
L 421.873518 447.895343 
L 436.577075 451.274366 
L 451.280632 440.62104 
L 465.98419 463.911956 
L 480.687747 477.103548 
L 495.391304 479.957677 
L 510.094862 500.552636 
L 524.798419 489.374576 
L 539.501976 525.608392 
L 554.205534 519.771229 
L 568.909091 486.997362 
L 583.612648 608.526397 
L 598.316206 612.64702 
L 613.019763 609.311818 
L 627.72332 609.255682 
L 642.426877 605.697217 
L 657.130435 602.319953 
L 671.833992 598.503359 
L 686.537549 600.415654 
L 701.241107 602.058306 
L 715.944664 597.301317 
L 730.648221 609.176836 
L 745.351779 605.270841 
L 760.055336 610.919765 
L 774.758893 607.569529 
L 789.462451 603.630108 
L 804.166008 602.368892 
L 818.869565 609.126298 
L 833.573123 608.841461 
L 848.27668 610.896255 
L 862.980237 601.570036 
L 877.683794 612.466458 
L 892.387352 613.065719 
L 907.090909 611.848964 
L 921.794466 610.083006 
L 936.498024 607.612871 
L 951.201581 614.212265 
L 965.905138 605.374796 
L 980.608696 607.138835 
L 995.312253 547.517025 
L 1010.01581 516.693996 
L 1024.719368 535.291577 
L 1039.422925 521.413241 
L 1054.126482 517.159235 
L 1068.83004 535.441912 
L 1083.533597 542.573716 
L 1098.237154 550.59026 
L 1112.940711 601.855993 
L 1127.644269 627.405776 
L 1142.347826 626.029889 
L 1157.051383 622.930745 
L 1171.754941 625.30956 
L 1186.458498 631.783568 
L 1201.162055 624.945237 
L 1215.865613 576.961608 
L 1230.56917 617.587609 
L 1245.272727 636.424287 
L 1245.272727 636.066201 
L 1245.272727 636.066201 
L 1230.56917 615.095244 
L 1215.865613 570.637455 
L 1201.162055 621.585246 
L 1186.458498 629.126954 
L 1171.754941 614.067367 
L 1157.051383 619.897333 
L 1142.347826 624.240581 
L 1127.644269 625.84101 
L 1112.940711 598.236434 
L 1098.237154 541.807487 
L 1083.533597 533.076212 
L 1068.83004 525.020166 
L 1054.126482 501.908052 
L 1039.422925 508.663219 
L 1024.719368 524.564842 
L 1010.01581 501.14726 
L 995.312253 536.834271 
L 980.608696 604.310135 
L 965.905138 601.906371 
L 951.201581 611.862878 
L 936.498024 604.143807 
L 921.794466 607.602475 
L 907.090909 609.831434 
L 892.387352 610.864429 
L 877.683794 610.524255 
L 862.980237 599.379141 
L 848.27668 608.733028 
L 833.573123 606.857996 
L 818.869565 606.978904 
L 804.166008 599.280144 
L 789.462451 600.479787 
L 774.758893 605.283315 
L 760.055336 608.881124 
L 745.351779 602.715463 
L 730.648221 606.252337 
L 715.944664 592.877465 
L 701.241107 598.262023 
L 686.537549 595.730794 
L 671.833992 594.156753 
L 657.130435 599.338839 
L 642.426877 602.440381 
L 627.72332 606.349575 
L 613.019763 606.319668 
L 598.316206 610.204073 
L 583.612648 606.38508 
L 568.909091 469.293316 
L 554.205534 508.024135 
L 539.501976 514.729723 
L 524.798419 477.938388 
L 510.094862 490.401654 
L 495.391304 466.081421 
L 480.687747 466.552098 
L 465.98419 440.333004 
L 451.280632 430.292214 
L 436.577075 440.074235 
L 421.873518 437.499506 
L 407.16996 403.512081 
L 392.466403 359.49906 
L 377.762846 333.985422 
L 363.059289 343.6379 
L 348.355731 309.255926 
L 333.652174 315.641812 
L 318.948617 286.943307 
L 304.245059 311.104089 
L 289.541502 276.47902 
L 274.837945 250.278797 
L 260.134387 233.480601 
L 245.43083 242.098645 
L 230.727273 473.220742 
z
" clip-path="url(#pb208488320)" style="fill: #2ca02c; fill-opacity: 0.8"/>
   </g>
   <g id="PolyCollection_4">
    <path d="M 230.727273 467.230525 
L 230.727273 473.220742 
L 245.43083 242.098645 
L 260.134387 233.480601 
L 274.837945 250.278797 
L 289.541502 276.47902 
L 304.245059 311.104089 
L 318.948617 286.943307 
L 333.652174 315.641812 
L 348.355731 309.255926 
L 363.059289 343.6379 
L 377.762846 333.985422 
L 392.466403 359.49906 
L 407.16996 403.512081 
L 421.873518 437.499506 
L 436.577075 440.074235 
L 451.280632 430.292214 
L 465.98419 440.333004 
L 480.687747 466.552098 
L 495.391304 466.081421 
L 510.094862 490.401654 
L 524.798419 477.938388 
L 539.501976 514.729723 
L 554.205534 508.024135 
L 568.909091 469.293316 
L 583.612648 606.38508 
L 598.316206 610.204073 
L 613.019763 606.319668 
L 627.72332 606.349575 
L 642.426877 602.440381 
L 657.130435 599.338839 
L 671.833992 594.156753 
L 686.537549 595.730794 
L 701.241107 598.262023 
L 715.944664 592.877465 
L 730.648221 606.252337 
L 745.351779 602.715463 
L 760.055336 608.881124 
L 774.758893 605.283315 
L 789.462451 600.479787 
L 804.166008 599.280144 
L 818.869565 606.978904 
L 833.573123 606.857996 
L 848.27668 608.733028 
L 862.980237 599.379141 
L 877.683794 610.524255 
L 892.387352 610.864429 
L 907.090909 609.831434 
L 921.794466 607.602475 
L 936.498024 604.143807 
L 951.201581 611.862878 
L 965.905138 601.906371 
L 980.608696 604.310135 
L 995.312253 536.834271 
L 1010.01581 501.14726 
L 1024.719368 524.564842 
L 1039.422925 508.663219 
L 1054.126482 501.908052 
L 1068.83004 525.020166 
L 1083.533597 533.076212 
L 1098.237154 541.807487 
L 1112.940711 598.236434 
L 1127.644269 625.84101 
L 1142.347826 624.240581 
L 1157.051383 619.897333 
L 1171.754941 614.067367 
L 1186.458498 629.126954 
L 1201.162055 621.585246 
L 1215.865613 570.637455 
L 1230.56917 615.095244 
L 1245.272727 636.066201 
L 1245.272727 635.866607 
L 1245.272727 635.866607 
L 1230.56917 612.16083 
L 1215.865613 566.100052 
L 1201.162055 619.586587 
L 1186.458498 626.494329 
L 1171.754941 609.512691 
L 1157.051383 612.815267 
L 1142.347826 621.056514 
L 1127.644269 622.821193 
L 1112.940711 595.141928 
L 1098.237154 536.841788 
L 1083.533597 527.65439 
L 1068.83004 518.801407 
L 1054.126482 492.146181 
L 1039.422925 499.949856 
L 1024.719368 517.336119 
L 1010.01581 493.907502 
L 995.312253 528.736803 
L 980.608696 601.95707 
L 965.905138 589.077503 
L 951.201581 610.054378 
L 936.498024 601.047062 
L 921.794466 605.780381 
L 907.090909 608.19342 
L 892.387352 609.646234 
L 877.683794 609.302062 
L 862.980237 597.824771 
L 848.27668 607.271578 
L 833.573123 605.474113 
L 818.869565 605.394147 
L 804.166008 597.428462 
L 789.462451 597.481559 
L 774.758893 603.491288 
L 760.055336 607.114686 
L 745.351779 600.860582 
L 730.648221 602.72138 
L 715.944664 589.235835 
L 701.241107 594.665974 
L 686.537549 592.240619 
L 671.833992 590.357911 
L 657.130435 596.52917 
L 642.426877 599.063917 
L 627.72332 603.688163 
L 613.019763 603.836419 
L 598.316206 608.056359 
L 583.612648 604.85566 
L 568.909091 461.976151 
L 554.205534 499.237683 
L 539.501976 506.512946 
L 524.798419 469.734086 
L 510.094862 483.162215 
L 495.391304 453.388014 
L 480.687747 457.445145 
L 465.98419 427.996403 
L 451.280632 420.46717 
L 436.577075 429.100407 
L 421.873518 426.202457 
L 407.16996 387.094681 
L 392.466403 338.148907 
L 377.762846 312.814072 
L 363.059289 324.656965 
L 348.355731 287.962868 
L 333.652174 296.634968 
L 318.948617 261.534264 
L 304.245059 292.274768 
L 289.541502 255.252493 
L 274.837945 230.574014 
L 260.134387 210.27045 
L 245.43083 225.168185 
L 230.727273 467.230525 
z
" clip-path="url(#pb208488320)" style="fill: #d62728; fill-opacity: 0.8"/>
   </g>
   <g id="PolyCollection_5">
    <path d="M 230.727273 455.250411 
L 230.727273 467.230525 
L 245.43083 225.168185 
L 260.134387 210.27045 
L 274.837945 230.574014 
L 289.541502 255.252493 
L 304.245059 292.274768 
L 318.948617 261.534264 
L 333.652174 296.634968 
L 348.355731 287.962868 
L 363.059289 324.656965 
L 377.762846 312.814072 
L 392.466403 338.148907 
L 407.16996 387.094681 
L 421.873518 426.202457 
L 436.577075 429.100407 
L 451.280632 420.46717 
L 465.98419 427.996403 
L 480.687747 457.445145 
L 495.391304 453.388014 
L 510.094862 483.162215 
L 524.798419 469.734086 
L 539.501976 506.512946 
L 554.205534 499.237683 
L 568.909091 461.976151 
L 583.612648 604.85566 
L 598.316206 608.056359 
L 613.019763 603.836419 
L 627.72332 603.688163 
L 642.426877 599.063917 
L 657.130435 596.52917 
L 671.833992 590.357911 
L 686.537549 592.240619 
L 701.241107 594.665974 
L 715.944664 589.235835 
L 730.648221 602.72138 
L 745.351779 600.860582 
L 760.055336 607.114686 
L 774.758893 603.491288 
L 789.462451 597.481559 
L 804.166008 597.428462 
L 818.869565 605.394147 
L 833.573123 605.474113 
L 848.27668 607.271578 
L 862.980237 597.824771 
L 877.683794 609.302062 
L 892.387352 609.646234 
L 907.090909 608.19342 
L 921.794466 605.780381 
L 936.498024 601.047062 
L 951.201581 610.054378 
L 965.905138 589.077503 
L 980.608696 601.95707 
L 995.312253 528.736803 
L 1010.01581 493.907502 
L 1024.719368 517.336119 
L 1039.422925 499.949856 
L 1054.126482 492.146181 
L 1068.83004 518.801407 
L 1083.533597 527.65439 
L 1098.237154 536.841788 
L 1112.940711 595.141928 
L 1127.644269 622.821193 
L 1142.347826 621.056514 
L 1157.051383 612.815267 
L 1171.754941 609.512691 
L 1186.458498 626.494329 
L 1201.162055 619.586587 
L 1215.865613 566.100052 
L 1230.56917 612.16083 
L 1245.272727 635.866607 
L 1245.272727 635.702358 
L 1245.272727 635.702358 
L 1230.56917 597.773594 
L 1215.865613 553.604 
L 1201.162055 614.654154 
L 1186.458498 621.281537 
L 1171.754941 602.247344 
L 1157.051383 606.722375 
L 1142.347826 614.962981 
L 1127.644269 617.775049 
L 1112.940711 586.247204 
L 1098.237154 528.940715 
L 1083.533597 518.845388 
L 1068.83004 510.096681 
L 1054.126482 482.348486 
L 1039.422925 488.390841 
L 1024.719368 508.201818 
L 1010.01581 483.766115 
L 995.312253 520.599512 
L 980.608696 599.84486 
L 965.905138 586.55699 
L 951.201581 608.505606 
L 936.498024 598.939811 
L 921.794466 603.850813 
L 907.090909 605.741038 
L 892.387352 608.002303 
L 877.683794 607.595118 
L 862.980237 595.710163 
L 848.27668 604.434401 
L 833.573123 603.604359 
L 818.869565 601.951952 
L 804.166008 592.386317 
L 789.462451 594.375859 
L 774.758893 601.172288 
L 760.055336 605.238854 
L 745.351779 598.108169 
L 730.648221 599.989278 
L 715.944664 585.532312 
L 701.241107 591.586342 
L 686.537549 589.051595 
L 671.833992 586.730036 
L 657.130435 593.852085 
L 642.426877 596.454003 
L 627.72332 601.455846 
L 613.019763 601.599304 
L 598.316206 606.068577 
L 583.612648 602.845167 
L 568.909091 450.053292 
L 554.205534 493.121761 
L 539.501976 501.885821 
L 524.798419 461.619185 
L 510.094862 477.696092 
L 495.391304 443.766403 
L 480.687747 451.239501 
L 465.98419 420.001291 
L 451.280632 410.477078 
L 436.577075 421.327119 
L 421.873518 417.924427 
L 407.16996 376.991357 
L 392.466403 312.997352 
L 377.762846 302.761446 
L 363.059289 314.81273 
L 348.355731 276.618639 
L 333.652174 281.693571 
L 318.948617 241.815887 
L 304.245059 275.871921 
L 289.541502 240.352198 
L 274.837945 216.609156 
L 260.134387 193.519593 
L 245.43083 204.683899 
L 230.727273 455.250411 
z
" clip-path="url(#pb208488320)" style="fill: #9467bd; fill-opacity: 0.8"/>
   </g>
   <g id="PolyCollection_6">
    <path d="M 230.727273 454.553112 
L 230.727273 455.250411 
L 245.43083 204.683899 
L 260.134387 193.519593 
L 274.837945 216.609156 
L 289.541502 240.352198 
L 304.245059 275.871921 
L 318.948617 241.815887 
L 333.652174 281.693571 
L 348.355731 276.618639 
L 363.059289 314.81273 
L 377.762846 302.761446 
L 392.466403 312.997352 
L 407.16996 376.991357 
L 421.873518 417.924427 
L 436.577075 421.327119 
L 451.280632 410.477078 
L 465.98419 420.001291 
L 480.687747 451.239501 
L 495.391304 443.766403 
L 510.094862 477.696092 
L 524.798419 461.619185 
L 539.501976 501.885821 
L 554.205534 493.121761 
L 568.909091 450.053292 
L 583.612648 602.845167 
L 598.316206 606.068577 
L 613.019763 601.599304 
L 627.72332 601.455846 
L 642.426877 596.454003 
L 657.130435 593.852085 
L 671.833992 586.730036 
L 686.537549 589.051595 
L 701.241107 591.586342 
L 715.944664 585.532312 
L 730.648221 599.989278 
L 745.351779 598.108169 
L 760.055336 605.238854 
L 774.758893 601.172288 
L 789.462451 594.375859 
L 804.166008 592.386317 
L 818.869565 601.951952 
L 833.573123 603.604359 
L 848.27668 604.434401 
L 862.980237 595.710163 
L 877.683794 607.595118 
L 892.387352 608.002303 
L 907.090909 605.741038 
L 921.794466 603.850813 
L 936.498024 598.939811 
L 951.201581 608.505606 
L 965.905138 586.55699 
L 980.608696 599.84486 
L 995.312253 520.599512 
L 1010.01581 483.766115 
L 1024.719368 508.201818 
L 1039.422925 488.390841 
L 1054.126482 482.348486 
L 1068.83004 510.096681 
L 1083.533597 518.845388 
L 1098.237154 528.940715 
L 1112.940711 586.247204 
L 1127.644269 617.775049 
L 1142.347826 614.962981 
L 1157.051383 606.722375 
L 1171.754941 602.247344 
L 1186.458498 621.281537 
L 1201.162055 614.654154 
L 1215.865613 553.604 
L 1230.56917 597.773594 
L 1245.272727 635.702358 
L 1245.272727 635.291495 
L 1245.272727 635.291495 
L 1230.56917 597.440937 
L 1215.865613 552.369172 
L 1201.162055 613.257956 
L 1186.458498 619.328619 
L 1171.754941 600.184874 
L 1157.051383 604.678776 
L 1142.347826 613.095307 
L 1127.644269 616.140394 
L 1112.940711 584.217679 
L 1098.237154 525.47357 
L 1083.533597 516.036679 
L 1068.83004 506.631135 
L 1054.126482 478.911248 
L 1039.422925 484.790313 
L 1024.719368 504.040892 
L 1010.01581 479.713303 
L 995.312253 517.165153 
L 980.608696 597.159938 
L 965.905138 583.760116 
L 951.201581 605.773664 
L 936.498024 596.138938 
L 921.794466 601.073451 
L 907.090909 602.671801 
L 892.387352 605.257566 
L 877.683794 604.897082 
L 862.980237 592.647804 
L 848.27668 600.879294 
L 833.573123 600.129857 
L 818.869565 598.605715 
L 804.166008 588.805781 
L 789.462451 590.33744 
L 774.758893 597.418866 
L 760.055336 601.722451 
L 745.351779 594.690443 
L 730.648221 595.667782 
L 715.944664 580.704634 
L 701.241107 587.666912 
L 686.537549 585.4202 
L 671.833992 583.018356 
L 657.130435 590.205177 
L 642.426877 592.757037 
L 627.72332 597.900579 
L 613.019763 597.737769 
L 598.316206 602.223035 
L 583.612648 599.313729 
L 568.909091 444.138403 
L 554.205534 487.424537 
L 539.501976 499.584094 
L 524.798419 455.9717 
L 510.094862 475.689278 
L 495.391304 439.044919 
L 480.687747 448.727304 
L 465.98419 417.827668 
L 451.280632 407.861566 
L 436.577075 418.393984 
L 421.873518 415.255498 
L 407.16996 370.500077 
L 392.466403 308.121535 
L 377.762846 298.248352 
L 363.059289 310.890741 
L 348.355731 271.703799 
L 333.652174 276.84958 
L 318.948617 234.696717 
L 304.245059 269.677632 
L 289.541502 232.198114 
L 274.837945 209.096876 
L 260.134387 188.56317 
L 245.43083 201.590832 
L 230.727273 454.553112 
z
" clip-path="url(#pb208488320)" style="fill: #8c564b; fill-opacity: 0.8"/>
   </g>
   <g id="PolyCollection_7">
    <path d="M 230.727273 453.493889 
L 230.727273 454.553112 
L 245.43083 201.590832 
L 260.134387 188.56317 
L 274.837945 209.096876 
L 289.541502 232.198114 
L 304.245059 269.677632 
L 318.948617 234.696717 
L 333.652174 276.84958 
L 348.355731 271.703799 
L 363.059289 310.890741 
L 377.762846 298.248352 
L 392.466403 308.121535 
L 407.16996 370.500077 
L 421.873518 415.255498 
L 436.577075 418.393984 
L 451.280632 407.861566 
L 465.98419 417.827668 
L 480.687747 448.727304 
L 495.391304 439.044919 
L 510.094862 475.689278 
L 524.798419 455.9717 
L 539.501976 499.584094 
L 554.205534 487.424537 
L 568.909091 444.138403 
L 583.612648 599.313729 
L 598.316206 602.223035 
L 613.019763 597.737769 
L 627.72332 597.900579 
L 642.426877 592.757037 
L 657.130435 590.205177 
L 671.833992 583.018356 
L 686.537549 585.4202 
L 701.241107 587.666912 
L 715.944664 580.704634 
L 730.648221 595.667782 
L 745.351779 594.690443 
L 760.055336 601.722451 
L 774.758893 597.418866 
L 789.462451 590.33744 
L 804.166008 588.805781 
L 818.869565 598.605715 
L 833.573123 600.129857 
L 848.27668 600.879294 
L 862.980237 592.647804 
L 877.683794 604.897082 
L 892.387352 605.257566 
L 907.090909 602.671801 
L 921.794466 601.073451 
L 936.498024 596.138938 
L 951.201581 605.773664 
L 965.905138 583.760116 
L 980.608696 597.159938 
L 995.312253 517.165153 
L 1010.01581 479.713303 
L 1024.719368 504.040892 
L 1039.422925 484.790313 
L 1054.126482 478.911248 
L 1068.83004 506.631135 
L 1083.533597 516.036679 
L 1098.237154 525.47357 
L 1112.940711 584.217679 
L 1127.644269 616.140394 
L 1142.347826 613.095307 
L 1157.051383 604.678776 
L 1171.754941 600.184874 
L 1186.458498 619.328619 
L 1201.162055 613.257956 
L 1215.865613 552.369172 
L 1230.56917 597.440937 
L 1245.272727 635.291495 
L 1245.272727 635.129645 
L 1245.272727 635.129645 
L 1230.56917 597.077734 
L 1215.865613 551.538171 
L 1201.162055 612.770167 
L 1186.458498 618.848346 
L 1171.754941 599.547549 
L 1157.051383 604.024018 
L 1142.347826 612.483251 
L 1127.644269 615.42886 
L 1112.940711 582.979973 
L 1098.237154 523.468355 
L 1083.533597 514.233777 
L 1068.83004 504.437361 
L 1054.126482 476.619277 
L 1039.422925 482.237974 
L 1024.719368 501.81897 
L 1010.01581 477.411735 
L 995.312253 515.392637 
L 980.608696 595.92623 
L 965.905138 582.397344 
L 951.201581 604.608246 
L 936.498024 594.879002 
L 921.794466 599.7537 
L 907.090909 601.410745 
L 892.387352 604.074077 
L 877.683794 603.819147 
L 862.980237 591.371074 
L 848.27668 599.469342 
L 833.573123 598.636581 
L 818.869565 597.120755 
L 804.166008 587.270922 
L 789.462451 588.689191 
L 774.758893 595.705525 
L 760.055336 600.162483 
L 745.351779 593.071941 
L 730.648221 593.741252 
L 715.944664 578.351569 
L 701.241107 585.460183 
L 686.537549 583.186764 
L 671.833992 580.794995 
L 657.130435 588.416029 
L 642.426877 590.927746 
L 627.72332 596.217145 
L 613.019763 596.160049 
L 598.316206 600.362557 
L 583.612648 597.59559 
L 568.909091 440.523961 
L 554.205534 484.493961 
L 539.501976 497.076215 
L 524.798419 452.998582 
L 510.094862 473.073926 
L 495.391304 435.963528 
L 480.687747 445.647032 
L 465.98419 415.173773 
L 451.280632 405.032546 
L 436.577075 414.244094 
L 421.873518 412.392252 
L 407.16996 367.046046 
L 392.466403 304.313097 
L 377.762846 294.526117 
L 363.059289 307.127724 
L 348.355731 267.514725 
L 333.652174 272.803485 
L 318.948617 228.320266 
L 304.245059 264.528493 
L 289.541502 227.75443 
L 274.837945 205.531533 
L 260.134387 184.498843 
L 245.43083 196.668475 
L 230.727273 453.493889 
z
" clip-path="url(#pb208488320)" style="fill: #e377c2; fill-opacity: 0.8"/>
   </g>
   <g id="PolyCollection_8">
    <path d="M 230.727273 401.092485 
L 230.727273 453.493889 
L 245.43083 196.668475 
L 260.134387 184.498843 
L 274.837945 205.531533 
L 289.541502 227.75443 
L 304.245059 264.528493 
L 318.948617 228.320266 
L 333.652174 272.803485 
L 348.355731 267.514725 
L 363.059289 307.127724 
L 377.762846 294.526117 
L 392.466403 304.313097 
L 407.16996 367.046046 
L 421.873518 412.392252 
L 436.577075 414.244094 
L 451.280632 405.032546 
L 465.98419 415.173773 
L 480.687747 445.647032 
L 495.391304 435.963528 
L 510.094862 473.073926 
L 524.798419 452.998582 
L 539.501976 497.076215 
L 554.205534 484.493961 
L 568.909091 440.523961 
L 583.612648 597.59559 
L 598.316206 600.362557 
L 613.019763 596.160049 
L 627.72332 596.217145 
L 642.426877 590.927746 
L 657.130435 588.416029 
L 671.833992 580.794995 
L 686.537549 583.186764 
L 701.241107 585.460183 
L 715.944664 578.351569 
L 730.648221 593.741252 
L 745.351779 593.071941 
L 760.055336 600.162483 
L 774.758893 595.705525 
L 789.462451 588.689191 
L 804.166008 587.270922 
L 818.869565 597.120755 
L 833.573123 598.636581 
L 848.27668 599.469342 
L 862.980237 591.371074 
L 877.683794 603.819147 
L 892.387352 604.074077 
L 907.090909 601.410745 
L 921.794466 599.7537 
L 936.498024 594.879002 
L 951.201581 604.608246 
L 965.905138 582.397344 
L 980.608696 595.92623 
L 995.312253 515.392637 
L 1010.01581 477.411735 
L 1024.719368 501.81897 
L 1039.422925 482.237974 
L 1054.126482 476.619277 
L 1068.83004 504.437361 
L 1083.533597 514.233777 
L 1098.237154 523.468355 
L 1112.940711 582.979973 
L 1127.644269 615.42886 
L 1142.347826 612.483251 
L 1157.051383 604.024018 
L 1171.754941 599.547549 
L 1186.458498 618.848346 
L 1201.162055 612.770167 
L 1215.865613 551.538171 
L 1230.56917 597.077734 
L 1245.272727 635.129645 
L 1245.272727 633.376801 
L 1245.272727 633.376801 
L 1230.56917 591.755868 
L 1215.865613 540.508527 
L 1201.162055 609.466951 
L 1186.458498 616.648334 
L 1171.754941 596.105033 
L 1157.051383 600.621645 
L 1142.347826 607.163305 
L 1127.644269 612.493966 
L 1112.940711 574.001604 
L 1098.237154 505.679226 
L 1083.533597 497.837167 
L 1068.83004 486.590177 
L 1054.126482 456.996378 
L 1039.422925 461.420231 
L 1024.719368 480.547823 
L 1010.01581 459.414056 
L 995.312253 488.727336 
L 980.608696 584.19209 
L 965.905138 566.664608 
L 951.201581 595.233729 
L 936.498024 584.451018 
L 921.794466 588.768357 
L 907.090909 584.575765 
L 892.387352 594.983757 
L 877.683794 593.126158 
L 862.980237 577.477705 
L 848.27668 587.108592 
L 833.573123 588.444496 
L 818.869565 583.068095 
L 804.166008 569.679948 
L 789.462451 573.47927 
L 774.758893 581.496133 
L 760.055336 590.218931 
L 745.351779 579.917453 
L 730.648221 580.310084 
L 715.944664 559.1229 
L 701.241107 570.179093 
L 686.537549 566.620147 
L 671.833992 563.426484 
L 657.130435 572.89728 
L 642.426877 576.264628 
L 627.72332 584.329791 
L 613.019763 582.437167 
L 598.316206 588.400675 
L 583.612648 586.171556 
L 568.909091 387.710735 
L 554.205534 459.886012 
L 539.501976 477.189751 
L 524.798419 421.578691 
L 510.094862 449.151921 
L 495.391304 388.883829 
L 480.687747 420.408635 
L 465.98419 386.897966 
L 451.280632 374.284205 
L 436.577075 382.098755 
L 421.873518 380.169987 
L 407.16996 327.889491 
L 392.466403 258.411451 
L 377.762846 250.758111 
L 363.059289 272.392302 
L 348.355731 230.488451 
L 333.652174 234.067228 
L 318.948617 182.423258 
L 304.245059 220.140753 
L 289.541502 177.629645 
L 274.837945 135.993679 
L 260.134387 112.8 
L 245.43083 114.388115 
L 230.727273 401.092485 
z
" clip-path="url(#pb208488320)" style="fill: #7f7f7f; fill-opacity: 0.8"/>
   </g>
   <g id="matplotlib.axis_1">
    <g id="xtick_1">
     <g id="line2d_1">
      <defs>
       <path id="m3b928d1f0f" d="M 0 0 
L 0 3.5 
" style="stroke: #000000; stroke-width: 0.8"/>
      </defs>
      <g>
       <use xlink:href="#m3b928d1f0f" x="230.727273" y="640.8" style="stroke: #000000; stroke-width: 0.8"/>
      </g>
     </g>
     <g id="text_1">
      <!-- 2022-08 -->
      <g transform="translate(209.835866 655.398438) scale(0.1 -0.1)">
       <defs>
        <path id="DejaVuSans-32" d="M 1228 531 
L 3431 531 
L 3431 0 
L 469 0 
L 469 531 
Q 828 903 1448 1529 
Q 2069 2156 2228 2338 
Q 2531 2678 2651 2914 
Q 2772 3150 2772 3378 
Q 2772 3750 2511 3984 
Q 2250 4219 1831 4219 
Q 1534 4219 1204 4116 
Q 875 4013 500 3803 
L 500 4441 
Q 881 4594 1212 4672 
Q 1544 4750 1819 4750 
Q 2544 4750 2975 4387 
Q 3406 4025 3406 3419 
Q 3406 3131 3298 2873 
Q 3191 2616 2906 2266 
Q 2828 2175 2409 1742 
Q 1991 1309 1228 531 
z
" transform="scale(0.015625)"/>
        <path id="DejaVuSans-30" d="M 2034 4250 
Q 1547 4250 1301 3770 
Q 1056 3291 1056 2328 
Q 1056 1369 1301 889 
Q 1547 409 2034 409 
Q 2525 409 2770 889 
Q 3016 1369 3016 2328 
Q 3016 3291 2770 3770 
Q 2525 4250 2034 4250 
z
M 2034 4750 
Q 2819 4750 3233 4129 
Q 3647 3509 3647 2328 
Q 3647 1150 3233 529 
Q 2819 -91 2034 -91 
Q 1250 -91 836 529 
Q 422 1150 422 2328 
Q 422 3509 836 4129 
Q 1250 4750 2034 4750 
z
" transform="scale(0.015625)"/>
        <path id="DejaVuSans-2d" d="M 313 2009 
L 1997 2009 
L 1997 1497 
L 313 1497 
L 313 2009 
z
" transform="scale(0.015625)"/>
        <path id="DejaVuSans-38" d="M 2034 2216 
Q 1584 2216 1326 1975 
Q 1069 1734 1069 1313 
Q 1069 891 1326 650 
Q 1584 409 2034 409 
Q 2484 409 2743 651 
Q 3003 894 3003 1313 
Q 3003 1734 2745 1975 
Q 2488 2216 2034 2216 
z
M 1403 2484 
Q 997 2584 770 2862 
Q 544 3141 544 3541 
Q 544 4100 942 4425 
Q 1341 4750 2034 4750 
Q 2731 4750 3128 4425 
Q 3525 4100 3525 3541 
Q 3525 3141 3298 2862 
Q 3072 2584 2669 2484 
Q 3125 2378 3379 2068 
Q 3634 1759 3634 1313 
Q 3634 634 3220 271 
Q 2806 -91 2034 -91 
Q 1263 -91 848 271 
Q 434 634 434 1313 
Q 434 1759 690 2068 
Q 947 2378 1403 2484 
z
M 1172 3481 
Q 1172 3119 1398 2916 
Q 1625 2713 2034 2713 
Q 2441 2713 2670 2916 
Q 2900 3119 2900 3481 
Q 2900 3844 2670 4047 
Q 2441 4250 2034 4250 
Q 1625 4250 1398 4047 
Q 1172 3844 1172 3481 
z
" transform="scale(0.015625)"/>
       </defs>
       <use xlink:href="#DejaVuSans-32"/>
       <use xlink:href="#DejaVuSans-30" x="63.623047"/>
       <use xlink:href="#DejaVuSans-32" x="127.246094"/>
       <use xlink:href="#DejaVuSans-32" x="190.869141"/>
       <use xlink:href="#DejaVuSans-2d" x="254.492188"/>
       <use xlink:href="#DejaVuSans-30" x="290.576172"/>
       <use xlink:href="#DejaVuSans-38" x="354.199219"/>
      </g>
     </g>
    </g>
    <g id="xtick_2">
     <g id="line2d_2">
      <g>
       <use xlink:href="#m3b928d1f0f" x="245.43083" y="640.8" style="stroke: #000000; stroke-width: 0.8"/>
      </g>
     </g>
    </g>
    <g id="xtick_3">
     <g id="line2d_3">
      <g>
       <use xlink:href="#m3b928d1f0f" x="260.134387" y="640.8" style="stroke: #000000; stroke-width: 0.8"/>
      </g>
     </g>
    </g>
    <g id="xtick_4">
     <g id="line2d_4">
      <g>
       <use xlink:href="#m3b928d1f0f" x="274.837945" y="640.8" style="stroke: #000000; stroke-width: 0.8"/>
      </g>
     </g>
    </g>
    <g id="xtick_5">
     <g id="line2d_5">
      <g>
       <use xlink:href="#m3b928d1f0f" x="289.541502" y="640.8" style="stroke: #000000; stroke-width: 0.8"/>
      </g>
     </g>
     <g id="text_2">
      <!-- 2022-12 -->
      <g transform="translate(268.650096 655.398438) scale(0.1 -0.1)">
       <defs>
        <path id="DejaVuSans-31" d="M 794 531 
L 1825 531 
L 1825 4091 
L 703 3866 
L 703 4441 
L 1819 4666 
L 2450 4666 
L 2450 531 
L 3481 531 
L 3481 0 
L 794 0 
L 794 531 
z
" transform="scale(0.015625)"/>
       </defs>
       <use xlink:href="#DejaVuSans-32"/>
       <use xlink:href="#DejaVuSans-30" x="63.623047"/>
       <use xlink:href="#DejaVuSans-32" x="127.246094"/>
       <use xlink:href="#DejaVuSans-32" x="190.869141"/>
       <use xlink:href="#DejaVuSans-2d" x="254.492188"/>
       <use xlink:href="#DejaVuSans-31" x="290.576172"/>
       <use xlink:href="#DejaVuSans-32" x="354.199219"/>
      </g>
     </g>
    </g>
    <g id="xtick_6">
     <g id="line2d_6">
      <g>
       <use xlink:href="#m3b928d1f0f" x="304.245059" y="640.8" style="stroke: #000000; stroke-width: 0.8"/>
      </g>
     </g>
    </g>
    <g id="xtick_7">
     <g id="line2d_7">
      <g>
       <use xlink:href="#m3b928d1f0f" x="318.948617" y="640.8" style="stroke: #000000; stroke-width: 0.8"/>
      </g>
     </g>
    </g>
    <g id="xtick_8">
     <g id="line2d_8">
      <g>
       <use xlink:href="#m3b928d1f0f" x="333.652174" y="640.8" style="stroke: #000000; stroke-width: 0.8"/>
      </g>
     </g>
    </g>
    <g id="xtick_9">
     <g id="line2d_9">
      <g>
       <use xlink:href="#m3b928d1f0f" x="348.355731" y="640.8" style="stroke: #000000; stroke-width: 0.8"/>
      </g>
     </g>
     <g id="text_3">
      <!-- 2022-16 -->
      <g transform="translate(327.464325 655.398438) scale(0.1 -0.1)">
       <defs>
        <path id="DejaVuSans-36" d="M 2113 2584 
Q 1688 2584 1439 2293 
Q 1191 2003 1191 1497 
Q 1191 994 1439 701 
Q 1688 409 2113 409 
Q 2538 409 2786 701 
Q 3034 994 3034 1497 
Q 3034 2003 2786 2293 
Q 2538 2584 2113 2584 
z
M 3366 4563 
L 3366 3988 
Q 3128 4100 2886 4159 
Q 2644 4219 2406 4219 
Q 1781 4219 1451 3797 
Q 1122 3375 1075 2522 
Q 1259 2794 1537 2939 
Q 1816 3084 2150 3084 
Q 2853 3084 3261 2657 
Q 3669 2231 3669 1497 
Q 3669 778 3244 343 
Q 2819 -91 2113 -91 
Q 1303 -91 875 529 
Q 447 1150 447 2328 
Q 447 3434 972 4092 
Q 1497 4750 2381 4750 
Q 2619 4750 2861 4703 
Q 3103 4656 3366 4563 
z
" transform="scale(0.015625)"/>
       </defs>
       <use xlink:href="#DejaVuSans-32"/>
       <use xlink:href="#DejaVuSans-30" x="63.623047"/>
       <use xlink:href="#DejaVuSans-32" x="127.246094"/>
       <use xlink:href="#DejaVuSans-32" x="190.869141"/>
       <use xlink:href="#DejaVuSans-2d" x="254.492188"/>
       <use xlink:href="#DejaVuSans-31" x="290.576172"/>
       <use xlink:href="#DejaVuSans-36" x="354.199219"/>
      </g>
     </g>
    </g>
    <g id="xtick_10">
     <g id="line2d_10">
      <g>
       <use xlink:href="#m3b928d1f0f" x="363.059289" y="640.8" style="stroke: #000000; stroke-width: 0.8"/>
      </g>
     </g>
    </g>
    <g id="xtick_11">
     <g id="line2d_11">
      <g>
       <use xlink:href="#m3b928d1f0f" x="377.762846" y="640.8" style="stroke: #000000; stroke-width: 0.8"/>
      </g>
     </g>
    </g>
    <g id="xtick_12">
     <g id="line2d_12">
      <g>
       <use xlink:href="#m3b928d1f0f" x="392.466403" y="640.8" style="stroke: #000000; stroke-width: 0.8"/>
      </g>
     </g>
    </g>
    <g id="xtick_13">
     <g id="line2d_13">
      <g>
       <use xlink:href="#m3b928d1f0f" x="407.16996" y="640.8" style="stroke: #000000; stroke-width: 0.8"/>
      </g>
     </g>
     <g id="text_4">
      <!-- 2022-20 -->
      <g transform="translate(386.278554 655.398438) scale(0.1 -0.1)">
       <use xlink:href="#DejaVuSans-32"/>
       <use xlink:href="#DejaVuSans-30" x="63.623047"/>
       <use xlink:href="#DejaVuSans-32" x="127.246094"/>
       <use xlink:href="#DejaVuSans-32" x="190.869141"/>
       <use xlink:href="#DejaVuSans-2d" x="254.492188"/>
       <use xlink:href="#DejaVuSans-32" x="290.576172"/>
       <use xlink:href="#DejaVuSans-30" x="354.199219"/>
      </g>
     </g>
    </g>
    <g id="xtick_14">
     <g id="line2d_14">
      <g>
       <use xlink:href="#m3b928d1f0f" x="421.873518" y="640.8" style="stroke: #000000; stroke-width: 0.8"/>
      </g>
     </g>
    </g>
    <g id="xtick_15">
     <g id="line2d_15">
      <g>
       <use xlink:href="#m3b928d1f0f" x="436.577075" y="640.8" style="stroke: #000000; stroke-width: 0.8"/>
      </g>
     </g>
    </g>
    <g id="xtick_16">
     <g id="line2d_16">
      <g>
       <use xlink:href="#m3b928d1f0f" x="451.280632" y="640.8" style="stroke: #000000; stroke-width: 0.8"/>
      </g>
     </g>
    </g>
    <g id="xtick_17">
     <g id="line2d_17">
      <g>
       <use xlink:href="#m3b928d1f0f" x="465.98419" y="640.8" style="stroke: #000000; stroke-width: 0.8"/>
      </g>
     </g>
     <g id="text_5">
      <!-- 2022-24 -->
      <g transform="translate(445.092783 655.398438) scale(0.1 -0.1)">
       <defs>
        <path id="DejaVuSans-34" d="M 2419 4116 
L 825 1625 
L 2419 1625 
L 2419 4116 
z
M 2253 4666 
L 3047 4666 
L 3047 1625 
L 3713 1625 
L 3713 1100 
L 3047 1100 
L 3047 0 
L 2419 0 
L 2419 1100 
L 313 1100 
L 313 1709 
L 2253 4666 
z
" transform="scale(0.015625)"/>
       </defs>
       <use xlink:href="#DejaVuSans-32"/>
       <use xlink:href="#DejaVuSans-30" x="63.623047"/>
       <use xlink:href="#DejaVuSans-32" x="127.246094"/>
       <use xlink:href="#DejaVuSans-32" x="190.869141"/>
       <use xlink:href="#DejaVuSans-2d" x="254.492188"/>
       <use xlink:href="#DejaVuSans-32" x="290.576172"/>
       <use xlink:href="#DejaVuSans-34" x="354.199219"/>
      </g>
     </g>
    </g>
    <g id="xtick_18">
     <g id="line2d_18">
      <g>
       <use xlink:href="#m3b928d1f0f" x="480.687747" y="640.8" style="stroke: #000000; stroke-width: 0.8"/>
      </g>
     </g>
    </g>
    <g id="xtick_19">
     <g id="line2d_19">
      <g>
       <use xlink:href="#m3b928d1f0f" x="495.391304" y="640.8" style="stroke: #000000; stroke-width: 0.8"/>
      </g>
     </g>
    </g>
    <g id="xtick_20">
     <g id="line2d_20">
      <g>
       <use xlink:href="#m3b928d1f0f" x="510.094862" y="640.8" style="stroke: #000000; stroke-width: 0.8"/>
      </g>
     </g>
    </g>
    <g id="xtick_21">
     <g id="line2d_21">
      <g>
       <use xlink:href="#m3b928d1f0f" x="524.798419" y="640.8" style="stroke: #000000; stroke-width: 0.8"/>
      </g>
     </g>
     <g id="text_6">
      <!-- 2022-28 -->
      <g transform="translate(503.907013 655.398438) scale(0.1 -0.1)">
       <use xlink:href="#DejaVuSans-32"/>
       <use xlink:href="#DejaVuSans-30" x="63.623047"/>
       <use xlink:href="#DejaVuSans-32" x="127.246094"/>
       <use xlink:href="#DejaVuSans-32" x="190.869141"/>
       <use xlink:href="#DejaVuSans-2d" x="254.492188"/>
       <use xlink:href="#DejaVuSans-32" x="290.576172"/>
       <use xlink:href="#DejaVuSans-38" x="354.199219"/>
      </g>
     </g>
    </g>
    <g id="xtick_22">
     <g id="line2d_22">
      <g>
       <use xlink:href="#m3b928d1f0f" x="539.501976" y="640.8" style="stroke: #000000; stroke-width: 0.8"/>
      </g>
     </g>
    </g>
    <g id="xtick_23">
     <g id="line2d_23">
      <g>
       <use xlink:href="#m3b928d1f0f" x="554.205534" y="640.8" style="stroke: #000000; stroke-width: 0.8"/>
      </g>
     </g>
    </g>
    <g id="xtick_24">
     <g id="line2d_24">
      <g>
       <use xlink:href="#m3b928d1f0f" x="568.909091" y="640.8" style="stroke: #000000; stroke-width: 0.8"/>
      </g>
     </g>
    </g>
    <g id="xtick_25">
     <g id="line2d_25">
      <g>
       <use xlink:href="#m3b928d1f0f" x="583.612648" y="640.8" style="stroke: #000000; stroke-width: 0.8"/>
      </g>
     </g>
     <g id="text_7">
      <!-- 2022-32 -->
      <g transform="translate(562.721242 655.398438) scale(0.1 -0.1)">
       <defs>
        <path id="DejaVuSans-33" d="M 2597 2516 
Q 3050 2419 3304 2112 
Q 3559 1806 3559 1356 
Q 3559 666 3084 287 
Q 2609 -91 1734 -91 
Q 1441 -91 1130 -33 
Q 819 25 488 141 
L 488 750 
Q 750 597 1062 519 
Q 1375 441 1716 441 
Q 2309 441 2620 675 
Q 2931 909 2931 1356 
Q 2931 1769 2642 2001 
Q 2353 2234 1838 2234 
L 1294 2234 
L 1294 2753 
L 1863 2753 
Q 2328 2753 2575 2939 
Q 2822 3125 2822 3475 
Q 2822 3834 2567 4026 
Q 2313 4219 1838 4219 
Q 1578 4219 1281 4162 
Q 984 4106 628 3988 
L 628 4550 
Q 988 4650 1302 4700 
Q 1616 4750 1894 4750 
Q 2613 4750 3031 4423 
Q 3450 4097 3450 3541 
Q 3450 3153 3228 2886 
Q 3006 2619 2597 2516 
z
" transform="scale(0.015625)"/>
       </defs>
       <use xlink:href="#DejaVuSans-32"/>
       <use xlink:href="#DejaVuSans-30" x="63.623047"/>
       <use xlink:href="#DejaVuSans-32" x="127.246094"/>
       <use xlink:href="#DejaVuSans-32" x="190.869141"/>
       <use xlink:href="#DejaVuSans-2d" x="254.492188"/>
       <use xlink:href="#DejaVuSans-33" x="290.576172"/>
       <use xlink:href="#DejaVuSans-32" x="354.199219"/>
      </g>
     </g>
    </g>
    <g id="xtick_26">
     <g id="line2d_26">
      <g>
       <use xlink:href="#m3b928d1f0f" x="598.316206" y="640.8" style="stroke: #000000; stroke-width: 0.8"/>
      </g>
     </g>
    </g>
    <g id="xtick_27">
     <g id="line2d_27">
      <g>
       <use xlink:href="#m3b928d1f0f" x="613.019763" y="640.8" style="stroke: #000000; stroke-width: 0.8"/>
      </g>
     </g>
    </g>
    <g id="xtick_28">
     <g id="line2d_28">
      <g>
       <use xlink:href="#m3b928d1f0f" x="627.72332" y="640.8" style="stroke: #000000; stroke-width: 0.8"/>
      </g>
     </g>
    </g>
    <g id="xtick_29">
     <g id="line2d_29">
      <g>
       <use xlink:href="#m3b928d1f0f" x="642.426877" y="640.8" style="stroke: #000000; stroke-width: 0.8"/>
      </g>
     </g>
     <g id="text_8">
      <!-- 2022-36 -->
      <g transform="translate(621.535471 655.398438) scale(0.1 -0.1)">
       <use xlink:href="#DejaVuSans-32"/>
       <use xlink:href="#DejaVuSans-30" x="63.623047"/>
       <use xlink:href="#DejaVuSans-32" x="127.246094"/>
       <use xlink:href="#DejaVuSans-32" x="190.869141"/>
       <use xlink:href="#DejaVuSans-2d" x="254.492188"/>
       <use xlink:href="#DejaVuSans-33" x="290.576172"/>
       <use xlink:href="#DejaVuSans-36" x="354.199219"/>
      </g>
     </g>
    </g>
    <g id="xtick_30">
     <g id="line2d_30">
      <g>
       <use xlink:href="#m3b928d1f0f" x="657.130435" y="640.8" style="stroke: #000000; stroke-width: 0.8"/>
      </g>
     </g>
    </g>
    <g id="xtick_31">
     <g id="line2d_31">
      <g>
       <use xlink:href="#m3b928d1f0f" x="671.833992" y="640.8" style="stroke: #000000; stroke-width: 0.8"/>
      </g>
     </g>
    </g>
    <g id="xtick_32">
     <g id="line2d_32">
      <g>
       <use xlink:href="#m3b928d1f0f" x="686.537549" y="640.8" style="stroke: #000000; stroke-width: 0.8"/>
      </g>
     </g>
    </g>
    <g id="xtick_33">
     <g id="line2d_33">
      <g>
       <use xlink:href="#m3b928d1f0f" x="701.241107" y="640.8" style="stroke: #000000; stroke-width: 0.8"/>
      </g>
     </g>
     <g id="text_9">
      <!-- 2022-40 -->
      <g transform="translate(680.3497 655.398438) scale(0.1 -0.1)">
       <use xlink:href="#DejaVuSans-32"/>
       <use xlink:href="#DejaVuSans-30" x="63.623047"/>
       <use xlink:href="#DejaVuSans-32" x="127.246094"/>
       <use xlink:href="#DejaVuSans-32" x="190.869141"/>
       <use xlink:href="#DejaVuSans-2d" x="254.492188"/>
       <use xlink:href="#DejaVuSans-34" x="290.576172"/>
       <use xlink:href="#DejaVuSans-30" x="354.199219"/>
      </g>
     </g>
    </g>
    <g id="xtick_34">
     <g id="line2d_34">
      <g>
       <use xlink:href="#m3b928d1f0f" x="715.944664" y="640.8" style="stroke: #000000; stroke-width: 0.8"/>
      </g>
     </g>
    </g>
    <g id="xtick_35">
     <g id="line2d_35">
      <g>
       <use xlink:href="#m3b928d1f0f" x="730.648221" y="640.8" style="stroke: #000000; stroke-width: 0.8"/>
      </g>
     </g>
    </g>
    <g id="xtick_36">
     <g id="line2d_36">
      <g>
       <use xlink:href="#m3b928d1f0f" x="745.351779" y="640.8" style="stroke: #000000; stroke-width: 0.8"/>
      </g>
     </g>
    </g>
    <g id="xtick_37">
     <g id="line2d_37">
      <g>
       <use xlink:href="#m3b928d1f0f" x="760.055336" y="640.8" style="stroke: #000000; stroke-width: 0.8"/>
      </g>
     </g>
     <g id="text_10">
      <!-- 2022-44 -->
      <g transform="translate(739.16393 655.398438) scale(0.1 -0.1)">
       <use xlink:href="#DejaVuSans-32"/>
       <use xlink:href="#DejaVuSans-30" x="63.623047"/>
       <use xlink:href="#DejaVuSans-32" x="127.246094"/>
       <use xlink:href="#DejaVuSans-32" x="190.869141"/>
       <use xlink:href="#DejaVuSans-2d" x="254.492188"/>
       <use xlink:href="#DejaVuSans-34" x="290.576172"/>
       <use xlink:href="#DejaVuSans-34" x="354.199219"/>
      </g>
     </g>
    </g>
    <g id="xtick_38">
     <g id="line2d_38">
      <g>
       <use xlink:href="#m3b928d1f0f" x="774.758893" y="640.8" style="stroke: #000000; stroke-width: 0.8"/>
      </g>
     </g>
    </g>
    <g id="xtick_39">
     <g id="line2d_39">
      <g>
       <use xlink:href="#m3b928d1f0f" x="789.462451" y="640.8" style="stroke: #000000; stroke-width: 0.8"/>
      </g>
     </g>
    </g>
    <g id="xtick_40">
     <g id="line2d_40">
      <g>
       <use xlink:href="#m3b928d1f0f" x="804.166008" y="640.8" style="stroke: #000000; stroke-width: 0.8"/>
      </g>
     </g>
    </g>
    <g id="xtick_41">
     <g id="line2d_41">
      <g>
       <use xlink:href="#m3b928d1f0f" x="818.869565" y="640.8" style="stroke: #000000; stroke-width: 0.8"/>
      </g>
     </g>
     <g id="text_11">
      <!-- 2022-48 -->
      <g transform="translate(797.978159 655.398438) scale(0.1 -0.1)">
       <use xlink:href="#DejaVuSans-32"/>
       <use xlink:href="#DejaVuSans-30" x="63.623047"/>
       <use xlink:href="#DejaVuSans-32" x="127.246094"/>
       <use xlink:href="#DejaVuSans-32" x="190.869141"/>
       <use xlink:href="#DejaVuSans-2d" x="254.492188"/>
       <use xlink:href="#DejaVuSans-34" x="290.576172"/>
       <use xlink:href="#DejaVuSans-38" x="354.199219"/>
      </g>
     </g>
    </g>
    <g id="xtick_42">
     <g id="line2d_42">
      <g>
       <use xlink:href="#m3b928d1f0f" x="833.573123" y="640.8" style="stroke: #000000; stroke-width: 0.8"/>
      </g>
     </g>
    </g>
    <g id="xtick_43">
     <g id="line2d_43">
      <g>
       <use xlink:href="#m3b928d1f0f" x="848.27668" y="640.8" style="stroke: #000000; stroke-width: 0.8"/>
      </g>
     </g>
    </g>
    <g id="xtick_44">
     <g id="line2d_44">
      <g>
       <use xlink:href="#m3b928d1f0f" x="862.980237" y="640.8" style="stroke: #000000; stroke-width: 0.8"/>
      </g>
     </g>
    </g>
    <g id="xtick_45">
     <g id="line2d_45">
      <g>
       <use xlink:href="#m3b928d1f0f" x="877.683794" y="640.8" style="stroke: #000000; stroke-width: 0.8"/>
      </g>
     </g>
     <g id="text_12">
      <!-- 2022-52 -->
      <g transform="translate(856.792388 655.398438) scale(0.1 -0.1)">
       <defs>
        <path id="DejaVuSans-35" d="M 691 4666 
L 3169 4666 
L 3169 4134 
L 1269 4134 
L 1269 2991 
Q 1406 3038 1543 3061 
Q 1681 3084 1819 3084 
Q 2600 3084 3056 2656 
Q 3513 2228 3513 1497 
Q 3513 744 3044 326 
Q 2575 -91 1722 -91 
Q 1428 -91 1123 -41 
Q 819 9 494 109 
L 494 744 
Q 775 591 1075 516 
Q 1375 441 1709 441 
Q 2250 441 2565 725 
Q 2881 1009 2881 1497 
Q 2881 1984 2565 2268 
Q 2250 2553 1709 2553 
Q 1456 2553 1204 2497 
Q 953 2441 691 2322 
L 691 4666 
z
" transform="scale(0.015625)"/>
       </defs>
       <use xlink:href="#DejaVuSans-32"/>
       <use xlink:href="#DejaVuSans-30" x="63.623047"/>
       <use xlink:href="#DejaVuSans-32" x="127.246094"/>
       <use xlink:href="#DejaVuSans-32" x="190.869141"/>
       <use xlink:href="#DejaVuSans-2d" x="254.492188"/>
       <use xlink:href="#DejaVuSans-35" x="290.576172"/>
       <use xlink:href="#DejaVuSans-32" x="354.199219"/>
      </g>
     </g>
    </g>
    <g id="xtick_46">
     <g id="line2d_46">
      <g>
       <use xlink:href="#m3b928d1f0f" x="892.387352" y="640.8" style="stroke: #000000; stroke-width: 0.8"/>
      </g>
     </g>
    </g>
    <g id="xtick_47">
     <g id="line2d_47">
      <g>
       <use xlink:href="#m3b928d1f0f" x="907.090909" y="640.8" style="stroke: #000000; stroke-width: 0.8"/>
      </g>
     </g>
    </g>
    <g id="xtick_48">
     <g id="line2d_48">
      <g>
       <use xlink:href="#m3b928d1f0f" x="921.794466" y="640.8" style="stroke: #000000; stroke-width: 0.8"/>
      </g>
     </g>
    </g>
    <g id="xtick_49">
     <g id="line2d_49">
      <g>
       <use xlink:href="#m3b928d1f0f" x="936.498024" y="640.8" style="stroke: #000000; stroke-width: 0.8"/>
      </g>
     </g>
     <g id="text_13">
      <!-- 2023-04 -->
      <g transform="translate(915.606617 655.398438) scale(0.1 -0.1)">
       <use xlink:href="#DejaVuSans-32"/>
       <use xlink:href="#DejaVuSans-30" x="63.623047"/>
       <use xlink:href="#DejaVuSans-32" x="127.246094"/>
       <use xlink:href="#DejaVuSans-33" x="190.869141"/>
       <use xlink:href="#DejaVuSans-2d" x="254.492188"/>
       <use xlink:href="#DejaVuSans-30" x="290.576172"/>
       <use xlink:href="#DejaVuSans-34" x="354.199219"/>
      </g>
     </g>
    </g>
    <g id="xtick_50">
     <g id="line2d_50">
      <g>
       <use xlink:href="#m3b928d1f0f" x="951.201581" y="640.8" style="stroke: #000000; stroke-width: 0.8"/>
      </g>
     </g>
    </g>
    <g id="xtick_51">
     <g id="line2d_51">
      <g>
       <use xlink:href="#m3b928d1f0f" x="965.905138" y="640.8" style="stroke: #000000; stroke-width: 0.8"/>
      </g>
     </g>
    </g>
    <g id="xtick_52">
     <g id="line2d_52">
      <g>
       <use xlink:href="#m3b928d1f0f" x="980.608696" y="640.8" style="stroke: #000000; stroke-width: 0.8"/>
      </g>
     </g>
    </g>
    <g id="xtick_53">
     <g id="line2d_53">
      <g>
       <use xlink:href="#m3b928d1f0f" x="995.312253" y="640.8" style="stroke: #000000; stroke-width: 0.8"/>
      </g>
     </g>
     <g id="text_14">
      <!-- 2023-08 -->
      <g transform="translate(974.420847 655.398438) scale(0.1 -0.1)">
       <use xlink:href="#DejaVuSans-32"/>
       <use xlink:href="#DejaVuSans-30" x="63.623047"/>
       <use xlink:href="#DejaVuSans-32" x="127.246094"/>
       <use xlink:href="#DejaVuSans-33" x="190.869141"/>
       <use xlink:href="#DejaVuSans-2d" x="254.492188"/>
       <use xlink:href="#DejaVuSans-30" x="290.576172"/>
       <use xlink:href="#DejaVuSans-38" x="354.199219"/>
      </g>
     </g>
    </g>
    <g id="xtick_54">
     <g id="line2d_54">
      <g>
       <use xlink:href="#m3b928d1f0f" x="1010.01581" y="640.8" style="stroke: #000000; stroke-width: 0.8"/>
      </g>
     </g>
    </g>
    <g id="xtick_55">
     <g id="line2d_55">
      <g>
       <use xlink:href="#m3b928d1f0f" x="1024.719368" y="640.8" style="stroke: #000000; stroke-width: 0.8"/>
      </g>
     </g>
    </g>
    <g id="xtick_56">
     <g id="line2d_56">
      <g>
       <use xlink:href="#m3b928d1f0f" x="1039.422925" y="640.8" style="stroke: #000000; stroke-width: 0.8"/>
      </g>
     </g>
    </g>
    <g id="xtick_57">
     <g id="line2d_57">
      <g>
       <use xlink:href="#m3b928d1f0f" x="1054.126482" y="640.8" style="stroke: #000000; stroke-width: 0.8"/>
      </g>
     </g>
     <g id="text_15">
      <!-- 2023-12 -->
      <g transform="translate(1033.235076 655.398438) scale(0.1 -0.1)">
       <use xlink:href="#DejaVuSans-32"/>
       <use xlink:href="#DejaVuSans-30" x="63.623047"/>
       <use xlink:href="#DejaVuSans-32" x="127.246094"/>
       <use xlink:href="#DejaVuSans-33" x="190.869141"/>
       <use xlink:href="#DejaVuSans-2d" x="254.492188"/>
       <use xlink:href="#DejaVuSans-31" x="290.576172"/>
       <use xlink:href="#DejaVuSans-32" x="354.199219"/>
      </g>
     </g>
    </g>
    <g id="xtick_58">
     <g id="line2d_58">
      <g>
       <use xlink:href="#m3b928d1f0f" x="1068.83004" y="640.8" style="stroke: #000000; stroke-width: 0.8"/>
      </g>
     </g>
    </g>
    <g id="xtick_59">
     <g id="line2d_59">
      <g>
       <use xlink:href="#m3b928d1f0f" x="1083.533597" y="640.8" style="stroke: #000000; stroke-width: 0.8"/>
      </g>
     </g>
    </g>
    <g id="xtick_60">
     <g id="line2d_60">
      <g>
       <use xlink:href="#m3b928d1f0f" x="1098.237154" y="640.8" style="stroke: #000000; stroke-width: 0.8"/>
      </g>
     </g>
    </g>
    <g id="xtick_61">
     <g id="line2d_61">
      <g>
       <use xlink:href="#m3b928d1f0f" x="1112.940711" y="640.8" style="stroke: #000000; stroke-width: 0.8"/>
      </g>
     </g>
     <g id="text_16">
      <!-- 2023-16 -->
      <g transform="translate(1092.049305 655.398438) scale(0.1 -0.1)">
       <use xlink:href="#DejaVuSans-32"/>
       <use xlink:href="#DejaVuSans-30" x="63.623047"/>
       <use xlink:href="#DejaVuSans-32" x="127.246094"/>
       <use xlink:href="#DejaVuSans-33" x="190.869141"/>
       <use xlink:href="#DejaVuSans-2d" x="254.492188"/>
       <use xlink:href="#DejaVuSans-31" x="290.576172"/>
       <use xlink:href="#DejaVuSans-36" x="354.199219"/>
      </g>
     </g>
    </g>
    <g id="xtick_62">
     <g id="line2d_62">
      <g>
       <use xlink:href="#m3b928d1f0f" x="1127.644269" y="640.8" style="stroke: #000000; stroke-width: 0.8"/>
      </g>
     </g>
    </g>
    <g id="xtick_63">
     <g id="line2d_63">
      <g>
       <use xlink:href="#m3b928d1f0f" x="1142.347826" y="640.8" style="stroke: #000000; stroke-width: 0.8"/>
      </g>
     </g>
    </g>
    <g id="xtick_64">
     <g id="line2d_64">
      <g>
       <use xlink:href="#m3b928d1f0f" x="1157.051383" y="640.8" style="stroke: #000000; stroke-width: 0.8"/>
      </g>
     </g>
    </g>
    <g id="xtick_65">
     <g id="line2d_65">
      <g>
       <use xlink:href="#m3b928d1f0f" x="1171.754941" y="640.8" style="stroke: #000000; stroke-width: 0.8"/>
      </g>
     </g>
     <g id="text_17">
      <!-- 2023-20 -->
      <g transform="translate(1150.863534 655.398438) scale(0.1 -0.1)">
       <use xlink:href="#DejaVuSans-32"/>
       <use xlink:href="#DejaVuSans-30" x="63.623047"/>
       <use xlink:href="#DejaVuSans-32" x="127.246094"/>
       <use xlink:href="#DejaVuSans-33" x="190.869141"/>
       <use xlink:href="#DejaVuSans-2d" x="254.492188"/>
       <use xlink:href="#DejaVuSans-32" x="290.576172"/>
       <use xlink:href="#DejaVuSans-30" x="354.199219"/>
      </g>
     </g>
    </g>
    <g id="xtick_66">
     <g id="line2d_66">
      <g>
       <use xlink:href="#m3b928d1f0f" x="1186.458498" y="640.8" style="stroke: #000000; stroke-width: 0.8"/>
      </g>
     </g>
    </g>
    <g id="xtick_67">
     <g id="line2d_67">
      <g>
       <use xlink:href="#m3b928d1f0f" x="1201.162055" y="640.8" style="stroke: #000000; stroke-width: 0.8"/>
      </g>
     </g>
    </g>
    <g id="xtick_68">
     <g id="line2d_68">
      <g>
       <use xlink:href="#m3b928d1f0f" x="1215.865613" y="640.8" style="stroke: #000000; stroke-width: 0.8"/>
      </g>
     </g>
    </g>
    <g id="xtick_69">
     <g id="line2d_69">
      <g>
       <use xlink:href="#m3b928d1f0f" x="1230.56917" y="640.8" style="stroke: #000000; stroke-width: 0.8"/>
      </g>
     </g>
     <g id="text_18">
      <!-- 2023-24 -->
      <g transform="translate(1209.677764 655.398438) scale(0.1 -0.1)">
       <use xlink:href="#DejaVuSans-32"/>
       <use xlink:href="#DejaVuSans-30" x="63.623047"/>
       <use xlink:href="#DejaVuSans-32" x="127.246094"/>
       <use xlink:href="#DejaVuSans-33" x="190.869141"/>
       <use xlink:href="#DejaVuSans-2d" x="254.492188"/>
       <use xlink:href="#DejaVuSans-32" x="290.576172"/>
       <use xlink:href="#DejaVuSans-34" x="354.199219"/>
      </g>
     </g>
    </g>
    <g id="xtick_70">
     <g id="line2d_70">
      <g>
       <use xlink:href="#m3b928d1f0f" x="1245.272727" y="640.8" style="stroke: #000000; stroke-width: 0.8"/>
      </g>
     </g>
    </g>
    <g id="text_19">
     <!-- Week -->
     <g transform="translate(724.301563 669.076563) scale(0.1 -0.1)">
      <defs>
       <path id="DejaVuSans-57" d="M 213 4666 
L 850 4666 
L 1831 722 
L 2809 4666 
L 3519 4666 
L 4500 722 
L 5478 4666 
L 6119 4666 
L 4947 0 
L 4153 0 
L 3169 4050 
L 2175 0 
L 1381 0 
L 213 4666 
z
" transform="scale(0.015625)"/>
       <path id="DejaVuSans-65" d="M 3597 1894 
L 3597 1613 
L 953 1613 
Q 991 1019 1311 708 
Q 1631 397 2203 397 
Q 2534 397 2845 478 
Q 3156 559 3463 722 
L 3463 178 
Q 3153 47 2828 -22 
Q 2503 -91 2169 -91 
Q 1331 -91 842 396 
Q 353 884 353 1716 
Q 353 2575 817 3079 
Q 1281 3584 2069 3584 
Q 2775 3584 3186 3129 
Q 3597 2675 3597 1894 
z
M 3022 2063 
Q 3016 2534 2758 2815 
Q 2500 3097 2075 3097 
Q 1594 3097 1305 2825 
Q 1016 2553 972 2059 
L 3022 2063 
z
" transform="scale(0.015625)"/>
       <path id="DejaVuSans-6b" d="M 581 4863 
L 1159 4863 
L 1159 1991 
L 2875 3500 
L 3609 3500 
L 1753 1863 
L 3688 0 
L 2938 0 
L 1159 1709 
L 1159 0 
L 581 0 
L 581 4863 
z
" transform="scale(0.015625)"/>
      </defs>
      <use xlink:href="#DejaVuSans-57"/>
      <use xlink:href="#DejaVuSans-65" x="93.001953"/>
      <use xlink:href="#DejaVuSans-65" x="154.525391"/>
      <use xlink:href="#DejaVuSans-6b" x="216.048828"/>
     </g>
    </g>
   </g>
   <g id="matplotlib.axis_2">
    <g id="ytick_1">
     <g id="line2d_71">
      <defs>
       <path id="m2fdc301020" d="M 0 0 
L -3.5 0 
" style="stroke: #000000; stroke-width: 0.8"/>
      </defs>
      <g>
       <use xlink:href="#m2fdc301020" x="180" y="640.8" style="stroke: #000000; stroke-width: 0.8"/>
      </g>
     </g>
     <g id="text_20">
      <!-- 0.0 -->
      <g transform="translate(157.096875 644.599219) scale(0.1 -0.1)">
       <defs>
        <path id="DejaVuSans-2e" d="M 684 794 
L 1344 794 
L 1344 0 
L 684 0 
L 684 794 
z
" transform="scale(0.015625)"/>
       </defs>
       <use xlink:href="#DejaVuSans-30"/>
       <use xlink:href="#DejaVuSans-2e" x="63.623047"/>
       <use xlink:href="#DejaVuSans-30" x="95.410156"/>
      </g>
     </g>
    </g>
    <g id="ytick_2">
     <g id="line2d_72">
      <g>
       <use xlink:href="#m2fdc301020" x="180" y="560.834482" style="stroke: #000000; stroke-width: 0.8"/>
      </g>
     </g>
     <g id="text_21">
      <!-- 0.5 -->
      <g transform="translate(157.096875 564.633701) scale(0.1 -0.1)">
       <use xlink:href="#DejaVuSans-30"/>
       <use xlink:href="#DejaVuSans-2e" x="63.623047"/>
       <use xlink:href="#DejaVuSans-35" x="95.410156"/>
      </g>
     </g>
    </g>
    <g id="ytick_3">
     <g id="line2d_73">
      <g>
       <use xlink:href="#m2fdc301020" x="180" y="480.868964" style="stroke: #000000; stroke-width: 0.8"/>
      </g>
     </g>
     <g id="text_22">
      <!-- 1.0 -->
      <g transform="translate(157.096875 484.668183) scale(0.1 -0.1)">
       <use xlink:href="#DejaVuSans-31"/>
       <use xlink:href="#DejaVuSans-2e" x="63.623047"/>
       <use xlink:href="#DejaVuSans-30" x="95.410156"/>
      </g>
     </g>
    </g>
    <g id="ytick_4">
     <g id="line2d_74">
      <g>
       <use xlink:href="#m2fdc301020" x="180" y="400.903446" style="stroke: #000000; stroke-width: 0.8"/>
      </g>
     </g>
     <g id="text_23">
      <!-- 1.5 -->
      <g transform="translate(157.096875 404.702665) scale(0.1 -0.1)">
       <use xlink:href="#DejaVuSans-31"/>
       <use xlink:href="#DejaVuSans-2e" x="63.623047"/>
       <use xlink:href="#DejaVuSans-35" x="95.410156"/>
      </g>
     </g>
    </g>
    <g id="ytick_5">
     <g id="line2d_75">
      <g>
       <use xlink:href="#m2fdc301020" x="180" y="320.937928" style="stroke: #000000; stroke-width: 0.8"/>
      </g>
     </g>
     <g id="text_24">
      <!-- 2.0 -->
      <g transform="translate(157.096875 324.737147) scale(0.1 -0.1)">
       <use xlink:href="#DejaVuSans-32"/>
       <use xlink:href="#DejaVuSans-2e" x="63.623047"/>
       <use xlink:href="#DejaVuSans-30" x="95.410156"/>
      </g>
     </g>
    </g>
    <g id="ytick_6">
     <g id="line2d_76">
      <g>
       <use xlink:href="#m2fdc301020" x="180" y="240.972411" style="stroke: #000000; stroke-width: 0.8"/>
      </g>
     </g>
     <g id="text_25">
      <!-- 2.5 -->
      <g transform="translate(157.096875 244.771629) scale(0.1 -0.1)">
       <use xlink:href="#DejaVuSans-32"/>
       <use xlink:href="#DejaVuSans-2e" x="63.623047"/>
       <use xlink:href="#DejaVuSans-35" x="95.410156"/>
      </g>
     </g>
    </g>
    <g id="ytick_7">
     <g id="line2d_77">
      <g>
       <use xlink:href="#m2fdc301020" x="180" y="161.006893" style="stroke: #000000; stroke-width: 0.8"/>
      </g>
     </g>
     <g id="text_26">
      <!-- 3.0 -->
      <g transform="translate(157.096875 164.806111) scale(0.1 -0.1)">
       <use xlink:href="#DejaVuSans-33"/>
       <use xlink:href="#DejaVuSans-2e" x="63.623047"/>
       <use xlink:href="#DejaVuSans-30" x="95.410156"/>
      </g>
     </g>
    </g>
    <g id="text_27">
     <!-- Number of Tweets per Week in Million -->
     <g transform="translate(151.017188 457.736719) rotate(-90) scale(0.1 -0.1)">
      <defs>
       <path id="DejaVuSans-4e" d="M 628 4666 
L 1478 4666 
L 3547 763 
L 3547 4666 
L 4159 4666 
L 4159 0 
L 3309 0 
L 1241 3903 
L 1241 0 
L 628 0 
L 628 4666 
z
" transform="scale(0.015625)"/>
       <path id="DejaVuSans-75" d="M 544 1381 
L 544 3500 
L 1119 3500 
L 1119 1403 
Q 1119 906 1312 657 
Q 1506 409 1894 409 
Q 2359 409 2629 706 
Q 2900 1003 2900 1516 
L 2900 3500 
L 3475 3500 
L 3475 0 
L 2900 0 
L 2900 538 
Q 2691 219 2414 64 
Q 2138 -91 1772 -91 
Q 1169 -91 856 284 
Q 544 659 544 1381 
z
M 1991 3584 
L 1991 3584 
z
" transform="scale(0.015625)"/>
       <path id="DejaVuSans-6d" d="M 3328 2828 
Q 3544 3216 3844 3400 
Q 4144 3584 4550 3584 
Q 5097 3584 5394 3201 
Q 5691 2819 5691 2113 
L 5691 0 
L 5113 0 
L 5113 2094 
Q 5113 2597 4934 2840 
Q 4756 3084 4391 3084 
Q 3944 3084 3684 2787 
Q 3425 2491 3425 1978 
L 3425 0 
L 2847 0 
L 2847 2094 
Q 2847 2600 2669 2842 
Q 2491 3084 2119 3084 
Q 1678 3084 1418 2786 
Q 1159 2488 1159 1978 
L 1159 0 
L 581 0 
L 581 3500 
L 1159 3500 
L 1159 2956 
Q 1356 3278 1631 3431 
Q 1906 3584 2284 3584 
Q 2666 3584 2933 3390 
Q 3200 3197 3328 2828 
z
" transform="scale(0.015625)"/>
       <path id="DejaVuSans-62" d="M 3116 1747 
Q 3116 2381 2855 2742 
Q 2594 3103 2138 3103 
Q 1681 3103 1420 2742 
Q 1159 2381 1159 1747 
Q 1159 1113 1420 752 
Q 1681 391 2138 391 
Q 2594 391 2855 752 
Q 3116 1113 3116 1747 
z
M 1159 2969 
Q 1341 3281 1617 3432 
Q 1894 3584 2278 3584 
Q 2916 3584 3314 3078 
Q 3713 2572 3713 1747 
Q 3713 922 3314 415 
Q 2916 -91 2278 -91 
Q 1894 -91 1617 61 
Q 1341 213 1159 525 
L 1159 0 
L 581 0 
L 581 4863 
L 1159 4863 
L 1159 2969 
z
" transform="scale(0.015625)"/>
       <path id="DejaVuSans-72" d="M 2631 2963 
Q 2534 3019 2420 3045 
Q 2306 3072 2169 3072 
Q 1681 3072 1420 2755 
Q 1159 2438 1159 1844 
L 1159 0 
L 581 0 
L 581 3500 
L 1159 3500 
L 1159 2956 
Q 1341 3275 1631 3429 
Q 1922 3584 2338 3584 
Q 2397 3584 2469 3576 
Q 2541 3569 2628 3553 
L 2631 2963 
z
" transform="scale(0.015625)"/>
       <path id="DejaVuSans-20" transform="scale(0.015625)"/>
       <path id="DejaVuSans-6f" d="M 1959 3097 
Q 1497 3097 1228 2736 
Q 959 2375 959 1747 
Q 959 1119 1226 758 
Q 1494 397 1959 397 
Q 2419 397 2687 759 
Q 2956 1122 2956 1747 
Q 2956 2369 2687 2733 
Q 2419 3097 1959 3097 
z
M 1959 3584 
Q 2709 3584 3137 3096 
Q 3566 2609 3566 1747 
Q 3566 888 3137 398 
Q 2709 -91 1959 -91 
Q 1206 -91 779 398 
Q 353 888 353 1747 
Q 353 2609 779 3096 
Q 1206 3584 1959 3584 
z
" transform="scale(0.015625)"/>
       <path id="DejaVuSans-66" d="M 2375 4863 
L 2375 4384 
L 1825 4384 
Q 1516 4384 1395 4259 
Q 1275 4134 1275 3809 
L 1275 3500 
L 2222 3500 
L 2222 3053 
L 1275 3053 
L 1275 0 
L 697 0 
L 697 3053 
L 147 3053 
L 147 3500 
L 697 3500 
L 697 3744 
Q 697 4328 969 4595 
Q 1241 4863 1831 4863 
L 2375 4863 
z
" transform="scale(0.015625)"/>
       <path id="DejaVuSans-54" d="M -19 4666 
L 3928 4666 
L 3928 4134 
L 2272 4134 
L 2272 0 
L 1638 0 
L 1638 4134 
L -19 4134 
L -19 4666 
z
" transform="scale(0.015625)"/>
       <path id="DejaVuSans-77" d="M 269 3500 
L 844 3500 
L 1563 769 
L 2278 3500 
L 2956 3500 
L 3675 769 
L 4391 3500 
L 4966 3500 
L 4050 0 
L 3372 0 
L 2619 2869 
L 1863 0 
L 1184 0 
L 269 3500 
z
" transform="scale(0.015625)"/>
       <path id="DejaVuSans-74" d="M 1172 4494 
L 1172 3500 
L 2356 3500 
L 2356 3053 
L 1172 3053 
L 1172 1153 
Q 1172 725 1289 603 
Q 1406 481 1766 481 
L 2356 481 
L 2356 0 
L 1766 0 
Q 1100 0 847 248 
Q 594 497 594 1153 
L 594 3053 
L 172 3053 
L 172 3500 
L 594 3500 
L 594 4494 
L 1172 4494 
z
" transform="scale(0.015625)"/>
       <path id="DejaVuSans-73" d="M 2834 3397 
L 2834 2853 
Q 2591 2978 2328 3040 
Q 2066 3103 1784 3103 
Q 1356 3103 1142 2972 
Q 928 2841 928 2578 
Q 928 2378 1081 2264 
Q 1234 2150 1697 2047 
L 1894 2003 
Q 2506 1872 2764 1633 
Q 3022 1394 3022 966 
Q 3022 478 2636 193 
Q 2250 -91 1575 -91 
Q 1294 -91 989 -36 
Q 684 19 347 128 
L 347 722 
Q 666 556 975 473 
Q 1284 391 1588 391 
Q 1994 391 2212 530 
Q 2431 669 2431 922 
Q 2431 1156 2273 1281 
Q 2116 1406 1581 1522 
L 1381 1569 
Q 847 1681 609 1914 
Q 372 2147 372 2553 
Q 372 3047 722 3315 
Q 1072 3584 1716 3584 
Q 2034 3584 2315 3537 
Q 2597 3491 2834 3397 
z
" transform="scale(0.015625)"/>
       <path id="DejaVuSans-70" d="M 1159 525 
L 1159 -1331 
L 581 -1331 
L 581 3500 
L 1159 3500 
L 1159 2969 
Q 1341 3281 1617 3432 
Q 1894 3584 2278 3584 
Q 2916 3584 3314 3078 
Q 3713 2572 3713 1747 
Q 3713 922 3314 415 
Q 2916 -91 2278 -91 
Q 1894 -91 1617 61 
Q 1341 213 1159 525 
z
M 3116 1747 
Q 3116 2381 2855 2742 
Q 2594 3103 2138 3103 
Q 1681 3103 1420 2742 
Q 1159 2381 1159 1747 
Q 1159 1113 1420 752 
Q 1681 391 2138 391 
Q 2594 391 2855 752 
Q 3116 1113 3116 1747 
z
" transform="scale(0.015625)"/>
       <path id="DejaVuSans-69" d="M 603 3500 
L 1178 3500 
L 1178 0 
L 603 0 
L 603 3500 
z
M 603 4863 
L 1178 4863 
L 1178 4134 
L 603 4134 
L 603 4863 
z
" transform="scale(0.015625)"/>
       <path id="DejaVuSans-6e" d="M 3513 2113 
L 3513 0 
L 2938 0 
L 2938 2094 
Q 2938 2591 2744 2837 
Q 2550 3084 2163 3084 
Q 1697 3084 1428 2787 
Q 1159 2491 1159 1978 
L 1159 0 
L 581 0 
L 581 3500 
L 1159 3500 
L 1159 2956 
Q 1366 3272 1645 3428 
Q 1925 3584 2291 3584 
Q 2894 3584 3203 3211 
Q 3513 2838 3513 2113 
z
" transform="scale(0.015625)"/>
       <path id="DejaVuSans-4d" d="M 628 4666 
L 1569 4666 
L 2759 1491 
L 3956 4666 
L 4897 4666 
L 4897 0 
L 4281 0 
L 4281 4097 
L 3078 897 
L 2444 897 
L 1241 4097 
L 1241 0 
L 628 0 
L 628 4666 
z
" transform="scale(0.015625)"/>
       <path id="DejaVuSans-6c" d="M 603 4863 
L 1178 4863 
L 1178 0 
L 603 0 
L 603 4863 
z
" transform="scale(0.015625)"/>
      </defs>
      <use xlink:href="#DejaVuSans-4e"/>
      <use xlink:href="#DejaVuSans-75" x="74.804688"/>
      <use xlink:href="#DejaVuSans-6d" x="138.183594"/>
      <use xlink:href="#DejaVuSans-62" x="235.595703"/>
      <use xlink:href="#DejaVuSans-65" x="299.072266"/>
      <use xlink:href="#DejaVuSans-72" x="360.595703"/>
      <use xlink:href="#DejaVuSans-20" x="401.708984"/>
      <use xlink:href="#DejaVuSans-6f" x="433.496094"/>
      <use xlink:href="#DejaVuSans-66" x="494.677734"/>
      <use xlink:href="#DejaVuSans-20" x="529.882812"/>
      <use xlink:href="#DejaVuSans-54" x="561.669922"/>
      <use xlink:href="#DejaVuSans-77" x="606.253906"/>
      <use xlink:href="#DejaVuSans-65" x="688.041016"/>
      <use xlink:href="#DejaVuSans-65" x="749.564453"/>
      <use xlink:href="#DejaVuSans-74" x="811.087891"/>
      <use xlink:href="#DejaVuSans-73" x="850.296875"/>
      <use xlink:href="#DejaVuSans-20" x="902.396484"/>
      <use xlink:href="#DejaVuSans-70" x="934.183594"/>
      <use xlink:href="#DejaVuSans-65" x="997.660156"/>
      <use xlink:href="#DejaVuSans-72" x="1059.183594"/>
      <use xlink:href="#DejaVuSans-20" x="1100.296875"/>
      <use xlink:href="#DejaVuSans-57" x="1132.083984"/>
      <use xlink:href="#DejaVuSans-65" x="1225.085938"/>
      <use xlink:href="#DejaVuSans-65" x="1286.609375"/>
      <use xlink:href="#DejaVuSans-6b" x="1348.132812"/>
      <use xlink:href="#DejaVuSans-20" x="1406.042969"/>
      <use xlink:href="#DejaVuSans-69" x="1437.830078"/>
      <use xlink:href="#DejaVuSans-6e" x="1465.613281"/>
      <use xlink:href="#DejaVuSans-20" x="1528.992188"/>
      <use xlink:href="#DejaVuSans-4d" x="1560.779297"/>
      <use xlink:href="#DejaVuSans-69" x="1647.058594"/>
      <use xlink:href="#DejaVuSans-6c" x="1674.841797"/>
      <use xlink:href="#DejaVuSans-6c" x="1702.625"/>
      <use xlink:href="#DejaVuSans-69" x="1730.408203"/>
      <use xlink:href="#DejaVuSans-6f" x="1758.191406"/>
      <use xlink:href="#DejaVuSans-6e" x="1819.373047"/>
     </g>
    </g>
    <g id="text_28">
     <!-- 1e6 -->
     <g transform="translate(180 83.4) scale(0.1 -0.1)">
      <use xlink:href="#DejaVuSans-31"/>
      <use xlink:href="#DejaVuSans-65" x="63.623047"/>
      <use xlink:href="#DejaVuSans-36" x="125.146484"/>
     </g>
    </g>
   </g>
   <g id="patch_3">
    <path d="M 180 640.8 
L 180 86.4 
" style="fill: none; stroke: #000000; stroke-width: 0.8; stroke-linejoin: miter; stroke-linecap: square"/>
   </g>
   <g id="patch_4">
    <path d="M 1296 640.8 
L 1296 86.4 
" style="fill: none; stroke: #000000; stroke-width: 0.8; stroke-linejoin: miter; stroke-linecap: square"/>
   </g>
   <g id="patch_5">
    <path d="M 180 640.8 
L 1296 640.8 
" style="fill: none; stroke: #000000; stroke-width: 0.8; stroke-linejoin: miter; stroke-linecap: square"/>
   </g>
   <g id="patch_6">
    <path d="M 180 86.4 
L 1296 86.4 
" style="fill: none; stroke: #000000; stroke-width: 0.8; stroke-linejoin: miter; stroke-linecap: square"/>
   </g>
   <g id="text_29">
    <!-- Number of Tweets in Dataset by Language per Week -->
    <g transform="translate(580.0725 80.4) scale(0.12 -0.12)">
     <defs>
      <path id="DejaVuSans-44" d="M 1259 4147 
L 1259 519 
L 2022 519 
Q 2988 519 3436 956 
Q 3884 1394 3884 2338 
Q 3884 3275 3436 3711 
Q 2988 4147 2022 4147 
L 1259 4147 
z
M 628 4666 
L 1925 4666 
Q 3281 4666 3915 4102 
Q 4550 3538 4550 2338 
Q 4550 1131 3912 565 
Q 3275 0 1925 0 
L 628 0 
L 628 4666 
z
" transform="scale(0.015625)"/>
      <path id="DejaVuSans-61" d="M 2194 1759 
Q 1497 1759 1228 1600 
Q 959 1441 959 1056 
Q 959 750 1161 570 
Q 1363 391 1709 391 
Q 2188 391 2477 730 
Q 2766 1069 2766 1631 
L 2766 1759 
L 2194 1759 
z
M 3341 1997 
L 3341 0 
L 2766 0 
L 2766 531 
Q 2569 213 2275 61 
Q 1981 -91 1556 -91 
Q 1019 -91 701 211 
Q 384 513 384 1019 
Q 384 1609 779 1909 
Q 1175 2209 1959 2209 
L 2766 2209 
L 2766 2266 
Q 2766 2663 2505 2880 
Q 2244 3097 1772 3097 
Q 1472 3097 1187 3025 
Q 903 2953 641 2809 
L 641 3341 
Q 956 3463 1253 3523 
Q 1550 3584 1831 3584 
Q 2591 3584 2966 3190 
Q 3341 2797 3341 1997 
z
" transform="scale(0.015625)"/>
      <path id="DejaVuSans-79" d="M 2059 -325 
Q 1816 -950 1584 -1140 
Q 1353 -1331 966 -1331 
L 506 -1331 
L 506 -850 
L 844 -850 
Q 1081 -850 1212 -737 
Q 1344 -625 1503 -206 
L 1606 56 
L 191 3500 
L 800 3500 
L 1894 763 
L 2988 3500 
L 3597 3500 
L 2059 -325 
z
" transform="scale(0.015625)"/>
      <path id="DejaVuSans-4c" d="M 628 4666 
L 1259 4666 
L 1259 531 
L 3531 531 
L 3531 0 
L 628 0 
L 628 4666 
z
" transform="scale(0.015625)"/>
      <path id="DejaVuSans-67" d="M 2906 1791 
Q 2906 2416 2648 2759 
Q 2391 3103 1925 3103 
Q 1463 3103 1205 2759 
Q 947 2416 947 1791 
Q 947 1169 1205 825 
Q 1463 481 1925 481 
Q 2391 481 2648 825 
Q 2906 1169 2906 1791 
z
M 3481 434 
Q 3481 -459 3084 -895 
Q 2688 -1331 1869 -1331 
Q 1566 -1331 1297 -1286 
Q 1028 -1241 775 -1147 
L 775 -588 
Q 1028 -725 1275 -790 
Q 1522 -856 1778 -856 
Q 2344 -856 2625 -561 
Q 2906 -266 2906 331 
L 2906 616 
Q 2728 306 2450 153 
Q 2172 0 1784 0 
Q 1141 0 747 490 
Q 353 981 353 1791 
Q 353 2603 747 3093 
Q 1141 3584 1784 3584 
Q 2172 3584 2450 3431 
Q 2728 3278 2906 2969 
L 2906 3500 
L 3481 3500 
L 3481 434 
z
" transform="scale(0.015625)"/>
     </defs>
     <use xlink:href="#DejaVuSans-4e"/>
     <use xlink:href="#DejaVuSans-75" x="74.804688"/>
     <use xlink:href="#DejaVuSans-6d" x="138.183594"/>
     <use xlink:href="#DejaVuSans-62" x="235.595703"/>
     <use xlink:href="#DejaVuSans-65" x="299.072266"/>
     <use xlink:href="#DejaVuSans-72" x="360.595703"/>
     <use xlink:href="#DejaVuSans-20" x="401.708984"/>
     <use xlink:href="#DejaVuSans-6f" x="433.496094"/>
     <use xlink:href="#DejaVuSans-66" x="494.677734"/>
     <use xlink:href="#DejaVuSans-20" x="529.882812"/>
     <use xlink:href="#DejaVuSans-54" x="561.669922"/>
     <use xlink:href="#DejaVuSans-77" x="606.253906"/>
     <use xlink:href="#DejaVuSans-65" x="688.041016"/>
     <use xlink:href="#DejaVuSans-65" x="749.564453"/>
     <use xlink:href="#DejaVuSans-74" x="811.087891"/>
     <use xlink:href="#DejaVuSans-73" x="850.296875"/>
     <use xlink:href="#DejaVuSans-20" x="902.396484"/>
     <use xlink:href="#DejaVuSans-69" x="934.183594"/>
     <use xlink:href="#DejaVuSans-6e" x="961.966797"/>
     <use xlink:href="#DejaVuSans-20" x="1025.345703"/>
     <use xlink:href="#DejaVuSans-44" x="1057.132812"/>
     <use xlink:href="#DejaVuSans-61" x="1134.134766"/>
     <use xlink:href="#DejaVuSans-74" x="1195.414062"/>
     <use xlink:href="#DejaVuSans-61" x="1234.623047"/>
     <use xlink:href="#DejaVuSans-73" x="1295.902344"/>
     <use xlink:href="#DejaVuSans-65" x="1348.001953"/>
     <use xlink:href="#DejaVuSans-74" x="1409.525391"/>
     <use xlink:href="#DejaVuSans-20" x="1448.734375"/>
     <use xlink:href="#DejaVuSans-62" x="1480.521484"/>
     <use xlink:href="#DejaVuSans-79" x="1543.998047"/>
     <use xlink:href="#DejaVuSans-20" x="1603.177734"/>
     <use xlink:href="#DejaVuSans-4c" x="1634.964844"/>
     <use xlink:href="#DejaVuSans-61" x="1690.677734"/>
     <use xlink:href="#DejaVuSans-6e" x="1751.957031"/>
     <use xlink:href="#DejaVuSans-67" x="1815.335938"/>
     <use xlink:href="#DejaVuSans-75" x="1878.8125"/>
     <use xlink:href="#DejaVuSans-61" x="1942.191406"/>
     <use xlink:href="#DejaVuSans-67" x="2003.470703"/>
     <use xlink:href="#DejaVuSans-65" x="2066.947266"/>
     <use xlink:href="#DejaVuSans-20" x="2128.470703"/>
     <use xlink:href="#DejaVuSans-70" x="2160.257812"/>
     <use xlink:href="#DejaVuSans-65" x="2223.734375"/>
     <use xlink:href="#DejaVuSans-72" x="2285.257812"/>
     <use xlink:href="#DejaVuSans-20" x="2326.371094"/>
     <use xlink:href="#DejaVuSans-57" x="2358.158203"/>
     <use xlink:href="#DejaVuSans-65" x="2451.160156"/>
     <use xlink:href="#DejaVuSans-65" x="2512.683594"/>
     <use xlink:href="#DejaVuSans-6b" x="2574.207031"/>
    </g>
   </g>
   <g id="legend_1">
    <g id="patch_7">
     <path d="M 187 211.825 
L 250.85 211.825 
Q 252.85 211.825 252.85 209.825 
L 252.85 93.4 
Q 252.85 91.4 250.85 91.4 
L 187 91.4 
Q 185 91.4 185 93.4 
L 185 209.825 
Q 185 211.825 187 211.825 
z
" style="fill: #ffffff; opacity: 0.8; stroke: #cccccc; stroke-linejoin: miter"/>
    </g>
    <g id="patch_8">
     <path d="M 189 102.998437 
L 209 102.998437 
L 209 95.998437 
L 189 95.998437 
z
" style="fill: #1f77b4; fill-opacity: 0.8"/>
    </g>
    <g id="text_30">
     <!-- en -->
     <g transform="translate(217 102.998437) scale(0.1 -0.1)">
      <use xlink:href="#DejaVuSans-65"/>
      <use xlink:href="#DejaVuSans-6e" x="61.523438"/>
     </g>
    </g>
    <g id="patch_9">
     <path d="M 189 117.676562 
L 209 117.676562 
L 209 110.676562 
L 189 110.676562 
z
" style="fill: #ff7f0e; fill-opacity: 0.8"/>
    </g>
    <g id="text_31">
     <!-- de -->
     <g transform="translate(217 117.676562) scale(0.1 -0.1)">
      <defs>
       <path id="DejaVuSans-64" d="M 2906 2969 
L 2906 4863 
L 3481 4863 
L 3481 0 
L 2906 0 
L 2906 525 
Q 2725 213 2448 61 
Q 2172 -91 1784 -91 
Q 1150 -91 751 415 
Q 353 922 353 1747 
Q 353 2572 751 3078 
Q 1150 3584 1784 3584 
Q 2172 3584 2448 3432 
Q 2725 3281 2906 2969 
z
M 947 1747 
Q 947 1113 1208 752 
Q 1469 391 1925 391 
Q 2381 391 2643 752 
Q 2906 1113 2906 1747 
Q 2906 2381 2643 2742 
Q 2381 3103 1925 3103 
Q 1469 3103 1208 2742 
Q 947 2381 947 1747 
z
" transform="scale(0.015625)"/>
      </defs>
      <use xlink:href="#DejaVuSans-64"/>
      <use xlink:href="#DejaVuSans-65" x="63.476562"/>
     </g>
    </g>
    <g id="patch_10">
     <path d="M 189 132.354687 
L 209 132.354687 
L 209 125.354687 
L 189 125.354687 
z
" style="fill: #2ca02c; fill-opacity: 0.8"/>
    </g>
    <g id="text_32">
     <!-- fr -->
     <g transform="translate(217 132.354687) scale(0.1 -0.1)">
      <use xlink:href="#DejaVuSans-66"/>
      <use xlink:href="#DejaVuSans-72" x="35.205078"/>
     </g>
    </g>
    <g id="patch_11">
     <path d="M 189 147.032812 
L 209 147.032812 
L 209 140.032812 
L 189 140.032812 
z
" style="fill: #d62728; fill-opacity: 0.8"/>
    </g>
    <g id="text_33">
     <!-- it -->
     <g transform="translate(217 147.032812) scale(0.1 -0.1)">
      <use xlink:href="#DejaVuSans-69"/>
      <use xlink:href="#DejaVuSans-74" x="27.783203"/>
     </g>
    </g>
    <g id="patch_12">
     <path d="M 189 161.710937 
L 209 161.710937 
L 209 154.710937 
L 189 154.710937 
z
" style="fill: #9467bd; fill-opacity: 0.8"/>
    </g>
    <g id="text_34">
     <!-- es -->
     <g transform="translate(217 161.710937) scale(0.1 -0.1)">
      <use xlink:href="#DejaVuSans-65"/>
      <use xlink:href="#DejaVuSans-73" x="61.523438"/>
     </g>
    </g>
    <g id="patch_13">
     <path d="M 189 176.389062 
L 209 176.389062 
L 209 169.389062 
L 189 169.389062 
z
" style="fill: #8c564b; fill-opacity: 0.8"/>
    </g>
    <g id="text_35">
     <!-- uk -->
     <g transform="translate(217 176.389062) scale(0.1 -0.1)">
      <use xlink:href="#DejaVuSans-75"/>
      <use xlink:href="#DejaVuSans-6b" x="63.378906"/>
     </g>
    </g>
    <g id="patch_14">
     <path d="M 189 191.067187 
L 209 191.067187 
L 209 184.067187 
L 189 184.067187 
z
" style="fill: #e377c2; fill-opacity: 0.8"/>
    </g>
    <g id="text_36">
     <!-- ru -->
     <g transform="translate(217 191.067187) scale(0.1 -0.1)">
      <use xlink:href="#DejaVuSans-72"/>
      <use xlink:href="#DejaVuSans-75" x="41.113281"/>
     </g>
    </g>
    <g id="patch_15">
     <path d="M 189 205.745312 
L 209 205.745312 
L 209 198.745312 
L 189 198.745312 
z
" style="fill: #7f7f7f; fill-opacity: 0.8"/>
    </g>
    <g id="text_37">
     <!-- others -->
     <g transform="translate(217 205.745312) scale(0.1 -0.1)">
      <defs>
       <path id="DejaVuSans-68" d="M 3513 2113 
L 3513 0 
L 2938 0 
L 2938 2094 
Q 2938 2591 2744 2837 
Q 2550 3084 2163 3084 
Q 1697 3084 1428 2787 
Q 1159 2491 1159 1978 
L 1159 0 
L 581 0 
L 581 4863 
L 1159 4863 
L 1159 2956 
Q 1366 3272 1645 3428 
Q 1925 3584 2291 3584 
Q 2894 3584 3203 3211 
Q 3513 2838 3513 2113 
z
" transform="scale(0.015625)"/>
      </defs>
      <use xlink:href="#DejaVuSans-6f"/>
      <use xlink:href="#DejaVuSans-74" x="61.181641"/>
      <use xlink:href="#DejaVuSans-68" x="100.390625"/>
      <use xlink:href="#DejaVuSans-65" x="163.769531"/>
      <use xlink:href="#DejaVuSans-72" x="225.292969"/>
      <use xlink:href="#DejaVuSans-73" x="266.40625"/>
     </g>
    </g>
   </g>
  </g>
 </g>
 <defs>
  <clipPath id="pb208488320">
   <rect x="180" y="86.4" width="1116" height="554.4"/>
  </clipPath>
 </defs>
</svg>
